<svg width="76" height="76" viewBox="0 0 76 76" fill="none" xmlns="http://www.w3.org/2000/svg">
<circle cx="38" cy="38" r="38" fill="white"/>
<path d="M51.6484 52.98V49.6489C51.6484 47.882 50.9465 46.1875 49.6971 44.9381C48.4478 43.6887 46.7532 42.9868 44.9863 42.9868H31.6621C29.8952 42.9868 28.2007 43.6887 26.9513 44.9381C25.7019 46.1875 25 47.882 25 49.6489V52.98" fill="white"/>
<path d="M51.6484 52.98V49.6489C51.6484 47.882 50.9465 46.1875 49.6971 44.9381C48.4477 43.6887 46.7532 42.9868 44.9863 42.9868H31.6621C29.8952 42.9868 28.2007 43.6887 26.9513 44.9381C25.7019 46.1875 25 47.882 25 49.6489V52.98" stroke="#407BFF" stroke-width="2.5" stroke-linecap="round" stroke-linejoin="round"/>
<path d="M38.3232 36.3242C42.0026 36.3242 44.9853 33.3415 44.9853 29.6621C44.9853 25.9827 42.0026 23 38.3232 23C34.6439 23 31.6611 25.9827 31.6611 29.6621C31.6611 33.3415 34.6439 36.3242 38.3232 36.3242Z" fill="white" stroke="#407BFF" stroke-width="2.5" stroke-linecap="round" stroke-linejoin="round"/>
</svg>
