<svg width="76" height="76" viewBox="0 0 76 76" fill="none" xmlns="http://www.w3.org/2000/svg">
<circle cx="38" cy="38" r="38" fill="white"/>
<path d="M51.9815 35.4908C51.9815 45.9836 38.4908 54.9774 38.4908 54.9774C38.4908 54.9774 25 45.9836 25 35.4908C25 31.9128 26.4213 28.4814 28.9514 25.9514C31.4814 23.4213 34.9128 22 38.4908 22C42.0687 22 45.5002 23.4213 48.0302 25.9514C50.5602 28.4814 51.9815 31.9128 51.9815 35.4908Z" fill="white" stroke="#407BFF" stroke-width="2.5" stroke-linecap="round" stroke-linejoin="round"/>
<path d="M38.4911 39.988C40.9746 39.988 42.988 37.9746 42.988 35.4911C42.988 33.0075 40.9746 30.9941 38.4911 30.9941C36.0075 30.9941 33.9941 33.0075 33.9941 35.4911C33.9941 37.9746 36.0075 39.988 38.4911 39.988Z" fill="white" stroke="#407BFF" stroke-width="2.5" stroke-linecap="round" stroke-linejoin="round"/>
</svg>
