<svg width="76" height="76" viewBox="0 0 76 76" fill="none" xmlns="http://www.w3.org/2000/svg">
<circle cx="38" cy="38" r="38" fill="white"/>
<path d="M52.9795 48.9836C52.9795 49.7787 52.6636 50.5412 52.1014 51.1034C51.5392 51.6657 50.7766 51.9815 49.9815 51.9815H25.9979C25.2028 51.9815 24.4403 51.6657 23.8781 51.1034C23.3159 50.5412 23 49.7787 23 48.9836V27.9979C23 27.2028 23.3159 26.4403 23.8781 25.8781C24.4403 25.3159 25.2028 25 25.9979 25H33.4928L36.4908 29.4969H49.9815C50.7766 29.4969 51.5392 29.8128 52.1014 30.375C52.6636 30.9372 52.9795 31.6998 52.9795 32.4949V48.9836Z" fill="white" stroke="#407BFF" stroke-width="2.5" stroke-linecap="round" stroke-linejoin="round"/>
</svg>
