<svg width="19" height="18" viewBox="0 0 19 18" fill="none" xmlns="http://www.w3.org/2000/svg">
<path d="M1.86505 7.68741C1.23586 7.68741 0.725806 8.19747 0.725806 8.82666C0.725806 9.45585 1.23586 9.96591 1.86505 9.96591L1.86505 7.68741ZM18.4094 9.63223C18.8543 9.18732 18.8543 8.46599 18.4094 8.02109L11.1593 0.770978C10.7144 0.326075 9.99309 0.326075 9.54819 0.770978C9.10328 1.21588 9.10328 1.93721 9.54819 2.38211L15.9927 8.82666L9.54819 15.2712C9.10328 15.7161 9.10328 16.4374 9.54819 16.8823C9.99309 17.3272 10.7144 17.3272 11.1593 16.8823L18.4094 9.63223ZM1.86505 9.96591L17.6039 9.9659L17.6039 7.68741L1.86505 7.68741L1.86505 9.96591Z" fill="white"/>
</svg>
