<svg width="453" height="426" viewBox="0 0 453 426" fill="none" xmlns="http://www.w3.org/2000/svg">
<path d="M112.297 249.117L111.824 248.62L114.829 245.774L115.33 246.271L112.297 249.117ZM118.308 243.37L117.835 242.872C118.809 241.933 119.782 240.938 120.756 239.943L121.257 240.413C120.283 241.408 119.309 242.403 118.308 243.37ZM124.123 237.374L123.595 236.904C124.513 235.909 125.459 234.859 126.349 233.809L126.878 234.279C125.988 235.329 125.042 236.379 124.123 237.374ZM129.577 231.101L129.049 230.659C129.911 229.609 130.802 228.532 131.636 227.426L132.193 227.841C131.33 228.946 130.468 230.051 129.577 231.101ZM134.725 224.553L134.169 224.138C135.003 223.06 135.81 221.928 136.617 220.795L137.202 221.181C136.367 222.314 135.56 223.447 134.725 224.553ZM139.567 217.783L139.01 217.396C139.789 216.254 140.55 215.102 141.292 213.942L141.876 214.329C141.116 215.489 140.346 216.641 139.567 217.783ZM177.689 213.002C176.409 213.002 175.101 212.754 173.932 212.284L174.182 211.649C175.296 212.063 176.492 212.312 177.689 212.312C177.856 212.284 177.995 212.284 178.134 212.284L178.162 212.975C177.995 212.975 177.828 212.975 177.689 213.002ZM182.308 211.814L181.946 211.206C183.115 210.543 184.061 209.604 184.729 208.443L185.341 208.775C184.617 210.046 183.56 211.096 182.308 211.814ZM144.13 210.82L143.518 210.46C144.26 209.281 144.984 208.102 145.689 206.923L146.301 207.255C145.577 208.452 144.854 209.641 144.13 210.82ZM170.426 209.852C169.48 208.858 168.701 207.642 168.116 206.26L168.756 206.012C169.313 207.31 170.036 208.443 170.927 209.383L170.426 209.852ZM186.482 204.658L185.786 204.63L185.814 204.464C185.814 203.414 185.591 202.419 185.174 201.535C185.081 201.296 184.97 201.066 184.84 200.844L185.452 200.513C185.582 200.752 185.702 200.992 185.814 201.231C186.259 202.198 186.509 203.331 186.509 204.464L186.482 204.658ZM148.666 203.939L148.109 203.47C149.028 202.419 150.029 201.397 151.087 200.485L151.532 201.01C150.502 201.894 149.529 202.889 148.666 203.939ZM167.031 202.171C166.948 201.508 166.92 200.844 166.92 200.181C166.92 199.435 166.948 198.689 167.059 197.943L167.755 198.026C167.643 198.744 167.616 199.463 167.616 200.181C167.616 200.817 167.643 201.452 167.727 202.088L167.031 202.171ZM154.843 198.606L154.482 197.998C155.678 197.28 156.93 196.644 158.238 196.064L158.516 196.7C157.236 197.252 156.012 197.888 154.843 198.606ZM182.141 197.888C181.111 197.114 179.915 196.451 178.579 195.926L178.829 195.29C180.249 195.843 181.501 196.534 182.558 197.335L182.141 197.888ZM162.412 195.373L162.217 194.71C163.581 194.323 164.972 194.047 166.363 193.881L166.447 194.572C165.083 194.738 163.72 195.014 162.412 195.373ZM174.656 194.793C173.32 194.544 171.956 194.406 170.565 194.379V193.688C172.012 193.715 173.431 193.854 174.767 194.102L174.656 194.793ZM168.729 194.102L168.061 193.881C168.534 192.555 169.146 191.284 169.897 190.068L170.482 190.427C169.786 191.615 169.174 192.831 168.729 194.102ZM172.958 187.194L172.457 186.725C172.661 186.504 172.875 186.292 173.097 186.089C173.849 185.315 174.711 184.597 175.629 183.934L176.047 184.486C175.156 185.15 174.322 185.84 173.57 186.586C173.366 186.789 173.162 186.992 172.958 187.194ZM179.553 182.386L179.247 181.751C180.499 181.143 181.835 180.618 183.17 180.204L183.365 180.867C182.057 181.281 180.777 181.779 179.553 182.386ZM187.4 179.844L187.233 179.181C188.596 178.822 189.932 178.463 191.24 178.104L191.435 178.767C190.127 179.126 188.763 179.485 187.4 179.844ZM195.442 177.579L195.247 176.915C196.582 176.501 197.918 176.059 199.198 175.617L199.421 176.252C198.141 176.722 196.805 177.164 195.442 177.579ZM203.344 174.815L203.094 174.18C204.402 173.682 205.709 173.157 206.962 172.632L207.212 173.24C205.96 173.793 204.652 174.318 203.344 174.815ZM211.024 171.527L210.746 170.919L214.502 169.096L214.781 169.731L211.024 171.527ZM218.537 167.88L218.231 167.272L221.988 165.448L222.294 166.084L218.537 167.88ZM226.05 164.26L225.744 163.624L229.501 161.828L229.807 162.436L226.05 164.26ZM233.563 160.64L233.257 160.032L237.014 158.209L237.32 158.817L233.563 160.64ZM241.049 157.02L240.77 156.413L244.499 154.589L244.805 155.224L241.049 157.02Z" fill="#9192FF"/>
<path d="M251.065 14.6617C256.185 14.6617 260.888 15.7117 264.7 17.4249C264.895 14.7723 265.674 12.092 267.121 9.60512C271.879 1.37084 282.091 -1.66866 289.883 2.8077C295.086 5.79193 297.897 11.3736 297.785 17.2039C299.9 16.1262 302.321 15.5183 304.909 15.5183C312.951 15.5183 319.518 21.5144 319.768 29.0026H228.276C228.248 28.8645 228.248 28.7263 228.248 28.5882C228.248 20.9065 238.46 14.6617 251.065 14.6617Z" fill="#EBEBFF"/>
<path fill-rule="evenodd" clip-rule="evenodd" d="M76.0674 240.856H0.630859V240.607C0.825642 234.252 6.27956 229.306 13.0691 229.306C14.9891 229.306 16.9091 229.72 18.6343 230.522C18.6622 225.686 21.1665 221.265 25.2291 218.916C28.2622 217.176 31.8239 216.733 35.2743 217.645C39.0587 218.668 42.2309 221.127 44.2343 224.581C45.3474 226.515 46.0152 228.588 46.21 230.743C49.4378 229.334 53.1943 228.615 57.1456 228.615C67.6082 228.615 76.0952 233.838 76.0952 240.276C76.0952 240.386 76.0952 240.524 76.0952 240.635L76.0674 240.856ZM1.15956 240.331H75.5665C75.5665 240.313 75.5665 240.285 75.5665 240.248C75.5665 234.114 67.3022 229.113 57.1456 229.113C53.1387 229.113 49.2987 229.886 46.0987 231.351L45.7369 231.516L45.7091 231.13C45.57 228.919 44.93 226.819 43.7891 224.83C41.8413 221.486 38.7804 219.11 35.1352 218.143C31.8239 217.258 28.4013 217.701 25.4796 219.359C21.4726 221.68 19.0517 226.101 19.1352 230.936L19.163 231.378L18.7735 231.157C17.0204 230.273 15.0448 229.803 13.0413 229.803C6.66912 229.803 1.49347 234.418 1.15956 240.331Z" fill="#9192FF"/>
<path d="M223.573 125.382H434.578V233.394C434.578 242.237 427.344 249.393 418.467 249.393H239.657C230.78 249.393 223.573 242.237 223.573 233.394V125.382Z" fill="white"/>
<path d="M212.527 152.931C215.003 145.084 222.795 139.033 231.309 138.397C239.852 137.762 248.561 142.569 252.29 149.947C256.826 149.92 261.278 152.406 263.504 156.22C265.702 160.033 265.535 164.979 263.087 168.654C268.513 169.566 273.355 173.103 275.748 177.855C278.141 182.58 278.001 188.411 275.414 193.053C281.341 190.041 288.965 190.317 294.669 193.744C300.374 197.17 303.963 203.608 303.768 210.046C307.469 204.299 314.565 200.679 321.633 201.011C328.673 201.342 335.407 205.542 338.551 211.621C341.862 201.784 350.711 193.826 361.146 191.284C371.608 188.742 383.351 191.699 391.17 198.855C402.941 200.679 411.511 213.362 408.45 224.415C414.795 229.637 418.05 238.12 416.715 246.051C415.407 253.953 409.535 261.027 401.8 264.066L199.309 263.928L182.057 187.222L212.527 152.931Z" fill="#D1D1FF"/>
<g opacity="0.8">
<path opacity="0.8" d="M209.327 178.407C211.692 170.532 219.261 164.508 227.497 163.873C235.734 163.21 244.137 168.018 247.727 175.395C252.095 175.34 256.436 177.855 258.551 181.64C260.666 185.453 260.527 190.399 258.161 194.075C263.393 195.014 268.068 198.523 270.377 203.276C272.687 208.001 272.548 213.859 270.043 218.473C275.775 215.462 283.121 215.738 288.631 219.164C294.141 222.563 297.619 229.001 297.424 235.467C300.986 229.692 307.859 226.072 314.676 226.404C321.494 226.708 328.005 230.935 331.038 237.014C334.238 227.15 342.781 219.192 352.881 216.65C362.982 214.108 374.308 217.037 381.876 224.193C393.229 225.989 401.521 238.672 398.544 249.725C404.694 254.947 407.81 263.43 406.53 271.361C405.222 279.291 399.574 286.365 392.088 289.377L196.443 289.404L179.831 212.726L209.327 178.407Z" fill="white"/>
</g>
<path opacity="0.7" d="M386.357 147.93C357.89 207.117 311.81 276.141 263.811 277.523L208.854 258.871L212.332 203.608C264.673 198.33 306.245 183.575 364.847 128.836L386.357 147.93Z" fill="#FFF2E0"/>
<path d="M383.1 139.613C379.483 150.859 368.241 163.652 355.914 174.152C358.029 170.505 362.843 163.846 362.843 159.867C360.005 162.74 351.434 168.101 346.092 170.56C348.401 167.742 352.547 161.221 355.386 156.551L332.262 165.918C349.208 151.439 363.566 140.746 373.111 129.555L383.1 139.613Z" fill="#FFA121"/>
<path opacity="0.4" d="M381.487 136.6C379.261 143.978 372.638 152.461 365.376 159.452C366.628 157.048 369.494 152.654 369.549 150.057C367.88 151.964 362.843 155.556 359.727 157.214C361.09 155.362 363.567 151.024 365.264 147.957L351.769 154.312C361.73 144.669 370.162 137.54 375.81 130.107L381.487 136.6Z" fill="white"/>
<path d="M288.297 168.128C288.38 169.869 288.297 172.77 286.544 173.793C283.65 175.451 281.368 171.389 280.283 169.372C279.031 166.912 279.337 163.901 282.231 162.823C286.015 161.386 288.158 164.895 288.297 168.128Z" fill="#D1D1FF"/>
<path d="M426.064 220.656C426.147 222.397 426.064 225.326 424.311 226.321C421.417 227.979 419.135 223.917 418.078 221.9C416.798 219.468 417.104 216.428 419.998 215.351C423.782 213.914 425.925 217.423 426.064 220.656Z" fill="#D1D1FF"/>
<path d="M272.853 150.996C274.205 150.996 275.302 149.908 275.302 148.565C275.302 147.222 274.205 146.133 272.853 146.133C271.501 146.133 270.404 147.222 270.404 148.565C270.404 149.908 271.501 150.996 272.853 150.996Z" fill="#D1D1FF"/>
<path d="M396.68 195.871C398.724 195.871 400.381 194.226 400.381 192.196C400.381 190.166 398.724 188.521 396.68 188.521C394.636 188.521 392.979 190.166 392.979 192.196C392.979 194.226 394.636 195.871 396.68 195.871Z" fill="#D1D1FF"/>
<path fill-rule="evenodd" clip-rule="evenodd" d="M418.468 249.725H239.658C230.586 249.725 223.212 242.402 223.212 233.394V125.022H434.913V233.394C434.913 242.402 427.539 249.725 418.468 249.725ZM223.908 125.713V233.394C223.908 242.015 230.976 249.034 239.658 249.034H418.468C427.15 249.034 434.218 242.015 434.218 233.394V125.713H223.908Z" fill="#9192FF"/>
<path d="M434.579 99.5183V125.382H223.574V99.5183C223.574 90.6762 230.781 83.5195 239.657 83.5195H418.467C427.344 83.5195 434.579 90.6762 434.579 99.5183Z" fill="white"/>
<path fill-rule="evenodd" clip-rule="evenodd" d="M434.913 125.714H223.212V99.5189C223.212 90.5109 230.586 83.1885 239.658 83.1885H418.468C427.539 83.1885 434.913 90.5109 434.913 99.5189V125.714ZM223.908 125.023H434.218V99.4912C434.218 90.8701 427.15 83.8516 418.468 83.8516H239.658C230.976 83.8516 223.908 90.8701 223.908 99.4912V125.023Z" fill="#9192FF"/>
<path d="M244.833 113.196C249.704 113.196 253.653 109.275 253.653 104.437C253.653 99.5994 249.704 95.6777 244.833 95.6777C239.961 95.6777 236.012 99.5994 236.012 104.437C236.012 109.275 239.961 113.196 244.833 113.196Z" fill="#D1D1FF"/>
<path d="M270.822 113.196C275.694 113.196 279.643 109.275 279.643 104.437C279.643 99.5994 275.694 95.6777 270.822 95.6777C265.951 95.6777 262.001 99.5994 262.001 104.437C262.001 109.275 265.951 113.196 270.822 113.196Z" fill="white"/>
<path fill-rule="evenodd" clip-rule="evenodd" d="M270.823 113.556C265.758 113.556 261.64 109.467 261.64 104.438C261.64 99.4362 265.758 95.3467 270.823 95.3467C275.887 95.3467 280.005 99.4362 280.005 104.438C280.005 109.467 275.887 113.556 270.823 113.556ZM270.823 96.0375C266.148 96.0375 262.336 99.7954 262.336 104.438C262.336 109.08 266.148 112.865 270.823 112.865C275.497 112.865 279.31 109.08 279.31 104.438C279.31 99.7954 275.497 96.0375 270.823 96.0375Z" fill="#9192FF"/>
<path d="M337.994 96.0928H302.878C298.221 96.0928 294.446 99.8351 294.446 104.451C294.446 109.068 298.221 112.81 302.878 112.81H337.994C342.651 112.81 346.426 109.068 346.426 104.451C346.426 99.8351 342.651 96.0928 337.994 96.0928Z" fill="white"/>
<path fill-rule="evenodd" clip-rule="evenodd" d="M337.994 113.169H302.849C298.035 113.169 294.084 109.245 294.084 104.437C294.084 99.6566 298.035 95.7329 302.849 95.7329H337.994C342.835 95.7329 346.759 99.6566 346.759 104.437C346.759 109.245 342.835 113.169 337.994 113.169ZM302.849 96.4237C298.397 96.4237 294.78 100.016 294.78 104.437C294.78 108.858 298.397 112.478 302.849 112.478H337.994C342.446 112.478 346.063 108.858 346.063 104.437C346.063 100.016 342.446 96.4237 337.994 96.4237H302.849Z" fill="#9192FF"/>
<path d="M385.353 95.0149L363.76 78.0489C371.329 68.2673 395.621 76.695 409.729 64.4541L385.353 95.0149Z" fill="#3335CF"/>
<path d="M385.354 95.0148L380.596 103.802L365.292 86.3936C363.288 84.1002 362.704 80.8949 363.761 78.0488L385.354 95.0148Z" fill="#D1D1FF"/>
<path d="M441.647 89.5713C432.881 105.985 446.711 127.565 438.864 137.098L417.299 120.132L441.647 89.5713Z" fill="#3335CF"/>
<path d="M438.864 137.098C436.304 138.784 433.048 138.977 430.321 137.54L409.758 126.736L417.299 120.132L438.864 137.098Z" fill="#D1D1FF"/>
<path d="M450.161 63.5697L433.409 50.4169L452.609 43.3984L450.161 63.5697Z" fill="#1B1B43"/>
<path d="M450.161 63.5697C447.462 93.7713 425.006 121.928 397.736 137.595L372.86 118.06C383.295 85.4541 402.717 62.1329 433.409 50.417L450.161 63.5697Z" fill="#C5C5FF"/>
<path d="M397.737 137.596L392.923 149.726L362.092 125.465L372.861 118.06L397.737 137.596Z" fill="#3335CF"/>
<path d="M435.246 83.6581C431.295 88.6042 424.032 89.4608 419.024 85.5371C414.043 81.5857 413.18 74.4014 417.159 69.4277C421.111 64.454 428.345 63.625 433.354 67.5488C438.363 71.5001 439.198 78.6844 435.246 83.6581Z" fill="white"/>
<path d="M427.066 84.6527L426.982 83.9619C427.65 83.9066 428.29 83.7408 428.93 83.5198L429.181 84.1553C428.485 84.404 427.789 84.5974 427.066 84.6527ZM424.895 84.5974C424.172 84.4869 423.476 84.2935 422.809 83.9895L423.087 83.354C423.699 83.6303 424.339 83.8237 425.007 83.9342L424.895 84.5974ZM431.073 83.1053L430.655 82.525C431.184 82.1382 431.685 81.6961 432.102 81.1711L432.631 81.5855C432.186 82.1658 431.657 82.6632 431.073 83.1053ZM420.972 82.829C420.388 82.3592 419.915 81.8342 419.469 81.254L420.054 80.8395C420.443 81.3921 420.889 81.8619 421.417 82.304L420.972 82.829ZM433.494 80.2868L432.854 79.9553C433.16 79.375 433.41 78.7671 433.549 78.1039L434.217 78.2421C434.078 78.9605 433.828 79.6513 433.494 80.2868ZM418.468 79.3197C418.217 78.6566 418.05 77.9381 417.995 77.2197L418.69 77.1645C418.746 77.8276 418.885 78.4631 419.108 79.0987L418.468 79.3197ZM433.716 76.1144C433.689 75.4513 433.549 74.8157 433.355 74.1802L434.022 73.9592C434.245 74.65 434.384 75.3684 434.412 76.0868L433.716 76.1144ZM418.774 75.175L418.106 75.0368C418.217 74.346 418.44 73.6552 418.774 72.992L419.386 73.296C419.108 73.8763 418.913 74.5118 418.774 75.175ZM432.492 72.3841C432.13 71.8315 431.685 71.3341 431.184 70.892L431.657 70.367C432.214 70.8644 432.687 71.417 433.076 72.0249L432.492 72.3841ZM420.471 71.6105L419.942 71.1683C420.415 70.6157 420.972 70.1183 421.556 69.7315L421.946 70.2841C421.408 70.671 420.916 71.1131 420.471 71.6105ZM429.542 69.7591C428.958 69.4828 428.318 69.2617 427.65 69.1236L427.789 68.4604C428.513 68.5986 429.209 68.8196 429.849 69.1512L429.542 69.7591ZM423.727 69.3999L423.504 68.7367C424.2 68.5157 424.895 68.3499 425.619 68.3223L425.675 69.0131C425.007 69.0499 424.358 69.1789 423.727 69.3999Z" fill="#9192FF"/>
<path d="M369.327 148.4L368.798 147.958C367.991 147.322 367.852 146.162 368.492 145.36L390.113 118.226C390.753 117.425 391.95 117.286 392.757 117.922L393.285 118.364C394.092 119 394.231 120.16 393.591 120.962L371.97 148.096C371.33 148.897 370.134 149.035 369.327 148.4Z" fill="#1B1B43"/>
<path d="M407.672 384.955H403.498V384.264H407.672V384.955ZM399.324 384.955H395.15V384.264H399.324V384.955ZM390.976 384.955H386.802V384.264H390.976V384.955ZM382.628 384.955H378.454V384.264H382.628V384.955ZM374.28 384.955H370.106V384.264H374.28V384.955ZM365.933 384.955H361.759V384.264H365.933V384.955ZM357.585 384.955H353.411V384.264H357.585V384.955ZM349.237 384.955H345.063V384.264H349.237V384.955ZM340.889 384.955H336.715V384.264H340.889V384.955ZM332.541 384.955H328.367V384.264H332.541V384.955ZM324.193 384.955C322.746 384.927 321.327 384.706 319.964 384.236L320.214 383.573C321.494 384.015 322.83 384.236 324.193 384.264V384.955ZM408.172 384.955L408.145 384.264C409.508 384.209 410.844 383.932 412.124 383.463L412.346 384.098C411.011 384.623 409.619 384.899 408.172 384.955ZM316.235 382.247C315.094 381.363 314.093 380.34 313.286 379.18L313.87 378.765C314.621 379.898 315.567 380.865 316.653 381.694L316.235 382.247ZM416.075 381.998L415.63 381.473C416.687 380.617 417.605 379.622 418.329 378.489L418.913 378.848C418.134 380.064 417.188 381.114 416.075 381.998ZM311.477 375.339C311.143 374.151 310.976 372.935 310.976 371.719V371.139H311.672V371.719C311.672 372.88 311.839 374.04 312.145 375.145L311.477 375.339ZM420.611 374.98L419.943 374.814C420.193 373.791 420.332 372.769 420.332 371.719V370.78H421.028V371.719C421.028 372.824 420.889 373.902 420.611 374.98ZM311.672 366.994H310.976V362.849H311.672V366.994ZM421.028 366.635H420.332V362.49H421.028V366.635ZM311.672 358.705H310.976V354.56H311.672V358.705ZM421.028 358.345H420.332V354.201H421.028V358.345ZM311.672 350.415H310.976V346.27H311.672V350.415ZM421.028 350.056H420.332V345.911H421.028V350.056ZM311.672 342.125H310.976V337.981H311.672V342.125ZM421.028 341.766H420.332V337.621H421.028V341.766ZM311.672 333.836H310.976V329.691H311.672V333.836ZM421.028 333.477H420.332V329.332H421.028V333.477ZM311.672 325.546H310.976V322.783C310.976 322.323 311.004 321.853 311.06 321.374L311.755 321.457C311.7 321.899 311.672 322.341 311.672 322.783V325.546ZM421.028 325.187H420.332V322.783C420.332 322.212 420.295 321.65 420.221 321.098L420.889 321.015C420.982 321.604 421.028 322.194 421.028 322.783V325.187ZM312.813 317.588L312.173 317.312C312.785 316.013 313.564 314.825 314.538 313.775L315.066 314.245C314.12 315.24 313.369 316.373 312.813 317.588ZM419.025 317.257C418.44 316.069 417.633 314.963 416.687 313.996L417.188 313.499C418.19 314.521 419.025 315.682 419.665 316.953L419.025 317.257ZM318.239 311.786L317.905 311.178C319.157 310.487 320.52 310.017 321.912 309.769L322.051 310.432C320.715 310.68 319.435 311.123 318.239 311.786ZM413.404 311.62C412.207 311.012 410.899 310.598 409.564 310.377L409.675 309.713C411.094 309.907 412.458 310.349 413.738 310.984L413.404 311.62ZM405.418 310.266H401.244V309.575H405.418V310.266ZM397.07 310.266H392.896V309.575H397.07V310.266ZM388.722 310.266H384.548V309.575H388.722V310.266ZM380.374 310.266H376.2V309.575H380.374V310.266ZM372.026 310.266H367.853V309.575H372.026V310.266ZM363.679 310.266H359.505V309.575H363.679V310.266ZM355.331 310.266H351.157V309.575H355.331V310.266ZM346.983 310.266H342.809V309.575H346.983V310.266ZM338.635 310.266H334.461V309.575H338.635V310.266ZM330.287 310.266H326.113V309.575H330.287V310.266Z" fill="#9192FF"/>
<path d="M400.074 296.202H311.253C305.582 296.202 300.985 300.767 300.985 306.398V362.794C300.985 368.425 305.582 372.99 311.253 372.99H400.074C405.745 372.99 410.342 368.425 410.342 362.794V306.398C410.342 300.767 405.745 296.202 400.074 296.202Z" fill="#9192FF"/>
<path d="M331.817 364.922H319.991V341.048H331.817V364.922Z" fill="white"/>
<path d="M351.657 364.922H339.803V341.822H351.657V364.922Z" fill="white"/>
<path d="M371.469 364.922H359.643V329.747H371.469V364.922Z" fill="white"/>
<path d="M391.31 364.923H379.456V319.413H391.31V364.923Z" fill="white"/>
<path d="M387.414 309.769H323.887V307.006H387.414V309.769Z" fill="white"/>
<path d="M133.39 231.35L117.974 243.204L115.971 202.226L118.336 203.939C124.179 208.222 128.437 214.301 130.44 221.236L133.39 231.35Z" fill="#FFA121"/>
<path d="M175.211 273.904L169.424 267.576C171.742 271.371 172.605 273.415 172.011 273.71C169.618 274.898 168.283 271.61 164.443 270.284L152.477 270.007L127.295 259.231C121.952 256.938 118.391 251.826 118.112 246.078L117.973 243.205L133.389 231.351L136.311 241.436L162.244 257.877L172.317 260.64C174.154 261.138 175.684 262.409 176.575 264.094L179.997 270.754L175.211 273.904Z" fill="#FFBC96"/>
<path d="M133.222 245.663L132.609 245.138L136.004 241.187L136.616 241.684L133.222 245.663Z" fill="#D28572"/>
<path d="M134.892 287.332L153.758 285.674C166.029 284.597 176.714 294.461 177.326 307.393L181.584 399.628L155.566 400.429L134.892 287.332Z" fill="#26289C"/>
<path d="M176.798 397.003L177.994 409.299L196.999 424.994H158.46L157.653 399.517L176.798 397.003Z" fill="#1B1B43"/>
<path d="M170.37 416.124L169.396 414.88L177.493 408.663L178.467 409.907L170.37 416.124Z" fill="white"/>
<path d="M168.033 397.003L169.23 409.299L188.235 424.994H149.668L148.889 399.517L168.033 397.003Z" fill="#D1D1FF"/>
<path d="M161.605 416.124L160.631 414.88L168.728 408.663L169.702 409.907L161.605 416.124Z" fill="white"/>
<path d="M177.605 402.031H145.689L122.955 332.538L119.755 322.811L74.287 322.618C71.5043 322.59 68.8052 321.291 66.5235 319.385C61.6818 315.351 59.4557 308.968 60.3461 302.75L64.3252 274.511L131.887 283.215C144.687 284.873 155.038 294.406 157.654 306.95L177.605 402.031Z" fill="#3335CF"/>
<path d="M129.132 322.812L122.955 332.538L119.755 322.812H129.132Z" fill="#1B1B43"/>
<path d="M120.784 269.399C120.45 270.707 120.107 272.015 119.755 273.323L117.361 283.022L85.8623 281.723L63.1841 280.784C57.1736 280.535 52.8049 275.009 54.0293 269.151L64.6032 218.612C65.9667 210.019 73.0067 203.387 81.7162 202.503L107.595 199.85L115.97 202.226C124.151 206.592 124.151 214.495 124.541 219.662C126.266 242.293 124.151 255.998 120.784 269.399Z" fill="#FFA121"/>
<path opacity="0.3" d="M99.4139 267.769C99.1078 269.067 120.116 271.996 119.755 273.322L117.362 283.021L85.8626 281.723C74.8713 273.488 70.7252 255.528 66.7183 233.063L99.4139 267.769Z" fill="#1B1B43"/>
<path d="M93.1527 214.467C94.544 215.932 96.1022 217.23 97.8831 218.17C99.6083 219.137 101.528 219.828 103.504 220.077C105.452 220.325 107.511 220.159 109.236 219.22C110.961 218.363 112.102 216.54 112.297 214.55L112.603 214.578C112.603 215.628 112.325 216.678 111.824 217.59C111.295 218.529 110.488 219.303 109.57 219.828C107.678 220.905 105.452 221.099 103.393 220.85C101.306 220.546 99.3022 219.828 97.5214 218.75C95.7405 217.7 94.1822 216.291 92.9301 214.661L93.1527 214.467Z" fill="#1B1B43"/>
<path d="M125.236 245.359L124.652 245.304C125.236 237.346 124.652 227.537 122.927 216.208L123.511 216.125C125.236 227.509 125.821 237.346 125.236 245.359Z" fill="#1B1B43"/>
<path d="M178.802 279.264H149.139V273.461H178.802V279.264Z" fill="#1B1B43"/>
<path d="M230.112 279.264H170.537L197.945 227.261H257.493L230.112 279.264Z" fill="#9192FF"/>
<path d="M93.3475 194.6L79.3788 193.715L76.4849 187.775L75.3997 193.605L70.4188 193.218C64.631 185.205 65.438 169.565 79.7962 165.807C79.5736 154.312 92.7353 151.439 99.7196 158.264L93.3475 194.6Z" fill="#1B1B43"/>
<path d="M111.379 183.823V205.625C111.379 205.827 111.379 206.021 111.379 206.205C111.017 210.709 106.649 213.887 102.169 212.726C95.5738 211.041 90.9824 205.127 91.0381 198.358L91.1494 183.823H111.379Z" fill="#FFBC96"/>
<path d="M111.378 193.246V205.625C111.378 205.827 111.378 206.021 111.378 206.205C105.479 205.265 98.6896 198.496 97.02 191.146L111.378 193.246Z" fill="#1B1B43"/>
<path d="M123.289 185.426C122.983 187.167 122.565 188.935 122.037 190.621C120.284 196.175 117.139 200.762 111.491 199.961C102.642 198.708 95.7597 193.559 90.8438 184.514L99.915 174.208L106.009 166.084L124.235 173.904C124.309 177.606 123.994 181.447 123.289 185.426Z" fill="#FFBC96"/>
<path d="M90.6483 186.089C83.5805 181.254 84.304 167.217 91.8727 161.193C96.3249 157.656 102.001 155.888 107.706 156.385C123.344 157.822 132.777 169.787 127.212 174.981C122.778 179.108 116.044 177.303 107.01 169.566C105.09 177.91 100.582 180.867 94.7666 181.033L90.6483 186.089Z" fill="#1B1B43"/>
<path d="M87.9492 166.388C87.5874 165.034 87.8657 163.514 88.4779 162.215C89.09 160.889 90.064 159.756 91.2048 158.872C92.3457 157.987 93.7092 157.352 95.1283 157.048C96.5196 156.772 98.0223 156.827 99.3301 157.38C97.9666 157.822 96.8257 158.264 95.7127 158.816C94.6274 159.397 93.6257 160.032 92.6796 160.751C91.7335 161.469 90.8431 162.298 90.064 163.21C89.2848 164.122 88.5892 165.116 87.9492 166.388Z" fill="#FFA121"/>
<path d="M97.243 180.286C98.356 183.077 97.3821 186.089 95.0726 187.028C92.7352 187.94 89.9525 186.42 88.8117 183.629C87.6986 180.839 88.6725 177.827 90.9821 176.915C93.3195 176.003 96.1021 177.495 97.243 180.286Z" fill="#FFBC96"/>
<path d="M93.0407 184.956C93.1242 183.989 93.1242 183.077 92.8459 182.248C92.5676 181.392 92.0389 180.673 91.4268 179.9L91.6215 179.679C92.512 180.121 93.2911 180.977 93.5972 182C93.9311 183.022 93.792 184.155 93.3189 185.039L93.0407 184.956Z" fill="#1B1B43"/>
<path d="M113.466 183.519C114.204 183.519 114.802 182.851 114.802 182.027C114.802 181.203 114.204 180.535 113.466 180.535C112.728 180.535 112.13 181.203 112.13 182.027C112.13 182.851 112.728 183.519 113.466 183.519Z" fill="#1B1B43"/>
<path d="M121.897 183.215C121.813 183.934 121.201 184.459 120.533 184.376C119.865 184.293 119.42 183.63 119.504 182.911C119.587 182.193 120.199 181.668 120.867 181.751C121.507 181.834 121.98 182.469 121.897 183.215Z" fill="#1B1B43"/>
<path d="M114.745 178.325C114.801 179.016 113.688 179.071 112.046 179.126C110.405 179.182 109.264 179.679 109.264 179.237C109.236 178.795 110.46 177.689 112.074 177.413C113.744 177.137 114.69 177.496 114.745 178.325Z" fill="#1B1B43"/>
<path d="M122.092 178.353C123.261 178.767 124.012 180.011 123.957 180.453C123.901 180.867 123.122 180.259 121.898 180.066C120.701 179.845 119.866 179.679 120.005 178.988C120.145 178.187 120.868 177.911 122.092 178.353Z" fill="#1B1B43"/>
<path d="M118.03 184.431C118.364 184.818 118.698 185.15 119.059 185.481L119.588 185.979C119.783 186.144 119.978 186.338 120.144 186.614C120.256 186.752 120.311 186.918 120.339 187.139C120.339 187.332 120.284 187.526 120.2 187.692C120.005 187.996 119.783 188.189 119.56 188.327C119.087 188.659 118.558 188.769 118.058 188.88L117.946 188.576C118.364 188.3 118.809 188.079 119.143 187.775C119.282 187.636 119.449 187.471 119.504 187.332C119.56 187.194 119.56 187.167 119.477 187.001C119.31 186.725 118.837 186.338 118.558 185.923C118.225 185.536 117.946 185.094 117.779 184.569L118.03 184.431Z" fill="#1B1B43"/>
<path d="M111.295 189.322C112.102 190.234 112.965 191.091 113.967 191.616C114.996 192.196 116.137 192.334 117.361 192.224L117.445 192.5C116.861 192.776 116.193 192.914 115.525 192.887C114.857 192.832 114.189 192.638 113.605 192.334C112.408 191.671 111.546 190.621 111.017 189.488L111.295 189.322Z" fill="#1B1B43"/>
<path opacity="0.2" d="M106.51 188.465C108.323 188.465 109.793 187.006 109.793 185.205C109.793 183.404 108.323 181.944 106.51 181.944C104.696 181.944 103.226 183.404 103.226 185.205C103.226 187.006 104.696 188.465 106.51 188.465Z" fill="#FE5B52"/>
<path opacity="0.2" d="M123.289 185.426C122.983 187.167 122.565 188.935 122.036 190.621C121.508 190.04 121.202 189.294 121.202 188.465C121.202 187.084 122.064 185.923 123.289 185.426Z" fill="#FE5B52"/>
<path d="M92.6242 237.955L72.673 247.101L66.7183 233.064L85.7234 224.083L92.6242 237.955Z" fill="#FFA121"/>
<path d="M156.152 272.742C155.799 272.576 155.512 272.438 155.289 272.328L155.484 271.941C155.725 272.051 156.013 272.199 156.347 272.383L156.152 272.742Z" fill="#C5C5FF"/>
<path d="M164.026 274.704C163.414 275.92 158.712 273.765 156.513 272.715C158.211 273.654 161.16 275.478 159.852 276.5C158.795 277.274 156.485 275.589 148.917 272.466C150.058 272.991 156.819 276.196 155.122 277.412C153.879 278.296 150.605 277.771 145.299 275.837L138.371 279.512H130.385L101.696 279.706C99.8872 279.706 98.1064 279.485 96.3812 279.043C92.9864 278.186 89.7585 276.5 87.0594 274.235C85.3342 272.825 83.8594 271.14 82.6072 269.316C81.689 267.935 80.9099 266.442 80.242 264.895L72.6733 247.1L92.6246 237.954L103.004 258.927L137.313 266.332L146.885 263.956C148.945 263.431 151.866 264.287 153.675 265.392C158.072 268.073 164.611 273.544 164.026 274.704Z" fill="#FFBC96"/>
<path opacity="0.2" d="M96.9091 276.086C96.9091 277.136 96.7143 278.131 96.3804 279.042C92.9856 278.186 89.7578 276.5 87.0586 274.235C85.3334 272.825 83.8586 271.14 82.6064 269.316C84.1369 268.1 86.0291 267.382 88.116 267.382C92.9856 267.382 96.9091 271.278 96.9091 276.086Z" fill="#FE5B52"/>
<path d="M137.257 266.166C139.65 265.392 142.043 264.701 144.52 264.204C145.744 263.955 146.996 263.734 148.249 263.679C148.879 263.642 149.519 263.661 150.169 263.734C150.503 263.79 150.809 263.872 151.143 263.955C151.449 264.038 151.727 264.176 152.033 264.287C154.37 265.337 156.402 266.829 158.377 268.376C160.353 269.951 162.189 271.609 163.998 273.35L164.082 273.433L164.109 273.544C164.165 273.903 164.109 274.262 163.915 274.594C163.776 274.759 163.636 274.925 163.469 274.98C163.302 275.091 163.136 275.146 162.969 275.146C162.329 275.257 161.744 275.119 161.188 274.98C160.075 274.677 159.101 274.179 158.099 273.682C157.125 273.184 156.151 272.632 155.233 272.052C154.259 271.499 153.369 270.863 152.45 270.283L152.868 269.62C154.509 270.559 156.096 271.582 157.598 272.715C158.349 273.295 159.101 273.903 159.741 274.677C159.908 274.87 160.047 275.091 160.158 275.367C160.214 275.506 160.242 275.671 160.242 275.865C160.242 276.058 160.186 276.252 160.047 276.39C159.796 276.694 159.49 276.777 159.24 276.859C158.962 276.915 158.711 276.942 158.461 276.942L158.405 276.97L158.322 276.915L149.64 273.323L149.918 272.715C151.282 273.35 152.589 274.013 153.869 274.842C154.482 275.284 155.122 275.671 155.595 276.445C155.706 276.638 155.762 276.915 155.65 277.191C155.539 277.467 155.344 277.633 155.149 277.716C154.732 277.909 154.343 277.965 153.953 277.992C152.395 278.02 150.948 277.661 149.501 277.302C148.054 276.915 146.635 276.473 145.243 275.975L145.355 275.671C146.746 276.141 148.165 276.556 149.612 276.887C151.031 277.219 152.506 277.523 153.925 277.467C154.593 277.44 155.4 277.136 155.094 276.694C154.76 276.169 154.12 275.727 153.536 275.34C152.311 274.566 150.976 273.903 149.64 273.323L149.89 272.715L158.6 276.252L158.433 276.224C158.656 276.196 158.878 276.169 159.045 276.113C159.24 276.086 159.407 276.003 159.463 275.92C159.574 275.892 159.407 275.45 159.156 275.146C158.6 274.483 157.876 273.875 157.125 273.323C155.65 272.217 154.064 271.223 152.478 270.283L152.896 269.62C153.814 270.2 154.704 270.836 155.623 271.388C156.541 271.969 157.487 272.494 158.461 273.019C159.407 273.488 160.381 273.986 161.382 274.262C161.883 274.4 162.412 274.511 162.829 274.428L162.996 274.4C163.024 274.373 163.052 274.345 163.108 274.345C163.191 274.317 163.219 274.234 163.275 274.207C163.358 274.069 163.386 273.848 163.358 273.709L163.469 273.875C161.716 272.162 159.852 270.504 157.932 268.929C156.012 267.382 154.009 265.862 151.81 264.84L150.948 264.508C150.669 264.425 150.391 264.37 150.085 264.287C149.492 264.213 148.889 264.195 148.276 264.232C147.052 264.287 145.828 264.453 144.603 264.674C142.155 265.116 139.734 265.751 137.369 266.47L137.257 266.166Z" fill="#D28572"/>
<path d="M72.8121 247.377L72.5616 246.824L92.2347 237.816L84.026 218.778L84.5825 218.529L93.0138 238.12L72.8121 247.377Z" fill="#1B1B43"/>
<path d="M75.6213 419.992H74.564V330.741H75.6213V419.992Z" fill="#1B1B43"/>
<path d="M100.221 322.424H49.9669C46.5553 322.424 43.7896 325.17 43.7896 328.558C43.7896 331.946 46.5553 334.692 49.9669 334.692H100.221C103.632 334.692 106.398 331.946 106.398 328.558C106.398 325.17 103.632 322.424 100.221 322.424Z" fill="#D1D1FF"/>
<path d="M96.2415 425.795H53.9736V424.773C53.9736 419.689 58.1197 415.544 63.2676 415.544H86.9476C92.0676 415.544 96.2415 419.689 96.2415 424.773V425.795Z" fill="#D1D1FF"/>
<path d="M224.075 425.463L135.003 285.26L135.894 284.707L224.965 424.911L224.075 425.463Z" fill="#1B1B43"/>
<path d="M135.894 425.463L135.003 424.911L224.075 284.707L224.965 285.26L135.894 425.463Z" fill="#1B1B43"/>
<path d="M258.022 290.952H101.945V279.264H258.022V290.952Z" fill="#D1D1FF"/>
<path fill-rule="evenodd" clip-rule="evenodd" d="M115.024 92.9149C97.048 92.9149 82.4115 78.3806 82.4115 60.5305C82.4115 42.6803 97.048 28.146 115.024 28.146C133.027 28.146 147.664 42.6803 147.664 60.5305C147.664 78.3806 133.027 92.9149 115.024 92.9149ZM115.024 28.8368C97.4376 28.8368 83.1072 43.0395 83.1072 60.5305C83.1072 77.9937 97.4376 92.2241 115.024 92.2241C132.638 92.2241 146.968 77.9937 146.968 60.5305C146.968 43.0395 132.638 28.8368 115.024 28.8368Z" fill="#9192FF"/>
<path d="M137.09 83.0783C156.684 83.0783 172.568 67.305 172.568 47.8477C172.568 28.3904 156.684 12.6172 137.09 12.6172C117.496 12.6172 101.612 28.3904 101.612 47.8477C101.612 67.305 117.496 83.0783 137.09 83.0783Z" fill="#EBEBFF"/>
<path d="M137.09 48.5105L117.417 33.2025L118.085 32.3735L137.09 47.1565L147.664 38.2591L148.36 39.0604L137.09 48.5105Z" fill="#1B1B43"/>
<path d="M50.2449 129.057V146.935C50.2449 149.698 48.1023 151.936 45.3753 152.129V159.756L39.8379 152.157H26.9823C24.0884 152.157 21.7231 149.836 21.7231 146.935V129.057C21.7231 126.156 24.0884 123.834 26.9823 123.834H44.9858C47.9075 123.834 50.2449 126.156 50.2449 129.057Z" fill="white"/>
<path fill-rule="evenodd" clip-rule="evenodd" d="M45.7374 160.834L39.6713 152.489H26.9827C23.894 152.489 21.3896 150.002 21.3896 146.935V129.057C21.3896 125.99 23.894 123.476 26.9827 123.476H44.9861C48.0748 123.476 50.6069 125.99 50.6069 129.057V146.935C50.6069 149.726 48.4921 152.102 45.7374 152.461V160.834ZM26.9827 124.194C24.2836 124.194 22.0853 126.377 22.0853 129.057V146.935C22.0853 149.615 24.2836 151.826 26.9827 151.826H40.0052L45.0417 158.678V151.826L45.3478 151.798C47.9078 151.605 49.9113 149.477 49.9113 146.935V129.057C49.9113 126.377 47.713 124.194 44.9861 124.194H26.9827Z" fill="#9192FF"/>
<path d="M35.6084 147.211L28.4014 136.849L30.1266 135.689L35.4414 143.288L43.4276 129.085L45.2363 130.107L35.6084 147.211Z" fill="#9192FF"/>
<path d="M442.175 425.795H14.6553V424.745H442.175V425.795Z" fill="#1B1B43"/>
</svg>
