<svg width="148" height="58" viewBox="0 0 148 58" fill="none" xmlns="http://www.w3.org/2000/svg">
<path d="M3.37859 47.6457L2.93994 8.45996H3.37859L24.5798 47.6457H25.1647L24.5798 8.45996" stroke="#3D3D7F" stroke-width="4.09403" stroke-linecap="square"/>
<path d="M36.8618 8.31445V47.2077" stroke="#3D3D7F" stroke-width="4.09403" stroke-linecap="square"/>
<path d="M83.9434 8.31445V47.2077" stroke="#3D3D7F" stroke-width="4.09403" stroke-linecap="square"/>
<path d="M123.714 8.31445V47.2077" stroke="#3D3D7F" stroke-width="4.09403" stroke-linecap="square"/>
<path d="M145.939 8.31445V47.2077" stroke="#3D3D7F" stroke-width="4.09403" stroke-linecap="square"/>
<path d="M124.152 23.082H146.084" stroke="#3D3D7F" stroke-width="4.09403"/>
<path d="M49.582 46.1843V8.89938C66.9816 6.55989 71.5143 23.3747 71.5143 25.8603C71.5143 28.346 71.0757 47.7926 49.582 46.1843Z" stroke="#3D3D7F" stroke-width="4.09403" stroke-linecap="square"/>
<path d="M96.0791 54.2256C96.0791 54.2256 96.9564 57.2961 101.343 57.1499C102.366 56.8087 106.46 57.4423 106.899 51.155C106.899 44.2829 102.513 28.4917 102.513 28.4917C102.513 28.4917 100.173 18.2566 105.729 9.62989C112.309 -1.33625 120.205 2.31915 120.205 2.31915C120.205 2.31915 118.011 0.1259 110.993 1.2956C104.56 3.34263 101.197 10.6534 99.7345 13.4315C98.2723 16.2096 97.6875 22.4968 97.9799 26.2984C99.1496 35.0714 104.706 46.9148 103.975 52.9096C101.197 59.7817 96.0791 54.2256 96.0791 54.2256Z" fill="#EE3C23"/>
<circle cx="112.894" cy="14.4549" r="1.16972" fill="#EE3C23"/>
</svg>
