<svg width="379" height="916" viewBox="0 0 379 916" fill="none" xmlns="http://www.w3.org/2000/svg">
<path d="M390.907 340.429C436.555 324.51 497.092 324.158 550.202 339.219C603.324 354.284 648.88 384.724 664.761 430.262C680.722 476.03 698.048 531.044 694.589 581.726C692.861 607.054 685.941 631.283 671.075 652.73C656.209 674.177 633.375 692.874 599.765 707.105C532.56 735.561 447.941 727.141 376.1 700.142C340.187 686.645 307.493 668.514 281.791 648.054C256.083 627.588 237.407 604.821 229.471 582.064C213.591 536.53 231.042 484.117 263.985 439.037C296.921 393.967 345.257 356.349 390.907 340.429Z" stroke="#4D34BD" stroke-opacity="0.3"/>
<path d="M390.471 308.809C436.12 292.89 496.657 292.539 549.767 307.6C602.888 322.664 648.444 353.104 664.325 398.643C680.286 444.41 697.613 499.425 694.154 550.106C692.425 575.434 685.506 599.663 670.639 621.111C655.773 642.557 632.939 661.255 599.329 675.486C532.125 703.941 447.506 695.521 375.665 668.522C339.752 655.025 307.057 636.894 281.356 616.434C255.647 595.969 236.972 573.201 229.035 550.445C213.156 504.911 230.606 452.498 263.55 407.417C296.485 362.347 344.821 324.729 390.471 308.809Z" stroke="#4D34BD" stroke-opacity="0.3"/>
<path d="M390.035 277.19C435.683 261.27 496.22 260.919 549.33 275.98C602.452 291.045 648.008 321.484 663.889 367.023C679.849 412.791 697.176 467.805 693.717 518.486C691.989 543.815 685.069 568.044 670.203 589.491C655.337 610.938 632.503 629.635 598.892 643.866C531.688 672.321 447.069 663.902 375.228 636.903C339.315 623.406 306.621 605.275 280.919 584.815C255.211 564.349 236.535 541.582 228.599 518.825C212.719 473.291 230.17 420.878 263.113 375.797C296.048 330.727 344.385 293.11 390.035 277.19Z" stroke="#4D34BD" stroke-opacity="0.3"/>
<path d="M389.598 245.57C435.247 229.651 495.784 229.299 548.894 244.361C602.015 259.425 647.571 289.865 663.452 335.403C679.413 381.171 696.74 436.186 693.281 486.867C691.552 512.195 684.633 536.424 669.766 557.871C654.9 579.318 632.066 598.016 598.456 612.247C531.252 640.702 446.633 632.282 374.792 605.283C338.879 591.786 306.184 573.655 280.483 553.195C254.774 532.729 236.098 509.962 228.162 487.205C212.283 441.671 229.733 389.259 262.677 344.178C295.612 299.108 343.948 261.49 389.598 245.57Z" stroke="#4D34BD" stroke-opacity="0.3"/>
<path d="M389.161 213.951C434.81 198.031 495.347 197.68 548.457 212.741C601.578 227.805 647.135 258.245 663.015 303.784C678.976 349.551 696.303 404.566 692.844 455.247C691.116 480.575 684.196 504.804 669.33 526.252C654.464 547.698 631.63 566.396 598.019 580.627C530.815 609.082 446.196 600.662 374.355 573.663C338.442 560.166 305.748 542.035 280.046 521.575C254.338 501.11 235.662 478.343 227.726 455.586C211.846 410.052 229.297 357.639 262.24 312.558C295.175 267.488 343.512 229.87 389.161 213.951Z" stroke="#4D34BD" stroke-opacity="0.3"/>
<path d="M388.725 182.33C434.374 166.411 494.911 166.059 548.021 181.12C601.142 196.185 646.698 226.625 662.579 272.163C678.54 317.931 695.867 372.945 692.408 423.626C690.679 448.955 683.76 473.184 668.893 494.631C654.027 516.078 631.193 534.775 597.583 549.006C530.379 577.462 445.759 569.042 373.919 542.043C338.006 528.546 305.311 510.415 279.61 489.955C253.901 469.489 235.225 446.722 227.289 423.965C211.41 378.431 228.86 326.018 261.804 280.937C294.739 235.867 343.075 198.25 388.725 182.33Z" stroke="#4D34BD" stroke-opacity="0.3"/>
</svg>
