<svg width="249" height="686" viewBox="0 0 249 686" fill="none" xmlns="http://www.w3.org/2000/svg">
<path d="M-231.341 320.705C-215.23 275.124 -177.659 227.655 -132.702 195.618C-87.7361 163.574 -35.4983 147.046 9.97279 163.119C55.6727 179.273 109.444 200.141 146.838 234.524C165.527 251.707 180.112 272.255 187.558 297.266C195.004 322.276 195.323 351.787 185.419 386.917C165.616 457.159 106.145 517.941 40.161 557.135C7.17581 576.728 -27.4145 590.912 -59.451 598.181C-91.4961 605.453 -120.941 605.797 -143.664 597.765C-189.131 581.693 -219.13 535.307 -233.722 481.413C-248.31 427.531 -247.454 366.288 -231.341 320.705Z" stroke="#EF3F23" stroke-opacity="0.34"/>
<path d="M-256.294 301.279C-240.182 255.698 -202.611 208.229 -157.655 176.191C-112.688 144.147 -60.4504 127.62 -14.9794 143.693C30.7205 159.847 84.4917 180.715 121.886 215.098C140.575 232.281 155.16 252.828 162.606 277.84C170.052 302.85 170.371 332.361 160.467 367.49C140.664 437.732 81.193 498.515 15.2088 537.709C-17.7763 557.302 -52.3666 571.485 -84.4031 578.755C-116.448 586.027 -145.893 586.37 -168.616 578.338C-214.083 562.267 -244.083 515.881 -258.674 461.986C-273.262 408.105 -272.406 346.861 -256.294 301.279Z" stroke="#EF3F23" stroke-opacity="0.34"/>
<path d="M-281.246 281.853C-265.134 236.272 -227.563 188.802 -182.607 156.765C-137.64 124.721 -85.4026 108.194 -39.9315 124.267C5.76838 140.42 59.5395 161.289 96.9342 195.672C115.622 212.855 130.208 233.402 137.654 258.413C145.1 283.424 145.419 312.935 135.515 348.064C115.712 418.306 56.2408 479.089 -9.74332 518.282C-42.7285 537.875 -77.3188 552.059 -109.355 559.329C-141.4 566.6 -170.845 566.944 -193.569 558.912C-239.035 542.841 -269.035 496.455 -283.626 442.56C-298.214 388.679 -297.358 327.435 -281.246 281.853Z" stroke="#EF3F23" stroke-opacity="0.34"/>
<path d="M-306.198 262.427C-290.086 216.845 -252.516 169.376 -207.559 137.339C-162.593 105.295 -110.355 88.7673 -64.8837 104.84C-19.1838 120.994 34.5874 141.863 71.982 176.245C90.6703 193.428 105.255 213.976 112.702 238.987C120.148 263.997 120.466 293.508 110.563 328.638C90.7597 398.88 31.2887 459.662 -34.6955 498.856C-67.6806 518.449 -102.271 532.633 -134.307 539.902C-166.353 547.174 -195.798 547.518 -218.521 539.486C-263.987 523.414 -293.987 477.029 -308.578 423.134C-323.166 369.252 -322.31 308.009 -306.198 262.427Z" stroke="#EF3F23" stroke-opacity="0.34"/>
<path d="M-331.15 243C-315.038 197.419 -277.468 149.949 -232.511 117.912C-187.545 85.868 -135.307 69.3406 -89.8358 85.4136C-44.1359 101.567 9.63522 122.436 47.0299 156.819C65.7182 174.002 80.3033 194.549 87.7495 219.56C95.1954 244.571 95.5143 274.082 85.6105 309.211C65.8075 379.453 6.33652 440.235 -59.6476 479.429C-92.6328 499.022 -127.223 513.206 -159.26 520.476C-191.305 527.747 -220.75 528.091 -243.473 520.059C-288.939 503.988 -318.939 457.602 -333.531 403.707C-348.119 349.826 -347.262 288.582 -331.15 243Z" stroke="#EF3F23" stroke-opacity="0.34"/>
<path d="M-356.103 223.574C-339.991 177.992 -302.421 130.523 -257.464 98.4859C-212.498 66.4417 -160.26 49.9143 -114.789 65.9873C-69.089 82.1411 -15.3179 103.01 22.0767 137.392C40.765 154.575 55.3501 175.123 62.7964 200.134C70.2422 225.144 70.5612 254.655 60.6573 289.785C40.8544 360.027 -18.6166 420.809 -84.6007 460.003C-117.586 479.596 -152.176 493.78 -184.213 501.049C-216.258 508.321 -245.703 508.665 -268.426 500.633C-313.893 484.561 -343.892 438.176 -358.484 384.281C-373.072 330.399 -372.215 269.156 -356.103 223.574Z" stroke="#EF3F23" stroke-opacity="0.34"/>
</svg>
