<svg width="22" height="26" viewBox="0 0 22 26" fill="none" xmlns="http://www.w3.org/2000/svg">
<path d="M20.5893 10.6316C20.5893 18.09 11 24.4828 11 24.4828C11 24.4828 1.41064 18.09 1.41064 10.6316C1.41064 8.08835 2.42095 5.64926 4.21929 3.85092C6.01764 2.05257 8.45672 1.04227 11 1.04227C13.5432 1.04227 15.9823 2.05257 17.7806 3.85092C19.579 5.64926 20.5893 8.08835 20.5893 10.6316Z" stroke="#3D3D7F" stroke-width="1.91787" stroke-linecap="round" stroke-linejoin="round"/>
<path d="M11.0003 13.8281C12.7656 13.8281 14.1967 12.397 14.1967 10.6317C14.1967 8.86634 12.7656 7.43524 11.0003 7.43524C9.23493 7.43524 7.80383 8.86634 7.80383 10.6317C7.80383 12.397 9.23493 13.8281 11.0003 13.8281Z" stroke="#3D3D7F" stroke-width="1.91787" stroke-linecap="round" stroke-linejoin="round"/>
</svg>
