<svg width="799" height="498" viewBox="0 0 799 498" fill="none" xmlns="http://www.w3.org/2000/svg">
<g clip-path="url(#clip0_1193_1354)">
<path d="M88.1572 153.623H708.174" stroke="#DED8D5" stroke-width="3.9"/>
<path d="M700.103 112.95H96.2279C91.7706 112.95 88.1572 116.564 88.1572 121.023V488.561C88.1572 493.02 91.7706 496.634 96.2279 496.634H700.103C704.56 496.634 708.174 493.02 708.174 488.561V121.023C708.174 116.564 704.56 112.95 700.103 112.95Z" stroke="#DED8D5" stroke-width="3.9"/>
<path d="M123.296 139.34C126.416 139.34 128.945 136.81 128.945 133.69C128.945 130.569 126.416 128.039 123.296 128.039C120.176 128.039 117.646 130.569 117.646 133.69C117.646 136.81 120.176 139.34 123.296 139.34Z" fill="#FFB1A5"/>
<path d="M145.335 139.341C148.455 139.341 150.985 136.811 150.985 133.69C150.985 130.569 148.455 128.04 145.335 128.04C142.215 128.04 139.686 130.569 139.686 133.69C139.686 136.811 142.215 139.341 145.335 139.341Z" fill="#EAD254"/>
<path d="M167.374 139.341C170.494 139.341 173.024 136.811 173.024 133.69C173.024 130.569 170.494 128.04 167.374 128.04C164.254 128.04 161.725 130.569 161.725 133.69C161.725 136.811 164.254 139.341 167.374 139.341Z" fill="#00857B"/>
<path d="M788.694 140.831H642.987C638.872 140.831 635.537 144.167 635.537 148.282V283.028C635.537 287.143 638.872 290.479 642.987 290.479H788.694C792.809 290.479 796.144 287.143 796.144 283.028V148.282C796.144 144.167 792.809 140.831 788.694 140.831Z" fill="#EDEDED"/>
<path d="M788.694 140.831H642.987C638.872 140.831 635.537 144.167 635.537 148.282V283.028C635.537 287.143 638.872 290.479 642.987 290.479H788.694C792.809 290.479 796.144 287.143 796.144 283.028V148.282C796.144 144.167 792.809 140.831 788.694 140.831Z" stroke="#DED8D5" stroke-width="3.9"/>
<path d="M753.991 174.548H678.188C674.074 174.548 670.738 177.884 670.738 182V244.157C670.738 248.272 674.074 251.608 678.188 251.608H753.991C758.105 251.608 761.441 248.272 761.441 244.157V182C761.441 177.884 758.105 174.548 753.991 174.548Z" fill="#C98BD2"/>
<path d="M736.794 225.901H701.345H694.95V197.834H736.794V204.851V225.901Z" stroke="white" stroke-width="3.3" stroke-linecap="round" stroke-linejoin="round"/>
<path d="M736.794 197.834L715.872 214.289L694.95 197.834" stroke="white" stroke-width="3.3" stroke-linecap="round" stroke-linejoin="round"/>
<path d="M147.446 268.001H8.44311C4.53438 268.001 1.36572 271.17 1.36572 275.08V396.289C1.36572 400.198 4.53438 403.368 8.44311 403.368H147.446C151.354 403.368 154.523 400.198 154.523 396.289V275.08C154.523 271.17 151.354 268.001 147.446 268.001Z" fill="#EDEDED"/>
<path d="M147.446 268.001H8.44311C4.53438 268.001 1.36572 271.17 1.36572 275.08V396.289C1.36572 400.198 4.53438 403.368 8.44311 403.368H147.446C151.354 403.368 154.523 400.198 154.523 396.289V275.08C154.523 271.17 151.354 268.001 147.446 268.001Z" stroke="#DED8D5" stroke-width="3.9"/>
<path d="M113.673 291.225H41.5951C37.0349 291.225 33.3381 294.922 33.3381 299.483V369.091C33.3381 373.653 37.0349 377.35 41.5951 377.35H113.673C118.233 377.35 121.93 373.653 121.93 369.091V299.483C121.93 294.922 118.233 291.225 113.673 291.225Z" fill="#FFB1A5"/>
<path fill-rule="evenodd" clip-rule="evenodd" d="M95.8552 317.366C105.54 327.053 105.54 343.074 95.8552 352.76C86.1083 362.509 70.1531 362.509 60.4062 352.76C50.7214 343.074 50.7214 327.053 60.4062 317.366C70.1531 307.617 86.1083 307.617 95.8552 317.366ZM84.6804 313.454C85.9635 315.938 86.9982 318.443 87.7845 320.968H95.7932C92.9995 317.428 89.1503 314.758 84.6804 313.454ZM87.35 333.573C87.35 330.344 86.9775 327.115 86.1704 323.886H70.1531C69.3461 327.115 68.9736 330.344 68.9736 333.573H87.35ZM69.0357 336.554C69.2426 339.783 69.822 343.011 70.774 346.24H85.4875C86.398 343.011 86.9775 339.783 87.2258 336.554H69.0357ZM74.561 312.771C73.0296 315.504 71.8294 318.236 70.9602 320.968H85.3012C84.3907 318.236 83.1697 315.504 81.6384 312.771C80.5209 312.564 79.3413 312.461 78.0997 312.461C76.8994 312.461 75.7199 312.564 74.561 312.771ZM60.4683 320.968H68.4769C69.2633 318.443 70.298 315.938 71.581 313.454C67.1732 314.758 63.3241 317.428 60.4683 320.968ZM55.5638 333.573H66.3661C66.4075 330.344 66.8214 327.115 67.6078 323.886H58.4817C56.8675 326.805 55.8121 330.096 55.5638 333.573ZM67.9182 346.24C67.049 343.011 66.5317 339.783 66.3661 336.554H55.5638C55.8121 340.031 56.8675 343.322 58.4817 346.24H67.9182ZM71.8915 356.797C70.6498 354.23 69.6151 351.684 68.7873 349.159H60.4683C63.3862 352.76 67.2974 355.493 71.8915 356.797ZM81.0796 357.48C82.4868 354.706 83.6664 351.932 84.6183 349.159H71.7052C72.6157 351.932 73.7746 354.706 75.1818 357.48C76.1337 357.604 77.1271 357.666 78.1618 357.666C79.1551 357.666 80.1277 357.604 81.0796 357.48ZM95.7932 349.159H87.4741C86.6464 351.684 85.6117 354.23 84.37 356.797C88.9641 355.493 92.8753 352.76 95.7932 349.159ZM100.698 336.554H89.8953C89.7298 339.783 89.2124 343.011 88.3433 346.24H97.7798C99.3939 343.322 100.449 340.031 100.698 336.554ZM97.7798 323.886H88.6537C89.4401 327.115 89.854 330.344 89.8953 333.573H100.698C100.449 330.096 99.3939 326.805 97.7798 323.886Z" fill="white"/>
<path d="M139.189 77.5566H13.2856C10.6782 77.5566 8.56738 75.4454 8.56738 72.8374C8.56738 70.2294 10.6782 68.1182 13.2856 68.1182H139.189C141.734 68.1182 143.845 70.2294 143.845 72.8374C143.845 75.4454 141.734 77.5566 139.189 77.5566Z" fill="#C98BD2"/>
<path d="M793.847 385.112H732.758C730.151 385.112 728.04 383 728.04 380.392C728.04 377.847 730.151 375.735 732.758 375.735H793.847C796.455 375.735 798.566 377.847 798.566 380.392C798.566 383 796.455 385.112 793.847 385.112Z" fill="#56DFED"/>
<path d="M751.072 425.535H743.56C741.606 425.535 740.021 427.12 740.021 429.075V436.091C740.021 438.046 741.606 439.631 743.56 439.631H751.072C753.027 439.631 754.611 438.046 754.611 436.091V429.075C754.611 427.12 753.027 425.535 751.072 425.535Z" fill="#C98BD2"/>
<path d="M43.2714 458.135H35.7594C33.805 458.135 32.2207 459.72 32.2207 461.675V468.691C32.2207 470.646 33.805 472.231 35.7594 472.231H43.2714C45.2257 472.231 46.8101 470.646 46.8101 468.691V461.675C46.8101 459.72 45.2257 458.135 43.2714 458.135Z" fill="#FFB1A5"/>
<path d="M614.739 34.835H490.451C488.393 34.835 486.726 36.503 486.726 38.5606V68.925C486.726 70.9826 488.393 72.6507 490.451 72.6507H614.739C616.797 72.6507 618.464 70.9826 618.464 68.925V38.5606C618.464 36.503 616.797 34.835 614.739 34.835Z" fill="#FFB1A5"/>
<path d="M504.668 48.3096H593.073" stroke="white" stroke-width="2.4"/>
<path d="M504.668 57.3755H540.676" stroke="white" stroke-width="2.4"/>
<path d="M519.629 68.3662L501.066 83.1448V68.3662H519.629Z" fill="#FFB1A5"/>
<path d="M309.419 74.9484H249.261C243.425 74.9484 238.707 70.1671 238.707 64.3302V8.38278C238.707 3.97405 242.308 0.372559 246.716 0.372559H309.419C313.889 0.372559 317.427 3.97405 317.427 8.38278V66.876C317.427 71.3469 313.889 74.9484 309.419 74.9484Z" fill="#56DFED"/>
<path fill-rule="evenodd" clip-rule="evenodd" d="M296.443 48.9926C296.133 49.3031 295.76 49.7378 295.388 50.0483C294.85 50.545 294.374 51.0211 293.96 51.4764C293.919 51.5592 293.898 51.6006 293.898 51.6006C292.594 52.9046 291.042 53.6497 289.118 53.6497C288.869 53.6497 288.683 53.6497 288.559 53.6497C285.703 53.4014 283.158 52.3458 281.295 51.4764C276.329 49.1168 272.107 45.7016 268.506 41.4792C265.526 37.9398 263.54 34.6488 262.236 30.9852C261.677 29.557 261.056 27.3216 261.243 24.8999C261.367 23.3475 262.05 22.0435 263.043 20.9879L265.899 18.1936C266.768 17.2622 267.699 16.8896 268.755 16.8896C269.81 16.8896 270.803 17.3864 271.61 18.1936C272.107 18.6283 272.666 19.1872 273.163 19.6839C273.411 19.9944 273.659 20.2428 273.908 20.4911L276.142 22.7266C277.012 23.5959 277.508 24.6515 277.508 25.7071C277.508 26.7627 277.012 27.7562 276.142 28.6877C275.894 28.8946 275.646 29.1223 275.397 29.3707C274.839 29.9295 274.28 30.6126 273.659 31.1714C274.032 32.1029 274.777 33.2206 275.708 34.4004C277.819 37.0084 279.992 38.9954 282.351 40.5478C282.599 40.6719 282.847 40.734 283.158 40.9203C283.323 41.0031 283.489 41.0859 283.654 41.1687L286.2 38.6228C287.007 37.8156 288.062 37.3188 289.118 37.3188C290.111 37.3188 291.166 37.8156 291.973 38.6849L296.443 43.1557C298.12 44.8323 298.12 47.254 296.443 48.9926ZM294.643 45.0186L290.111 40.5478C289.863 40.2994 289.49 39.9268 289.118 39.9268C288.621 39.9268 288.186 40.2994 288 40.5478L285.144 43.342C284.524 43.963 283.717 44.1493 282.909 43.7146L282.847 43.6525C282.599 43.4662 282.351 43.4041 282.04 43.2178C281.73 43.0936 281.295 42.9074 280.985 42.659C278.377 40.9824 275.956 38.8091 273.721 36.0148C272.542 34.4004 271.61 33.1585 271.052 31.7303V31.6061C270.928 31.1714 270.741 30.4263 271.548 29.6191C271.59 29.5777 271.61 29.557 271.61 29.557C272.293 28.8739 272.914 28.253 273.659 27.5699C273.866 27.3216 274.094 27.0732 274.342 26.8248C274.59 26.5764 274.901 26.2039 274.901 25.7071C274.901 25.2724 274.59 24.8378 274.342 24.5894L272.107 22.354C271.797 22.1056 271.548 21.7951 271.3 21.5468C270.845 21.05 270.369 20.5739 269.872 20.1186C269.562 19.746 269.251 19.5597 268.755 19.5597C268.258 19.5597 267.886 19.8702 267.637 20.1186L264.906 22.7887C264.161 23.4717 263.85 24.2789 263.788 25.1483C263.602 26.6385 263.974 28.1909 264.719 30.1158C266.023 33.4069 267.886 36.5116 270.617 39.8026C273.97 43.7767 277.943 46.9435 282.537 49.1789C284.151 49.9862 286.386 50.9176 288.745 51.1039C288.931 51.1039 288.994 51.1039 289.18 51.1039C290.359 51.1039 291.228 50.6692 292.036 49.862C292.594 49.3031 293.091 48.7443 293.65 48.3096C293.981 47.9784 294.312 47.6473 294.643 47.3161C295.326 46.5089 295.326 45.7016 294.643 45.0186Z" fill="white"/>
<path d="M573.828 561.274H542.29L531.301 421.499H527.266L515.967 561.274H484.429C469.736 469.374 470.73 402.539 487.409 360.77L526.149 355.616L525.776 351.083L571.096 357.169C587.61 401.339 588.521 469.374 573.828 561.274Z" fill="#8E716C"/>
<path d="M512.862 421.499H545.766" stroke="#282828" stroke-width="2.5" stroke-linecap="round" stroke-linejoin="round"/>
<path d="M613.747 365.49C614.926 371.823 611.574 378.157 605.552 380.703C605.469 380.744 605.386 380.786 605.304 380.827C597.792 383.994 589.162 379.896 586.803 372.072C574.573 331.089 564.888 284.208 570.786 284.891C571.903 285.077 593.694 284.829 597.605 291.038C602.075 298.179 607.911 334.566 613.747 365.49Z" fill="#FFB1A5"/>
<path d="M602.758 307.99L574.945 318.794L572.338 305.568L601.144 298.365L602.758 307.99Z" fill="#F3978E"/>
<path d="M608.035 334.38C599.261 346.178 595.081 351.808 595.495 351.27C595.909 350.732 599.344 341.19 605.8 322.645L608.035 334.38Z" fill="#F3978E"/>
<path d="M643.733 316.621L612.319 374.617C608.408 381.758 599.344 384.056 592.515 379.647C585.748 375.238 584.134 365.924 589.1 359.528L626.846 310.598L643.733 316.621Z" fill="#FFB1A5"/>
<path d="M636.655 323.141C628.46 320.533 623.928 311.716 626.597 303.519C629.267 295.323 638.021 290.852 646.216 293.522C654.41 296.13 658.88 304.947 656.273 313.144C653.603 321.278 644.788 325.811 636.655 323.141Z" fill="#FFB1A5"/>
<path d="M626.598 303.519C632.558 289.051 641.932 288.306 649.506 291.411C654.514 293.48 655.611 296.006 652.796 298.986L626.598 303.519Z" fill="#FFB1A5"/>
<path d="M660.618 268.063L676.449 274.893C677.319 275.266 677.629 276.321 677.132 277.253L656.335 316.062C655.838 316.994 654.721 317.428 653.851 317.056L638.083 310.163C637.151 309.791 636.841 308.735 637.337 307.866L658.135 268.994C658.632 268.063 659.749 267.628 660.618 268.063Z" fill="#372F5F"/>
<path d="M659.128 267.38L674.897 274.21C675.766 274.583 676.139 275.638 675.642 276.508L654.845 315.379C654.348 316.31 653.23 316.745 652.361 316.373L636.53 309.48C635.661 309.107 635.351 308.052 635.847 307.183L656.645 268.311C657.142 267.38 658.197 266.945 659.128 267.38Z" fill="#261B43"/>
<path d="M657.328 271.292L671.235 277.315L654.286 308.984L640.38 302.96L657.328 271.292Z" fill="#E6E6E6"/>
<path d="M671.235 277.315L640.38 302.96L657.328 271.292L671.235 277.315Z" fill="white"/>
<path d="M644.912 290.168C647.271 290.624 649.506 291.452 651.617 292.652C653.045 293.397 653.728 295.012 653.355 296.626C652.983 298.055 651.803 299.11 650.375 299.296L642.118 300.29C639.262 305.216 635.972 307.969 632.247 308.549L637.4 295.571L644.912 290.168Z" fill="#FFB1A5"/>
<path d="M539.993 229.378C539.062 229.378 598.226 237.574 608.035 305.134L577.305 309.791L571.096 360.77H485.423L468.412 266.635C481.077 248.462 499.164 236.043 522.672 229.378H539.993Z" fill="#56DFED"/>
<path d="M577.305 309.79L579.974 280.357" stroke="#282828" stroke-width="2.5" stroke-linecap="round" stroke-linejoin="round"/>
<path d="M554.085 233.662L532.17 246.392L510.752 233.662C514.353 231.924 516.712 231.054 518.14 230.62V206.899H545.58V230.371C548.933 231.199 551.768 232.296 554.085 233.662Z" fill="#FFB1A5"/>
<path d="M546.139 202.553C547.422 214.682 544.028 221.078 535.958 221.74C527.183 222.485 521.161 218.49 517.892 209.756L546.139 202.553Z" fill="#282828"/>
<path d="M505.909 192.369C501.563 196.281 491.941 181.441 496.1 177.28C498.873 174.507 501.315 175.293 503.426 179.64L505.288 184.049L506.716 190.072L507.027 191.624L505.909 192.369Z" fill="#F3978E"/>
<path d="M498.087 182.558C500.28 181.565 502.35 182.641 504.295 185.787" stroke="#282828" stroke-width="2" stroke-linecap="round" stroke-linejoin="round"/>
<path d="M555.699 191.066L556.196 189.575L558.058 183.676L560.293 179.454C562.777 175.314 565.281 174.735 567.805 177.715C571.592 182.186 560.79 196.157 556.817 191.935L555.699 191.066Z" fill="#F3978E"/>
<path d="M565.385 182.807C563.274 181.648 561.142 182.538 558.99 185.477" stroke="#282828" stroke-width="2" stroke-linecap="round" stroke-linejoin="round"/>
<path d="M531.736 130.212C550.175 130.212 565.137 143.563 565.137 163.123C565.137 182.745 550.175 192.059 531.736 192.059C513.298 192.059 498.336 182.745 498.336 163.123C498.336 143.563 513.298 130.212 531.736 130.212Z" fill="#282828"/>
<path d="M532.046 134.683C552.74 134.311 562.197 144.246 560.417 164.489C560.211 174.921 559.155 184.835 557.251 194.232C555.761 201.994 550.733 207.458 543.531 211.619C536.454 215.779 527.39 215.717 520.436 211.37L519.195 210.625C512.614 206.589 507.958 201.559 506.282 194.294C504.543 186.967 502.867 176.535 502.867 164.489C501.625 145.033 511.352 135.097 532.046 134.683Z" fill="#FFB1A5"/>
<path d="M534.033 187.278L532.108 187.837C531.239 188.023 530.246 187.65 529.873 186.781C529.79 186.574 529.749 186.346 529.749 186.098V181.875" stroke="#282828" stroke-width="2.5" stroke-linecap="round" stroke-linejoin="round"/>
<path d="M524.844 165.544L509.386 169.146C509.841 166.538 512.179 164.758 516.401 163.806C520.623 162.854 523.437 163.433 524.844 165.544Z" fill="#282828"/>
<path d="M546.636 163.806C550.692 164.758 552.947 166.538 553.403 169.146L538.503 165.544C539.869 163.433 542.58 162.854 546.636 163.806Z" fill="#282828"/>
<path d="M518.946 179.516C520.386 179.516 521.554 178.348 521.554 176.908C521.554 175.467 520.386 174.3 518.946 174.3C517.506 174.3 516.339 175.467 516.339 176.908C516.339 178.348 517.506 179.516 518.946 179.516Z" fill="#282828"/>
<path d="M543.594 179.516C545.034 179.516 546.201 178.348 546.201 176.908C546.201 175.467 545.034 174.3 543.594 174.3C542.154 174.3 540.986 175.467 540.986 176.908C540.986 178.348 542.154 179.516 543.594 179.516Z" fill="#282828"/>
<path d="M521.555 192.68H541.607C535.689 199.924 529.005 199.924 521.555 192.68Z" fill="white"/>
<path d="M517.891 188.954C523.995 188.954 528.942 184.006 528.942 177.901C528.942 171.797 523.995 166.849 517.891 166.849C511.788 166.849 506.841 171.797 506.841 177.901C506.841 184.006 511.788 188.954 517.891 188.954Z" stroke="#C98BD2" stroke-width="2.7"/>
<path d="M545.021 188.954C551.125 188.954 556.072 184.006 556.072 177.901C556.072 171.797 551.125 166.849 545.021 166.849C538.918 166.849 533.971 171.797 533.971 177.901C533.971 184.006 538.918 188.954 545.021 188.954Z" stroke="#C98BD2" stroke-width="2.7"/>
<path d="M528.942 177.901C530.681 176.245 532.357 176.245 533.971 177.901" stroke="#C98BD2" stroke-width="2.7"/>
<path d="M506.778 177.902L503.302 177.777" stroke="#C98BD2" stroke-width="2.7"/>
<path d="M556.072 177.902L559.611 177.777" stroke="#C98BD2" stroke-width="2.7"/>
<path d="M559.983 174.61C551.706 163.433 548.519 152.173 550.423 140.831C556.59 143.935 560.459 149.462 562.032 157.41C563.646 165.399 562.963 171.133 559.983 174.61Z" fill="#282828"/>
<path d="M501.998 157.41C503.612 149.462 507.751 143.563 514.415 139.713C516.318 151.014 512.469 163.019 502.867 175.728C500.674 171.505 500.384 165.399 501.998 157.41Z" fill="#282828"/>
<path d="M558.928 147.537C548.333 159.17 528.508 163.992 499.453 162.005C503.882 144.908 513.153 135.47 527.266 133.69C543.49 131.744 554.044 136.36 558.928 147.537Z" fill="#282828"/>
<path d="M557.81 147.91C569.296 147.91 578.608 138.596 578.608 127.108C578.608 115.619 569.296 106.306 557.81 106.306C546.324 106.306 537.013 115.619 537.013 127.108C537.013 138.596 546.324 147.91 557.81 147.91Z" fill="#282828"/>
<path d="M306.812 557.611H275.336L263.975 417.835H259.939L248.951 557.611H217.413C202.762 465.71 203.672 397.655 220.145 353.443L265.465 347.42L265.092 351.953L303.832 357.107C320.511 398.876 321.504 465.71 306.812 557.611Z" fill="#282828"/>
<path d="M274.219 234.656C267.762 235.028 262.547 234.47 258.201 233.166V233.538C214.557 239.934 190.594 217.021 204.811 189.823C212.881 174.424 223.373 172.375 223.684 159.024C223.994 145.736 229.457 134.559 245.226 129.84C255.697 126.735 264.41 129.654 271.363 138.595C279.723 135.656 285.186 137.809 287.753 145.053C291.353 155.175 295.513 162.378 300.79 168.525C321.525 192.99 326.616 231.551 274.219 234.656Z" fill="#282828"/>
<path d="M282.475 187.961L282.785 186.408L284.213 180.385L286.075 175.976C288.186 171.63 290.628 170.843 293.401 173.617C297.561 177.777 287.938 192.618 283.592 188.706L282.475 187.961Z" fill="#F3978E"/>
<path d="M291.353 178.833C289.201 177.881 287.152 178.978 285.207 182.124" stroke="#282828" stroke-width="2" stroke-linecap="round" stroke-linejoin="round"/>
<path d="M232.685 188.209C228.712 192.493 217.91 178.522 221.697 174.051C224.221 171.029 226.725 171.609 229.209 175.79L231.444 180.012L233.306 185.911L233.803 187.402L232.685 188.209Z" fill="#F3978E"/>
<path d="M224.117 179.081C226.187 177.922 228.318 178.833 230.512 181.813" stroke="#282828" stroke-width="2" stroke-linecap="round" stroke-linejoin="round"/>
<path d="M291.167 159.459C291.167 179.081 276.205 188.395 257.767 188.395C239.328 188.395 224.366 179.081 224.366 159.459C224.366 139.837 239.328 126.549 257.767 126.549C276.205 126.549 291.167 139.837 291.167 159.459Z" fill="#282828"/>
<path d="M271.362 238.816H243.922V203.236H271.362V238.816Z" fill="#FFB1A5"/>
<path d="M273.722 202.491L273.349 205.844C272.604 211.681 268.134 216.959 264.596 218.263C262.174 219.07 259.443 219.318 256.959 218.697C250.668 217.083 244.977 211.184 239.887 201C251.268 208.079 262.547 208.576 273.722 202.491Z" fill="#282828"/>
<path d="M286.635 160.825C286.635 172.872 284.959 183.304 283.22 190.631C281.544 197.896 276.888 202.926 270.307 206.962L269.065 207.707C262.112 211.991 253.048 212.116 245.971 207.955C238.769 203.795 233.741 198.268 232.251 190.569C230.347 181.172 229.291 171.257 229.084 160.825C227.305 140.582 236.762 130.647 257.456 131.02C278.15 131.434 287.876 141.369 286.635 160.825Z" fill="#FFB1A5"/>
<path d="M260.001 183.552L258.077 184.049C257.146 184.297 256.152 183.924 255.842 183.055C255.759 182.807 255.718 182.558 255.718 182.31V179.826" stroke="#282828" stroke-width="2.5" stroke-linecap="round" stroke-linejoin="round"/>
<path d="M271.176 161.509C275.687 162.502 278.191 164.427 278.688 167.283L262.174 163.371C263.664 161.095 266.664 160.474 271.176 161.509Z" fill="#282828"/>
<path d="M253.482 163.371L236.782 167.283C237.279 164.427 239.804 162.502 244.356 161.508C248.95 160.473 251.992 161.094 253.482 163.371Z" fill="#282828"/>
<path d="M244.915 176.225C246.355 176.225 247.523 175.057 247.523 173.617C247.523 172.176 246.355 171.009 244.915 171.009C243.475 171.009 242.308 172.176 242.308 173.617C242.308 175.057 243.475 176.225 244.915 176.225Z" fill="#282828"/>
<path d="M269.562 176.225C271.002 176.225 272.169 175.057 272.169 173.617C272.169 172.176 271.002 171.009 269.562 171.009C268.122 171.009 266.954 172.176 266.954 173.617C266.954 175.057 268.122 176.225 269.562 176.225Z" fill="#282828"/>
<path d="M245.784 188.396H268.63C267.554 192.577 263.56 194.667 256.649 194.667C251.392 194.667 247.771 192.577 245.784 188.396Z" fill="white"/>
<path d="M227.47 153.746C229.043 145.757 232.912 140.23 239.079 137.167C240.983 148.468 237.796 159.728 229.519 170.947C226.539 167.469 225.856 161.736 227.47 153.746Z" fill="#282828"/>
<path d="M286.634 170.388C277.032 158.797 273.183 147.33 275.087 135.987C281.75 139.837 285.889 145.757 287.503 153.746C289.117 161.736 288.828 167.283 286.634 170.388Z" fill="#282828"/>
<path d="M262.236 129.964C276.308 131.786 285.02 141.803 288.373 160.018C259.318 162.005 240.052 156.623 230.574 143.873C235.458 132.655 246.012 128.018 262.236 129.964Z" fill="#282828"/>
<path d="M178.922 440.066C182.854 351.85 187.572 302.132 193.077 290.914C195.932 285.139 215.116 283.338 216.109 283.09C227.098 280.668 190.221 442.239 190.842 441.245L178.922 440.066Z" fill="#FFB1A5"/>
<path d="M189.849 436.65C198.043 439.445 200.216 449.628 200.775 453.913C200.899 454.968 200.341 456.086 199.347 456.583C197.857 457.266 196.119 456.521 195.684 454.968C194.484 450.911 192.808 449.007 190.656 449.256C187.8 458.694 193.511 462.854 197.174 464.469C198.664 465.152 199.471 466.828 198.913 468.381L198.851 468.567C198.354 469.995 196.926 470.865 195.436 470.678C180.453 468.65 174.949 458.446 178.922 440.066L189.849 436.65Z" fill="#FFB1A5"/>
<path d="M189.476 305.879L215.302 317.056C210.418 344.709 207.935 358.722 207.852 359.094C207.77 359.508 200.651 349.718 186.496 329.723L189.476 305.879Z" fill="#F3978E"/>
<path d="M275.522 232.545C299.03 239.21 314.799 249.331 322.828 262.909L305.818 357.107H220.144L213.936 306.127L183.205 301.408C193.014 233.911 246.467 232.98 245.536 232.98L275.522 232.545Z" fill="#00857B"/>
<path d="M257.394 227.267C271.383 229.419 284.4 233.869 296.444 240.617C291.187 247.654 278.357 251.173 257.953 251.173C237.3 251.173 224.449 247.82 219.399 241.114C232.23 234.076 244.895 229.461 257.394 227.267Z" fill="#FFB1A5"/>
<path d="M396.334 454.968L391.243 589.589H324.629L324.566 454.968H396.334Z" fill="#005683"/>
<path d="M469.157 454.968L469.095 589.59H402.48L397.39 454.968H469.157Z" fill="#005683"/>
<path d="M432.776 501.787H363.927V454.968H432.776V501.787Z" fill="#005683"/>
<path d="M511.248 337.485C515.346 383.125 511 416.345 512.179 500.297L472.447 501.974L466.549 344.812L511.248 337.485Z" fill="#FFB1A5"/>
<path d="M471.454 355.554L512.428 349.966L512.863 359.715C501.647 367.125 487.844 371.596 471.454 373.127V355.554Z" fill="#F3978E"/>
<path d="M431.97 232.482C484.078 245.564 514.85 285.201 524.286 351.394C498.791 362.447 473.254 365.593 447.677 360.832L456.306 327.612L431.97 232.482Z" fill="#C98BD2"/>
<path d="M198.477 273.714L256.648 342.515L238.831 392.687C209.362 351.664 188.006 315.297 174.762 283.587L198.477 273.714Z" fill="#FFB1A5"/>
<path d="M200.34 276.197C186.723 283.897 178.197 286.36 174.762 283.586C168.678 278.702 163.132 267.359 158.124 249.558C183.619 239.954 196.243 235.339 195.994 235.711C195.746 236.084 197.195 249.579 200.34 276.197Z" fill="#FFB1A5"/>
<path d="M193.449 257.321L203.01 240.928C204.127 238.878 206.362 238.754 207.79 239.003C209.963 239.437 211.329 241.611 210.646 243.66C207.976 251.98 200.03 274.148 200.34 276.197L193.449 257.321Z" fill="#FFB1A5"/>
<path d="M188.296 244.529L185.378 220.126C185.192 218.263 186.433 216.524 188.296 216.214C190.531 215.779 192.704 217.269 193.076 219.443L199.657 252.229L188.296 244.529Z" fill="#FFB1A5"/>
<path d="M176.873 245.46L170.23 218.449C169.796 216.586 170.789 214.848 172.59 214.227C174.576 213.544 176.873 214.723 177.618 216.773L186.558 240.12L176.873 245.46Z" fill="#FFB1A5"/>
<path d="M166.94 248.69L157.876 227.018C157.069 224.969 157.938 222.734 159.925 221.865C162.035 220.933 164.643 221.927 165.636 224.038L176.997 247.013L166.94 248.69Z" fill="#FFB1A5"/>
<path d="M158.124 249.559L149.246 235.463C148.501 233.849 149.184 231.986 150.798 231.241C152.35 230.558 154.275 231.054 155.268 232.545L166.94 248.689L158.124 249.559Z" fill="#FFB1A5"/>
<path d="M197.857 249.745C188.999 248.834 184.116 254.299 183.205 266.138" stroke="#282828" stroke-width="3.1" stroke-linecap="round" stroke-linejoin="round"/>
<path d="M246.777 346.24L307.991 270.857L315.627 350.401C292.946 381.49 274.342 398.711 259.815 402.064C245.287 405.417 234.361 394.467 227.035 369.216L246.777 346.24Z" fill="#FFB1A5"/>
<path d="M271.114 315.938L315.628 350.401L304.08 364.993C292.326 357.666 279.558 343.591 265.775 322.768L271.114 315.938Z" fill="#F3978E"/>
<path d="M335.058 331.834L314.075 357.542C293.173 348.807 276.204 334.629 263.167 315.007C284.73 267.939 315.751 239.851 356.228 230.744L335.058 331.834Z" fill="#C98BD2"/>
<path d="M431.969 232.483C445.586 238.444 458.664 247.572 471.205 259.866L471.702 465.028H322.269L317.613 258.811C327.546 248.048 340.418 238.63 356.229 230.558C373.053 221.864 414.648 224.845 431.969 232.483Z" fill="#C98BD2"/>
<path d="M426.941 331.027C415.456 331.027 406.144 321.713 406.144 310.226V289.424H447.677V310.226C447.677 321.713 438.364 331.027 426.941 331.027Z" stroke="#282828" stroke-width="2.8" stroke-linecap="round" stroke-linejoin="round"/>
<path d="M471.454 361.577L473.379 294.143" stroke="#282828" stroke-width="2.8" stroke-linecap="round" stroke-linejoin="round"/>
<path d="M319.911 350.338L316.683 291.845" stroke="#282828" stroke-width="2.8" stroke-linecap="round" stroke-linejoin="round"/>
<path d="M357.967 155.174L351.759 124.375C351.386 121.892 350.393 117.98 351.635 114.378C353.559 108.355 360.823 96.8053 373.239 102.083L375.909 114.254C367.341 115.993 361.319 122.471 357.843 133.69L357.967 155.174Z" fill="#282828"/>
<path d="M372.308 108.417C372.06 112.454 368.521 130.213 355.98 136.671C348.613 120.94 354.056 111.522 372.308 108.417Z" fill="#282828"/>
<path d="M431.969 232.483C429.569 246.847 416.511 253.885 392.795 253.595C369.038 253.264 356.043 245.874 353.808 231.427L368.149 224.845V172.499H416.387V224.845L431.969 232.483Z" fill="#FFB1A5"/>
<path d="M373.239 102.084C379.116 86.5185 391.16 82.8756 409.371 91.1549C425.885 98.6684 430.541 108.728 432.466 115.869C433.149 118.228 433.397 121.954 433.211 124.189L426.63 155.175L400.866 112.267L375.909 114.254L373.239 102.084Z" fill="#282828"/>
<path d="M426.63 155.174C428.782 151.738 432.093 150.869 436.563 152.566C443.268 155.112 440.226 171.381 430.169 173.492C427.768 174.03 425.637 173.472 423.774 171.816C425.43 163.785 426.382 158.238 426.63 155.174Z" fill="#F3978E"/>
<path d="M435.259 158.341C431.493 157.099 428.286 159.231 425.637 164.737" stroke="#282828" stroke-width="2.8" stroke-linecap="round" stroke-linejoin="round"/>
<path d="M360.823 171.816C358.961 173.472 356.829 174.03 354.429 173.492C344.309 171.381 341.329 155.112 348.034 152.566C352.504 150.869 355.815 151.738 357.968 155.174C358.216 158.238 359.168 163.785 360.823 171.816Z" fill="#F3978E"/>
<path d="M349.338 158.341C353.104 157.099 356.312 159.231 358.961 164.737" stroke="#282828" stroke-width="2.8" stroke-linecap="round" stroke-linejoin="round"/>
<path d="M427.313 139.775C427.313 149.586 426.32 170.14 420.298 182.31C414.648 193.736 405.274 199.945 392.982 200.256C380.689 200.628 371.501 195.909 364.175 181.068C359.292 171.133 356.974 157.41 357.222 139.899C357.222 116.51 368.769 104.816 391.864 104.816C416.2 104.816 428.017 116.469 427.313 139.775Z" fill="#FFB1A5"/>
<path d="M392.982 200.256C402.543 200.256 410.344 196.468 416.387 188.892C412.745 205.575 404.074 213.026 390.374 211.246C378.496 209.673 371.212 202.056 368.521 188.396C374.15 196.344 382.304 200.297 392.982 200.256Z" fill="#282828"/>
<path d="M395.775 164.178L393.105 164.861C391.802 165.172 390.436 164.613 389.939 163.433C389.815 163.102 389.753 162.771 389.753 162.44V154.305" stroke="#282828" stroke-width="2.8" stroke-linecap="round" stroke-linejoin="round"/>
<path d="M376.405 153.622C378.154 153.622 379.572 152.204 379.572 150.455C379.572 148.706 378.154 147.289 376.405 147.289C374.657 147.289 373.239 148.706 373.239 150.455C373.239 152.204 374.657 153.622 376.405 153.622Z" fill="#282828"/>
<path d="M405.957 153.622C407.706 153.622 409.123 152.204 409.123 150.455C409.123 148.706 407.706 147.289 405.957 147.289C404.209 147.289 402.791 148.706 402.791 150.455C402.791 152.204 404.209 153.622 405.957 153.622Z" fill="#282828"/>
<path d="M409.495 132.075C415.248 133.524 418.456 136.236 419.118 140.21L397.886 134.746C399.831 131.517 403.701 130.627 409.495 132.075Z" fill="#282828"/>
<path d="M384.724 134.746L363.492 140.21C364.113 136.236 367.321 133.524 373.115 132.075C378.909 130.627 382.779 131.517 384.724 134.746Z" fill="#282828"/>
<path d="M404.032 170.636C400.887 172.209 396.831 172.996 391.864 172.996C386.359 172.996 382.572 172.209 380.503 170.636" stroke="#282828" stroke-width="2.8" stroke-linecap="round" stroke-linejoin="round"/>
<path d="M375.537 164.737C382.943 164.737 388.947 158.732 388.947 151.325C388.947 143.917 382.943 137.912 375.537 137.912C368.131 137.912 362.127 143.917 362.127 151.325C362.127 158.732 368.131 164.737 375.537 164.737Z" stroke="white" stroke-width="3.9"/>
<path d="M408.503 164.737C415.909 164.737 421.912 158.732 421.912 151.325C421.912 143.917 415.909 137.912 408.503 137.912C401.097 137.912 395.093 143.917 395.093 151.325C395.093 158.732 401.097 164.737 408.503 164.737Z" stroke="white" stroke-width="3.9"/>
<path d="M388.946 151.325C391.057 149.379 393.106 149.379 395.092 151.325" stroke="white" stroke-width="3.9"/>
<path d="M362.127 151.325L357.595 151.263" stroke="white" stroke-width="3.9"/>
<path d="M421.912 151.325L426.879 151.263" stroke="white" stroke-width="3.9"/>
<path d="M394.099 101.463C413.511 106.844 423.526 109.432 424.147 109.225C424.727 109.018 426.175 119.574 428.493 140.893C425.348 131.372 417.194 126.735 404.033 126.984C384.663 127.356 372.826 121.437 368.521 109.225L394.099 101.463Z" fill="#282828"/>
</g>
<defs>
<clipPath id="clip0_1193_1354">
<rect width="799" height="498" fill="white"/>
</clipPath>
</defs>
</svg>
