<svg width="12" height="666" viewBox="0 0 12 666" fill="none" xmlns="http://www.w3.org/2000/svg">
<path d="M0.666667 6C0.666666 8.94552 3.05448 11.3333 6 11.3333C8.94552 11.3333 11.3333 8.94552 11.3333 6C11.3333 3.05448 8.94552 0.666667 6 0.666667C3.05448 0.666666 0.666667 3.05448 0.666667 6ZM0.666638 660C0.666638 662.945 3.05445 665.333 5.99997 665.333C8.94549 665.333 11.3333 662.945 11.3333 660C11.3333 657.054 8.94549 654.667 5.99997 654.667C3.05445 654.667 0.666638 657.054 0.666638 660ZM5 12.0556C5 12.6078 5.44771 13.0556 6 13.0556C6.55228 13.0556 7 12.6078 7 12.0556L5 12.0556ZM7 24.1667C7 23.6144 6.55228 23.1667 6 23.1667C5.44771 23.1667 5 23.6144 5 24.1667L7 24.1667ZM5 36.2778C5 36.8301 5.44771 37.2778 6 37.2778C6.55228 37.2778 7 36.8301 7 36.2778L5 36.2778ZM7 48.3889C7 47.8366 6.55228 47.3889 6 47.3889C5.44771 47.3889 5 47.8366 5 48.3889L7 48.3889ZM5 60.5C5 61.0523 5.44771 61.5 6 61.5C6.55228 61.5 7 61.0523 7 60.5L5 60.5ZM7 72.6111C7 72.0588 6.55228 71.6111 6 71.6111C5.44771 71.6111 5 72.0588 5 72.6111L7 72.6111ZM5 84.7222C5 85.2745 5.44771 85.7222 6 85.7222C6.55228 85.7222 7 85.2745 7 84.7222L5 84.7222ZM7 96.8333C7 96.281 6.55228 95.8333 6 95.8333C5.44771 95.8333 5 96.281 5 96.8333L7 96.8333ZM5 108.944C5 109.497 5.44771 109.944 6 109.944C6.55228 109.944 7 109.497 7 108.944L5 108.944ZM6.99999 121.056C6.99999 120.503 6.55228 120.056 6 120.056C5.44771 120.056 4.99999 120.503 4.99999 121.056L6.99999 121.056ZM4.99999 133.167C4.99999 133.719 5.44771 134.167 5.99999 134.167C6.55228 134.167 6.99999 133.719 6.99999 133.167L4.99999 133.167ZM6.99999 145.278C6.99999 144.725 6.55228 144.278 5.99999 144.278C5.44771 144.278 4.99999 144.725 4.99999 145.278L6.99999 145.278ZM4.99999 157.389C4.99999 157.941 5.44771 158.389 5.99999 158.389C6.55228 158.389 6.99999 157.941 6.99999 157.389L4.99999 157.389ZM6.99999 169.5C6.99999 168.948 6.55228 168.5 5.99999 168.5C5.44771 168.5 4.99999 168.948 4.99999 169.5L6.99999 169.5ZM4.99999 181.611C4.99999 182.163 5.44771 182.611 5.99999 182.611C6.55228 182.611 6.99999 182.163 6.99999 181.611L4.99999 181.611ZM6.99999 193.722C6.99999 193.17 6.55228 192.722 5.99999 192.722C5.44771 192.722 4.99999 193.17 4.99999 193.722L6.99999 193.722ZM4.99999 205.833C4.99999 206.386 5.44771 206.833 5.99999 206.833C6.55228 206.833 6.99999 206.386 6.99999 205.833L4.99999 205.833ZM6.99999 217.944C6.99999 217.392 6.55228 216.944 5.99999 216.944C5.44771 216.944 4.99999 217.392 4.99999 217.944L6.99999 217.944ZM4.99999 230.056C4.99999 230.608 5.44771 231.056 5.99999 231.056C6.55227 231.056 6.99999 230.608 6.99999 230.056L4.99999 230.056ZM6.99999 242.167C6.99999 241.614 6.55227 241.167 5.99999 241.167C5.4477 241.167 4.99999 241.614 4.99999 242.167L6.99999 242.167ZM4.99999 254.278C4.99999 254.83 5.4477 255.278 5.99999 255.278C6.55227 255.278 6.99999 254.83 6.99999 254.278L4.99999 254.278ZM6.99999 266.389C6.99999 265.837 6.55227 265.389 5.99999 265.389C5.4477 265.389 4.99999 265.837 4.99999 266.389L6.99999 266.389ZM4.99999 278.5C4.99999 279.052 5.4477 279.5 5.99999 279.5C6.55227 279.5 6.99999 279.052 6.99999 278.5L4.99999 278.5ZM6.99999 290.611C6.99999 290.059 6.55227 289.611 5.99999 289.611C5.4477 289.611 4.99999 290.059 4.99999 290.611L6.99999 290.611ZM4.99999 302.722C4.99999 303.275 5.4477 303.722 5.99999 303.722C6.55227 303.722 6.99999 303.275 6.99999 302.722L4.99999 302.722ZM6.99999 314.833C6.99999 314.281 6.55227 313.833 5.99999 313.833C5.4477 313.833 4.99999 314.281 4.99999 314.833L6.99999 314.833ZM4.99999 326.944C4.99999 327.497 5.4477 327.944 5.99999 327.944C6.55227 327.944 6.99999 327.497 6.99999 326.944L4.99999 326.944ZM6.99999 339.056C6.99999 338.503 6.55227 338.056 5.99999 338.056C5.4477 338.056 4.99999 338.503 4.99999 339.056L6.99999 339.056ZM4.99998 351.167C4.99998 351.719 5.4477 352.167 5.99998 352.167C6.55227 352.167 6.99998 351.719 6.99998 351.167L4.99998 351.167ZM6.99998 363.278C6.99998 362.726 6.55227 362.278 5.99998 362.278C5.4477 362.278 4.99998 362.726 4.99998 363.278L6.99998 363.278ZM4.99998 375.389C4.99998 375.941 5.4477 376.389 5.99998 376.389C6.55227 376.389 6.99998 375.941 6.99998 375.389L4.99998 375.389ZM6.99998 387.5C6.99998 386.948 6.55227 386.5 5.99998 386.5C5.4477 386.5 4.99998 386.948 4.99998 387.5L6.99998 387.5ZM4.99998 399.611C4.99998 400.163 5.4477 400.611 5.99998 400.611C6.55227 400.611 6.99998 400.163 6.99998 399.611L4.99998 399.611ZM6.99998 411.722C6.99998 411.17 6.55227 410.722 5.99998 410.722C5.4477 410.722 4.99998 411.17 4.99998 411.722L6.99998 411.722ZM4.99998 423.833C4.99998 424.386 5.4477 424.833 5.99998 424.833C6.55227 424.833 6.99998 424.386 6.99998 423.833L4.99998 423.833ZM6.99998 435.945C6.99998 435.392 6.55227 434.945 5.99998 434.945C5.4477 434.945 4.99998 435.392 4.99998 435.945L6.99998 435.945ZM4.99998 448.056C4.99998 448.608 5.4477 449.056 5.99998 449.056C6.55227 449.056 6.99998 448.608 6.99998 448.056L4.99998 448.056ZM6.99998 460.167C6.99998 459.614 6.55226 459.167 5.99998 459.167C5.4477 459.167 4.99998 459.614 4.99998 460.167L6.99998 460.167ZM4.99998 472.278C4.99998 472.83 5.44769 473.278 5.99998 473.278C6.55226 473.278 6.99998 472.83 6.99998 472.278L4.99998 472.278ZM6.99998 484.389C6.99998 483.837 6.55226 483.389 5.99998 483.389C5.44769 483.389 4.99998 483.837 4.99998 484.389L6.99998 484.389ZM4.99998 496.5C4.99998 497.052 5.44769 497.5 5.99998 497.5C6.55226 497.5 6.99998 497.052 6.99998 496.5L4.99998 496.5ZM6.99998 508.611C6.99998 508.059 6.55226 507.611 5.99998 507.611C5.44769 507.611 4.99998 508.059 4.99998 508.611L6.99998 508.611ZM4.99998 520.722C4.99998 521.275 5.44769 521.722 5.99998 521.722C6.55226 521.722 6.99998 521.275 6.99998 520.722L4.99998 520.722ZM6.99998 532.833C6.99998 532.281 6.55226 531.833 5.99998 531.833C5.44769 531.833 4.99998 532.281 4.99998 532.833L6.99998 532.833ZM4.99998 544.944C4.99998 545.497 5.44769 545.944 5.99998 545.944C6.55226 545.944 6.99998 545.497 6.99998 544.944L4.99998 544.944ZM6.99998 557.056C6.99998 556.503 6.55226 556.056 5.99998 556.056C5.44769 556.056 4.99998 556.503 4.99998 557.056L6.99998 557.056ZM4.99998 569.167C4.99998 569.719 5.44769 570.167 5.99998 570.167C6.55226 570.167 6.99998 569.719 6.99998 569.167L4.99998 569.167ZM6.99997 581.278C6.99997 580.725 6.55226 580.278 5.99997 580.278C5.44769 580.278 4.99997 580.725 4.99997 581.278L6.99997 581.278ZM4.99997 593.389C4.99997 593.941 5.44769 594.389 5.99997 594.389C6.55226 594.389 6.99997 593.941 6.99997 593.389L4.99997 593.389ZM6.99997 605.5C6.99997 604.948 6.55226 604.5 5.99997 604.5C5.44769 604.5 4.99997 604.948 4.99997 605.5L6.99997 605.5ZM4.99997 617.611C4.99997 618.163 5.44769 618.611 5.99997 618.611C6.55226 618.611 6.99997 618.163 6.99997 617.611L4.99997 617.611ZM6.99997 629.722C6.99997 629.17 6.55226 628.722 5.99997 628.722C5.44769 628.722 4.99997 629.17 4.99997 629.722L6.99997 629.722ZM4.99997 641.833C4.99997 642.385 5.44769 642.833 5.99997 642.833C6.55226 642.833 6.99997 642.385 6.99997 641.833L4.99997 641.833ZM6.99997 653.944C6.99997 653.392 6.55226 652.944 5.99997 652.944C5.44769 652.944 4.99997 653.392 4.99997 653.944L6.99997 653.944ZM5 6L5 12.0556L7 12.0556L7 6L5 6ZM5 24.1667L5 36.2778L7 36.2778L7 24.1667L5 24.1667ZM5 48.3889L5 60.5L7 60.5L7 48.3889L5 48.3889ZM5 72.6111L5 84.7222L7 84.7222L7 72.6111L5 72.6111ZM5 96.8333L5 108.944L7 108.944L7 96.8333L5 96.8333ZM4.99999 121.056L4.99999 133.167L6.99999 133.167L6.99999 121.056L4.99999 121.056ZM4.99999 145.278L4.99999 157.389L6.99999 157.389L6.99999 145.278L4.99999 145.278ZM4.99999 169.5L4.99999 181.611L6.99999 181.611L6.99999 169.5L4.99999 169.5ZM4.99999 193.722L4.99999 205.833L6.99999 205.833L6.99999 193.722L4.99999 193.722ZM4.99999 217.944L4.99999 230.056L6.99999 230.056L6.99999 217.944L4.99999 217.944ZM4.99999 242.167L4.99999 254.278L6.99999 254.278L6.99999 242.167L4.99999 242.167ZM4.99999 266.389L4.99999 278.5L6.99999 278.5L6.99999 266.389L4.99999 266.389ZM4.99999 290.611L4.99999 302.722L6.99999 302.722L6.99999 290.611L4.99999 290.611ZM4.99999 314.833L4.99999 326.944L6.99999 326.944L6.99999 314.833L4.99999 314.833ZM4.99999 339.056L4.99998 351.167L6.99998 351.167L6.99999 339.056L4.99999 339.056ZM4.99998 363.278L4.99998 375.389L6.99998 375.389L6.99998 363.278L4.99998 363.278ZM4.99998 387.5L4.99998 399.611L6.99998 399.611L6.99998 387.5L4.99998 387.5ZM4.99998 411.722L4.99998 423.833L6.99998 423.833L6.99998 411.722L4.99998 411.722ZM4.99998 435.945L4.99998 448.056L6.99998 448.056L6.99998 435.945L4.99998 435.945ZM4.99998 460.167L4.99998 472.278L6.99998 472.278L6.99998 460.167L4.99998 460.167ZM4.99998 484.389L4.99998 496.5L6.99998 496.5L6.99998 484.389L4.99998 484.389ZM4.99998 508.611L4.99998 520.722L6.99998 520.722L6.99998 508.611L4.99998 508.611ZM4.99998 532.833L4.99998 544.944L6.99998 544.944L6.99998 532.833L4.99998 532.833ZM4.99998 557.056L4.99998 569.167L6.99998 569.167L6.99998 557.056L4.99998 557.056ZM4.99997 581.278L4.99997 593.389L6.99997 593.389L6.99997 581.278L4.99997 581.278ZM4.99997 605.5L4.99997 617.611L6.99997 617.611L6.99997 605.5L4.99997 605.5ZM4.99997 629.722L4.99997 641.833L6.99997 641.833L6.99997 629.722L4.99997 629.722ZM4.99997 653.944L4.99997 660L6.99997 660L6.99997 653.944L4.99997 653.944Z" fill="#EF3F23"/>
<circle cx="5.5" cy="296.5" r="5.5" fill="#EF3F23"/>
</svg>
