<svg width="328" height="207" viewBox="0 0 328 207" fill="none" xmlns="http://www.w3.org/2000/svg">
<path d="M0.896 103.472C0.896 71.4093 7.66067 46.204 21.19 27.856C34.9047 9.50799 55.94 0.333989 84.296 0.333989C112.467 0.333989 133.409 9.60066 147.124 28.134C160.839 46.482 167.696 71.5947 167.696 103.472C167.696 135.535 160.839 160.833 147.124 179.366C133.409 197.714 112.467 206.888 84.296 206.888C55.94 206.888 34.9047 197.714 21.19 179.366C7.66067 160.833 0.896 135.535 0.896 103.472ZM106.814 103.472C106.814 88.6453 105.331 77.5253 102.366 70.112C99.4007 62.5133 93.3773 58.714 84.296 58.714C75.0293 58.714 68.9133 62.5133 65.948 70.112C62.9827 77.5253 61.5 88.6453 61.5 103.472C61.5 118.484 62.9827 129.789 65.948 137.388C68.9133 144.801 75.0293 148.508 84.296 148.508C93.3773 148.508 99.4007 144.801 102.366 137.388C105.331 129.789 106.814 118.484 106.814 103.472ZM183.85 158.794C208.685 140.261 228.33 123.488 242.786 108.476C257.242 93.2787 264.47 79.1007 264.47 65.942C264.47 61.494 263.451 58.0653 261.412 55.656C259.559 53.2467 257.057 52.042 253.906 52.042C250.2 52.042 247.234 53.988 245.01 57.88C242.972 61.5867 242.23 67.332 242.786 75.116H183.016C183.572 57.88 187.279 43.702 194.136 32.582C201.179 21.462 210.26 13.3073 221.38 8.11799C232.5 2.92866 244.732 0.333989 258.076 0.333989C281.799 0.333989 299.128 6.07932 310.062 17.57C321.182 28.8753 326.742 43.424 326.742 61.216C326.742 79.9347 320.719 97.5413 308.672 114.036C296.811 130.345 281.892 144.153 263.914 155.458H327.576V205.22H183.85V158.794Z" fill="#F7F7F7"/>
</svg>
