<svg width="333" height="210" viewBox="0 0 333 210" fill="none" xmlns="http://www.w3.org/2000/svg">
<path d="M0.896 103.472C0.896 71.4093 7.66067 46.204 21.19 27.856C34.9047 9.50799 55.94 0.333989 84.296 0.333989C112.467 0.333989 133.409 9.60066 147.124 28.134C160.839 46.482 167.696 71.5947 167.696 103.472C167.696 135.535 160.839 160.833 147.124 179.366C133.409 197.714 112.467 206.888 84.296 206.888C55.94 206.888 34.9047 197.714 21.19 179.366C7.66067 160.833 0.896 135.535 0.896 103.472ZM106.814 103.472C106.814 88.6453 105.331 77.5253 102.366 70.112C99.4007 62.5133 93.3773 58.714 84.296 58.714C75.0293 58.714 68.9133 62.5133 65.948 70.112C62.9827 77.5253 61.5 88.6453 61.5 103.472C61.5 118.484 62.9827 129.789 65.948 137.388C68.9133 144.801 75.0293 148.508 84.296 148.508C93.3773 148.508 99.4007 144.801 102.366 137.388C105.331 129.789 106.814 118.484 106.814 103.472ZM188.576 68.444C189.132 46.3893 195.526 29.524 207.758 17.848C220.176 6.17199 237.69 0.333989 260.3 0.333989C274.942 0.333989 287.452 2.83599 297.83 7.83999C308.209 12.844 315.993 19.6087 321.182 28.134C326.557 36.6593 329.244 46.2967 329.244 57.046C329.244 70.0193 326.186 80.2127 320.07 87.626C313.954 94.854 307.097 99.7653 299.498 102.36V103.472C321.738 111.812 332.858 127.287 332.858 149.898C332.858 161.759 330.078 172.231 324.518 181.312C318.958 190.393 310.989 197.436 300.61 202.44C290.417 207.444 278.278 209.946 264.192 209.946C240.099 209.946 221.195 204.201 207.48 192.71C193.766 181.219 186.723 163.242 186.352 138.778H246.4C246.03 145.45 246.956 150.547 249.18 154.068C251.59 157.404 255.667 159.072 261.412 159.072C264.748 159.072 267.528 157.867 269.752 155.458C271.976 152.863 273.088 149.527 273.088 145.45C273.088 140.261 271.328 136.369 267.806 133.774C264.47 130.994 258.725 129.604 250.57 129.604H240.284V79.842H250.292C262.895 80.5833 269.196 75.5793 269.196 64.83C269.196 60.1967 268.177 56.768 266.138 54.544C264.285 52.32 261.876 51.208 258.91 51.208C252.053 51.208 248.624 56.9533 248.624 68.444H188.576Z" fill="#F7F7F7"/>
</svg>
