<svg width="360" height="208" viewBox="0 0 360 208" fill="none" xmlns="http://www.w3.org/2000/svg">
<path d="M0.896 103.472C0.896 71.4093 7.66067 46.204 21.19 27.856C34.9047 9.50799 55.94 0.333989 84.296 0.333989C112.467 0.333989 133.409 9.60066 147.124 28.134C160.839 46.482 167.696 71.5947 167.696 103.472C167.696 135.535 160.839 160.833 147.124 179.366C133.409 197.714 112.467 206.888 84.296 206.888C55.94 206.888 34.9047 197.714 21.19 179.366C7.66067 160.833 0.896 135.535 0.896 103.472ZM106.814 103.472C106.814 88.6453 105.331 77.5253 102.366 70.112C99.4007 62.5133 93.3773 58.714 84.296 58.714C75.0293 58.714 68.9133 62.5133 65.948 70.112C62.9827 77.5253 61.5 88.6453 61.5 103.472C61.5 118.484 62.9827 129.789 65.948 137.388C68.9133 144.801 75.0293 148.508 84.296 148.508C93.3773 148.508 99.4007 144.801 102.366 137.388C105.331 129.789 106.814 118.484 106.814 103.472ZM190.522 177.42V125.99L273.366 7.83999H339.808V124.044H359.824V177.42H339.808V208H277.536V177.42H190.522ZM282.54 78.174L252.516 124.044H282.54V78.174Z" fill="#F7F7F7"/>
</svg>
