<svg width="349" height="208" viewBox="0 0 349 208" fill="none" xmlns="http://www.w3.org/2000/svg">
<path d="M0.896 103.472C0.896 71.4093 7.66067 46.204 21.19 27.856C34.9047 9.50799 55.94 0.333989 84.296 0.333989C112.467 0.333989 133.409 9.60066 147.124 28.134C160.839 46.482 167.696 71.5947 167.696 103.472C167.696 135.535 160.839 160.833 147.124 179.366C133.409 197.714 112.467 206.888 84.296 206.888C55.94 206.888 34.9047 197.714 21.19 179.366C7.66067 160.833 0.896 135.535 0.896 103.472ZM106.814 103.472C106.814 88.6453 105.331 77.5253 102.366 70.112C99.4007 62.5133 93.3773 58.714 84.296 58.714C75.0293 58.714 68.9133 62.5133 65.948 70.112C62.9827 77.5253 61.5 88.6453 61.5 103.472C61.5 118.484 62.9827 129.789 65.948 137.388C68.9133 144.801 75.0293 148.508 84.296 148.508C93.3773 148.508 99.4007 144.801 102.366 137.388C105.331 129.789 106.814 118.484 106.814 103.472ZM338.418 58.992H257.798V82.344C261.32 79.1933 265.86 76.6913 271.42 74.838C277.166 72.9847 283.56 72.058 290.602 72.058C303.205 72.058 313.862 75.0233 322.572 80.954C331.283 86.8847 337.77 94.854 342.032 104.862C346.295 114.685 348.426 125.619 348.426 137.666C348.426 159.906 342.125 177.235 329.522 189.652C317.105 201.884 299.962 208 278.092 208C262.154 208 248.346 205.22 236.67 199.66C225.18 194.1 216.376 186.409 210.26 176.586C204.33 166.763 201.55 155.551 201.92 142.948H261.968C261.968 145.913 262.988 148.693 265.026 151.288C267.065 153.883 270.401 155.18 275.034 155.18C279.668 155.18 283.096 153.512 285.32 150.176C287.544 146.84 288.656 142.299 288.656 136.554C288.656 131.179 287.359 127.102 284.764 124.322C282.355 121.542 278.834 120.152 274.2 120.152C270.308 120.152 267.343 121.079 265.304 122.932C263.266 124.785 262.246 126.917 262.246 129.326H202.198V4.782H338.418V58.992Z" fill="#F7F7F7"/>
</svg>
