<svg width="340" height="210" viewBox="0 0 340 210" fill="none" xmlns="http://www.w3.org/2000/svg">
<path d="M0.896 103.472C0.896 71.4093 7.66067 46.204 21.19 27.856C34.9047 9.50799 55.94 0.333989 84.296 0.333989C112.467 0.333989 133.409 9.60066 147.124 28.134C160.839 46.482 167.696 71.5947 167.696 103.472C167.696 135.535 160.839 160.833 147.124 179.366C133.409 197.714 112.467 206.888 84.296 206.888C55.94 206.888 34.9047 197.714 21.19 179.366C7.66067 160.833 0.896 135.535 0.896 103.472ZM106.814 103.472C106.814 88.6453 105.331 77.5253 102.366 70.112C99.4007 62.5133 93.3773 58.714 84.296 58.714C75.0293 58.714 68.9133 62.5133 65.948 70.112C62.9827 77.5253 61.5 88.6453 61.5 103.472C61.5 118.484 62.9827 129.789 65.948 137.388C68.9133 144.801 75.0293 148.508 84.296 148.508C93.3773 148.508 99.4007 144.801 102.366 137.388C105.331 129.789 106.814 118.484 106.814 103.472ZM277.536 66.498C276.424 60.938 274.756 56.8607 272.532 54.266C270.494 51.6713 267.25 50.374 262.802 50.374C255.76 50.374 251.034 53.988 248.624 61.216C246.4 68.2587 245.288 79.286 245.288 94.298C248.624 89.1087 253.443 85.0313 259.744 82.066C266.046 79.1007 273.181 77.618 281.15 77.618C298.942 77.618 313.12 83.0853 323.684 94.02C334.434 104.955 339.808 120.801 339.808 141.558C339.808 155.458 336.843 167.597 330.912 177.976C325.167 188.169 316.92 196.046 306.17 201.606C295.421 207.166 282.726 209.946 268.084 209.946C238.987 209.946 218.786 201.05 207.48 183.258C196.175 165.281 190.522 140.168 190.522 107.92C190.522 82.7147 193.117 62.328 198.306 46.76C203.496 31.192 211.65 19.7013 222.77 12.288C234.076 4.87466 248.717 1.168 266.694 1.168C288.749 1.168 305.336 7.46932 316.456 20.072C327.762 32.6747 333.97 48.15 335.082 66.498H277.536ZM265.86 124.878C260.856 124.878 256.872 126.268 253.906 129.048C250.941 131.828 249.458 135.72 249.458 140.724C249.458 146.284 250.848 150.454 253.628 153.234C256.594 155.829 260.671 157.126 265.86 157.126C271.05 157.126 275.034 155.829 277.814 153.234C280.78 150.454 282.262 146.284 282.262 140.724C282.262 135.72 280.78 131.828 277.814 129.048C274.849 126.268 270.864 124.878 265.86 124.878Z" fill="#F7F7F7"/>
</svg>
