<svg width="318" height="654" viewBox="0 0 318 654" fill="none" xmlns="http://www.w3.org/2000/svg">
<path d="M470.673 458.211C402.69 524.593 228.485 610.9 158.436 539.162C88.3861 467.424 151.957 295.985 197.79 199.151C243.623 102.318 375.173 51.9813 503.655 166.559C632.136 281.136 538.656 391.828 470.673 458.211Z" fill="#3C50E0" fill-opacity="0.04"/>
<path d="M488.244 417.443C426.953 477.292 269.884 555.094 206.713 490.4C143.542 425.706 200.842 271.127 242.159 183.819C283.475 96.5097 402.086 51.1369 517.949 154.466C633.813 257.795 549.536 357.594 488.244 417.443Z" fill="#3C50E0" fill-opacity="0.04"/>
<path d="M530.375 399.341C469.084 459.19 312.015 536.992 248.844 472.298C185.672 407.605 242.973 253.026 284.289 165.717C325.606 78.4082 444.217 33.0354 560.08 136.364C675.944 239.693 591.667 339.492 530.375 399.341Z" fill="#3C50E0" fill-opacity="0.04"/>
<path d="M577.375 393.341C516.084 453.19 359.015 530.992 295.844 466.298C232.672 401.605 289.973 247.026 331.289 159.717C372.606 72.4082 491.217 27.0354 607.08 130.364C722.944 233.693 638.667 333.492 577.375 393.341Z" fill="#3C50E0" fill-opacity="0.04"/>
</svg>
