<svg width="319" height="62" viewBox="0 0 319 62" fill="none" xmlns="http://www.w3.org/2000/svg">
<path d="M143 44L319 44" stroke="#B7CDFF" stroke-width="26"/>
<path d="M11.268 18.872C13.908 18.872 16.224 19.388 18.216 20.42C20.232 21.452 21.78 22.928 22.86 24.848C23.964 26.744 24.516 28.952 24.516 31.472C24.516 33.992 23.964 36.2 22.86 38.096C21.78 39.968 20.232 41.42 18.216 42.452C16.224 43.484 13.908 44 11.268 44H2.484V18.872H11.268ZM11.088 39.716C13.728 39.716 15.768 38.996 17.208 37.556C18.648 36.116 19.368 34.088 19.368 31.472C19.368 28.856 18.648 26.816 17.208 25.352C15.768 23.864 13.728 23.12 11.088 23.12H7.524V39.716H11.088ZM30.8447 21.68C29.9567 21.68 29.2127 21.404 28.6127 20.852C28.0367 20.276 27.7487 19.568 27.7487 18.728C27.7487 17.888 28.0367 17.192 28.6127 16.64C29.2127 16.064 29.9567 15.776 30.8447 15.776C31.7327 15.776 32.4647 16.064 33.0407 16.64C33.6407 17.192 33.9407 17.888 33.9407 18.728C33.9407 19.568 33.6407 20.276 33.0407 20.852C32.4647 21.404 31.7327 21.68 30.8447 21.68ZM33.3287 24.056V44H28.2887V24.056H33.3287ZM46.1202 23.732C47.6082 23.732 48.9162 24.032 50.0442 24.632C51.1722 25.208 52.0602 25.964 52.7082 26.9V24.056H57.7842V44.144C57.7842 45.992 57.4122 47.636 56.6682 49.076C55.9242 50.54 54.8082 51.692 53.3202 52.532C51.8322 53.396 50.0322 53.828 47.9202 53.828C45.0882 53.828 42.7602 53.168 40.9362 51.848C39.1362 50.528 38.1162 48.728 37.8762 46.448H42.8802C43.1442 47.36 43.7082 48.08 44.5722 48.608C45.4602 49.16 46.5282 49.436 47.7762 49.436C49.2402 49.436 50.4282 48.992 51.3402 48.104C52.2522 47.24 52.7082 45.92 52.7082 44.144V41.048C52.0602 41.984 51.1602 42.764 50.0082 43.388C48.8802 44.012 47.5842 44.324 46.1202 44.324C44.4402 44.324 42.9042 43.892 41.5122 43.028C40.1202 42.164 39.0162 40.952 38.2002 39.392C37.4082 37.808 37.0122 35.996 37.0122 33.956C37.0122 31.94 37.4082 30.152 38.2002 28.592C39.0162 27.032 40.1082 25.832 41.4762 24.992C42.8682 24.152 44.4162 23.732 46.1202 23.732ZM52.7082 34.028C52.7082 32.804 52.4682 31.76 51.9882 30.896C51.5082 30.008 50.8602 29.336 50.0442 28.88C49.2282 28.4 48.3522 28.16 47.4162 28.16C46.4802 28.16 45.6162 28.388 44.8242 28.844C44.0322 29.3 43.3842 29.972 42.8802 30.86C42.4002 31.724 42.1602 32.756 42.1602 33.956C42.1602 35.156 42.4002 36.212 42.8802 37.124C43.3842 38.012 44.0322 38.696 44.8242 39.176C45.6402 39.656 46.5042 39.896 47.4162 39.896C48.3522 39.896 49.2282 39.668 50.0442 39.212C50.8602 38.732 51.5082 38.06 51.9882 37.196C52.4682 36.308 52.7082 35.252 52.7082 34.028ZM65.2627 21.68C64.3747 21.68 63.6307 21.404 63.0307 20.852C62.4547 20.276 62.1667 19.568 62.1667 18.728C62.1667 17.888 62.4547 17.192 63.0307 16.64C63.6307 16.064 64.3747 15.776 65.2627 15.776C66.1507 15.776 66.8827 16.064 67.4587 16.64C68.0587 17.192 68.3587 17.888 68.3587 18.728C68.3587 19.568 68.0587 20.276 67.4587 20.852C66.8827 21.404 66.1507 21.68 65.2627 21.68ZM67.7467 24.056V44H62.7067V24.056H67.7467ZM78.5942 28.196V37.844C78.5942 38.516 78.7502 39.008 79.0622 39.32C79.3982 39.608 79.9502 39.752 80.7182 39.752H83.0582V44H79.8902C75.6422 44 73.5182 41.936 73.5182 37.808V28.196H71.1422V24.056H73.5182V19.124H78.5942V24.056H83.0582V28.196H78.5942ZM85.3872 33.956C85.3872 31.94 85.7832 30.152 86.5752 28.592C87.3912 27.032 88.4832 25.832 89.8512 24.992C91.2432 24.152 92.7912 23.732 94.4952 23.732C95.9832 23.732 97.2792 24.032 98.3832 24.632C99.5112 25.232 100.411 25.988 101.083 26.9V24.056H106.159V44H101.083V41.084C100.435 42.02 99.5352 42.8 98.3832 43.424C97.2552 44.024 95.9472 44.324 94.4592 44.324C92.7792 44.324 91.2432 43.892 89.8512 43.028C88.4832 42.164 87.3912 40.952 86.5752 39.392C85.7832 37.808 85.3872 35.996 85.3872 33.956ZM101.083 34.028C101.083 32.804 100.843 31.76 100.363 30.896C99.8832 30.008 99.2352 29.336 98.4192 28.88C97.6032 28.4 96.7272 28.16 95.7912 28.16C94.8552 28.16 93.9912 28.388 93.1992 28.844C92.4072 29.3 91.7592 29.972 91.2552 30.86C90.7752 31.724 90.5352 32.756 90.5352 33.956C90.5352 35.156 90.7752 36.212 91.2552 37.124C91.7592 38.012 92.4072 38.696 93.1992 39.176C94.0152 39.656 94.8792 39.896 95.7912 39.896C96.7272 39.896 97.6032 39.668 98.4192 39.212C99.2352 38.732 99.8832 38.06 100.363 37.196C100.843 36.308 101.083 35.252 101.083 34.028ZM116.122 17.36V44H111.082V17.36H116.122ZM157.075 18.872V44H152.035V27.656L145.303 44H141.487L134.719 27.656V44H129.679V18.872H135.403L143.395 37.556L151.387 18.872H157.075ZM160.762 33.956C160.762 31.94 161.158 30.152 161.95 28.592C162.766 27.032 163.858 25.832 165.226 24.992C166.618 24.152 168.166 23.732 169.87 23.732C171.358 23.732 172.654 24.032 173.758 24.632C174.886 25.232 175.786 25.988 176.458 26.9V24.056H181.534V44H176.458V41.084C175.81 42.02 174.91 42.8 173.758 43.424C172.63 44.024 171.322 44.324 169.834 44.324C168.154 44.324 166.618 43.892 165.226 43.028C163.858 42.164 162.766 40.952 161.95 39.392C161.158 37.808 160.762 35.996 160.762 33.956ZM176.458 34.028C176.458 32.804 176.218 31.76 175.738 30.896C175.258 30.008 174.61 29.336 173.794 28.88C172.978 28.4 172.102 28.16 171.166 28.16C170.23 28.16 169.366 28.388 168.574 28.844C167.782 29.3 167.134 29.972 166.63 30.86C166.15 31.724 165.91 32.756 165.91 33.956C165.91 35.156 166.15 36.212 166.63 37.124C167.134 38.012 167.782 38.696 168.574 39.176C169.39 39.656 170.254 39.896 171.166 39.896C172.102 39.896 172.978 39.668 173.794 39.212C174.61 38.732 175.258 38.06 175.738 37.196C176.218 36.308 176.458 35.252 176.458 34.028ZM191.497 27.152C192.145 26.096 192.985 25.268 194.017 24.668C195.073 24.068 196.273 23.768 197.617 23.768V29.06H196.285C194.701 29.06 193.501 29.432 192.685 30.176C191.893 30.92 191.497 32.216 191.497 34.064V44H186.457V24.056H191.497V27.152ZM212.819 44L206.051 35.504V44H201.011V17.36H206.051V32.516L212.747 24.056H219.299L210.515 34.064L219.371 44H212.819ZM240.575 33.596C240.575 34.316 240.527 34.964 240.431 35.54H225.851C225.971 36.98 226.475 38.108 227.363 38.924C228.251 39.74 229.343 40.148 230.639 40.148C232.511 40.148 233.843 39.344 234.635 37.736H240.071C239.495 39.656 238.391 41.24 236.759 42.488C235.127 43.712 233.123 44.324 230.747 44.324C228.827 44.324 227.099 43.904 225.563 43.064C224.051 42.2 222.863 40.988 221.999 39.428C221.159 37.868 220.739 36.068 220.739 34.028C220.739 31.964 221.159 30.152 221.999 28.592C222.839 27.032 224.015 25.832 225.527 24.992C227.039 24.152 228.779 23.732 230.747 23.732C232.643 23.732 234.335 24.14 235.823 24.956C237.335 25.772 238.499 26.936 239.315 28.448C240.155 29.936 240.575 31.652 240.575 33.596ZM235.355 32.156C235.331 30.86 234.863 29.828 233.951 29.06C233.039 28.268 231.923 27.872 230.603 27.872C229.355 27.872 228.299 28.256 227.435 29.024C226.595 29.768 226.079 30.812 225.887 32.156H235.355ZM250.122 28.196V37.844C250.122 38.516 250.278 39.008 250.59 39.32C250.926 39.608 251.478 39.752 252.246 39.752H254.586V44H251.418C247.17 44 245.046 41.936 245.046 37.808V28.196H242.67V24.056H245.046V19.124H250.122V24.056H254.586V28.196H250.122ZM260.767 21.68C259.879 21.68 259.135 21.404 258.535 20.852C257.959 20.276 257.671 19.568 257.671 18.728C257.671 17.888 257.959 17.192 258.535 16.64C259.135 16.064 259.879 15.776 260.767 15.776C261.655 15.776 262.387 16.064 262.963 16.64C263.563 17.192 263.863 17.888 263.863 18.728C263.863 19.568 263.563 20.276 262.963 20.852C262.387 21.404 261.655 21.68 260.767 21.68ZM263.251 24.056V44H258.211V24.056H263.251ZM279.282 23.768C281.658 23.768 283.578 24.524 285.042 26.036C286.506 27.524 287.238 29.612 287.238 32.3V44H282.198V32.984C282.198 31.4 281.802 30.188 281.01 29.348C280.218 28.484 279.138 28.052 277.77 28.052C276.378 28.052 275.274 28.484 274.458 29.348C273.666 30.188 273.27 31.4 273.27 32.984V44H268.23V24.056H273.27V26.54C273.942 25.676 274.794 25.004 275.826 24.524C276.882 24.02 278.034 23.768 279.282 23.768ZM299.843 23.732C301.331 23.732 302.639 24.032 303.767 24.632C304.895 25.208 305.783 25.964 306.431 26.9V24.056H311.507V44.144C311.507 45.992 311.135 47.636 310.391 49.076C309.647 50.54 308.531 51.692 307.043 52.532C305.555 53.396 303.755 53.828 301.643 53.828C298.811 53.828 296.483 53.168 294.659 51.848C292.859 50.528 291.839 48.728 291.599 46.448H296.603C296.867 47.36 297.431 48.08 298.295 48.608C299.183 49.16 300.251 49.436 301.499 49.436C302.963 49.436 304.151 48.992 305.063 48.104C305.975 47.24 306.431 45.92 306.431 44.144V41.048C305.783 41.984 304.883 42.764 303.731 43.388C302.603 44.012 301.307 44.324 299.843 44.324C298.163 44.324 296.627 43.892 295.235 43.028C293.843 42.164 292.739 40.952 291.923 39.392C291.131 37.808 290.735 35.996 290.735 33.956C290.735 31.94 291.131 30.152 291.923 28.592C292.739 27.032 293.831 25.832 295.199 24.992C296.591 24.152 298.139 23.732 299.843 23.732ZM306.431 34.028C306.431 32.804 306.191 31.76 305.711 30.896C305.231 30.008 304.583 29.336 303.767 28.88C302.951 28.4 302.075 28.16 301.139 28.16C300.203 28.16 299.339 28.388 298.547 28.844C297.755 29.3 297.107 29.972 296.603 30.86C296.123 31.724 295.883 32.756 295.883 33.956C295.883 35.156 296.123 36.212 296.603 37.124C297.107 38.012 297.755 38.696 298.547 39.176C299.363 39.656 300.227 39.896 301.139 39.896C302.075 39.896 302.951 39.668 303.767 39.212C304.583 38.732 305.231 38.06 305.711 37.196C306.191 36.308 306.431 35.252 306.431 34.028Z" fill="black"/>
</svg>
