<svg width="627" height="478" viewBox="0 0 627 478" fill="none" xmlns="http://www.w3.org/2000/svg">
<path d="M626.204 420.562H0V420.875H626.204V420.562Z" fill="#EBEBEB"/>
<path d="M563.459 440.713H494.289V441.026H563.459V440.713Z" fill="#EBEBEB"/>
<path d="M413.921 434.15H403.038V434.463H413.921V434.15Z" fill="#EBEBEB"/>
<path d="M490.518 429.091H466.484V429.404H490.518V429.091Z" fill="#EBEBEB"/>
<path d="M119.791 431.195H65.6998V431.508H119.791V431.195Z" fill="#EBEBEB"/>
<path d="M326.941 439.285H269.681V439.598H326.941V439.285Z" fill="#EBEBEB"/>
<path d="M293.24 433.988H175.914V434.301H293.24V433.988Z" fill="#EBEBEB"/>
<path d="M303.985 357.553C303.985 358.493 303.799 359.424 303.439 360.293C303.079 361.161 302.551 361.95 301.886 362.614C301.22 363.279 300.43 363.805 299.561 364.164C298.692 364.522 297.761 364.706 296.821 364.704H54.9935C53.099 364.701 51.2833 363.946 49.9449 362.605C48.6064 361.265 47.8547 359.448 47.8547 357.553V17.6122C47.8712 15.7286 48.6302 13.9276 49.9669 12.6003C51.3035 11.2731 53.1098 10.5268 54.9935 10.5236H296.821C298.717 10.5236 300.536 11.277 301.878 12.6181C303.219 13.9592 303.972 15.7782 303.972 17.6748L303.985 357.553ZM303.659 17.6748C303.666 16.772 303.494 15.8768 303.153 15.0407C302.813 14.2046 302.31 13.444 301.675 12.8027C301.039 12.1614 300.283 11.652 299.45 11.3039C298.617 10.9557 297.724 10.7757 296.821 10.7741H54.9935C53.182 10.7774 51.4459 11.4993 50.1663 12.7813C48.8866 14.0634 48.1678 15.8008 48.1678 17.6122V357.553C48.1678 359.365 48.8866 361.102 50.1663 362.384C51.4459 363.666 53.182 364.388 54.9935 364.391H296.821C298.633 364.388 300.371 363.667 301.652 362.385C302.934 361.103 303.656 359.366 303.659 357.553" fill="#EBEBEB"/>
<path d="M567.73 364.704H325.89C323.995 364.701 322.178 363.947 320.837 362.606C319.497 361.266 318.743 359.449 318.739 357.553V17.6122C318.759 15.7274 319.521 13.9264 320.859 12.5995C322.198 11.2726 324.006 10.5267 325.89 10.5235H567.73C569.612 10.5301 571.415 11.2778 572.749 12.6047C574.083 13.9316 574.84 15.7307 574.857 17.6122V357.553C574.857 359.445 574.107 361.261 572.771 362.601C571.435 363.941 569.623 364.698 567.73 364.704ZM325.89 10.774C324.078 10.7773 322.341 11.4988 321.059 12.7805C319.777 14.0622 319.056 15.7996 319.052 17.6122V357.553C319.056 359.366 319.777 361.103 321.059 362.385C322.341 363.666 324.078 364.388 325.89 364.391H567.73C569.543 364.388 571.28 363.666 572.562 362.385C573.844 361.103 574.565 359.366 574.569 357.553V17.6122C574.565 15.7996 573.844 14.0622 572.562 12.7805C571.28 11.4988 569.543 10.7773 567.73 10.774H325.89Z" fill="#EBEBEB"/>
<path d="M88.4925 420.562H163.825L163.825 262.295H88.4925L88.4925 420.562Z" fill="#E6E6E6"/>
<path d="M96.0865 420.562H88.5094V399.008H104.027L96.0865 420.562Z" fill="#F0F0F0"/>
<path d="M287.69 420.562H363.022V262.295H287.69V420.562Z" fill="#E6E6E6"/>
<path d="M88.4939 407.336H294.29V262.294H88.4939L88.4939 407.336Z" fill="#F0F0F0"/>
<path d="M94.3702 308.497H288.418V268.72H94.3702V308.497Z" fill="#E6E6E6"/>
<path d="M177.666 281.043H205.144C211.047 281.05 216.89 279.854 222.316 277.529C227.743 275.203 232.638 271.797 236.705 267.517H146.118C150.181 271.798 155.075 275.205 160.499 277.53C165.923 279.856 171.764 281.051 177.666 281.043Z" fill="#F0F0F0"/>
<path d="M286.726 420.562H294.303V399.008H278.773L286.726 420.562Z" fill="#F0F0F0"/>
<path d="M94.3702 354.697H288.418V314.921H94.3702V354.697Z" fill="#E6E6E6"/>
<path d="M177.666 327.296H205.144C211.051 327.295 216.896 326.091 222.322 323.757C227.748 321.423 232.642 318.007 236.705 313.719H146.118C150.177 318.008 155.069 321.424 160.493 323.758C165.918 326.093 171.761 327.296 177.666 327.296Z" fill="#F0F0F0"/>
<path d="M94.3702 400.899H288.418V361.123H94.3702V400.899Z" fill="#E6E6E6"/>
<path d="M177.666 373.496H205.144C211.049 373.498 216.893 372.298 222.319 369.968C227.745 367.639 232.64 364.228 236.705 359.945H146.118C150.18 364.229 155.072 367.64 160.496 369.97C165.92 372.3 171.763 373.5 177.666 373.496Z" fill="#F0F0F0"/>
<path d="M110.386 210.295H105.013C104.605 210.295 104.274 210.626 104.274 211.034V261.556C104.274 261.964 104.605 262.295 105.013 262.295H110.386C110.794 262.295 111.125 261.964 111.125 261.556V211.034C111.125 210.626 110.794 210.295 110.386 210.295Z" fill="#EBEBEB"/>
<path d="M111.125 215.656H104.274V234.58H111.125V215.656Z" fill="#FAFAFA"/>
<path d="M111.125 240.415H104.274V252.088H111.125V240.415Z" fill="#FAFAFA"/>
<path d="M139.581 210.295H111.866C111.457 210.295 111.127 210.626 111.127 211.034V261.556C111.127 261.964 111.457 262.295 111.866 262.295H139.581C139.989 262.295 140.32 261.964 140.32 261.556V211.034C140.32 210.626 139.989 210.295 139.581 210.295Z" fill="#E0E0E0"/>
<path d="M121.318 204.935H115.381C114.932 204.935 114.567 205.299 114.567 205.749V261.481C114.567 261.931 114.932 262.295 115.381 262.295H121.318C121.767 262.295 122.132 261.931 122.132 261.481V205.749C122.132 205.299 121.767 204.935 121.318 204.935Z" fill="#EBEBEB"/>
<path d="M122.122 212.437H114.555V217.561H122.122V212.437Z" fill="#FAFAFA"/>
<path d="M122.122 227.291H114.555V232.415H122.122V227.291Z" fill="#FAFAFA"/>
<path d="M122.122 242.157H114.555V247.281H122.122V242.157Z" fill="#FAFAFA"/>
<path d="M153.572 204.935H123.001C122.551 204.935 122.187 205.299 122.187 205.749V261.481C122.187 261.931 122.551 262.295 123.001 262.295H153.572C154.022 262.295 154.386 261.931 154.386 261.481V205.749C154.386 205.299 154.022 204.935 153.572 204.935Z" fill="#E0E0E0"/>
<path d="M131.676 210.295H126.303C125.895 210.295 125.564 210.626 125.564 211.034V261.556C125.564 261.964 125.895 262.295 126.303 262.295H131.676C132.084 262.295 132.415 261.964 132.415 261.556V211.034C132.415 210.626 132.084 210.295 131.676 210.295Z" fill="#EBEBEB"/>
<path d="M132.417 220.515H125.564V230.224H132.417V220.515Z" fill="#FAFAFA"/>
<path d="M132.417 233.214H125.564V239.202H132.417V233.214Z" fill="#FAFAFA"/>
<path d="M160.884 210.295H133.168C132.76 210.295 132.429 210.626 132.429 211.034V261.556C132.429 261.964 132.76 262.295 133.168 262.295H160.884C161.292 262.295 161.623 261.964 161.623 261.556V211.034C161.623 210.626 161.292 210.295 160.884 210.295Z" fill="#E0E0E0"/>
<path d="M141.759 217.559H135.823C135.373 217.559 135.009 217.923 135.009 218.373V261.493C135.009 261.943 135.373 262.307 135.823 262.307H141.759C142.209 262.307 142.573 261.943 142.573 261.493V218.373C142.573 217.923 142.209 217.559 141.759 217.559Z" fill="#EBEBEB"/>
<path d="M142.564 227.615H134.997V235.896H142.564V227.615Z" fill="#FAFAFA"/>
<path d="M142.564 254.768H134.997V256.735H142.564V254.768Z" fill="#FAFAFA"/>
<path d="M142.564 237.735H134.997V246.015H142.564V237.735Z" fill="#FAFAFA"/>
<path d="M174.01 217.559H143.439C142.99 217.559 142.625 217.923 142.625 218.373V261.493C142.625 261.943 142.99 262.307 143.439 262.307H174.01C174.46 262.307 174.825 261.943 174.825 261.493V218.373C174.825 217.923 174.46 217.559 174.01 217.559Z" fill="#E0E0E0"/>
<path d="M151.792 208.831H146.444C146.029 208.831 145.693 209.167 145.693 209.582V261.557C145.693 261.972 146.029 262.309 146.444 262.309H151.792C152.207 262.309 152.543 261.972 152.543 261.557V209.582C152.543 209.167 152.207 208.831 151.792 208.831Z" fill="#EBEBEB"/>
<path d="M152.543 214.341H145.693V233.803H152.543V214.341Z" fill="#FAFAFA"/>
<path d="M152.543 239.789H145.693V251.787H152.543V239.789Z" fill="#FAFAFA"/>
<path d="M180.986 208.831H153.295C152.88 208.831 152.544 209.167 152.544 209.582V261.557C152.544 261.972 152.88 262.309 153.295 262.309H180.986C181.401 262.309 181.738 261.972 181.738 261.557V209.582C181.738 209.167 181.401 208.831 180.986 208.831Z" fill="#E0E0E0"/>
<path d="M162.788 214.478H156.726C156.311 214.478 155.974 214.815 155.974 215.23V261.544C155.974 261.959 156.311 262.295 156.726 262.295H162.788C163.203 262.295 163.539 261.959 163.539 261.544V215.23C163.539 214.815 163.203 214.478 162.788 214.478Z" fill="#EBEBEB"/>
<path d="M163.541 220.728H155.974V225H163.541V220.728Z" fill="#FAFAFA"/>
<path d="M163.541 233.114H155.974V237.386H163.541V233.114Z" fill="#FAFAFA"/>
<path d="M163.541 245.501H155.974V249.773H163.541V245.501Z" fill="#FAFAFA"/>
<path d="M195.051 214.478H164.355C163.94 214.478 163.603 214.815 163.603 215.23V261.544C163.603 261.959 163.94 262.295 164.355 262.295H195.051C195.466 262.295 195.803 261.959 195.803 261.544V215.23C195.803 214.815 195.466 214.478 195.051 214.478Z" fill="#E0E0E0"/>
<path d="M173.094 210.295H167.722C167.313 210.295 166.983 210.626 166.983 211.034V261.556C166.983 261.964 167.313 262.295 167.722 262.295H173.094C173.503 262.295 173.833 261.964 173.833 261.556V211.034C173.833 210.626 173.503 210.295 173.094 210.295Z" fill="#EBEBEB"/>
<path d="M173.835 220.515H166.983V230.224H173.835V220.515Z" fill="#FAFAFA"/>
<path d="M173.835 233.214H166.983V239.202H173.835V233.214Z" fill="#FAFAFA"/>
<path d="M202.288 210.295H174.573C174.164 210.295 173.834 210.626 173.834 211.034V261.556C173.834 261.964 174.164 262.295 174.573 262.295H202.288C202.696 262.295 203.027 261.964 203.027 261.556V211.034C203.027 210.626 202.696 210.295 202.288 210.295Z" fill="#E0E0E0"/>
<path d="M183.177 217.559H177.24C176.791 217.559 176.426 217.923 176.426 218.373V261.493C176.426 261.943 176.791 262.307 177.24 262.307H183.177C183.626 262.307 183.991 261.943 183.991 261.493V218.373C183.991 217.923 183.626 217.559 183.177 217.559Z" fill="#EBEBEB"/>
<path d="M183.983 227.615H176.417V235.896H183.983V227.615Z" fill="#FAFAFA"/>
<path d="M183.983 254.768H176.417V256.735H183.983V254.768Z" fill="#FAFAFA"/>
<path d="M183.983 237.735H176.417V246.015H183.983V237.735Z" fill="#FAFAFA"/>
<path d="M215.427 217.559H184.855C184.406 217.559 184.041 217.923 184.041 218.373V261.493C184.041 261.943 184.406 262.307 184.855 262.307H215.427C215.876 262.307 216.241 261.943 216.241 261.493V218.373C216.241 217.923 215.876 217.559 215.427 217.559Z" fill="#E0E0E0"/>
<path d="M86.9792 149.979L360.993 149.979V67.4831L86.9792 67.4831V149.979Z" fill="#E6E6E6"/>
<path d="M81.1679 149.979L358.276 149.979V67.4831L81.1679 67.4831V149.979Z" fill="#F0F0F0"/>
<path d="M86.9792 160.787L360.993 160.787V149.991L86.9792 149.991V160.787Z" fill="#E6E6E6"/>
<path d="M71.4875 160.787L348.595 160.787V149.991L71.4875 149.991V160.787Z" fill="#F0F0F0"/>
<path d="M350.137 141.851V75.6238L89.2978 75.6238V141.851H350.137Z" fill="#FAFAFA"/>
<path d="M281.116 141.851L233.362 75.6238H184.493L232.247 141.851H281.116Z" fill="white"/>
<path d="M346.368 135.502C346.524 135.502 346.674 135.44 346.784 135.33C346.894 135.219 346.956 135.069 346.956 134.913V80.922C346.936 80.7822 346.866 80.6545 346.759 80.5621C346.652 80.4698 346.515 80.419 346.374 80.419C346.233 80.419 346.096 80.4698 345.989 80.5621C345.882 80.6545 345.812 80.7822 345.792 80.922V134.913C345.792 135.067 345.852 135.215 345.96 135.325C346.067 135.435 346.214 135.499 346.368 135.502Z" fill="#F0F0F0"/>
<path d="M213.876 141.851L166.109 75.6238H149.201L196.956 141.851H213.876Z" fill="white"/>
<path d="M90.3368 141.851V75.6238H89.2973V141.851H90.3368Z" fill="#E6E6E6"/>
<path opacity="0.4" d="M79.2397 83.8275H353.254L354.005 78.7928H79.9912L79.2397 83.8275Z" fill="#E6E6E6"/>
<path opacity="0.4" d="M79.2397 92.1434H353.254L354.005 87.1088H79.9912L79.2397 92.1434Z" fill="#E6E6E6"/>
<path opacity="0.4" d="M79.2397 100.472H353.254L354.005 95.4374H79.9912L79.2397 100.472Z" fill="#E6E6E6"/>
<path opacity="0.4" d="M79.2397 108.788H353.254L354.005 103.753H79.9912L79.2397 108.788Z" fill="#E6E6E6"/>
<path opacity="0.4" d="M79.2397 117.117H353.254L354.005 112.069H79.9912L79.2397 117.117Z" fill="#E6E6E6"/>
<path opacity="0.4" d="M79.2397 125.432H353.254L354.005 120.397H79.9912L79.2397 125.432Z" fill="#E6E6E6"/>
<path d="M405.405 254.818H511.121V67.4833H405.405V254.818Z" fill="#E6E6E6"/>
<path d="M418.439 72.6175C418.598 72.6187 418.754 72.5753 418.89 72.4923C419.141 72.342 444.013 57.551 451.853 57.551C459.694 57.551 483.402 72.3295 483.64 72.4797C483.739 72.548 483.851 72.5952 483.969 72.6184C484.087 72.6415 484.208 72.6401 484.326 72.6143C484.443 72.5884 484.554 72.5387 484.651 72.4681C484.749 72.3976 484.831 72.3078 484.892 72.2042C484.957 72.1041 485.001 71.9921 485.022 71.8747C485.044 71.7574 485.041 71.637 485.016 71.5205C484.99 71.404 484.942 71.2938 484.873 71.1962C484.804 71.0985 484.717 71.0155 484.616 70.9518C483.615 70.3381 460.22 55.7601 451.891 55.7601C443.563 55.7601 419.065 70.3256 418.076 70.9518C417.912 71.0505 417.784 71.2003 417.713 71.3783C417.642 71.5562 417.632 71.7525 417.683 71.9372C417.734 72.1219 417.844 72.2847 417.997 72.4008C418.149 72.5169 418.335 72.5798 418.527 72.5799L418.439 72.6175Z" fill="#F0F0F0"/>
<path d="M393.946 254.818H503.144V67.4833H393.946V254.818Z" fill="#F0F0F0"/>
<path d="M494.01 245.675V76.6379H403.11V245.675H494.01Z" fill="white"/>
<path d="M522.404 341.622H456.527V420.562H522.404V341.622Z" fill="#E0E0E0"/>
<path d="M522.39 341.622H456.514L469.739 318.077H535.616L522.39 341.622Z" fill="#E0E0E0"/>
<path d="M392.303 318.077H326.427L339.652 341.622H405.529L392.303 318.077Z" fill="#F5F5F5"/>
<path d="M339.639 420.562H456.514V341.622H339.639V420.562Z" fill="#F5F5F5"/>
<path d="M419.743 399.484H456.514V362.714H419.743V399.484Z" fill="#F0F0F0"/>
<path d="M355.409 383.866H376.562V362.713H355.409V383.866Z" fill="#F0F0F0"/>
<path d="M355.409 410.054H376.562V388.901H355.409V410.054Z" fill="#F0F0F0"/>
<path d="M475.501 362.701H456.527V399.471H475.501V362.701Z" fill="#E6E6E6"/>
<path d="M313.099 477.139C447.21 477.139 555.928 470.792 555.928 462.962C555.928 455.132 447.21 448.784 313.099 448.784C178.988 448.784 70.2697 455.132 70.2697 462.962C70.2697 470.792 178.988 477.139 313.099 477.139Z" fill="#F5F5F5"/>
<path d="M214.049 125.204C222.618 119.341 224.812 107.643 218.949 99.0742C213.086 90.5057 201.387 88.3121 192.819 94.1747C184.25 100.037 182.057 111.736 187.919 120.304C193.782 128.873 205.481 131.066 214.049 125.204Z" fill="#FFA41C"/>
<path d="M201.638 108.061L191.118 103.578C191.343 103.436 191.604 103.363 191.869 103.365H215.127C215.392 103.364 215.652 103.438 215.878 103.578L205.358 108.061C204.769 108.309 204.137 108.437 203.498 108.437C202.859 108.437 202.227 108.309 201.638 108.061Z" fill="white"/>
<path d="M216.58 105.256V115.463C216.58 115.865 216.42 116.251 216.136 116.535C215.852 116.819 215.467 116.979 215.065 116.979H191.808C191.406 116.979 191.02 116.819 190.736 116.535C190.452 116.251 190.292 115.865 190.292 115.463V105.256C190.285 105.194 190.285 105.131 190.292 105.068L201.05 109.64C201.8 109.955 202.604 110.121 203.417 110.128C204.239 110.122 205.051 109.956 205.809 109.64L216.555 105.068C216.571 105.13 216.579 105.193 216.58 105.256Z" fill="white"/>
<path d="M312.123 28.703C315.071 18.7483 309.392 8.28798 299.437 5.3392C289.482 2.39041 279.022 8.0698 276.074 18.0245C273.125 27.9792 278.805 38.4395 288.759 41.3883C298.714 44.3371 309.174 38.6577 312.123 28.703Z" fill="#3C50E0"/>
<path d="M303.081 14.8071H285.159C284.264 14.8234 283.411 15.1887 282.782 15.8251C282.152 16.4615 281.797 17.3186 281.79 18.2136V27.4439C281.794 28.3497 282.155 29.2174 282.795 29.8579C283.436 30.4984 284.304 30.8596 285.209 30.8629H298.322L298.222 34.0942L301.541 30.8629H303.081C303.986 30.8564 304.852 30.4941 305.492 29.8543C306.131 29.2145 306.494 28.3486 306.5 27.4439V18.2136C306.494 17.31 306.131 16.4455 305.491 15.8077C304.851 15.1699 303.985 14.8104 303.081 14.8071ZM284.809 18.7396C284.809 18.486 284.908 18.2426 285.087 18.0621C285.265 17.8816 285.507 17.7786 285.76 17.7753H289.868C290.122 17.7786 290.364 17.8816 290.542 18.0621C290.72 18.2426 290.82 18.486 290.82 18.7396C290.817 18.9899 290.715 19.2288 290.537 19.4046C290.359 19.5804 290.119 19.679 289.868 19.679H285.76C285.632 19.6857 285.504 19.6665 285.384 19.6225C285.263 19.5785 285.153 19.5106 285.059 19.4228C284.966 19.3351 284.891 19.2294 284.839 19.112C284.787 18.9946 284.76 18.8679 284.758 18.7396H284.809ZM302.067 27.6568H294.953C294.704 27.6568 294.465 27.5578 294.289 27.3817C294.113 27.2055 294.014 26.9666 294.014 26.7175C294.014 26.4684 294.113 26.2294 294.289 26.0533C294.465 25.8771 294.704 25.7782 294.953 25.7782H302.067C302.316 25.7782 302.555 25.8771 302.731 26.0533C302.907 26.2294 303.006 26.4684 303.006 26.7175C303.006 26.9666 302.907 27.2055 302.731 27.3817C302.555 27.5578 302.316 27.6568 302.067 27.6568ZM302.067 23.6741H286.662C286.412 23.6708 286.173 23.5691 285.997 23.391C285.821 23.2128 285.723 22.9726 285.723 22.7223C285.723 22.4732 285.822 22.2343 285.998 22.0581C286.174 21.882 286.413 21.783 286.662 21.783H302.017C302.266 21.783 302.505 21.882 302.681 22.0581C302.857 22.2343 302.956 22.4732 302.956 22.7223C302.956 22.9726 302.857 23.2128 302.682 23.391C302.506 23.5691 302.267 23.6708 302.017 23.6741H302.067ZM302.067 19.679H292.974C292.725 19.679 292.486 19.58 292.31 19.4038C292.134 19.2277 292.035 18.9888 292.035 18.7396C292.033 18.6146 292.056 18.4905 292.103 18.3744C292.149 18.2583 292.218 18.1525 292.305 18.0629C292.392 17.9734 292.496 17.9019 292.611 17.8525C292.726 17.8032 292.849 17.7769 292.974 17.7753H302.067C302.318 17.7818 302.557 17.8863 302.733 18.0664C302.908 18.2466 303.006 18.4882 303.006 18.7396C303.004 18.8668 302.977 18.9924 302.927 19.1089C302.876 19.2254 302.802 19.3306 302.71 19.4182C302.617 19.5057 302.509 19.5739 302.39 19.6187C302.271 19.6635 302.144 19.684 302.017 19.679H302.067Z" fill="white"/>
<path d="M251.807 60.5378C256.864 51.4706 253.614 40.0205 244.546 34.9634C235.479 29.9063 224.029 33.1571 218.972 42.2244C213.915 51.2916 217.165 62.7417 226.233 67.7988C235.3 72.856 246.75 69.6051 251.807 60.5378Z" fill="#E0503C"/>
<path d="M243.508 43.4246H227.227C226.442 43.4246 225.689 43.7356 225.132 44.2896C224.576 44.8435 224.262 45.5953 224.259 46.3803V56.3996C224.259 56.7915 224.336 57.1795 224.487 57.5413C224.638 57.9031 224.859 58.2314 225.137 58.5073C225.415 58.7833 225.745 59.0014 226.108 59.1491C226.471 59.2968 226.86 59.3711 227.252 59.3678H243.533C244.318 59.3678 245.071 59.0568 245.628 58.5029C246.184 57.9489 246.498 57.1972 246.501 56.4121V46.3928C246.501 46.0009 246.424 45.6129 246.273 45.2511C246.122 44.8894 245.902 44.5611 245.623 44.2851C245.345 44.0091 245.015 43.791 244.652 43.6434C244.289 43.4957 243.9 43.4213 243.508 43.4246ZM232.788 55.6106V47.2069L240.026 51.3774L232.788 55.6106Z" fill="white"/>
<path d="M368.606 52.799C377.997 48.3719 382.021 37.1701 377.594 27.7791C373.167 18.3881 361.965 14.3641 352.574 18.7912C343.183 23.2182 339.159 34.42 343.586 43.811C348.013 53.202 359.215 57.2261 368.606 52.799Z" fill="#28B2FF"/>
<path d="M368.909 38.2018C369.923 37.1731 370.62 35.8737 370.915 34.4592C371.21 33.0447 371.091 31.5752 370.572 30.2266C370.053 28.878 369.157 27.7076 367.99 26.8556C366.823 26.0036 365.435 25.5062 363.992 25.4228C362.55 25.3395 361.114 25.6738 359.857 26.3857C358.599 27.0976 357.574 28.157 356.903 29.4368C356.232 30.7167 355.945 32.1627 356.075 33.6018C356.205 35.0408 356.748 36.4118 357.637 37.5505C357.124 37.9513 356.635 38.3646 356.147 38.803C355.433 39.4041 354.744 40.0554 354.068 40.6315C353.391 41.2076 352.715 41.8839 352.051 42.5351L351.062 43.512C350.89 43.6676 350.75 43.8547 350.649 44.0631C350.587 44.1809 350.545 44.3077 350.523 44.4388C350.496 44.5878 350.496 44.7406 350.523 44.8897C350.541 45.1662 350.659 45.4268 350.855 45.6227C351.051 45.8187 351.311 45.9365 351.588 45.9542C351.742 45.974 351.897 45.974 352.051 45.9542L352.415 45.829C352.625 45.7262 352.813 45.5813 352.966 45.4031C353.291 45.0775 353.629 44.7519 353.942 44.4137C354.594 43.7625 355.195 43.0862 355.846 42.4099C356.497 41.7336 357.099 41.0322 357.675 40.3184C358.1 39.8299 358.501 39.3415 358.927 38.828C360.378 39.9667 362.197 40.5321 364.037 40.4167C365.878 40.3012 367.612 39.5129 368.909 38.2018ZM359.34 37.0746C358.504 36.2396 357.934 35.1751 357.702 34.016C357.471 32.8569 357.589 31.6552 358.041 30.563C358.493 29.4708 359.258 28.5372 360.241 27.8803C361.224 27.2234 362.379 26.8728 363.561 26.8728C364.743 26.8728 365.898 27.2234 366.881 27.8803C367.864 28.5372 368.629 29.4708 369.081 30.563C369.533 31.6552 369.651 32.8569 369.419 34.016C369.188 35.1751 368.618 36.2396 367.782 37.0746C366.662 38.1927 365.144 38.8207 363.561 38.8207C361.978 38.8207 360.46 38.1927 359.34 37.0746Z" fill="white"/>
<path d="M415.78 98.7215C424.348 92.859 426.542 81.1603 420.679 72.5918C414.816 64.0233 403.118 61.8297 394.549 67.6922C385.98 73.5548 383.787 85.2535 389.65 93.822C395.512 102.39 407.211 104.584 415.78 98.7215Z" fill="#17E3FF"/>
<path d="M417.213 83.1634C417.213 83.1634 417.213 83.1634 417.213 83.0883C417.206 82.4677 417.156 81.8483 417.063 81.2347C416.613 78.4571 415.204 75.9251 413.08 74.0787C410.957 72.2323 408.254 71.1882 405.441 71.1278H404.84C404.307 71.1364 403.775 71.1824 403.249 71.2656C400.425 71.7261 397.857 73.1756 396.003 75.3551C394.149 77.5346 393.131 80.3022 393.13 83.1634C393.13 83.1634 393.13 83.1634 393.13 83.226C393.13 83.2887 393.13 83.226 393.13 83.3012C393.132 83.9215 393.178 84.5408 393.267 85.1547C393.729 87.9712 395.174 90.533 397.345 92.3855C399.516 94.2381 402.274 95.2615 405.128 95.2742C405.765 95.2735 406.402 95.2232 407.031 95.1239C409.839 94.6605 412.393 93.2201 414.242 91.057C416.092 88.8938 417.117 86.147 417.138 83.3012C417.138 83.3012 417.213 83.2386 417.213 83.1634ZM414.045 87.9226H411.941C412.254 86.6922 412.443 85.4335 412.504 84.1653H415.197C415.077 85.4999 414.685 86.7957 414.045 87.9727V87.9226ZM396.286 78.4043H398.39C398.078 79.6348 397.889 80.8935 397.826 82.1615H395.133C395.27 80.862 395.662 79.6023 396.286 78.4544V78.4043ZM410.488 81.4852C410.488 81.7232 410.488 81.9486 410.488 82.1865H406.092V78.4293H409.849C410.161 79.4419 410.375 80.4819 410.488 81.5353V81.4852ZM406.142 76.4756V73.2819C406.428 73.3894 406.701 73.528 406.956 73.6952C407.909 74.4225 408.663 75.3789 409.148 76.4756H406.142ZM404.188 73.2945V76.4756H401.17C401.734 75.0755 402.815 73.9456 404.188 73.3195V73.2945ZM404.188 78.4293V82.1865H399.792C399.864 80.9142 400.079 79.6539 400.431 78.4293H404.188ZM395.209 84.8041C395.209 84.5912 395.209 84.3783 395.133 84.1653H397.839C397.839 84.4659 397.839 84.754 397.839 85.0546C397.93 86.0305 398.097 86.9978 398.34 87.9476H396.223C395.711 86.9731 395.368 85.9186 395.209 84.8291V84.8041ZM399.843 84.8792C399.843 84.6413 399.843 84.4033 399.843 84.1653H404.238V87.9226H400.481C400.174 86.9387 399.96 85.9282 399.843 84.9043V84.8792ZM404.188 89.8888V93.1827C403.9 93.0803 403.627 92.9414 403.374 92.7694C402.421 92.0421 401.667 91.0857 401.183 89.989L404.188 89.8888ZM406.142 93.0825V89.9264H409.16C408.611 91.36 407.53 92.5264 406.142 93.1827V93.0825ZM406.142 87.9351V84.1779H410.538C410.467 85.4503 410.253 86.7107 409.899 87.9351H406.142ZM412.492 82.1991C412.492 81.911 412.492 81.6104 412.492 81.3099C412.394 80.3348 412.227 79.3679 411.991 78.4168H414.107C414.632 79.3991 414.992 80.4612 415.172 81.5603C415.172 81.7732 415.172 81.9862 415.247 82.1991H412.492ZM412.692 76.463H411.29C411.021 75.7787 410.689 75.1205 410.3 74.4968C410.563 74.6505 410.818 74.8177 411.064 74.9977C411.661 75.437 412.207 75.941 412.692 76.5006V76.463ZM400.018 74.5093C399.631 75.1301 399.3 75.7839 399.028 76.463H397.638C398.331 75.7087 399.133 75.0628 400.018 74.5469V74.5093ZM397.651 89.8888H399.041C399.317 90.5764 399.652 91.2385 400.043 91.8676C399.149 91.3503 398.341 90.6952 397.651 89.9264V89.8888ZM410.313 91.9303C410.7 91.3051 411.031 90.6472 411.302 89.964H412.692C411.999 90.7321 411.198 91.3945 410.313 91.9303Z" fill="white"/>
<path d="M424.421 164.645C432.989 158.783 435.183 147.084 429.32 138.515C423.458 129.947 411.759 127.753 403.19 133.616C394.622 139.478 392.428 151.177 398.291 159.746C404.153 168.314 415.852 170.508 424.421 164.645Z" fill="#3CE07E"/>
<path d="M413.807 137.844C411.399 137.913 409.097 138.847 407.322 140.475C405.547 142.103 404.417 144.315 404.14 146.708C403.864 149.101 404.458 151.513 405.815 153.503C407.171 155.493 409.199 156.928 411.528 157.545L413.807 160.45L416.086 157.545C418.415 156.928 420.443 155.493 421.8 153.503C423.156 151.513 423.751 149.101 423.474 146.708C423.197 144.315 422.067 142.103 420.292 140.475C418.517 138.847 416.215 137.913 413.807 137.844ZM413.807 151.984C412.985 151.982 412.183 151.736 411.5 151.277C410.818 150.819 410.287 150.169 409.974 149.409C409.662 148.649 409.581 147.813 409.743 147.007C409.905 146.202 410.302 145.462 410.884 144.882C411.466 144.301 412.207 143.907 413.013 143.747C413.819 143.588 414.655 143.671 415.414 143.986C416.173 144.301 416.821 144.834 417.278 145.517C417.734 146.201 417.978 147.004 417.978 147.826C417.986 148.378 417.884 148.927 417.678 149.439C417.472 149.952 417.166 150.418 416.778 150.811C416.389 151.204 415.927 151.516 415.417 151.728C414.907 151.94 414.359 152.048 413.807 152.047V151.984Z" fill="white"/>
<path d="M301.868 452.147H292.212L291.799 429.779H301.455L301.868 452.147Z" fill="#B55B52"/>
<path d="M359.868 452.147H350.212L345.904 429.779H355.56L359.868 452.147Z" fill="#B55B52"/>
<path d="M349.549 451.032H360.408C360.598 451.032 360.782 451.098 360.928 451.22C361.075 451.341 361.174 451.509 361.209 451.696L362.912 460.275C362.951 460.487 362.942 460.706 362.887 460.914C362.832 461.122 362.731 461.316 362.593 461.481C362.454 461.646 362.28 461.779 362.084 461.869C361.889 461.959 361.675 462.005 361.46 462.004C357.702 461.928 355.836 461.716 351.065 461.716C348.121 461.716 342.072 462.016 338.014 462.016C333.957 462.016 333.531 458.008 335.197 457.645C342.711 456.017 345.541 453.775 347.971 451.634C348.406 451.247 348.967 451.033 349.549 451.032Z" fill="#263238"/>
<path d="M292.302 451.032H302.86C303.05 451.032 303.234 451.098 303.38 451.22C303.527 451.341 303.626 451.509 303.661 451.696L305.352 460.275C305.395 460.486 305.39 460.704 305.338 460.912C305.286 461.121 305.188 461.315 305.051 461.481C304.914 461.646 304.742 461.779 304.547 461.87C304.352 461.96 304.139 462.006 303.924 462.004C300.167 461.928 294.631 461.716 289.847 461.716C284.249 461.716 279.414 462.016 272.852 462.016C268.894 462.016 267.842 458.008 269.558 457.645C277.16 455.992 283.334 455.817 289.96 451.784C290.656 451.323 291.467 451.063 292.302 451.032Z" fill="#263238"/>
<path d="M292.016 148.978L281.709 139.735C281.709 139.735 256.397 162.979 251.438 162.904C244.675 162.792 230.623 162.09 222.783 160.399C221.38 161.251 218.5 164.495 218.212 165.948C227.191 173.049 250.586 178.134 256.46 176.155C269.836 171.671 292.016 148.978 292.016 148.978Z" fill="#B55B52"/>
<path d="M297.799 143.617C297.724 152.847 273.189 171.27 273.189 171.27L258.924 154.888C264.481 148.416 270.697 142.539 277.472 137.355C287.516 130.053 297.874 133.485 297.799 143.617Z" fill="#263238"/>
<path opacity="0.2" d="M273.19 171.27C273.19 171.27 295.846 154.262 297.675 144.744C294.782 141.776 279.29 150.267 273.19 171.27Z" fill="black"/>
<path d="M224.322 160.899L215.768 153.022L208.091 162.866C211.932 164.957 216.072 166.447 220.364 167.287L224.322 160.899Z" fill="#B55B52"/>
<path d="M205.573 148.388L202.93 155.815L208.09 162.866L215.768 153.022L205.573 148.388Z" fill="#B55B52"/>
<path opacity="0.2" d="M291.799 429.792L292.012 441.314H301.68L301.467 429.792H291.799Z" fill="black"/>
<path opacity="0.2" d="M355.572 429.792H345.904L348.133 441.314H357.789L355.572 429.792Z" fill="black"/>
<path d="M285.276 133.873C285.276 133.873 273.153 163.054 282.658 217.371H334.32C334.871 209.444 330.838 170.757 339.405 133.385C333.71 132.282 327.949 131.55 322.159 131.193C314.847 130.773 307.517 130.773 300.205 131.193C295.167 131.702 290.176 132.598 285.276 133.873Z" fill="#263238"/>
<path opacity="0.2" d="M327.956 142.602C326.942 148.764 328.52 163.467 333.968 180.475C334.229 165.91 335.776 151.397 338.589 137.104V137.017C335.195 136.678 328.921 136.841 327.956 142.602Z" fill="black"/>
<path d="M319.791 110.716C318.238 117.78 317.286 126.546 322.158 131.256C322.158 131.256 319.152 138.432 306.014 138.432C294.016 138.432 300.203 131.256 300.203 131.256C308.118 129.377 307.955 119.633 306.715 114.148L319.791 110.716Z" fill="#B55B52"/>
<path d="M305.389 137.793L302.545 140.95C302.448 141.058 302.38 141.191 302.349 141.334C302.319 141.476 302.326 141.625 302.37 141.764L303.284 144.532C303.332 144.689 303.428 144.827 303.558 144.926C303.689 145.025 303.847 145.08 304.011 145.084L307.067 145.234C307.214 145.24 307.361 145.209 307.492 145.144C307.624 145.078 307.736 144.98 307.819 144.858L309.648 142.177C309.759 142.031 309.819 141.853 309.819 141.67C309.819 141.487 309.759 141.309 309.648 141.163L306.679 137.793C306.6 137.698 306.502 137.622 306.39 137.57C306.279 137.517 306.157 137.49 306.034 137.49C305.911 137.49 305.789 137.517 305.678 137.57C305.566 137.622 305.468 137.698 305.389 137.793Z" fill="#3C50E0"/>
<path d="M306.03 137.105C307.482 139.547 308.288 142.318 308.372 145.158C308.372 145.158 324.954 139.346 324.403 130.855C324.403 130.855 322.099 129.465 320.646 128.35C320.621 128.338 319.957 133.698 306.03 137.105Z" fill="white"/>
<path d="M306.028 137.105C304.465 139.392 303.317 141.935 302.634 144.619C302.634 144.619 295.307 139.61 297.749 131.168C299.128 130.616 300.547 130.172 301.995 129.841C301.995 129.841 300.88 135.289 306.028 137.105Z" fill="white"/>
<path d="M304.676 144.644C304.676 144.644 299.98 179.223 299.88 185.234C299.942 190.928 300.837 196.582 302.535 202.016C302.535 202.016 305.753 195.905 306.292 184.984C306.831 174.063 306.179 150.768 306.417 144.644H304.676Z" fill="#3C50E0"/>
<path opacity="0.2" d="M306.702 114.085C307.441 117.304 307.805 121.988 306.364 125.683C307.596 125.5 308.795 125.137 309.921 124.606C314.417 122.514 316.684 119.22 319.076 114.323C319.289 113.071 319.527 111.819 319.79 110.654L306.702 114.085Z" fill="black"/>
<path d="M296.083 104.767C296.292 105.926 296.732 107.032 297.378 108.017C298.023 109.003 298.861 109.848 299.84 110.503C302.495 112.231 304.85 110.052 304.938 107.021C305.025 104.291 303.773 100.108 300.704 99.6067C300.028 99.5178 299.34 99.5952 298.7 99.8323C298.06 100.069 297.488 100.459 297.032 100.967C296.577 101.476 296.253 102.087 296.087 102.749C295.922 103.412 295.92 104.104 296.083 104.767Z" fill="#B55B52"/>
<path opacity="0.2" d="M296.083 104.767C296.292 105.926 296.732 107.032 297.378 108.017C298.023 109.003 298.861 109.848 299.84 110.503C302.495 112.231 304.85 110.052 304.938 107.021C305.025 104.291 303.773 100.108 300.704 99.6067C300.028 99.5178 299.34 99.5952 298.7 99.8323C298.06 100.069 297.488 100.459 297.032 100.967C296.577 101.476 296.253 102.087 296.087 102.749C295.922 103.412 295.92 104.104 296.083 104.767Z" fill="black"/>
<path d="M309.036 86.2939C303.864 86.5319 296.512 98.1417 301.071 103.126C305.63 108.111 318.805 85.843 309.036 86.2939Z" fill="#263238"/>
<path d="M326.591 104.78C322.508 113.547 320.555 118.882 314.255 121.825C304.762 126.234 295.469 118.068 296.809 108.274C298.061 99.5075 304.536 86.6327 314.643 86.3071C316.861 86.2204 319.064 86.7126 321.034 87.7353C323.004 88.758 324.674 90.276 325.88 92.1399C327.085 94.0038 327.785 96.1495 327.91 98.3658C328.034 100.582 327.58 102.793 326.591 104.78Z" fill="#B55B52"/>
<path d="M333.416 93.5078C338.426 96.739 331.325 111.041 324.887 110.653C322.044 110.478 322.57 103.54 325.413 97.5656C320.228 97.3402 303.146 93.5579 303.709 85.4799C303.885 82.8749 306.552 81.2968 310.372 79.318C311.409 78.8805 312.247 78.0727 312.721 77.0518C313.196 76.0309 313.274 74.87 312.939 73.7949C313.789 74.6292 314.378 75.6928 314.633 76.8558C314.889 78.0189 314.801 79.2312 314.38 80.345C312.927 84.3026 320.855 82.7371 325.426 82.6244C333.592 82.3989 338.276 88.4982 333.416 93.5078Z" fill="#263238"/>
<path d="M332.29 93.5077C332.29 93.5077 336.313 91.9913 337.679 95.5128C336.071 94.4183 334.222 93.7302 332.29 93.5077Z" fill="#263238"/>
<path d="M326.705 116.176C324.773 117.638 322.346 118.286 319.942 117.98C316.786 117.541 316.548 114.41 318.552 112.081C320.343 109.989 324.163 107.698 326.781 109.313C329.398 110.929 329.085 114.348 326.705 116.176Z" fill="#B55B52"/>
<path d="M282.659 217.37C282.659 217.37 279.553 289.597 279.879 319.053C280.229 349.7 288.47 439.084 288.47 439.084H304.839C304.839 439.084 307.845 351.491 309.31 321.358C310.913 288.557 316.624 217.333 316.624 217.333L282.659 217.37Z" fill="#3C50E0"/>
<path d="M306.039 434.076C306.115 434.076 305.902 439.423 305.902 439.423H287.04L286.389 433.412L306.039 434.076Z" fill="#263238"/>
<path opacity="0.2" d="M304.786 236.495C304.222 272.327 305.85 294.106 309.796 311.64C310.785 294.545 312.401 271.939 313.816 253.165L304.786 236.495Z" fill="black"/>
<path d="M300.981 217.372C300.981 217.372 310.136 291.264 315.484 318.817C321.32 349.1 343.688 439.048 343.688 439.048H361.372C361.372 439.048 347.42 351.592 344.414 321.597C341.133 289.034 334.395 217.372 334.395 217.372H300.981Z" fill="#3C50E0"/>
<path d="M361.488 434.476C361.563 434.476 362.252 439.423 362.252 439.423H342.802L341.224 433.737L361.488 434.476Z" fill="#263238"/>
<path opacity="0.2" d="M354.496 428.627C354.458 428.627 354.421 428.613 354.394 428.587C354.366 428.562 354.348 428.526 354.345 428.489C354.22 427.6 341.621 349.662 338.903 322.723C335.96 293.492 329.823 228.667 329.761 228.016C329.757 227.994 329.758 227.971 329.764 227.949C329.77 227.927 329.78 227.906 329.794 227.889C329.808 227.871 329.826 227.857 329.846 227.846C329.866 227.836 329.888 227.829 329.911 227.828C329.932 227.826 329.954 227.829 329.974 227.836C329.995 227.842 330.013 227.853 330.03 227.867C330.046 227.881 330.059 227.898 330.069 227.917C330.079 227.936 330.085 227.957 330.086 227.978C330.149 228.63 336.286 293.442 339.229 322.685C341.946 349.612 354.546 427.549 354.671 428.439C354.674 428.46 354.674 428.482 354.669 428.503C354.664 428.524 354.654 428.544 354.642 428.562C354.629 428.579 354.613 428.594 354.594 428.605C354.575 428.616 354.555 428.624 354.533 428.627H354.496Z" fill="black"/>
<path d="M312.106 102.263C311.817 103.002 311.203 103.441 310.727 103.265C310.251 103.09 310.113 102.363 310.401 101.624C310.69 100.884 311.304 100.446 311.78 100.621C312.256 100.797 312.394 101.536 312.106 102.263Z" fill="#263238"/>
<path d="M303.924 99.2202C303.636 99.9471 303.009 100.398 302.545 100.223C302.082 100.047 301.919 99.3079 302.207 98.5811C302.495 97.8542 303.109 97.3278 303.586 97.566C304.062 97.8041 304.212 98.4808 303.924 99.2202Z" fill="#263238"/>
<path d="M306.379 100.547C304.64 102.478 302.647 104.164 300.454 105.558C300.81 106.101 301.283 106.558 301.837 106.896C302.392 107.234 303.015 107.444 303.661 107.512L306.379 100.547Z" fill="#A02724"/>
<path d="M304.974 110.253C304.946 110.243 304.92 110.228 304.898 110.208C304.877 110.188 304.859 110.163 304.848 110.136C304.836 110.109 304.83 110.08 304.83 110.05C304.83 110.021 304.836 109.992 304.848 109.965C304.873 109.909 304.917 109.864 304.973 109.839C305.028 109.814 305.091 109.809 305.149 109.827C306.053 110.177 307.026 110.314 307.992 110.224C308.957 110.135 309.889 109.823 310.713 109.313C310.758 109.271 310.816 109.248 310.876 109.248C310.937 109.248 310.995 109.271 311.039 109.313C311.081 109.357 311.104 109.415 311.104 109.476C311.104 109.536 311.081 109.595 311.039 109.639C310.153 110.223 309.138 110.584 308.082 110.691C307.026 110.798 305.959 110.647 304.974 110.253Z" fill="#263238"/>
<path d="M315.612 100.524C315.547 100.496 315.489 100.454 315.442 100.403C315.394 100.351 315.358 100.29 315.336 100.223C315.212 99.6593 314.951 99.1352 314.574 98.6977C314.198 98.2603 313.719 97.9231 313.18 97.7165C313.065 97.679 312.968 97.5976 312.912 97.4898C312.856 97.3819 312.844 97.2563 312.88 97.14C312.92 97.0255 313.001 96.9301 313.107 96.8722C313.214 96.8143 313.338 96.7981 313.456 96.8267C314.135 97.0713 314.742 97.4795 315.225 98.015C315.708 98.5506 316.052 99.197 316.226 99.8971C316.256 100.015 316.239 100.14 316.178 100.246C316.117 100.351 316.017 100.429 315.9 100.461C315.813 100.514 315.712 100.536 315.612 100.524Z" fill="#263238"/>
<path d="M301.392 94.9116C301.319 94.8819 301.255 94.8332 301.208 94.7705C301.16 94.7079 301.13 94.6335 301.121 94.5554C301.112 94.4772 301.125 94.3981 301.157 94.3262C301.189 94.2544 301.24 94.1926 301.304 94.1471C301.853 93.6665 302.509 93.3228 303.217 93.1442C303.925 92.9656 304.665 92.9571 305.377 93.1195C305.435 93.1366 305.489 93.1653 305.536 93.2038C305.583 93.2423 305.622 93.2899 305.65 93.3437C305.678 93.3976 305.695 93.4565 305.7 93.517C305.704 93.5776 305.697 93.6384 305.678 93.696C305.638 93.8099 305.556 93.9042 305.449 93.9601C305.342 94.0159 305.217 94.029 305.101 93.9968C304.535 93.8818 303.95 93.8988 303.391 94.0466C302.833 94.1944 302.316 94.469 301.88 94.849C301.813 94.9043 301.731 94.9395 301.645 94.9506C301.559 94.9617 301.471 94.9482 301.392 94.9116Z" fill="#263238"/>
<path d="M330.963 149.277L344.414 144.906C344.414 144.906 356.763 176.392 361.347 178.208C367.609 180.713 380.221 187.325 388.086 188.903C388.987 190.231 390.19 194.314 389.814 195.754C378.542 198.685 355.598 192.51 351.077 188.453C340.745 179.21 330.963 149.277 330.963 149.277Z" fill="#B55B52"/>
<path d="M339.403 133.384C348.508 134.712 358.189 166.385 358.189 166.385L338.726 177.218C338.726 177.218 330.648 162.19 326.753 150.918C322.683 139.258 329.634 132.007 339.403 133.384Z" fill="#263238"/>
<path d="M346.32 452.726C345.668 452.777 345.018 452.605 344.477 452.237C344.299 452.086 344.163 451.891 344.083 451.671C344.004 451.451 343.984 451.214 344.026 450.984C344.031 450.848 344.072 450.716 344.145 450.602C344.217 450.487 344.319 450.394 344.44 450.332C345.505 449.793 348.588 451.698 348.939 451.924C348.976 451.947 349.005 451.981 349.023 452.021C349.041 452.062 349.046 452.106 349.039 452.149C349.03 452.193 349.008 452.234 348.977 452.267C348.947 452.301 348.907 452.325 348.864 452.337C348.033 452.561 347.18 452.691 346.32 452.726ZM344.929 450.721C344.834 450.699 344.735 450.699 344.64 450.721C344.578 450.721 344.502 450.808 344.49 450.984C344.46 451.137 344.471 451.295 344.522 451.442C344.572 451.589 344.661 451.721 344.778 451.823C345.856 452.314 347.08 452.372 348.2 451.986C347.201 451.357 346.091 450.927 344.929 450.721Z" fill="#3C50E0"/>
<path d="M348.803 452.388H348.702C347.712 451.837 345.832 449.719 346.058 448.628C346.099 448.461 346.193 448.312 346.327 448.203C346.46 448.095 346.625 448.033 346.797 448.027C346.972 448.005 347.15 448.021 347.318 448.073C347.487 448.125 347.642 448.212 347.775 448.328C348.865 449.242 349.028 452.087 349.028 452.15C349.029 452.192 349.019 452.234 348.999 452.271C348.979 452.308 348.951 452.34 348.915 452.363C348.881 452.382 348.842 452.39 348.803 452.388ZM346.923 448.465H346.822C346.522 448.465 346.497 448.628 346.484 448.691C346.346 449.33 347.537 450.922 348.514 451.686C348.476 450.59 348.104 449.532 347.449 448.653C347.302 448.529 347.115 448.462 346.923 448.465Z" fill="#3C50E0"/>
<path d="M288.245 452.725C287.424 452.799 286.602 452.591 285.914 452.136C285.76 451.998 285.643 451.823 285.573 451.629C285.503 451.434 285.482 451.225 285.513 451.021C285.52 450.894 285.56 450.771 285.628 450.664C285.696 450.556 285.79 450.468 285.901 450.407C287.092 449.743 290.914 451.66 291.365 451.948C291.407 451.971 291.44 452.006 291.46 452.049C291.48 452.092 291.487 452.14 291.478 452.186C291.473 452.234 291.451 452.279 291.417 452.313C291.383 452.347 291.338 452.369 291.29 452.374C290.288 452.586 289.269 452.703 288.245 452.725ZM286.54 450.72C286.393 450.712 286.247 450.743 286.114 450.808C286.071 450.831 286.034 450.865 286.008 450.907C285.982 450.949 285.967 450.997 285.964 451.046C285.945 451.181 285.96 451.319 286.005 451.448C286.051 451.576 286.127 451.692 286.227 451.785C286.804 452.312 288.395 452.412 290.538 452.048C289.292 451.379 287.94 450.929 286.54 450.72Z" fill="#3C50E0"/>
<path d="M291.251 452.388H291.15C289.997 451.862 287.741 449.781 287.942 448.628C287.942 448.378 288.18 448.052 288.807 447.989C289.032 447.965 289.26 447.988 289.476 448.057C289.691 448.126 289.89 448.24 290.06 448.39C291.313 449.393 291.464 451.999 291.464 452.15C291.469 452.189 291.462 452.23 291.444 452.265C291.426 452.301 291.398 452.331 291.363 452.35C291.331 452.376 291.291 452.389 291.251 452.388ZM288.982 448.465H288.844C288.431 448.465 288.406 448.666 288.393 448.716C288.268 449.368 289.797 451.009 290.975 451.736C290.884 450.634 290.445 449.59 289.722 448.754C289.513 448.58 289.253 448.479 288.982 448.465Z" fill="#3C50E0"/>
<path d="M388.925 195.968L398.117 196.406L393.233 186.387C393.233 186.387 385.18 186.262 383.852 192.461L388.925 195.968Z" fill="#B55B52"/>
<path d="M405.57 191.559L400.698 182.704L393.234 186.386L398.118 196.405L405.57 191.559Z" fill="#B55B52"/>
</svg>
