<svg width="415" height="62" viewBox="0 0 415 62" fill="none" xmlns="http://www.w3.org/2000/svg">
<path d="M186 45L415 45" stroke="#B7CDFF" stroke-width="26"/>
<path d="M7.524 22.94V29.24H15.984V33.236H7.524V39.896H17.064V44H2.484V18.836H17.064V22.94H7.524ZM36.9802 29.024V33.272H21.7162V29.024H36.9802ZM41.4084 31.4C41.4084 28.928 41.9604 26.72 43.0644 24.776C44.1924 22.808 45.7164 21.284 47.6364 20.204C49.5804 19.1 51.7524 18.548 54.1524 18.548C56.9604 18.548 59.4204 19.268 61.5324 20.708C63.6444 22.148 65.1204 24.14 65.9604 26.684H60.1644C59.5884 25.484 58.7724 24.584 57.7164 23.984C56.6844 23.384 55.4844 23.084 54.1164 23.084C52.6524 23.084 51.3444 23.432 50.1924 24.128C49.0644 24.8 48.1764 25.76 47.5284 27.008C46.9044 28.256 46.5924 29.72 46.5924 31.4C46.5924 33.056 46.9044 34.52 47.5284 35.792C48.1764 37.04 49.0644 38.012 50.1924 38.708C51.3444 39.38 52.6524 39.716 54.1164 39.716C55.4844 39.716 56.6844 39.416 57.7164 38.816C58.7724 38.192 59.5884 37.28 60.1644 36.08H65.9604C65.1204 38.648 63.6444 40.652 61.5324 42.092C59.4444 43.508 56.9844 44.216 54.1524 44.216C51.7524 44.216 49.5804 43.676 47.6364 42.596C45.7164 41.492 44.1924 39.968 43.0644 38.024C41.9604 36.08 41.4084 33.872 41.4084 31.4ZM79.1213 44.324C77.2013 44.324 75.4733 43.904 73.9373 43.064C72.4013 42.2 71.1893 40.988 70.3013 39.428C69.4373 37.868 69.0053 36.068 69.0053 34.028C69.0053 31.988 69.4493 30.188 70.3373 28.628C71.2493 27.068 72.4853 25.868 74.0453 25.028C75.6053 24.164 77.3453 23.732 79.2653 23.732C81.1853 23.732 82.9253 24.164 84.4853 25.028C86.0453 25.868 87.2693 27.068 88.1573 28.628C89.0693 30.188 89.5253 31.988 89.5253 34.028C89.5253 36.068 89.0573 37.868 88.1212 39.428C87.2093 40.988 85.9613 42.2 84.3773 43.064C82.8173 43.904 81.0653 44.324 79.1213 44.324ZM79.1213 39.932C80.0333 39.932 80.8853 39.716 81.6773 39.284C82.4933 38.828 83.1413 38.156 83.6213 37.268C84.1013 36.38 84.3413 35.3 84.3413 34.028C84.3413 32.132 83.8373 30.68 82.8293 29.672C81.8453 28.64 80.6333 28.124 79.1933 28.124C77.7533 28.124 76.5413 28.64 75.5573 29.672C74.5973 30.68 74.1173 32.132 74.1173 34.028C74.1173 35.924 74.5853 37.388 75.5213 38.42C76.4813 39.428 77.6813 39.932 79.1213 39.932ZM117.99 23.768C120.438 23.768 122.406 24.524 123.894 26.036C125.406 27.524 126.162 29.612 126.162 32.3V44H121.122V32.984C121.122 31.424 120.726 30.236 119.934 29.42C119.142 28.58 118.062 28.16 116.694 28.16C115.326 28.16 114.234 28.58 113.418 29.42C112.626 30.236 112.23 31.424 112.23 32.984V44H107.19V32.984C107.19 31.424 106.794 30.236 106.002 29.42C105.21 28.58 104.13 28.16 102.762 28.16C101.37 28.16 100.266 28.58 99.4503 29.42C98.6583 30.236 98.2623 31.424 98.2623 32.984V44H93.2223V24.056H98.2623V26.468C98.9103 25.628 99.7383 24.968 100.746 24.488C101.778 24.008 102.906 23.768 104.13 23.768C105.69 23.768 107.082 24.104 108.306 24.776C109.53 25.424 110.478 26.36 111.15 27.584C111.798 26.432 112.734 25.508 113.958 24.812C115.206 24.116 116.55 23.768 117.99 23.768ZM155.713 23.768C158.161 23.768 160.129 24.524 161.617 26.036C163.129 27.524 163.885 29.612 163.885 32.3V44H158.845V32.984C158.845 31.424 158.449 30.236 157.657 29.42C156.865 28.58 155.785 28.16 154.417 28.16C153.049 28.16 151.957 28.58 151.141 29.42C150.349 30.236 149.953 31.424 149.953 32.984V44H144.913V32.984C144.913 31.424 144.517 30.236 143.725 29.42C142.933 28.58 141.853 28.16 140.485 28.16C139.093 28.16 137.989 28.58 137.173 29.42C136.381 30.236 135.985 31.424 135.985 32.984V44H130.945V24.056H135.985V26.468C136.633 25.628 137.461 24.968 138.469 24.488C139.501 24.008 140.629 23.768 141.853 23.768C143.413 23.768 144.805 24.104 146.029 24.776C147.253 25.424 148.201 26.36 148.873 27.584C149.521 26.432 150.457 25.508 151.681 24.812C152.929 24.116 154.273 23.768 155.713 23.768ZM187.208 33.596C187.208 34.316 187.16 34.964 187.064 35.54H172.484C172.604 36.98 173.108 38.108 173.996 38.924C174.884 39.74 175.976 40.148 177.272 40.148C179.144 40.148 180.476 39.344 181.268 37.736H186.704C186.128 39.656 185.024 41.24 183.392 42.488C181.76 43.712 179.756 44.324 177.38 44.324C175.46 44.324 173.732 43.904 172.196 43.064C170.684 42.2 169.496 40.988 168.632 39.428C167.792 37.868 167.372 36.068 167.372 34.028C167.372 31.964 167.792 30.152 168.632 28.592C169.472 27.032 170.648 25.832 172.16 24.992C173.672 24.152 175.412 23.732 177.38 23.732C179.276 23.732 180.968 24.14 182.456 24.956C183.968 25.772 185.132 26.936 185.948 28.448C186.788 29.936 187.208 31.652 187.208 33.596ZM181.988 32.156C181.964 30.86 181.496 29.828 180.584 29.06C179.672 28.268 178.556 27.872 177.236 27.872C175.988 27.872 174.932 28.256 174.068 29.024C173.228 29.768 172.712 30.812 172.52 32.156H181.988ZM195.926 27.152C196.574 26.096 197.414 25.268 198.446 24.668C199.502 24.068 200.702 23.768 202.046 23.768V29.06H200.714C199.13 29.06 197.93 29.432 197.114 30.176C196.322 30.92 195.926 32.216 195.926 34.064V44H190.886V24.056H195.926V27.152ZM204.145 34.028C204.145 31.964 204.565 30.164 205.405 28.628C206.245 27.068 207.409 25.868 208.897 25.028C210.385 24.164 212.089 23.732 214.009 23.732C216.481 23.732 218.521 24.356 220.129 25.604C221.761 26.828 222.853 28.556 223.405 30.788H217.969C217.681 29.924 217.189 29.252 216.493 28.772C215.821 28.268 214.981 28.016 213.973 28.016C212.533 28.016 211.393 28.544 210.553 29.6C209.713 30.632 209.293 32.108 209.293 34.028C209.293 35.924 209.713 37.4 210.553 38.456C211.393 39.488 212.533 40.004 213.973 40.004C216.013 40.004 217.345 39.092 217.969 37.268H223.405C222.853 39.428 221.761 41.144 220.129 42.416C218.497 43.688 216.457 44.324 214.009 44.324C212.089 44.324 210.385 43.904 208.897 43.064C207.409 42.2 206.245 41 205.405 39.464C204.565 37.904 204.145 36.092 204.145 34.028ZM245.637 33.596C245.637 34.316 245.589 34.964 245.493 35.54H230.913C231.033 36.98 231.537 38.108 232.425 38.924C233.313 39.74 234.405 40.148 235.701 40.148C237.573 40.148 238.905 39.344 239.697 37.736H245.133C244.557 39.656 243.453 41.24 241.821 42.488C240.189 43.712 238.185 44.324 235.809 44.324C233.889 44.324 232.161 43.904 230.625 43.064C229.113 42.2 227.925 40.988 227.061 39.428C226.221 37.868 225.801 36.068 225.801 34.028C225.801 31.964 226.221 30.152 227.061 28.592C227.901 27.032 229.077 25.832 230.589 24.992C232.101 24.152 233.841 23.732 235.809 23.732C237.705 23.732 239.397 24.14 240.885 24.956C242.397 25.772 243.561 26.936 244.377 28.448C245.217 29.936 245.637 31.652 245.637 33.596ZM240.417 32.156C240.393 30.86 239.925 29.828 239.013 29.06C238.101 28.268 236.985 27.872 235.665 27.872C234.417 27.872 233.361 28.256 232.497 29.024C231.657 29.768 231.141 30.812 230.949 32.156H240.417ZM266.57 44.252C264.818 44.252 263.234 43.952 261.818 43.352C260.426 42.752 259.322 41.888 258.506 40.76C257.69 39.632 257.27 38.3 257.246 36.764H262.646C262.718 37.796 263.078 38.612 263.726 39.212C264.398 39.812 265.31 40.112 266.462 40.112C267.638 40.112 268.562 39.836 269.234 39.284C269.906 38.708 270.242 37.964 270.242 37.052C270.242 36.308 270.014 35.696 269.558 35.216C269.102 34.736 268.526 34.364 267.83 34.1C267.158 33.812 266.222 33.5 265.022 33.164C263.39 32.684 262.058 32.216 261.026 31.76C260.018 31.28 259.142 30.572 258.398 29.636C257.678 28.676 257.318 27.404 257.318 25.82C257.318 24.332 257.69 23.036 258.434 21.932C259.178 20.828 260.222 19.988 261.566 19.412C262.91 18.812 264.446 18.512 266.174 18.512C268.766 18.512 270.866 19.148 272.474 20.42C274.106 21.668 275.006 23.42 275.174 25.676H269.63C269.582 24.812 269.21 24.104 268.514 23.552C267.842 22.976 266.942 22.688 265.814 22.688C264.83 22.688 264.038 22.94 263.438 23.444C262.862 23.948 262.574 24.68 262.574 25.64C262.574 26.312 262.79 26.876 263.222 27.332C263.678 27.764 264.23 28.124 264.878 28.412C265.55 28.676 266.486 28.988 267.686 29.348C269.318 29.828 270.65 30.308 271.682 30.788C272.714 31.268 273.602 31.988 274.346 32.948C275.09 33.908 275.462 35.168 275.462 36.728C275.462 38.072 275.114 39.32 274.418 40.472C273.722 41.624 272.702 42.548 271.358 43.244C270.014 43.916 268.418 44.252 266.57 44.252ZM288.688 44.324C286.768 44.324 285.04 43.904 283.504 43.064C281.968 42.2 280.756 40.988 279.868 39.428C279.004 37.868 278.572 36.068 278.572 34.028C278.572 31.988 279.016 30.188 279.904 28.628C280.816 27.068 282.052 25.868 283.612 25.028C285.172 24.164 286.912 23.732 288.832 23.732C290.752 23.732 292.492 24.164 294.052 25.028C295.612 25.868 296.836 27.068 297.724 28.628C298.636 30.188 299.092 31.988 299.092 34.028C299.092 36.068 298.624 37.868 297.688 39.428C296.776 40.988 295.528 42.2 293.944 43.064C292.384 43.904 290.632 44.324 288.688 44.324ZM288.688 39.932C289.6 39.932 290.452 39.716 291.244 39.284C292.06 38.828 292.708 38.156 293.188 37.268C293.668 36.38 293.908 35.3 293.908 34.028C293.908 32.132 293.404 30.68 292.396 29.672C291.412 28.64 290.2 28.124 288.76 28.124C287.32 28.124 286.108 28.64 285.124 29.672C284.164 30.68 283.684 32.132 283.684 34.028C283.684 35.924 284.152 37.388 285.088 38.42C286.048 39.428 287.248 39.932 288.688 39.932ZM307.829 17.36V44H302.789V17.36H307.829ZM331.636 24.056V44H326.56V41.48C325.912 42.344 325.06 43.028 324.004 43.532C322.972 44.012 321.844 44.252 320.62 44.252C319.06 44.252 317.68 43.928 316.48 43.28C315.28 42.608 314.332 41.636 313.636 40.364C312.964 39.068 312.628 37.532 312.628 35.756V24.056H317.668V35.036C317.668 36.62 318.064 37.844 318.856 38.708C319.648 39.548 320.728 39.968 322.096 39.968C323.488 39.968 324.58 39.548 325.372 38.708C326.164 37.844 326.56 36.62 326.56 35.036V24.056H331.636ZM342.477 28.196V37.844C342.477 38.516 342.633 39.008 342.945 39.32C343.281 39.608 343.833 39.752 344.601 39.752H346.941V44H343.773C339.525 44 337.401 41.936 337.401 37.808V28.196H335.025V24.056H337.401V19.124H342.477V24.056H346.941V28.196H342.477ZM353.122 21.68C352.234 21.68 351.49 21.404 350.89 20.852C350.314 20.276 350.026 19.568 350.026 18.728C350.026 17.888 350.314 17.192 350.89 16.64C351.49 16.064 352.234 15.776 353.122 15.776C354.01 15.776 354.742 16.064 355.318 16.64C355.918 17.192 356.218 17.888 356.218 18.728C356.218 19.568 355.918 20.276 355.318 20.852C354.742 21.404 354.01 21.68 353.122 21.68ZM355.606 24.056V44H350.566V24.056H355.606ZM369.442 44.324C367.522 44.324 365.794 43.904 364.258 43.064C362.722 42.2 361.51 40.988 360.622 39.428C359.758 37.868 359.326 36.068 359.326 34.028C359.326 31.988 359.77 30.188 360.658 28.628C361.57 27.068 362.806 25.868 364.366 25.028C365.926 24.164 367.666 23.732 369.586 23.732C371.506 23.732 373.246 24.164 374.806 25.028C376.366 25.868 377.59 27.068 378.478 28.628C379.39 30.188 379.846 31.988 379.846 34.028C379.846 36.068 379.378 37.868 378.442 39.428C377.53 40.988 376.282 42.2 374.698 43.064C373.138 43.904 371.386 44.324 369.442 44.324ZM369.442 39.932C370.354 39.932 371.206 39.716 371.998 39.284C372.814 38.828 373.462 38.156 373.942 37.268C374.422 36.38 374.662 35.3 374.662 34.028C374.662 32.132 374.158 30.68 373.15 29.672C372.166 28.64 370.954 28.124 369.514 28.124C368.074 28.124 366.862 28.64 365.878 29.672C364.918 30.68 364.438 32.132 364.438 34.028C364.438 35.924 364.906 37.388 365.842 38.42C366.802 39.428 368.002 39.932 369.442 39.932ZM394.595 23.768C396.971 23.768 398.891 24.524 400.355 26.036C401.819 27.524 402.551 29.612 402.551 32.3V44H397.511V32.984C397.511 31.4 397.115 30.188 396.323 29.348C395.531 28.484 394.451 28.052 393.083 28.052C391.691 28.052 390.587 28.484 389.771 29.348C388.979 30.188 388.583 31.4 388.583 32.984V44H383.543V24.056H388.583V26.54C389.255 25.676 390.107 25.004 391.139 24.524C392.195 24.02 393.347 23.768 394.595 23.768Z" fill="black"/>
</svg>
