<svg width="692" height="515" viewBox="0 0 692 515" fill="none" xmlns="http://www.w3.org/2000/svg">
<path d="M622.661 475.389H576.823V475.735H622.661V475.389Z" fill="#EBEBEB"/>
<path d="M458.41 479.154H446.383V479.5H458.41V479.154Z" fill="#EBEBEB"/>
<path d="M575.441 462.545H548.882V462.891H575.441V462.545Z" fill="#EBEBEB"/>
<path d="M132.378 464.87H72.6035V465.216H132.378V464.87Z" fill="#EBEBEB"/>
<path d="M153.472 464.87H144.709V465.217H153.472V464.87Z" fill="#EBEBEB"/>
<path d="M311.606 470.711H181.953V471.057H311.606V470.711Z" fill="#EBEBEB"/>
<path d="M329.944 391.395H62.6939C60.598 391.395 58.5879 390.563 57.1059 389.081C55.6239 387.599 54.7913 385.589 54.7913 383.493V7.83368C54.8095 5.74979 55.6502 3.75746 57.1302 2.29036C58.6103 0.823257 60.6099 0.000164248 62.6939 0.000244146H329.944C330.982 0.000244146 332.01 0.20465 332.969 0.601795C333.927 0.99894 334.798 1.58105 335.532 2.31487C336.266 3.0487 336.848 3.91988 337.245 4.87868C337.643 5.83747 337.847 6.86509 337.847 7.90288V383.493C337.847 384.531 337.643 385.558 337.245 386.517C336.848 387.476 336.266 388.347 335.532 389.081C334.798 389.815 333.927 390.397 332.969 390.794C332.01 391.191 330.982 391.395 329.944 391.395ZM62.6939 0.277045C60.6909 0.280704 58.7709 1.07802 57.3546 2.49437C55.9382 3.91073 55.1409 5.83066 55.1373 7.83368V383.493C55.1409 385.496 55.9382 387.416 57.3546 388.832C58.7709 390.248 60.6909 391.046 62.6939 391.049H329.944C331.947 391.046 333.867 390.248 335.284 388.832C336.7 387.416 337.497 385.496 337.501 383.493V7.83368C337.497 5.83066 336.7 3.91073 335.284 2.49437C333.867 1.07802 331.947 0.280704 329.944 0.277045H62.6939Z" fill="#EBEBEB"/>
<path d="M629.304 391.395H362.054C359.958 391.395 357.948 390.563 356.466 389.081C354.984 387.599 354.151 385.589 354.151 383.493V7.83368C354.169 5.74979 355.01 3.75746 356.49 2.29036C357.97 0.823257 359.97 0.000164248 362.054 0.000244146H629.304C631.4 0.000244146 633.41 0.832842 634.892 2.31487C636.374 3.79691 637.207 5.80697 637.207 7.90288V383.493C637.207 385.589 636.374 387.599 634.892 389.081C633.41 390.563 631.4 391.395 629.304 391.395ZM362.054 0.277045C360.051 0.280704 358.131 1.07802 356.714 2.49437C355.298 3.91073 354.501 5.83066 354.497 7.83368V383.493C354.501 385.496 355.298 387.416 356.714 388.832C358.131 390.248 360.051 391.046 362.054 391.049H629.304C631.307 391.046 633.227 390.248 634.643 388.832C636.06 387.416 636.857 385.496 636.861 383.493V7.83368C636.857 5.83066 636.06 3.91073 634.643 2.49437C633.227 1.07802 631.307 0.280704 629.304 0.277045H362.054Z" fill="#EBEBEB"/>
<path d="M692 453.121H0V453.467H692V453.121Z" fill="#EBEBEB"/>
<path d="M180.863 87.8012L190.952 81.3241L196.461 91.9809L208.446 91.4273L207.893 103.413L218.549 108.921L212.072 119.01L218.549 129.114L207.893 134.622L208.446 146.607L196.461 146.054L190.952 156.711L180.863 150.233L170.76 156.711L165.251 146.054L153.266 146.607L153.82 134.622L143.163 129.114L149.64 119.01L143.163 108.921L153.82 103.413L153.266 91.4273L165.251 91.9809L170.76 81.3241L180.863 87.8012Z" fill="#E6E6E6"/>
<path d="M177.026 134.429L165.027 122.429C164.368 121.77 163.999 120.877 163.999 119.945C163.999 119.014 164.368 118.12 165.027 117.461C165.686 116.802 166.579 116.433 167.511 116.433C168.443 116.433 169.336 116.802 169.995 117.461L177.026 124.492L191.71 109.807C192.369 109.149 193.263 108.779 194.195 108.779C195.126 108.779 196.02 109.149 196.679 109.807C197.337 110.466 197.707 111.36 197.707 112.292C197.707 113.223 197.337 114.117 196.679 114.776L177.026 134.429Z" fill="#FAFAFA"/>
<path d="M556.176 193.732L564.093 188.653L568.411 197.012L577.822 196.57L577.379 205.967L585.738 210.285L580.659 218.215L585.738 226.132L577.379 230.45L577.822 239.847L568.411 239.418L564.093 247.778L556.176 242.698L548.26 247.778L543.942 239.418L534.544 239.847L534.973 230.45L526.614 226.132L531.693 218.215L526.614 210.285L534.973 205.967L534.544 196.57L543.942 197.012L548.26 188.653L556.176 193.732Z" fill="#E6E6E6"/>
<path d="M553.171 230.298L543.76 220.887C543.248 220.369 542.961 219.671 542.961 218.943C542.961 218.215 543.248 217.516 543.76 216.998C544.278 216.483 544.98 216.193 545.711 216.193C546.442 216.193 547.144 216.483 547.662 216.998L553.198 222.534L564.713 211.019C565.232 210.504 565.933 210.214 566.665 210.214C567.396 210.214 568.098 210.504 568.616 211.019C569.132 211.538 569.421 212.239 569.421 212.971C569.421 213.702 569.132 214.404 568.616 214.922L553.171 230.298Z" fill="#FAFAFA"/>
<path d="M181.87 326.623L197.302 334.498C198.573 335.142 200.019 335.355 201.422 335.105C202.825 334.855 204.109 334.157 205.08 333.114L216.886 320.437C217.57 319.704 218.075 318.823 218.363 317.863C218.651 316.903 218.714 315.889 218.546 314.901L212.415 280.08C211.929 277.348 210.38 274.922 208.107 273.331C205.835 271.741 203.024 271.117 200.291 271.596L180.749 275.042C179.396 275.281 178.103 275.784 176.945 276.523C175.786 277.261 174.784 278.221 173.996 279.347C173.209 280.472 172.65 281.742 172.353 283.084C172.056 284.426 172.026 285.812 172.266 287.166L178.397 321.973C178.581 322.963 178.99 323.896 179.593 324.703C180.195 325.509 180.974 326.166 181.87 326.623ZM199.447 323.855C200.089 323.739 200.751 323.816 201.35 324.076C201.948 324.337 202.455 324.769 202.808 325.318C203.16 325.867 203.341 326.509 203.328 327.161C203.316 327.813 203.109 328.447 202.736 328.982C202.362 329.517 201.838 329.929 201.23 330.166C200.622 330.403 199.958 330.454 199.321 330.312C198.684 330.171 198.103 329.843 197.653 329.371C197.202 328.899 196.902 328.304 196.79 327.661C196.641 326.805 196.837 325.924 197.334 325.211C197.832 324.498 198.592 324.011 199.447 323.855Z" fill="#E6E6E6"/>
<path d="M182.625 315.831L212.488 310.565L211.918 307.335L182.055 312.601L182.625 315.831Z" fill="#FAFAFA"/>
<path d="M177.571 287.127L207.434 281.861L206.864 278.631L177.001 283.897L177.571 287.127Z" fill="#FAFAFA"/>
<path d="M234.612 101.226L245.241 112.63C246.114 113.566 247.268 114.193 248.529 114.415C249.79 114.637 251.089 114.443 252.23 113.862L266.07 106.775C266.884 106.364 267.591 105.768 268.134 105.035C268.677 104.303 269.041 103.453 269.198 102.554L274.734 71.2482C275.164 68.7929 274.603 66.2671 273.174 64.225C271.744 62.183 269.563 60.7916 267.108 60.3562L249.545 57.256C247.086 56.8255 244.557 57.3881 242.512 58.8204C240.468 60.2526 239.075 62.4376 238.639 64.8957L233.103 96.1879C232.944 97.0871 232.998 98.011 233.26 98.8857C233.522 99.7604 233.985 100.562 234.612 101.226ZM250.292 104.353C250.87 104.453 251.406 104.721 251.831 105.125C252.256 105.528 252.552 106.049 252.681 106.621C252.809 107.193 252.766 107.79 252.555 108.337C252.345 108.884 251.976 109.356 251.497 109.694C251.018 110.031 250.449 110.219 249.863 110.233C249.277 110.248 248.7 110.088 248.205 109.774C247.71 109.46 247.319 109.006 247.082 108.47C246.845 107.934 246.773 107.339 246.874 106.762C247.009 105.99 247.445 105.303 248.086 104.851C248.726 104.4 249.52 104.221 250.292 104.353Z" fill="#F0F0F0"/>
<path d="M238.585 92.3594L265.436 97.0945L265.948 94.1913L239.097 89.4562L238.585 92.3594Z" fill="#FAFAFA"/>
<path d="M243.908 68.2121L270.627 72.8474L271.128 69.9584L244.409 65.3231L243.908 68.2121Z" fill="#FAFAFA"/>
<path d="M491.847 67.47C489.882 64.6634 486.884 62.7517 483.51 62.1549C480.136 61.558 476.664 62.3248 473.855 64.2868L468.319 68.1205L464.472 62.5845C462.502 59.7839 459.504 57.877 456.132 57.2806C452.761 56.6841 449.291 57.4465 446.48 59.4013C443.679 61.3709 441.772 64.369 441.176 67.7405C440.579 71.1119 441.342 74.5823 443.296 77.3932L461.994 104.091L488.705 85.3928C491.483 83.4202 493.37 80.4321 493.958 77.0768C494.547 73.7215 493.788 70.2695 491.847 67.47Z" fill="#EBEBEB"/>
<path d="M530.24 69.9618C529.765 69.2777 529.159 68.6942 528.457 68.2451C527.755 67.7959 526.971 67.4899 526.151 67.3446C525.33 67.1992 524.489 67.2175 523.675 67.3982C522.862 67.579 522.092 67.9187 521.411 68.3979L518.726 70.2801L516.843 67.5952C515.878 66.2194 514.406 65.2824 512.751 64.9892C511.096 64.6961 509.393 65.0708 508.013 66.0313C506.639 67.0014 505.704 68.4762 505.414 70.1333C505.124 71.7905 505.501 73.4952 506.463 74.875L515.612 87.94L528.69 78.7917C529.373 78.315 529.956 77.708 530.403 77.0056C530.851 76.3032 531.156 75.5193 531.3 74.6988C531.444 73.8784 531.425 73.0375 531.243 72.2246C531.061 71.4117 530.72 70.6427 530.24 69.9618Z" fill="#EBEBEB"/>
<path d="M120.911 197.026C111.979 199.591 104.43 205.598 99.925 213.726C95.4197 221.855 94.3262 231.439 96.8848 240.373C100.359 252.456 121.548 272.703 135.969 285.422C137.448 286.73 139.233 287.643 141.158 288.079C143.083 288.514 145.087 288.458 146.985 287.915C148.883 287.371 150.613 286.358 152.016 284.97C153.419 283.581 154.45 281.862 155.013 279.969C160.549 261.548 167.732 233.135 164.272 221.053C163.003 216.627 160.876 212.495 158.01 208.892C155.144 205.29 151.596 202.287 147.569 200.056C143.543 197.824 139.116 196.408 134.542 195.889C129.967 195.369 125.336 195.755 120.911 197.026ZM135.028 246.255C131.955 247.138 128.689 247.09 125.644 246.117C122.598 245.144 119.909 243.29 117.918 240.789C115.926 238.288 114.721 235.252 114.454 232.066C114.188 228.88 114.872 225.686 116.421 222.889C117.969 220.092 120.312 217.817 123.154 216.352C125.996 214.886 129.208 214.296 132.385 214.657C135.562 215.017 138.561 216.312 141.002 218.376C143.443 220.441 145.217 223.183 146.1 226.256C147.283 230.377 146.782 234.798 144.705 238.549C142.629 242.299 139.148 245.071 135.028 246.255Z" fill="#E0E0E0"/>
<path d="M126.388 195.463C117.467 198.036 109.932 204.045 105.438 212.17C100.943 220.294 99.8571 229.871 102.417 238.796C105.891 250.878 127.08 271.14 141.502 283.859C142.986 285.162 144.776 286.07 146.704 286.498C148.633 286.927 150.638 286.862 152.535 286.31C154.432 285.758 156.159 284.737 157.557 283.341C158.955 281.945 159.978 280.219 160.532 278.323C166.068 259.902 173.251 231.502 169.791 219.406C168.515 214.982 166.381 210.854 163.509 207.256C160.637 203.658 157.083 200.661 153.052 198.438C149.022 196.214 144.592 194.807 140.017 194.296C135.441 193.786 130.81 194.182 126.388 195.463ZM140.505 244.691C137.43 245.577 134.161 245.531 131.112 244.559C128.062 243.587 125.37 241.732 123.375 239.229C121.38 236.726 120.173 233.688 119.905 230.499C119.637 227.31 120.321 224.113 121.87 221.312C123.419 218.512 125.764 216.234 128.609 214.767C131.453 213.299 134.668 212.708 137.848 213.069C141.029 213.429 144.03 214.724 146.474 216.791C148.918 218.858 150.694 221.603 151.577 224.679C152.165 226.72 152.345 228.857 152.107 230.967C151.869 233.078 151.217 235.121 150.189 236.98C149.16 238.838 147.776 240.476 146.114 241.799C144.453 243.122 142.547 244.105 140.505 244.691Z" fill="#F5F5F5"/>
<path d="M529.955 107.953C526.104 106.839 522.071 106.497 518.087 106.946C514.103 107.395 510.247 108.626 506.74 110.569C503.234 112.512 500.145 115.129 497.652 118.268C495.159 121.408 493.311 125.009 492.213 128.865C489.196 139.397 495.493 164.129 500.282 180.17C500.77 181.822 501.667 183.325 502.89 184.538C504.114 185.751 505.624 186.636 507.281 187.109C508.938 187.583 510.687 187.63 512.367 187.247C514.047 186.864 515.603 186.062 516.89 184.917C529.457 173.845 547.905 156.213 550.923 145.694C552.035 141.839 552.375 137.803 551.922 133.816C551.469 129.83 550.233 125.972 548.285 122.464C546.336 118.957 543.714 115.87 540.568 113.379C537.423 110.889 533.816 109.044 529.955 107.953ZM517.624 150.857C514.95 150.089 512.563 148.546 510.765 146.423C508.968 144.3 507.839 141.692 507.523 138.928C507.207 136.164 507.716 133.368 508.988 130.894C510.26 128.42 512.236 126.378 514.667 125.026C517.099 123.674 519.876 123.073 522.649 123.299C525.422 123.524 528.065 124.567 530.246 126.294C532.427 128.021 534.047 130.356 534.902 133.003C535.756 135.651 535.807 138.492 535.048 141.169C534.543 142.95 533.691 144.615 532.541 146.067C531.391 147.519 529.965 148.729 528.347 149.629C526.728 150.529 524.948 151.101 523.107 151.312C521.267 151.522 519.404 151.368 517.624 150.857Z" fill="#E0E0E0"/>
<path d="M534.726 109.336C530.874 108.223 526.841 107.881 522.858 108.33C518.874 108.779 515.018 110.01 511.511 111.953C508.005 113.896 504.916 116.513 502.423 119.652C499.93 122.792 498.082 126.393 496.984 130.249C493.967 140.767 500.264 165.513 505.053 181.553C505.54 183.206 506.438 184.709 507.661 185.922C508.885 187.135 510.395 188.02 512.052 188.493C513.708 188.967 515.458 189.014 517.138 188.631C518.818 188.247 520.373 187.446 521.661 186.301C534.214 175.229 552.662 157.596 555.679 147.078C556.792 143.224 557.133 139.188 556.681 135.202C556.229 131.216 554.994 127.359 553.047 123.852C551.1 120.345 548.479 117.257 545.335 114.766C542.191 112.275 538.585 110.43 534.726 109.336ZM522.436 152.24C519.76 151.475 517.372 149.934 515.572 147.812C513.772 145.69 512.642 143.082 512.324 140.317C512.005 137.553 512.514 134.756 513.784 132.28C515.055 129.805 517.031 127.761 519.463 126.408C521.894 125.055 524.672 124.453 527.446 124.679C530.219 124.904 532.864 125.946 535.045 127.674C537.227 129.402 538.847 131.737 539.702 134.385C540.556 137.033 540.607 139.875 539.847 142.552C538.822 146.146 536.413 149.185 533.148 151.002C529.882 152.819 526.029 153.264 522.436 152.24Z" fill="#F5F5F5"/>
<path d="M346 514.863C494.202 514.863 614.344 507.849 614.344 499.196C614.344 490.543 494.202 483.529 346 483.529C197.798 483.529 77.6565 490.543 77.6565 499.196C77.6565 507.849 197.798 514.863 346 514.863Z" fill="white"/>
<path d="M260.882 183.892H275.691C276.425 183.879 277.154 184.021 277.829 184.31C278.504 184.599 279.11 185.027 279.607 185.567C280.104 186.108 280.48 186.747 280.712 187.444C280.944 188.14 281.025 188.878 280.95 189.608L278.182 220.845C278.024 222.4 277.301 223.843 276.151 224.901C275.001 225.959 273.503 226.56 271.941 226.589H257.146C256.41 226.601 255.681 226.456 255.005 226.165C254.33 225.874 253.724 225.442 253.228 224.899C252.732 224.356 252.357 223.714 252.128 223.015C251.9 222.316 251.822 221.576 251.9 220.845L254.654 189.608C254.819 188.061 255.543 186.627 256.689 185.574C257.836 184.522 259.327 183.924 260.882 183.892Z" fill="#407BFF"/>
<path opacity="0.2" d="M426.547 177.222H449.688C450.836 177.201 451.976 177.426 453.032 177.88C454.087 178.334 455.034 179.008 455.809 179.856C456.584 180.704 457.17 181.708 457.527 182.8C457.884 183.892 458.005 185.048 457.881 186.19L455.03 218.811C454.781 221.228 453.661 223.472 451.878 225.123C450.095 226.774 447.771 227.718 445.342 227.779H422.118C420.971 227.798 419.832 227.572 418.778 227.117C417.724 226.662 416.779 225.988 416.006 225.14C415.232 224.292 414.648 223.289 414.292 222.198C413.935 221.107 413.815 219.952 413.939 218.811L416.79 186.19C417.04 183.761 418.17 181.508 419.968 179.856C421.765 178.203 424.106 177.266 426.547 177.222Z" fill="black"/>
<path opacity="0.2" d="M421.804 231.419H444.958C446.106 231.4 447.244 231.626 448.298 232.081C449.352 232.536 450.297 233.21 451.07 234.058C451.844 234.906 452.428 235.909 452.785 237C453.141 238.091 453.261 239.246 453.137 240.387L450.286 273.008C450.039 275.438 448.91 277.693 447.112 279.346C445.313 280.999 442.971 281.934 440.529 281.976H417.389C416.24 281.997 415.1 281.772 414.044 281.318C412.989 280.864 412.042 280.19 411.267 279.342C410.492 278.494 409.907 277.49 409.549 276.398C409.192 275.306 409.071 274.15 409.195 273.008L412.06 240.387C412.307 237.959 413.435 235.706 415.23 234.054C417.025 232.401 419.364 231.464 421.804 231.419Z" fill="black"/>
<path d="M302.415 116.063H431.348C435.504 115.989 439.627 116.801 443.445 118.445C447.262 120.089 450.685 122.528 453.486 125.599C456.287 128.669 458.401 132.302 459.689 136.253C460.976 140.205 461.407 144.386 460.952 148.517L433.438 462.921C432.542 471.707 428.458 479.86 421.957 485.838C415.456 491.816 406.99 495.204 398.16 495.362H269.226C265.072 495.436 260.95 494.624 257.134 492.98C253.317 491.337 249.895 488.899 247.094 485.83C244.294 482.761 242.179 479.131 240.89 475.18C239.602 471.23 239.17 467.051 239.623 462.921L267.109 148.517C268.002 139.724 272.089 131.564 278.596 125.583C285.103 119.601 293.578 116.214 302.415 116.063Z" fill="#407BFF"/>
<path opacity="0.2" d="M302.415 116.063H431.348C435.504 115.989 439.627 116.801 443.445 118.445C447.262 120.089 450.685 122.528 453.486 125.599C456.287 128.669 458.401 132.302 459.689 136.253C460.976 140.205 461.407 144.386 460.952 148.517L433.438 462.921C432.542 471.707 428.458 479.86 421.957 485.838C415.456 491.816 406.99 495.204 398.16 495.362H269.226C265.072 495.436 260.95 494.624 257.134 492.98C253.317 491.337 249.895 488.899 247.094 485.83C244.294 482.761 242.179 479.131 240.89 475.18C239.602 471.23 239.17 467.051 239.623 462.921L267.109 148.517C268.002 139.724 272.089 131.564 278.596 125.583C285.103 119.601 293.578 116.214 302.415 116.063Z" fill="black"/>
<path d="M298.25 116.062H427.197C431.352 115.99 435.475 116.804 439.291 118.449C443.107 120.094 446.529 122.533 449.33 125.603C452.13 128.673 454.245 132.305 455.533 136.256C456.822 140.206 457.254 144.386 456.801 148.517L429.287 462.921C428.389 471.705 424.303 479.857 417.803 485.834C411.303 491.812 402.838 495.201 394.009 495.361H265.076C260.921 495.438 256.797 494.627 252.98 492.985C249.163 491.342 245.74 488.904 242.938 485.835C240.137 482.765 238.022 479.134 236.735 475.183C235.448 471.231 235.017 467.051 235.472 462.921L262.958 148.517C264.536 130.594 280.341 116.062 298.25 116.062Z" fill="#407BFF"/>
<path d="M452.927 148.517L425.426 462.907C424.63 470.644 421.028 477.821 415.301 483.084C409.574 488.347 402.118 491.331 394.342 491.472H265.408C261.749 491.539 258.118 490.826 254.757 489.38C251.395 487.933 248.38 485.787 245.913 483.084C243.446 480.382 241.583 477.184 240.448 473.705C239.314 470.225 238.934 466.544 239.334 462.907L266.848 148.517C267.641 140.78 271.24 133.601 276.964 128.336C282.688 123.07 290.142 120.083 297.919 119.938H426.852C430.512 119.872 434.143 120.588 437.505 122.036C440.866 123.483 443.881 125.631 446.348 128.335C448.815 131.039 450.677 134.237 451.812 137.717C452.946 141.197 453.326 144.879 452.927 148.517Z" fill="white"/>
<g opacity="0.1">
<path opacity="0.1" d="M265.404 491.472H314.287L393.258 119.937H330.978L252.671 488.331C256.591 490.413 260.966 491.492 265.404 491.472Z" fill="black"/>
<path opacity="0.1" d="M423.154 119.937H411.307L332.323 491.472H344.183L423.154 119.937Z" fill="black"/>
</g>
<path d="M324.589 119.024C324.468 120.185 324.594 121.358 324.957 122.466C325.32 123.575 325.912 124.595 326.696 125.459C327.479 126.324 328.436 127.013 329.504 127.483C330.571 127.953 331.726 128.193 332.893 128.186H390.329C392.819 128.133 395.203 127.172 397.035 125.485C398.867 123.799 400.021 121.501 400.28 119.024H324.589Z" fill="#407BFF"/>
<path d="M424.515 130.096H437.552C437.804 130.095 438.054 130.147 438.285 130.248C438.516 130.35 438.723 130.499 438.892 130.685C439.062 130.872 439.19 131.092 439.269 131.332C439.348 131.571 439.376 131.825 439.351 132.075L438.853 137.75C438.799 138.285 438.551 138.782 438.156 139.146C437.76 139.511 437.245 139.718 436.708 139.729H423.67C423.417 139.732 423.167 139.682 422.935 139.581C422.703 139.481 422.495 139.332 422.325 139.145C422.155 138.958 422.026 138.737 421.948 138.496C421.87 138.256 421.844 138.001 421.871 137.75L422.369 132.075C422.423 131.54 422.671 131.044 423.067 130.679C423.462 130.314 423.977 130.107 424.515 130.096Z" fill="#407BFF"/>
<path d="M285.306 130.096H302.759C303.044 130.093 303.326 130.15 303.587 130.263C303.849 130.377 304.083 130.544 304.275 130.755C304.467 130.965 304.613 131.214 304.702 131.484C304.791 131.755 304.822 132.041 304.793 132.325L304.336 137.501C304.275 138.104 303.995 138.665 303.549 139.075C303.102 139.486 302.521 139.719 301.914 139.729H284.462C284.178 139.733 283.896 139.676 283.635 139.562C283.374 139.449 283.14 139.281 282.949 139.071C282.758 138.86 282.614 138.611 282.527 138.34C282.439 138.07 282.41 137.784 282.441 137.501L282.884 132.325C282.945 131.721 283.225 131.161 283.672 130.75C284.118 130.34 284.7 130.107 285.306 130.096Z" fill="#407BFF"/>
<path opacity="0.4" d="M285.306 130.096H302.759C303.044 130.093 303.326 130.15 303.587 130.263C303.849 130.377 304.083 130.544 304.275 130.755C304.467 130.965 304.613 131.214 304.702 131.484C304.791 131.755 304.822 132.041 304.793 132.325L304.336 137.501C304.275 138.104 303.995 138.665 303.549 139.075C303.102 139.486 302.521 139.719 301.914 139.729H284.462C284.178 139.733 283.896 139.676 283.635 139.562C283.374 139.449 283.14 139.281 282.949 139.071C282.758 138.86 282.614 138.611 282.527 138.34C282.439 138.07 282.41 137.784 282.441 137.501L282.884 132.325C282.945 131.721 283.225 131.161 283.672 130.75C284.118 130.34 284.7 130.107 285.306 130.096Z" fill="white"/>
<path d="M421.042 131.702H423.091C423.184 131.7 423.276 131.717 423.362 131.753C423.448 131.789 423.524 131.843 423.587 131.911C423.65 131.979 423.698 132.06 423.727 132.148C423.756 132.237 423.766 132.33 423.756 132.422L423.327 137.325C423.307 137.521 423.215 137.702 423.069 137.835C422.924 137.968 422.734 138.043 422.537 138.045H420.488C420.395 138.047 420.303 138.03 420.217 137.994C420.132 137.958 420.055 137.904 419.992 137.836C419.929 137.768 419.881 137.687 419.852 137.599C419.823 137.51 419.813 137.417 419.823 137.325L420.252 132.422C420.273 132.226 420.364 132.045 420.51 131.912C420.656 131.779 420.845 131.704 421.042 131.702Z" fill="#407BFF"/>
<path d="M434.963 131.702H437.026C437.118 131.701 437.209 131.72 437.293 131.757C437.377 131.794 437.452 131.848 437.513 131.916C437.574 131.984 437.621 132.064 437.649 132.152C437.678 132.239 437.687 132.331 437.677 132.422L437.248 137.325C437.231 137.519 437.142 137.701 436.999 137.834C436.856 137.967 436.668 138.042 436.473 138.045H434.409C434.317 138.045 434.227 138.026 434.143 137.989C434.059 137.952 433.984 137.898 433.922 137.83C433.861 137.762 433.815 137.682 433.786 137.595C433.758 137.508 433.748 137.416 433.758 137.325L434.187 132.422C434.205 132.227 434.293 132.046 434.437 131.913C434.58 131.78 434.767 131.704 434.963 131.702Z" fill="white"/>
<path d="M430.546 131.702H432.61C432.701 131.701 432.792 131.72 432.876 131.757C432.96 131.794 433.035 131.848 433.096 131.916C433.158 131.984 433.204 132.064 433.232 132.152C433.261 132.239 433.27 132.331 433.261 132.422L432.831 137.325C432.814 137.519 432.725 137.701 432.582 137.834C432.439 137.967 432.251 138.042 432.056 138.045H429.992C429.901 138.045 429.81 138.026 429.726 137.989C429.642 137.952 429.567 137.898 429.506 137.83C429.444 137.762 429.398 137.682 429.369 137.595C429.341 137.508 429.332 137.416 429.341 137.325L429.771 132.422C429.788 132.227 429.877 132.046 430.02 131.913C430.163 131.78 430.351 131.704 430.546 131.702Z" fill="white"/>
<path d="M453.718 218.589L450.95 250.74C452.305 250.479 453.54 249.789 454.473 248.772C455.405 247.755 455.985 246.465 456.127 245.093L457.898 224.208C458.039 222.917 457.686 221.621 456.911 220.579C456.136 219.537 454.995 218.826 453.718 218.589Z" fill="#407BFF"/>
<path opacity="0.2" d="M453.718 218.589L450.95 250.74C452.305 250.479 453.54 249.789 454.473 248.772C455.405 247.755 455.985 246.465 456.127 245.093L457.898 224.208C458.039 222.917 457.686 221.621 456.911 220.579C456.136 219.537 454.995 218.826 453.718 218.589Z" fill="black"/>
<path d="M456.718 183.892L453.95 216.043C455.302 215.784 456.535 215.097 457.465 214.082C458.395 213.067 458.973 211.779 459.113 210.41L460.87 189.608C461.031 188.307 460.692 186.993 459.921 185.932C459.15 184.871 458.006 184.142 456.718 183.892Z" fill="#407BFF"/>
<path opacity="0.2" d="M456.718 183.892L453.95 216.043C455.302 215.784 456.535 215.097 457.465 214.082C458.395 213.067 458.973 211.779 459.113 210.41L460.87 189.608C461.031 188.307 460.692 186.993 459.921 185.932C459.15 184.871 458.006 184.142 456.718 183.892Z" fill="black"/>
<path d="M560.922 257.258H533.754C531.552 257.258 529.439 258.133 527.882 259.691C526.325 261.248 525.45 263.36 525.45 265.562V281.644C525.468 283.835 526.351 285.929 527.906 287.472C529.462 289.014 531.564 289.879 533.754 289.879H541.518V296.149C541.522 296.493 541.628 296.829 541.821 297.114C542.015 297.399 542.288 297.621 542.606 297.752C542.925 297.883 543.275 297.918 543.613 297.852C543.951 297.786 544.262 297.622 544.508 297.381L551.995 289.879H560.922C563.1 289.861 565.184 288.988 566.725 287.447C568.265 285.907 569.139 283.823 569.157 281.644V265.493C569.139 263.315 568.265 261.231 566.725 259.69C565.184 258.15 563.1 257.277 560.922 257.258Z" fill="#FF9C8C"/>
<path d="M554.349 264.953H541.297C541.173 263.86 541.104 263.32 540.979 262.185H533.796C533.948 262.808 534.031 263.112 534.184 263.735H539.36C539.429 264.192 539.471 264.427 539.54 264.898C539.886 267.181 540.066 268.316 540.412 270.6C540.495 271.222 540.55 271.527 540.647 272.15C540.993 274.433 541.159 275.568 541.505 277.852C541.699 279.084 541.796 279.693 541.976 280.91H556.369C556.508 280.288 556.577 279.983 556.729 279.36H543.097C543.027 278.765 542.986 278.461 542.917 277.852H557.739L559.123 272.15C559.276 271.527 559.345 271.222 559.511 270.6C560.064 268.316 560.355 267.181 560.895 264.898L554.349 264.953ZM541.491 266.489H546.114C546.114 268.164 546.183 268.994 546.238 270.641H541.976L541.491 266.489ZM542.668 276.371C542.46 274.696 542.363 273.866 542.169 272.219H546.321C546.321 273.88 546.391 274.71 546.446 276.371H542.668ZM551.539 276.371H547.788C547.788 274.696 547.788 273.866 547.788 272.219H551.94C551.76 273.866 551.691 274.696 551.539 276.371ZM552.065 270.655H547.802C547.802 268.994 547.802 268.164 547.802 266.503H552.425C552.286 268.164 552.217 268.994 552.065 270.655ZM556.66 276.371H552.923C553.131 274.696 553.228 273.866 553.449 272.219H557.601L556.66 276.371ZM557.892 270.655H553.601C553.823 268.994 553.92 268.164 554.127 266.503H558.75C558.417 268.164 558.238 268.994 557.892 270.655Z" fill="white"/>
<path d="M542.859 282.405C542.494 282.405 542.138 282.513 541.835 282.716C541.532 282.918 541.296 283.206 541.157 283.542C541.017 283.879 540.981 284.249 541.052 284.607C541.123 284.964 541.299 285.292 541.556 285.55C541.814 285.807 542.142 285.983 542.499 286.054C542.857 286.125 543.227 286.088 543.563 285.949C543.9 285.81 544.188 285.573 544.39 285.271C544.592 284.968 544.7 284.612 544.7 284.247C544.7 283.759 544.506 283.29 544.161 282.945C543.816 282.599 543.347 282.405 542.859 282.405Z" fill="white"/>
<path d="M555.897 286.076C556.907 286.076 557.725 285.258 557.725 284.248C557.725 283.238 556.907 282.42 555.897 282.42C554.888 282.42 554.069 283.238 554.069 284.248C554.069 285.258 554.888 286.076 555.897 286.076Z" fill="white"/>
<path d="M378.539 142.026H335.414C331.857 142.089 328.446 143.453 325.827 145.861C323.208 148.268 321.562 151.552 321.2 155.091L318.972 180.626C318.789 182.289 318.962 183.972 319.48 185.563C319.999 187.153 320.85 188.616 321.977 189.852C323.105 191.088 324.482 192.069 326.019 192.731C327.556 193.393 329.215 193.72 330.888 193.691H343.234L342.362 203.628C342.319 204.173 342.449 204.717 342.731 205.185C343.014 205.653 343.437 206.02 343.939 206.235C344.441 206.45 344.999 206.503 345.532 206.385C346.066 206.268 346.55 205.986 346.915 205.579L359.842 193.76H374.014C377.57 193.694 380.979 192.329 383.597 189.922C386.216 187.515 387.863 184.233 388.227 180.695L390.456 155.16C390.649 153.492 390.484 151.801 389.971 150.202C389.457 148.603 388.608 147.132 387.479 145.888C386.351 144.644 384.969 143.656 383.427 142.99C381.885 142.324 380.219 141.995 378.539 142.026Z" fill="#FF9C8C"/>
<path d="M365.64 154.234H344.949L344.81 149.943H333.42C333.572 150.926 333.655 151.41 333.808 152.393H342.029C342.029 153.126 342.098 153.5 342.139 154.234C342.375 157.86 342.499 159.673 342.734 163.299C342.734 164.268 342.831 164.766 342.887 165.748C343.122 169.361 343.247 171.174 343.468 174.8C343.606 176.737 343.662 177.706 343.786 179.644H366.512L367.3 177.194H345.669V174.8H369.197C370.414 171.174 371.023 169.361 372.228 165.748L373.044 163.299C374.262 159.673 374.871 157.86 376.075 154.234H365.64ZM345.018 156.683H352.353C352.201 159.327 352.132 160.641 351.98 163.299H345.226L345.018 156.683ZM345.516 172.35L345.309 165.748H351.841C351.689 168.392 351.606 169.707 351.454 172.35H345.516ZM359.592 172.35H353.654C353.89 169.707 354.014 168.392 354.249 165.748H360.782C360.311 168.392 360.076 169.707 359.592 172.35ZM361.225 163.313H354.471C354.72 160.655 354.831 159.34 355.066 156.697H362.415C361.931 159.327 361.695 160.641 361.225 163.313ZM367.73 172.364H361.792L363.176 165.762H369.695C368.934 168.392 368.532 169.707 367.73 172.35V172.364ZM370.498 163.313H363.716C364.283 160.655 364.56 159.34 365.1 156.697H372.435C371.66 159.327 371.259 160.641 370.47 163.313H370.498Z" fill="white"/>
<path d="M345.009 181.941C344.216 181.954 343.455 182.257 342.871 182.793C342.287 183.329 341.919 184.06 341.838 184.849C341.798 185.22 341.838 185.594 341.955 185.948C342.071 186.302 342.261 186.627 342.512 186.902C342.764 187.177 343.071 187.395 343.413 187.543C343.755 187.69 344.124 187.764 344.497 187.758C345.29 187.745 346.05 187.442 346.635 186.906C347.219 186.37 347.587 185.638 347.668 184.849C347.707 184.479 347.668 184.104 347.551 183.75C347.435 183.396 347.245 183.071 346.993 182.796C346.742 182.521 346.435 182.303 346.093 182.156C345.751 182.008 345.382 181.935 345.009 181.941Z" fill="white"/>
<path d="M365.668 181.941C364.876 181.954 364.117 182.258 363.535 182.794C362.953 183.33 362.588 184.062 362.51 184.849C362.471 185.22 362.511 185.594 362.627 185.948C362.743 186.302 362.933 186.627 363.185 186.902C363.436 187.177 363.743 187.395 364.085 187.543C364.427 187.69 364.797 187.764 365.169 187.758C365.96 187.744 366.719 187.441 367.302 186.905C367.884 186.368 368.249 185.637 368.327 184.849C368.366 184.479 368.326 184.104 368.21 183.75C368.093 183.396 367.903 183.071 367.652 182.796C367.401 182.521 367.094 182.303 366.752 182.156C366.41 182.008 366.04 181.935 365.668 181.941Z" fill="white"/>
<path d="M409.523 322.722H360.211V372.033H409.523V322.722Z" fill="#407BFF"/>
<path d="M439.789 322.722H409.508V372.033H439.789V322.722Z" fill="#407BFF"/>
<path d="M400.098 310.348H350.786L360.211 322.721H409.509L400.098 310.348Z" fill="#407BFF"/>
<path opacity="0.3" d="M439.789 322.722H409.508V372.033H439.789V322.722Z" fill="white"/>
<path opacity="0.4" d="M400.098 310.348H350.786L360.211 322.721H409.509L400.098 310.348Z" fill="white"/>
<path d="M418.434 310.348H448.716L439.803 322.721H409.508L418.434 310.348Z" fill="#407BFF"/>
<path opacity="0.6" d="M409.523 322.722H360.211V372.033H409.523V322.722Z" fill="white"/>
<path opacity="0.2" d="M418.434 310.348H448.716L439.803 322.721H409.508L418.434 310.348Z" fill="white"/>
<path d="M548.273 370.816H423.99V495.099H548.273V370.816Z" fill="#407BFF"/>
<path opacity="0.4" d="M548.273 370.816H423.99V495.099H548.273V370.816Z" fill="white"/>
<path d="M423.956 370.816H347.615V495.099H423.956V370.816Z" fill="#407BFF"/>
<path opacity="0.6" d="M423.956 370.816H347.615V495.099H423.956V370.816Z" fill="white"/>
<path opacity="0.5" d="M371.2 370.816V404.198L374.231 405.789L376.847 403.616L380.985 405.789L384.916 403.616L387.96 405.789L391.448 403.616L393.427 405.402V370.816H371.2Z" fill="white"/>
<path opacity="0.5" d="M393.427 495.098V461.716L390.396 460.111L387.781 462.298L383.642 460.111L379.712 462.298L376.667 460.111L373.179 462.298L371.2 460.512V495.098H393.427Z" fill="white"/>
<path d="M474.71 421.498C475.416 424.335 475.762 425.76 476.467 428.598C476.647 429.359 476.744 429.746 476.938 430.521C477.644 433.359 477.99 434.784 478.696 437.621H497.131C497.034 438.369 496.992 438.742 496.909 439.49H479.927C480.107 440.265 480.19 440.652 480.37 441.414H498.238L498.819 437.621C499.248 434.784 499.469 433.359 499.899 430.521C500.023 429.746 500.078 429.359 500.189 428.598C500.618 425.76 500.84 424.335 501.269 421.498C501.366 420.916 501.407 420.626 501.49 420.045H507.926C508.106 419.283 508.203 418.896 508.396 418.135H499.469C499.303 419.519 499.22 420.141 499.068 421.498H474.71ZM498.238 428.598H492.951C492.951 426.522 493.034 425.484 493.103 423.408H498.847C498.542 425.484 498.431 426.522 498.238 428.598ZM492.702 435.698C492.702 433.622 492.799 432.584 492.854 430.521H497.975L497.352 435.698H492.702ZM485.782 430.521H490.889C490.889 432.584 490.889 433.622 490.889 435.698H486.225C486.1 433.622 486.003 432.584 485.782 430.521ZM485.131 423.408H490.875C490.875 425.484 490.875 426.522 490.875 428.598H485.643C485.45 426.522 485.353 425.484 485.173 423.408H485.131ZM478.765 430.521H483.886C484.135 432.584 484.273 433.622 484.536 435.698H479.872L478.765 430.521ZM477.242 423.408H483.014C483.263 425.484 483.401 426.522 483.65 428.598H478.363L477.242 423.408Z" fill="white"/>
<path d="M497.075 447.783C498.337 447.783 499.36 446.76 499.36 445.498C499.36 444.236 498.337 443.213 497.075 443.213C495.813 443.213 494.79 444.236 494.79 445.498C494.79 446.76 495.813 447.783 497.075 447.783Z" fill="white"/>
<path d="M480.868 447.783C482.13 447.783 483.153 446.76 483.153 445.498C483.153 444.236 482.13 443.213 480.868 443.213C479.606 443.213 478.583 444.236 478.583 445.498C478.583 446.76 479.606 447.783 480.868 447.783Z" fill="white"/>
<g opacity="0.5">
<path opacity="0.5" d="M368.953 421.498C369.659 424.335 370.005 425.76 370.711 428.598C370.891 429.359 370.988 429.746 371.181 430.521C371.887 433.359 372.233 434.784 372.939 437.621H391.374C391.277 438.369 391.236 438.742 391.152 439.49H374.198C374.378 440.265 374.461 440.652 374.641 441.414H392.453L393.035 437.621C393.464 434.784 393.685 433.359 394.114 430.521C394.225 429.746 394.294 429.359 394.405 428.598C394.834 425.76 395.055 424.335 395.484 421.498L395.706 420.045H402.155C402.335 419.283 402.432 418.896 402.626 418.135H393.699C393.533 419.519 393.45 420.141 393.298 421.498H368.953ZM392.481 428.598H387.194L387.346 423.408H393.049C392.813 425.484 392.689 426.522 392.453 428.598H392.481ZM386.945 435.698C387.014 433.622 387.042 432.584 387.097 430.521H392.218L391.595 435.698H386.945ZM380.094 430.521H385.201C385.201 432.584 385.201 433.622 385.201 435.698H380.593C380.371 433.622 380.274 432.584 380.094 430.521ZM379.43 423.408H385.187C385.187 425.484 385.187 426.522 385.187 428.598H379.901L379.43 423.408ZM373.077 430.521H378.198L378.835 435.698H374.185L373.077 430.521ZM371.555 423.408H377.312C377.562 425.484 377.7 426.522 377.949 428.598H372.662L371.555 423.408Z" fill="white"/>
<path opacity="0.5" d="M391.346 447.782C392.608 447.782 393.631 446.759 393.631 445.497C393.631 444.235 392.608 443.212 391.346 443.212C390.084 443.212 389.061 444.235 389.061 445.497C389.061 446.759 390.084 447.782 391.346 447.782Z" fill="white"/>
<path opacity="0.5" d="M375.141 447.782C376.403 447.782 377.426 446.759 377.426 445.497C377.426 444.235 376.403 443.212 375.141 443.212C373.879 443.212 372.856 444.235 372.856 445.497C372.856 446.759 373.879 447.782 375.141 447.782Z" fill="white"/>
</g>
<path d="M502.885 271.916C502.885 271.916 507.203 302.903 511.078 308.246C514.953 313.588 532.364 328.369 532.364 328.369L543.367 326.764L550.743 333.684L545.401 337.379L539.519 334.749C536.201 335.117 532.858 335.196 529.527 334.985C523.908 334.639 501.957 319.761 497.916 311.996C493.875 304.232 489.308 275.486 489.308 275.486L502.885 271.916Z" fill="#CE7A63"/>
<path d="M506.542 280.87L505.434 281.064C504.673 273.784 501.628 251.667 493.283 257.342C485.269 262.809 487.525 278.323 488.688 284.122L487.304 284.357L488.522 288.177L506.971 284.648L506.542 280.87Z" fill="#407BFF"/>
<path opacity="0.2" d="M499.62 266.241L497.585 261.867L491.205 268.289L487.537 273.825C487.639 277.29 488.037 280.739 488.728 284.136L487.344 284.371L488.561 288.191L498.969 286.198C500.129 279.61 500.348 272.89 499.62 266.241Z" fill="black"/>
<path d="M500.258 210.631C500.258 210.631 522.263 215.392 510.569 225.855L500.881 217.399L500.258 210.631Z" fill="#263238"/>
<path d="M530.802 442.991L516.796 477.3L507.08 473.522L514.914 439.42L530.802 442.991Z" fill="#CE7A63"/>
<path opacity="0.2" d="M515.605 436.998L510.083 461.038L522.055 463.709L531.494 440.555L515.605 436.998Z" fill="black"/>
<path d="M518.996 476.498C520.782 480.553 521.986 483.888 529.293 488.22C530.885 489.134 528.186 493.341 524.214 491.556C517.654 488.594 519.37 488.539 513.751 486.103C509.031 484.013 505.516 482.754 501.669 481.148C501.569 481.106 501.476 481.05 501.392 480.982C501.065 480.737 500.848 480.372 500.788 479.968C500.729 479.564 500.831 479.152 501.073 478.823L506.748 471.059C506.873 470.885 507.054 470.759 507.261 470.704C507.468 470.648 507.688 470.666 507.883 470.754L517.073 474.712C517.909 475.054 518.593 475.689 518.996 476.498Z" fill="#263238"/>
<path d="M562.149 362.359C560.363 384.503 528.559 457.703 528.559 457.703L509.681 452.444C509.681 452.444 524.103 382.123 533.514 370.483C533.514 370.483 530.441 370.483 525.501 370.58C508.297 370.732 468.424 370.705 456.923 367.646C448.716 365.459 431.568 361.072 436.163 333.614L457.422 332.88L482.181 332.022C482.181 332.022 564.668 332.16 562.149 362.359Z" fill="#263238"/>
<path opacity="0.2" d="M525.501 370.581C508.297 370.733 468.424 370.705 456.923 367.647C448.716 365.46 431.568 361.073 436.163 333.614L457.422 332.881C474.154 334.86 496.021 338.168 510.927 344.575C518.179 347.689 523.217 353.308 524.698 359.924C525.207 363.454 525.476 367.014 525.501 370.581Z" fill="black"/>
<path d="M497.972 441.773L490.968 476.747L480.436 476.262L481.682 441.289L497.972 441.773Z" fill="#CE7A63"/>
<path opacity="0.2" d="M497.972 441.773L481.682 441.289L480.963 462.201L493.792 462.658L497.972 441.773Z" fill="black"/>
<path d="M492.575 477.577C494.291 481.729 495.343 485.217 502.72 489.84C504.298 490.864 501.419 495.085 497.447 493.12C490.859 489.895 492.617 489.909 486.956 487.238C482.181 484.982 478.652 483.584 474.791 481.826L474.5 481.688C474.336 481.561 474.199 481.402 474.097 481.222C473.994 481.041 473.929 480.842 473.905 480.636C473.88 480.43 473.897 480.221 473.954 480.021C474.011 479.822 474.107 479.635 474.237 479.473L480.258 471.709C480.387 471.537 480.573 471.415 480.782 471.364C480.992 471.314 481.213 471.338 481.406 471.432L490.624 475.737C491.48 476.086 492.176 476.743 492.575 477.577Z" fill="#263238"/>
<path d="M423.737 333.545C423.737 333.545 417.716 355.177 427.667 363.716C441.576 375.66 491.829 372.02 491.829 372.02C483.152 399.797 479.277 454.977 479.277 454.977H498.113C498.113 454.977 523.772 379.494 519.98 359.979C516.188 340.465 448.87 333.559 448.87 333.559L423.737 333.545Z" fill="#263238"/>
<path d="M508.007 454.63L529.376 460.014L533.735 450.866L510.263 444.209L508.007 454.63Z" fill="#407BFF"/>
<path d="M477.408 457.662L499.206 458.783L501.462 449.192L477.408 448.071V457.662Z" fill="#407BFF"/>
<path d="M487.401 303.636C492.937 287.319 499.857 274.904 500.66 260.995C481.713 233.647 444.664 249.812 444.664 249.812C422.243 291.886 423.737 333.544 423.737 333.544C474.683 333.544 477.603 332.673 477.603 332.673C477.603 332.673 477.783 325.517 487.401 303.636Z" fill="#407BFF"/>
<path opacity="0.2" d="M470.295 249.009C471.111 253.826 472.814 262.517 474.834 263.777C477.602 265.465 481.754 263.099 481.754 263.099C481.754 263.099 485.117 267.652 488.674 264.621C490.671 262.708 492.23 260.385 493.241 257.812C492.194 259.595 490.873 261.202 489.325 262.573C485.726 265.59 482.405 261.05 482.405 261.05C482.405 261.05 478.253 263.403 475.485 261.728C473.658 260.635 471.526 253.757 470.295 249.009Z" fill="black"/>
<path d="M474.865 242.366L479.919 244.097L475.959 247.574L474.865 242.366Z" fill="#407BFF"/>
<path opacity="0.2" d="M474.865 242.366L479.919 244.097L475.959 247.574L474.865 242.366Z" fill="black"/>
<path d="M490.918 247.571L492.302 251.723C492.302 251.723 485.077 259.279 483.001 259.362C480.925 259.445 474.836 245.149 474.836 245.149C482.877 241.509 482.129 237.509 482.129 237.509L490.918 247.571Z" fill="#CE7A63"/>
<path opacity="0.2" d="M488.286 255.584C490.417 253.632 492.327 251.653 492.327 251.653L490.943 247.501L483.123 238.464C482.099 242.463 481.103 250.684 488.286 255.584Z" fill="black"/>
<path d="M495.04 254.656C493.739 257.701 491.816 260.44 489.393 262.697C485.781 265.714 482.473 261.189 482.473 261.189C482.473 261.189 478.321 263.528 475.553 261.853C472.785 260.178 469.173 244.816 469.173 244.816L474.861 242.366L482.695 258.974L493.254 250.241L495.04 254.656Z" fill="#407BFF"/>
<path d="M481.849 223.475C481.837 221.018 482.473 218.601 483.691 216.466C484.909 214.332 486.667 212.556 488.789 211.317C490.911 210.077 493.321 209.417 495.779 209.404C498.236 209.391 500.654 210.024 502.789 211.241C512.837 216.652 513.113 232.457 510.124 241.689C509.402 244.113 508.028 246.294 506.154 247.993C504.279 249.692 501.974 250.844 499.49 251.325C497.006 251.806 494.438 251.597 492.064 250.72C489.691 249.843 487.603 248.333 486.028 246.353C481.101 240.291 481.738 234.077 481.876 223.406L481.849 223.475Z" fill="#CE7A63"/>
<path d="M500.561 230.091C501.143 230.091 501.503 230.935 501.35 231.78C501.198 232.625 500.686 233.165 500.118 233.165C499.55 233.165 499.19 232.32 499.329 231.476C499.467 230.631 499.979 230.049 500.561 230.091Z" fill="#263238"/>
<path d="M510.155 231.889C510.751 231.889 511.111 232.706 510.972 233.565C510.834 234.424 510.294 234.95 509.712 234.95C509.131 234.95 508.798 234.119 508.923 233.26C509.047 232.402 509.574 231.82 510.155 231.889Z" fill="#263238"/>
<path d="M497.986 228.071C498.482 227.688 499.063 227.429 499.68 227.316C500.297 227.203 500.931 227.239 501.531 227.42C501.655 227.461 501.788 227.451 501.905 227.394C502.021 227.337 502.111 227.238 502.155 227.116C502.193 226.989 502.182 226.852 502.126 226.732C502.07 226.612 501.972 226.517 501.85 226.465C501.078 226.233 500.261 226.193 499.469 226.347C498.678 226.502 497.936 226.846 497.307 227.351C497.235 227.399 497.178 227.468 497.144 227.549C497.11 227.629 497.1 227.718 497.116 227.804C497.133 227.889 497.174 227.968 497.235 228.031C497.296 228.093 497.374 228.136 497.46 228.154C497.545 228.2 497.642 228.216 497.737 228.201C497.832 228.186 497.919 228.14 497.986 228.071Z" fill="#263238"/>
<path d="M512.58 230.771C512.692 230.699 512.772 230.587 512.803 230.458C512.834 230.329 512.813 230.193 512.746 230.078C512.352 229.369 511.797 228.763 511.126 228.308C510.455 227.853 509.686 227.563 508.882 227.461C508.775 227.464 508.672 227.502 508.59 227.57C508.507 227.638 508.449 227.731 508.425 227.835C508.408 227.899 508.405 227.966 508.415 228.032C508.425 228.098 508.448 228.161 508.483 228.218C508.518 228.275 508.564 228.324 508.618 228.363C508.672 228.402 508.734 228.429 508.799 228.444C509.448 228.543 510.066 228.791 510.604 229.168C511.143 229.545 511.586 230.041 511.901 230.618C511.938 230.691 511.993 230.754 512.061 230.8C512.129 230.846 512.207 230.874 512.289 230.881C512.394 230.873 512.495 230.835 512.58 230.771Z" fill="#263238"/>
<path d="M504.466 241.33C505.118 241.627 505.826 241.781 506.543 241.781C507.259 241.781 507.967 241.627 508.619 241.33C507.349 238.748 506.418 236.012 505.85 233.19L504.466 241.33Z" fill="#BA4D3C"/>
<path d="M481.182 230.381C477.03 215.296 483.743 211.365 490.995 208.653C498.247 205.94 502.275 208.542 504.586 211.089C505.306 211.891 506.745 214.299 502.095 214.618C499.279 214.726 496.459 214.508 493.694 213.967C493.141 213.871 492.572 213.928 492.05 214.133C491.527 214.338 491.071 214.683 490.732 215.13C489.127 217.233 486.58 221.164 486.58 224.596C486.677 225.902 486.487 227.213 486.023 228.437C485.559 229.661 484.833 230.769 483.895 231.682L481.182 230.381Z" fill="#263238"/>
<path d="M475.954 306.197C476.316 306.2 476.668 306.31 476.968 306.513C477.267 306.716 477.499 307.003 477.635 307.338C477.77 307.673 477.804 308.041 477.731 308.395C477.657 308.749 477.481 309.074 477.223 309.327C476.966 309.581 476.639 309.753 476.283 309.821C475.928 309.888 475.561 309.849 475.228 309.709C474.895 309.568 474.611 309.331 474.413 309.029C474.214 308.727 474.11 308.373 474.112 308.011C474.112 307.769 474.161 307.53 474.254 307.307C474.348 307.084 474.485 306.882 474.658 306.713C474.831 306.544 475.036 306.412 475.261 306.323C475.486 306.234 475.726 306.191 475.968 306.197H475.954Z" fill="#407BFF"/>
<path d="M471.94 325.517C472.18 325.517 472.418 325.565 472.64 325.657C472.862 325.748 473.063 325.883 473.233 326.053C473.403 326.223 473.537 326.424 473.629 326.646C473.721 326.868 473.768 327.105 473.768 327.345C473.768 327.586 473.721 327.823 473.629 328.045C473.537 328.267 473.403 328.468 473.233 328.638C473.063 328.808 472.862 328.943 472.64 329.034C472.418 329.126 472.18 329.174 471.94 329.174C471.454 329.17 470.989 328.974 470.647 328.629C470.304 328.284 470.112 327.818 470.112 327.332C470.112 327.092 470.159 326.855 470.251 326.634C470.344 326.413 470.478 326.212 470.648 326.044C470.818 325.875 471.02 325.742 471.242 325.651C471.463 325.561 471.701 325.516 471.94 325.517Z" fill="#407BFF"/>
<path d="M481.301 226.976C484.235 227.502 485.647 231.641 485.674 234.353C485.702 237.066 483.598 239.46 481.01 237.73C479.046 236.374 477.663 234.329 477.135 232C476.568 229.08 478.381 226.395 481.301 226.976Z" fill="#CE7A63"/>
<path d="M494.691 241.177C497.871 242.075 500.959 243.276 503.91 244.762C503 245.737 501.782 246.369 500.461 246.55C499.139 246.732 497.796 246.452 496.656 245.759C496.215 245.603 495.81 245.357 495.468 245.037C495.127 244.717 494.855 244.329 494.67 243.899C494.485 243.468 494.392 243.004 494.395 242.536C494.399 242.067 494.499 241.605 494.691 241.177Z" fill="#263238"/>
<path d="M498.945 244.969C497.673 244.29 496.218 244.033 494.79 244.235C495.228 244.937 495.871 245.488 496.632 245.814C497.903 246.495 499.359 246.753 500.787 246.548C500.36 245.836 499.713 245.282 498.945 244.969Z" fill="#A02724"/>
<path d="M495.025 241.26C494.977 241.532 495.006 241.813 495.108 242.07C495.211 242.327 495.384 242.55 495.607 242.714C497.566 243.62 499.599 244.357 501.684 244.915C502.004 245.035 502.35 245.073 502.689 245.025C503.027 244.976 503.349 244.843 503.622 244.638C500.849 243.29 497.974 242.161 495.025 241.26Z" fill="white"/>
<path d="M505.62 342.79L530.67 342.926L530.692 338.898L505.642 338.763L505.62 342.79Z" fill="#263238"/>
<path d="M507.68 342.806L475.849 342.634C475.602 342.632 475.357 342.582 475.129 342.486C474.901 342.39 474.695 342.251 474.521 342.075C474.347 341.899 474.209 341.691 474.116 341.462C474.023 341.233 473.975 340.988 473.977 340.741L473.988 338.61L507.702 338.792L507.68 342.819L507.68 342.806Z" fill="#263238"/>
<path opacity="0.3" d="M507.68 342.806L475.849 342.634C475.602 342.632 475.357 342.582 475.129 342.486C474.901 342.39 474.695 342.251 474.521 342.075C474.347 341.899 474.209 341.691 474.116 341.462C474.023 341.233 473.975 340.988 473.977 340.741L473.988 338.61L507.702 338.792L507.68 342.819L507.68 342.806Z" fill="white"/>
<path d="M498.608 341.461L502.638 341.483L502.646 340.056L498.616 340.034L498.608 341.461Z" fill="#263238"/>
<path d="M492.326 341.453L496.356 341.474L496.364 340.048L492.334 340.026L492.326 341.453Z" fill="#263238"/>
<path d="M512.464 338.832L509.792 338.818L520.449 302.53L523.12 302.544L512.464 338.832Z" fill="#263238"/>
<path opacity="0.3" d="M512.464 338.832L509.792 338.818L520.449 302.53L523.12 302.544L512.464 338.832Z" fill="white"/>
<path d="M511.482 338.832L558.496 339.081L569.153 302.779L522.139 302.53L511.482 338.832Z" fill="#263238"/>
<path opacity="0.6" d="M511.482 338.832L558.496 339.081L569.153 302.779L522.139 302.53L511.482 338.832Z" fill="white"/>
<path d="M509.185 338.818L558.123 339.081C558.94 339.081 559.604 339.994 559.604 341.101C559.604 342.209 558.926 343.108 558.095 343.108L509.157 342.845C508.341 342.845 507.676 341.932 507.676 340.825C507.676 339.717 508.354 338.818 509.185 338.818Z" fill="#263238"/>
<path opacity="0.5" d="M509.185 338.818L558.123 339.081C558.94 339.081 559.604 339.994 559.604 341.101C559.604 342.209 558.926 343.108 558.095 343.108L509.157 342.845C508.341 342.845 507.676 341.932 507.676 340.825C507.676 339.717 508.354 338.818 509.185 338.818Z" fill="white"/>
<path d="M507.676 340.826C507.676 341.934 508.341 342.834 509.158 342.848C509.975 342.862 510.654 341.948 510.668 340.84C510.682 339.732 510.003 338.818 509.186 338.818C508.369 338.818 507.69 339.718 507.676 340.826Z" fill="#263238"/>
<path opacity="0.3" d="M507.676 340.826C507.676 341.934 508.341 342.834 509.158 342.848C509.975 342.862 510.654 341.948 510.668 340.84C510.682 339.732 510.003 338.818 509.186 338.818C508.369 338.818 507.69 339.718 507.676 340.826Z" fill="white"/>
<path opacity="0.2" d="M461.464 305.214C459.208 302.113 456.814 290.626 455.139 281.132L457.312 280.717L456.8 276.786L455.665 276.994C454.876 269.576 451.804 247.266 443.486 252.082C441.064 256.787 438.933 261.521 437.078 266.199C436.913 270.875 437.313 275.555 438.268 280.136L436.884 280.385L438.158 284.357L441.105 283.803C442.863 292.965 445.424 304.563 447.804 309.158C450.932 315.192 464.412 325.268 473.436 330.167C483.58 328.368 485.892 327.095 485.892 327.095C485.602 326.713 485.364 326.294 485.186 325.849L483.553 326.084C483.553 326.084 465.492 310.763 461.464 305.214Z" fill="black"/>
<path d="M458.985 267.639C458.985 267.639 461.947 299.983 465.712 305.712C469.476 311.442 486.818 327.635 486.818 327.635L498.305 326.5L505.612 334.098L499.896 337.697L493.918 334.666C490.457 334.894 486.984 334.815 483.538 334.43C477.739 333.794 455.691 317.352 451.872 309.048C448.052 300.744 444.716 270.753 444.716 270.753L458.985 267.639Z" fill="#CE7A63"/>
<path d="M461.559 274.614L460.411 274.821C459.622 267.265 456.452 244.29 447.802 250.186C439.498 255.86 441.81 271.97 443.028 277.991L441.644 278.24L442.917 282.212L462.071 278.544L461.559 274.614Z" fill="#407BFF"/>
<path d="M181.61 385.527L178.302 385.347L179.077 370.345C179.394 365.372 181.578 360.703 185.192 357.271C188.805 353.84 193.581 351.901 198.564 351.841C200.98 351.817 203.375 352.292 205.599 353.235C207.824 354.178 209.83 355.57 211.492 357.323C213.155 359.077 214.438 361.154 215.261 363.425C216.085 365.697 216.432 368.113 216.279 370.525L215.49 385.527L212.183 385.347L212.971 370.345C213.103 368.381 212.827 366.41 212.161 364.558C211.494 362.705 210.452 361.011 209.098 359.581C207.745 358.151 206.111 357.017 204.298 356.249C202.485 355.482 200.533 355.097 198.564 355.121C194.427 355.172 190.462 356.785 187.464 359.637C184.466 362.488 182.657 366.368 182.399 370.497L181.61 385.527Z" fill="#263238"/>
<path d="M252.568 378.856H154.761L151.439 494.905L165.943 491.583L180.448 494.905H255.89L252.568 378.856Z" fill="#407BFF"/>
<path opacity="0.6" d="M252.568 378.856H154.761L151.439 494.905L165.943 491.583L180.448 494.905H255.89L252.568 378.856Z" fill="white"/>
<path d="M180.448 494.905L165.943 491.583L151.439 494.905L154.761 378.856H177.14L180.448 494.905Z" fill="#407BFF"/>
<path opacity="0.3" d="M180.448 494.905L165.943 491.583L151.439 494.905L154.761 378.856H177.14L180.448 494.905Z" fill="white"/>
<path d="M231.862 385.527L231.129 370.525C230.87 366.393 229.059 362.512 226.058 359.66C223.058 356.808 219.089 355.196 214.95 355.148C212.982 355.127 211.032 355.512 209.22 356.281C207.409 357.049 205.776 358.184 204.424 359.614C203.073 361.043 202.031 362.737 201.366 364.589C200.7 366.44 200.424 368.409 200.556 370.372L201.345 385.375L198.037 385.555L197.248 370.552C197.094 368.142 197.439 365.725 198.261 363.454C199.083 361.182 200.364 359.105 202.026 357.351C203.687 355.598 205.692 354.206 207.916 353.262C210.14 352.319 212.534 351.844 214.95 351.868C219.933 351.925 224.711 353.863 228.325 357.295C231.939 360.727 234.122 365.398 234.436 370.372L235.225 385.375L231.862 385.527Z" fill="#263238"/>
<g opacity="0.2">
<path opacity="0.2" d="M231.865 385.527L231.131 370.525C230.873 366.393 229.062 362.512 226.061 359.66C223.06 356.808 219.092 355.196 214.952 355.148C212.985 355.127 211.034 355.512 209.223 356.281C207.412 357.049 205.779 358.184 204.427 359.614C203.075 361.043 202.034 362.737 201.368 364.589C200.702 366.44 200.427 368.409 200.559 370.372L201.347 385.375L198.04 385.555L197.251 370.552C197.097 368.142 197.441 365.725 198.263 363.454C199.085 361.182 200.367 359.105 202.028 357.351C203.69 355.598 205.695 354.206 207.919 353.262C210.142 352.319 212.537 351.844 214.952 351.868C219.936 351.925 224.714 353.863 228.328 357.295C231.942 360.727 234.125 365.398 234.439 370.372L235.228 385.375L231.865 385.527Z" fill="white"/>
</g>
<path d="M239.349 421.234H193.871C192.846 421.234 192.016 422.065 192.016 423.089V430.438C192.016 431.462 192.846 432.292 193.871 432.292H239.349C240.373 432.292 241.203 431.462 241.203 430.438V423.089C241.203 422.065 240.373 421.234 239.349 421.234Z" fill="white"/>
<path d="M136.659 421.58L134.431 421.455L134.956 411.407C135.156 408.064 136.614 404.92 139.038 402.609C141.463 400.298 144.672 398.991 148.021 398.952C149.635 398.936 151.235 399.251 152.721 399.879C154.208 400.507 155.549 401.434 156.663 402.602C157.776 403.77 158.638 405.154 159.194 406.669C159.75 408.184 159.989 409.797 159.896 411.407L159.37 421.469L157.156 421.345L157.682 411.297C157.766 409.979 157.577 408.659 157.126 407.418C156.676 406.177 155.973 405.043 155.064 404.087C154.154 403.13 153.056 402.372 151.84 401.86C150.623 401.348 149.314 401.093 147.994 401.111C145.222 401.143 142.564 402.223 140.555 404.133C138.545 406.042 137.331 408.641 137.157 411.407L136.659 421.58Z" fill="#263238"/>
<path d="M184.227 417.11H118.653L116.438 494.905L126.154 492.676L135.883 494.905H186.455L184.227 417.11Z" fill="#407BFF"/>
<path d="M135.883 494.905L126.154 492.676L116.438 494.905L118.653 417.11H133.655L135.883 494.905Z" fill="#407BFF"/>
<path opacity="0.2" d="M135.883 494.905L126.154 492.676L116.438 494.905L118.653 417.11H133.655L135.883 494.905Z" fill="black"/>
<path d="M170.341 421.58L169.815 411.519C169.622 408.756 168.401 406.167 166.392 404.261C164.383 402.355 161.734 401.27 158.965 401.222C157.644 401.2 156.333 401.452 155.114 401.963C153.895 402.473 152.796 403.231 151.885 404.189C150.975 405.146 150.273 406.282 149.824 407.525C149.375 408.767 149.189 410.09 149.277 411.408L149.803 421.456L147.588 421.58L147.049 411.519C146.958 409.908 147.198 408.296 147.755 406.782C148.312 405.268 149.174 403.885 150.287 402.717C151.4 401.55 152.741 400.623 154.226 399.994C155.712 399.366 157.31 399.049 158.923 399.063C162.272 399.102 165.482 400.409 167.906 402.72C170.331 405.031 171.789 408.175 171.988 411.519L172.514 421.566L170.341 421.58Z" fill="#263238"/>
<g opacity="0.2">
<path opacity="0.2" d="M170.341 421.58L169.815 411.519C169.622 408.756 168.401 406.167 166.392 404.261C164.383 402.355 161.734 401.27 158.965 401.222C157.644 401.2 156.333 401.452 155.114 401.963C153.895 402.473 152.796 403.231 151.885 404.189C150.975 405.146 150.273 406.282 149.824 407.525C149.375 408.767 149.189 410.09 149.277 411.408L149.803 421.456L147.588 421.58L147.049 411.519C146.958 409.908 147.198 408.296 147.755 406.782C148.312 405.268 149.174 403.885 150.287 402.717C151.4 401.55 152.741 400.623 154.226 399.994C155.712 399.366 157.31 399.049 158.923 399.063C162.272 399.102 165.482 400.409 167.906 402.72C170.331 405.031 171.789 408.175 171.988 411.519L172.514 421.566L170.341 421.58Z" fill="white"/>
</g>
<path d="M174.746 445.524H145.488C144.464 445.524 143.634 446.354 143.634 447.379V451.074C143.634 452.098 144.464 452.929 145.488 452.929H174.746C175.77 452.929 176.601 452.098 176.601 451.074V447.379C176.601 446.354 175.77 445.524 174.746 445.524Z" fill="white"/>
<path d="M237.606 487.307L227.074 486.214L227.6 461.606L238.132 462.699L237.606 487.307Z" fill="#B55B52"/>
<path d="M326.706 452.015L317.281 456.817L303.109 436.5L312.548 431.698L326.706 452.015Z" fill="#B55B52"/>
<path d="M315.317 455.503L325.005 448.583C325.17 448.462 325.373 448.406 325.577 448.424C325.78 448.441 325.97 448.532 326.112 448.68L332.672 455.6C332.832 455.778 332.952 455.988 333.025 456.215C333.098 456.443 333.122 456.683 333.096 456.921C333.07 457.159 332.994 457.388 332.873 457.594C332.752 457.801 332.59 457.979 332.395 458.119C328.977 460.472 327.205 461.426 322.943 464.471C320.327 466.34 316.687 469.343 313.075 471.917C309.462 474.491 306.708 471.059 307.982 469.661C313.697 463.392 313.338 460.624 314.251 457.095C314.406 456.454 314.783 455.89 315.317 455.503Z" fill="#263238"/>
<path d="M226.172 484.885L238.005 486.117C238.209 486.134 238.399 486.225 238.539 486.373C238.679 486.521 238.76 486.716 238.766 486.919L239.14 496.428C239.141 496.667 239.092 496.904 238.996 497.123C238.899 497.343 238.757 497.539 238.58 497.7C238.402 497.86 238.192 497.982 237.965 498.056C237.737 498.13 237.496 498.155 237.258 498.13C233.106 497.618 231.182 497.175 225.978 496.635C222.767 496.289 213.522 495.666 209.121 495.251C204.72 494.836 204.969 490.393 206.81 490.186C215.238 489.272 221.328 487.418 224.345 485.383C224.877 485.008 225.523 484.831 226.172 484.885Z" fill="#263238"/>
<g opacity="0.2">
<path opacity="0.2" d="M227.602 461.605L227.325 474.297L237.871 475.39L238.134 462.712L227.602 461.605Z" fill="black"/>
<path opacity="0.2" d="M312.55 431.711L303.111 436.514L310.419 446.977L319.858 442.174L312.55 431.711Z" fill="black"/>
</g>
<path d="M232.639 249.023C232.639 249.023 221.72 330.306 221.443 362.608C221.111 396.212 225.373 471.64 225.373 471.64L239.615 473.12C239.615 473.12 245.4 398.938 247.697 366.013C250.216 330.098 264.167 250.034 264.167 250.034L232.639 249.023Z" fill="#263238"/>
<path d="M240.747 473.743L224.028 471.999L223.364 466.546L242.145 467.847L240.747 473.743Z" fill="#407BFF"/>
<path opacity="0.6" d="M250.503 269.88C239.265 290.793 246.49 329.807 249.77 344.339C252.358 322.749 256.427 296.384 259.555 277.036C258.337 265.991 255.721 260.261 250.503 269.88Z" fill="black"/>
<path d="M243.988 249.384C243.988 249.384 251.06 334.458 257.551 361.903C265.26 394.496 307.029 445.953 307.029 445.953L319.9 439.407C319.9 439.407 291.598 382.22 285.467 364.976C272.36 328.203 286.269 274.448 275.626 250.38L243.988 249.384Z" fill="#263238"/>
<path d="M321.727 439.324L305.755 447.448L301.507 443.296L319.858 432.888L321.727 439.324Z" fill="#407BFF"/>
<path d="M311.598 459.85H311.474C311.231 459.819 311 459.725 310.806 459.577C310.611 459.429 310.459 459.231 310.366 459.005C310.289 458.875 310.248 458.727 310.248 458.576C310.248 458.425 310.289 458.276 310.366 458.146C311.044 456.969 314.867 456.761 315.296 456.761C315.346 456.76 315.395 456.774 315.437 456.801C315.479 456.829 315.512 456.868 315.531 456.914C315.562 456.951 315.578 456.997 315.578 457.045C315.578 457.093 315.562 457.14 315.531 457.177C314.603 458.216 312.928 459.891 311.598 459.85ZM314.714 457.302C313.191 457.412 311.155 457.772 310.795 458.382C310.761 458.441 310.743 458.508 310.743 458.576C310.743 458.644 310.761 458.711 310.795 458.77C310.857 458.92 310.957 459.052 311.086 459.152C311.215 459.252 311.368 459.316 311.529 459.337C312.249 459.49 313.426 458.673 314.714 457.302Z" fill="#407BFF"/>
<path d="M314.947 457.276C313.631 457.276 311.235 456.542 310.792 455.531C310.711 455.349 310.695 455.144 310.749 454.952C310.802 454.76 310.92 454.593 311.083 454.478C311.221 454.345 311.387 454.245 311.569 454.185C311.752 454.125 311.945 454.107 312.135 454.132C313.673 454.298 315.445 456.763 315.528 456.902C315.549 456.94 315.56 456.983 315.56 457.027C315.56 457.07 315.549 457.113 315.528 457.151C315.509 457.191 315.48 457.224 315.443 457.248C315.407 457.273 315.364 457.287 315.321 457.29C315.196 457.299 315.071 457.294 314.947 457.276ZM311.997 454.631C311.889 454.622 311.78 454.636 311.677 454.671C311.574 454.707 311.481 454.764 311.401 454.838C311.166 455.06 311.194 455.212 311.235 455.323C311.54 456.002 313.52 456.708 314.808 456.777C314.171 455.988 312.98 454.728 312.038 454.631H311.997Z" fill="#407BFF"/>
<path d="M222.037 486.313C221.126 486.302 220.246 485.979 219.544 485.399C219.39 485.232 219.279 485.03 219.221 484.81C219.163 484.591 219.16 484.36 219.212 484.139C219.236 484.001 219.294 483.872 219.381 483.763C219.469 483.654 219.582 483.569 219.71 483.515C221.095 482.948 225.056 485.524 225.499 485.828C225.544 485.854 225.579 485.894 225.599 485.941C225.619 485.989 225.623 486.041 225.61 486.091C225.599 486.143 225.571 486.19 225.531 486.225C225.491 486.259 225.441 486.281 225.389 486.285C224.275 486.4 223.153 486.409 222.037 486.313ZM220.375 483.931C220.22 483.9 220.06 483.9 219.904 483.931C219.852 483.954 219.807 483.991 219.773 484.037C219.739 484.083 219.717 484.137 219.71 484.194C219.672 484.337 219.671 484.487 219.707 484.63C219.744 484.773 219.816 484.904 219.918 485.011C220.5 485.662 222.217 485.939 224.599 485.801C223.304 484.948 221.877 484.316 220.375 483.931Z" fill="#407BFF"/>
<path d="M225.335 486.286C225.335 486.286 225.266 486.286 225.238 486.286C224.047 485.593 221.79 483.059 222.108 481.882C222.191 481.605 222.427 481.272 223.119 481.272C223.378 481.267 223.635 481.316 223.874 481.416C224.112 481.516 224.327 481.665 224.504 481.854C225.709 483.101 225.667 486.009 225.653 486.078C225.655 486.121 225.644 486.164 225.622 486.201C225.6 486.237 225.568 486.267 225.529 486.286C225.466 486.309 225.397 486.309 225.335 486.286ZM223.271 481.743H223.119C222.662 481.743 222.621 481.91 222.593 481.979C222.413 482.685 223.908 484.638 225.113 485.552C225.13 484.344 224.777 483.16 224.102 482.159C223.881 481.929 223.588 481.782 223.271 481.743Z" fill="#407BFF"/>
<path d="M228.094 205.815C224.175 211.05 219.783 215.915 214.974 220.347C212.43 222.734 209.647 224.854 206.67 226.672C204.916 227.748 203.026 228.585 201.051 229.163C199.801 229.524 198.505 229.701 197.203 229.689C196.426 229.68 195.652 229.592 194.892 229.426C194.505 229.329 194.089 229.205 193.702 229.066C193.247 228.907 192.807 228.708 192.387 228.471C191.409 227.943 190.554 227.211 189.882 226.326C189.367 225.671 188.943 224.95 188.623 224.181C188.149 223.066 187.827 221.893 187.668 220.693C187.424 218.835 187.355 216.959 187.46 215.088C187.691 211.779 188.153 208.491 188.844 205.248C190.112 198.992 191.842 192.84 194.02 186.84L199.75 188.321C198.933 194.342 198.172 200.487 197.715 206.438C197.465 209.323 197.391 212.221 197.494 215.115C197.521 216.35 197.674 217.579 197.951 218.783C198.018 219.117 198.135 219.439 198.297 219.738C198.38 219.876 198.297 219.447 197.494 218.935C197.203 218.797 197.3 218.811 197.231 218.797C197.472 218.742 197.708 218.668 197.937 218.575C198.913 218.177 199.841 217.671 200.705 217.067C202.923 215.483 205.01 213.725 206.947 211.808C209.009 209.801 210.988 207.656 212.939 205.4C214.891 203.144 216.842 200.846 218.628 198.646L228.094 205.815Z" fill="#B55B52"/>
<path d="M225.787 190.577C221.455 189.386 208.597 205.801 208.597 205.801L220.887 219.516C220.887 219.516 235.295 206.506 234.727 200.68C234.188 194.59 232.125 192.376 225.787 190.577Z" fill="#407BFF"/>
<path d="M199.904 186.841L199.42 178.219L191.116 185.056C191.116 185.056 192.375 191.74 196.569 193.069L199.157 189.429C199.687 188.673 199.95 187.763 199.904 186.841Z" fill="#B55B52"/>
<path d="M194.011 171.104L187.368 177.221L191.105 185.027L199.423 178.19L194.011 171.104Z" fill="#B55B52"/>
<path d="M190.634 187.782L188.71 187.09C188.191 186.894 187.756 186.522 187.483 186.039C187.21 185.556 187.115 184.992 187.215 184.446L190.136 168.918L195.381 170.828L193.762 185.83C193.727 186.185 193.611 186.527 193.423 186.829C193.236 187.132 192.981 187.388 192.678 187.576C192.376 187.765 192.035 187.881 191.68 187.917C191.326 187.953 190.968 187.906 190.634 187.782Z" fill="#263238"/>
<path d="M204.457 168.06C204.789 167.16 205.107 166.275 205.398 165.389C204.216 163.484 202.634 161.86 200.761 160.628C200.069 162.33 199.377 164.115 198.699 165.956C198.021 167.797 197.412 169.61 196.859 171.368C199.086 171.626 201.343 171.399 203.474 170.703C203.806 169.831 204.138 168.959 204.457 168.06Z" fill="#263238"/>
<path d="M200.985 166.8C201.803 164.644 202.392 162.408 202.742 160.129L185.539 153.86L180.861 166.717L198.078 173C199.259 171.04 200.233 168.962 200.985 166.8Z" fill="#407BFF"/>
<path opacity="0.6" d="M200.985 166.8C201.803 164.644 202.392 162.408 202.742 160.129L185.539 153.86L180.861 166.717L198.078 173C199.259 171.04 200.233 168.962 200.985 166.8Z" fill="white"/>
<path d="M190.01 154.289C189.235 153.998 170.634 134.913 168.558 134.096C166.482 133.279 161.458 140.864 157.749 151.05C154.04 161.236 152.878 170.149 155.133 170.98C157.389 171.81 183.755 169.028 184.543 169.305C185.332 169.582 187.436 166.537 188.945 162.385C190.453 158.233 190.993 154.621 190.01 154.289Z" fill="#407BFF"/>
<path opacity="0.4" d="M190.01 154.289C189.235 153.998 170.634 134.913 168.558 134.096C166.482 133.279 161.458 140.864 157.749 151.05C154.04 161.236 152.878 170.149 155.133 170.98C157.389 171.81 183.755 169.028 184.543 169.305C185.332 169.582 187.436 166.537 188.945 162.385C190.453 158.233 190.993 154.621 190.01 154.289Z" fill="white"/>
<path d="M165.942 154.026C162.233 164.212 157.389 171.797 155.133 170.98C152.878 170.163 154.04 161.292 157.749 151.05C161.458 140.809 166.302 133.28 168.558 134.096C170.814 134.913 169.652 143.854 165.942 154.026Z" fill="#407BFF"/>
<path d="M160.545 152.033C160.296 152.712 160.06 153.418 159.839 154.041C161.116 155.643 162.679 156.994 164.449 158.028C164.975 156.754 165.501 155.411 166.013 154.027C166.525 152.642 166.968 151.258 167.397 149.957C165.378 149.613 163.313 149.646 161.306 150.054C160.96 150.704 160.711 151.369 160.545 152.033Z" fill="#263238"/>
<path opacity="0.7" d="M160.545 152.033C160.296 152.712 160.06 153.418 159.839 154.041C161.116 155.643 162.679 156.994 164.449 158.028C164.975 156.754 165.501 155.411 166.013 154.027C166.525 152.642 166.968 151.258 167.397 149.957C165.378 149.613 163.313 149.646 161.306 150.054C160.96 150.704 160.711 151.369 160.545 152.033Z" fill="white"/>
<path opacity="0.2" d="M222.163 200.224C222.8 209.428 220.654 214.908 219.132 217.552L220.89 219.503C220.89 219.503 229.014 212.168 232.834 206.051C228.543 199.684 221.443 190.55 222.163 200.224Z" fill="black"/>
<path d="M270.545 147.881C276.316 147.881 280.994 143.203 280.994 137.432C280.994 131.661 276.316 126.983 270.545 126.983C264.774 126.983 260.096 131.661 260.096 137.432C260.096 143.203 264.774 147.881 270.545 147.881Z" fill="#263238"/>
<path d="M269.424 142.192C269.427 143.493 269.044 144.766 268.323 145.848C267.602 146.931 266.577 147.776 265.376 148.276C264.175 148.775 262.852 148.908 261.576 148.656C260.3 148.403 259.128 147.778 258.207 146.86C257.286 145.941 256.658 144.769 256.404 143.494C256.149 142.218 256.278 140.896 256.775 139.694C257.273 138.492 258.115 137.464 259.197 136.741C260.278 136.018 261.55 135.632 262.85 135.632C264.591 135.632 266.262 136.323 267.494 137.553C268.726 138.783 269.421 140.451 269.424 142.192Z" fill="#407BFF"/>
<path d="M241.976 134.041C241.976 134.041 228.136 132.906 228.136 156.711C228.136 173.015 236.053 180.558 245.754 175.077C245.754 175.077 267.151 173.319 269.615 153.736C272.078 134.152 256.937 126.858 241.976 134.041Z" fill="#263238"/>
<path d="M222.962 191.213C222.962 191.213 218.049 193.344 232.65 254.586L275.554 251.472C273.561 234.062 272.786 223.308 278.502 186.867C272.405 186.064 266.258 185.704 260.109 185.788C253.589 185.788 247.077 186.25 240.622 187.172C232.304 188.584 222.962 191.213 222.962 191.213Z" fill="#407BFF"/>
<path d="M256.568 163.991C255.793 170.357 255.405 181.983 260.097 185.789C260.097 185.789 258.851 192.266 247.198 193.124C234.396 194.051 240.61 187.201 240.61 187.201C247.53 185.028 246.921 179.851 245.357 175.077L256.568 163.991Z" fill="#B55B52"/>
<path opacity="0.2" d="M252.002 168.516L245.357 175.078C245.74 176.186 246.027 177.326 246.215 178.483C248.859 177.902 252.306 174.704 252.389 171.894C252.467 170.754 252.336 169.609 252.002 168.516Z" fill="black"/>
<path d="M263.736 153.417C261.342 163.645 260.539 168.032 254.408 172.447C245.19 179.09 233.15 173.9 232.444 163.16C231.807 153.472 235.835 138.387 246.671 135.992C249.055 135.457 251.536 135.539 253.879 136.231C256.222 136.924 258.35 138.204 260.059 139.949C261.769 141.695 263.004 143.848 263.647 146.205C264.291 148.562 264.321 151.045 263.736 153.417Z" fill="#B55B52"/>
<path d="M246.093 153.349C245.954 154.194 245.386 154.734 244.846 154.734C244.306 154.734 243.96 153.875 244.098 153.031C244.237 152.186 244.819 151.646 245.359 151.646C245.899 151.646 246.245 152.504 246.093 153.349Z" fill="#263238"/>
<path d="M236.583 151.73C236.431 152.561 235.877 153.115 235.323 153.115C234.769 153.115 234.436 152.27 234.589 151.425C234.741 150.58 235.295 150.04 235.849 150.04C236.403 150.04 236.666 150.857 236.583 151.73Z" fill="#263238"/>
<path d="M236.087 150.124L234.162 149.182C234.162 149.182 234.924 150.941 236.087 150.124Z" fill="#263238"/>
<path d="M239.933 153.734C238.856 155.531 237.537 157.172 236.014 158.609C236.392 158.987 236.849 159.278 237.351 159.462C237.853 159.646 238.389 159.719 238.922 159.676L239.933 153.734Z" fill="#A02724"/>
<path d="M264.927 163.383C263.894 165.137 262.214 166.414 260.248 166.941C257.645 167.606 256.399 165.252 257.175 162.788C257.867 160.601 260.068 157.625 262.712 158.026C263.278 158.132 263.808 158.378 264.255 158.741C264.701 159.104 265.051 159.573 265.27 160.105C265.49 160.637 265.574 161.215 265.514 161.788C265.454 162.36 265.252 162.909 264.927 163.383Z" fill="#B55B52"/>
<path d="M250.246 152.064C250.139 152.062 250.036 152.027 249.951 151.962C249.866 151.897 249.805 151.807 249.775 151.704C249.096 149.488 246.257 148.547 246.23 148.533C246.167 148.512 246.109 148.479 246.059 148.435C246.009 148.392 245.968 148.339 245.938 148.28C245.909 148.221 245.891 148.157 245.887 148.091C245.882 148.025 245.89 147.958 245.911 147.896C245.932 147.833 245.965 147.775 246.008 147.725C246.052 147.675 246.105 147.634 246.164 147.604C246.223 147.575 246.287 147.557 246.353 147.553C246.419 147.548 246.485 147.556 246.548 147.577C247.472 147.888 248.319 148.391 249.035 149.052C249.751 149.713 250.319 150.518 250.703 151.413C250.722 151.476 250.729 151.542 250.722 151.607C250.716 151.673 250.697 151.736 250.666 151.794C250.635 151.852 250.593 151.903 250.542 151.945C250.492 151.986 250.433 152.018 250.371 152.037C250.331 152.053 250.289 152.063 250.246 152.064Z" fill="#263238"/>
<path d="M234.463 146.844C234.357 146.836 234.255 146.794 234.174 146.724C234.092 146.655 234.034 146.562 234.008 146.458C233.982 146.354 233.989 146.244 234.029 146.145C234.068 146.045 234.138 145.96 234.228 145.903C234.91 145.489 235.681 145.246 236.476 145.193C237.271 145.14 238.068 145.279 238.798 145.598C238.857 145.628 238.91 145.669 238.953 145.72C238.996 145.77 239.029 145.828 239.05 145.891C239.07 145.954 239.078 146.021 239.073 146.087C239.068 146.153 239.05 146.217 239.02 146.276C238.99 146.336 238.948 146.388 238.898 146.431C238.848 146.474 238.789 146.507 238.726 146.528C238.663 146.548 238.597 146.556 238.531 146.551C238.465 146.546 238.4 146.528 238.341 146.498C237.761 146.25 237.129 146.145 236.5 146.193C235.871 146.242 235.262 146.441 234.727 146.775C234.646 146.819 234.555 146.843 234.463 146.844Z" fill="#263238"/>
<path d="M245.592 151.743L243.667 150.815C243.667 150.815 244.442 152.574 245.592 151.743Z" fill="#263238"/>
<path d="M239.75 162.288C243.27 161.556 246.853 161.167 250.449 161.125C249.632 163.547 247.999 165.568 243.944 165.72C243.44 165.79 242.927 165.755 242.437 165.617C241.948 165.479 241.492 165.241 241.098 164.919C240.704 164.597 240.381 164.197 240.15 163.744C239.918 163.291 239.782 162.796 239.75 162.288Z" fill="#263238"/>
<path d="M245.734 163.77C244.174 163.758 242.652 164.242 241.387 165.154C242.157 165.615 243.053 165.823 243.948 165.749C245.507 165.761 247.03 165.277 248.295 164.365C247.528 163.894 246.629 163.686 245.734 163.77Z" fill="#A02724"/>
<path d="M240.109 162.205C240.203 162.493 240.374 162.75 240.603 162.947C240.832 163.145 241.111 163.276 241.41 163.327C243.739 163.203 246.054 162.888 248.332 162.385C248.702 162.34 249.054 162.202 249.357 161.984C249.659 161.766 249.902 161.476 250.062 161.139C246.721 161.235 243.394 161.592 240.109 162.205Z" fill="white"/>
<path d="M234.232 145.902C237.382 144.568 240.123 142.424 242.176 139.688C242.176 139.688 242.176 147.05 245.179 146.483C248.183 145.916 243.671 139.674 243.671 139.674C243.671 139.674 250.591 142.746 252.958 148.753C255.324 154.759 258.023 161.319 263.351 159.686C268.68 158.053 267.503 141.03 259.656 136.781L248.584 134.788L245.318 135.273C243.622 135.514 241.995 136.108 240.543 137.016C238.354 138.359 236.633 140.346 235.616 142.705L234.232 145.902Z" fill="#263238"/>
<path d="M260.07 146.788C259.558 145.708 257.108 145.805 254.533 146.996C251.958 148.186 251.917 149.307 252.429 150.387C252.941 151.467 253.813 152.09 256.388 150.899C258.963 149.709 260.583 147.868 260.07 146.788ZM254.132 149.557C253.772 148.781 253.841 147.992 255.641 147.134C257.44 146.276 259.198 146.22 259.558 146.996C259.918 147.771 258.769 149.086 256.969 149.93C255.17 150.775 254.505 150.373 254.132 149.598V149.557Z" fill="#407BFF"/>
<path opacity="0.2" d="M273.757 201.067L270.504 198.299L268.096 199.393C267.26 207.912 269.429 216.455 274.227 223.543C274.435 218.935 274.864 213.745 275.611 207.544C274.587 203.808 273.757 201.067 273.757 201.067Z" fill="black"/>
<path d="M317.6 234.796L315.842 234.976L315.012 227.046C314.762 224.408 315.518 221.773 317.131 219.671C318.743 217.568 321.091 216.153 323.703 215.711C324.966 215.498 326.26 215.547 327.503 215.856C328.746 216.164 329.912 216.726 330.929 217.505C331.945 218.284 332.791 219.264 333.412 220.384C334.033 221.504 334.417 222.74 334.54 224.015L335.384 231.945L333.627 232.139L332.796 224.195C332.695 223.156 332.382 222.149 331.878 221.235C331.373 220.321 330.687 219.52 329.862 218.88C329.035 218.244 328.086 217.786 327.074 217.533C326.062 217.281 325.009 217.24 323.98 217.413C321.812 217.781 319.863 218.956 318.525 220.702C317.188 222.447 316.56 224.635 316.77 226.824L317.6 234.796Z" fill="#263238"/>
<path d="M284.98 199.296C285.229 200.486 285.561 201.953 285.879 203.296C286.197 204.638 286.571 206.064 286.959 207.448C287.734 210.216 288.55 212.887 289.533 215.503C291.302 220.597 293.816 225.401 296.993 229.758L297.283 230.132L297.422 230.325L297.256 230.159C297.034 229.965 296.775 229.819 296.494 229.73C296.079 229.619 296.093 229.73 296.37 229.73C297.351 229.679 298.318 229.473 299.235 229.121C301.797 228.186 304.278 227.043 306.653 225.703C311.677 222.935 316.756 219.779 321.669 216.582L325.503 221.094C321.193 225.574 316.507 229.676 311.497 233.356C308.84 235.317 306.004 237.022 303.027 238.449C301.192 239.33 299.231 239.918 297.214 240.193C295.669 240.383 294.101 240.213 292.633 239.695C291.654 239.332 290.753 238.787 289.976 238.09C289.782 237.91 289.574 237.716 289.408 237.536L289.187 237.301L288.744 236.816C286.465 234.297 284.47 231.536 282.793 228.581C281.157 225.759 279.728 222.822 278.516 219.793C277.326 216.799 276.291 213.746 275.416 210.645C274.987 209.122 274.586 207.586 274.226 206.036C273.866 204.486 273.534 202.977 273.257 201.206L284.98 199.296Z" fill="#B55B52"/>
<path d="M278.486 186.841C282.873 187.837 290.554 203.698 290.554 203.698L273.31 215.393C273.31 215.393 266.39 203.476 267.774 197.788C269.185 191.892 273.476 185.734 278.486 186.841Z" fill="#407BFF"/>
<path d="M320.949 216.514L330.969 210.978L328.865 221.538C328.865 221.538 322.388 223.6 319.177 220.527L320.949 216.514Z" fill="#B55B52"/>
<path d="M339.76 212.403L337.518 221.164L328.868 221.551L330.971 210.991L339.76 212.403Z" fill="#B55B52"/>
<path d="M343.967 230.616L342.307 222.81C341.83 220.664 340.559 218.778 338.749 217.531C336.939 216.283 334.724 215.766 332.549 216.084C331.516 216.236 330.524 216.599 329.637 217.152C328.751 217.705 327.988 218.435 327.397 219.297C326.805 220.158 326.398 221.133 326.202 222.159C326.005 223.185 326.022 224.241 326.252 225.26L327.913 233.066L326.197 233.439L324.536 225.634C324.254 224.381 324.233 223.084 324.475 221.823C324.717 220.562 325.217 219.365 325.943 218.306C326.669 217.247 327.606 216.35 328.696 215.67C329.785 214.99 331.002 214.542 332.273 214.354C334.893 213.969 337.563 214.59 339.745 216.092C341.927 217.593 343.46 219.865 344.037 222.45L345.697 230.256L343.967 230.616Z" fill="#263238"/>
<g opacity="0.3">
<path opacity="0.3" d="M343.967 230.616L342.307 222.81C341.83 220.664 340.559 218.778 338.749 217.531C336.939 216.283 334.724 215.766 332.549 216.084C331.516 216.236 330.524 216.599 329.637 217.152C328.751 217.705 327.988 218.435 327.397 219.297C326.805 220.158 326.398 221.133 326.202 222.159C326.005 223.185 326.022 224.241 326.252 225.26L327.913 233.066L326.197 233.439L324.536 225.634C324.254 224.381 324.233 223.084 324.475 221.823C324.717 220.562 325.217 219.365 325.943 218.306C326.669 217.247 327.606 216.35 328.696 215.67C329.785 214.99 331.002 214.542 332.273 214.354C334.893 213.969 337.563 214.59 339.745 216.092C341.927 217.593 343.46 219.865 344.037 222.45L345.697 230.256L343.967 230.616Z" fill="white"/>
</g>
<path d="M354.288 225.399L302.956 233.523L310.858 294.696L318.193 291.748L326.082 292.288L365.665 286.018L354.288 225.399Z" fill="#407BFF"/>
<path opacity="0.6" d="M354.288 225.399L302.956 233.523L310.858 294.696L318.193 291.748L326.082 292.288L365.665 286.018L354.288 225.399Z" fill="white"/>
<path d="M326.082 292.287L318.193 291.747L310.858 294.695L302.956 233.523L314.692 231.668L326.082 292.287Z" fill="#407BFF"/>
<path opacity="0.3" d="M326.082 292.287L318.193 291.747L310.858 294.695L302.956 233.523L314.692 231.668L326.082 292.287Z" fill="white"/>
<path d="M349.245 251.749L328.016 255.111C326.876 255.292 326.098 256.362 326.279 257.502L326.309 257.694C326.49 258.834 327.56 259.612 328.7 259.431L349.929 256.068C351.069 255.888 351.847 254.817 351.666 253.677L351.636 253.486C351.455 252.346 350.385 251.568 349.245 251.749Z" fill="white"/>
</svg>
