<svg width="760" height="484" viewBox="0 0 760 484" fill="none" xmlns="http://www.w3.org/2000/svg">
<path d="M742 244.5V245.5H743V244.5H742ZM17 244.5V243.5H16V244.5H17ZM18 448.763C18 448.21 17.5523 447.763 17 447.763C16.4477 447.763 16 448.21 16 448.763H18ZM16 438.288C16 438.84 16.4477 439.288 17 439.288C17.5523 439.288 18 438.84 18 438.288H16ZM18 427.812C18 427.26 17.5523 426.812 17 426.812C16.4477 426.812 16 427.26 16 427.812H18ZM16 417.337C16 417.89 16.4477 418.337 17 418.337C17.5523 418.337 18 417.89 18 417.337H16ZM18 406.863C18 406.31 17.5523 405.863 17 405.863C16.4477 405.863 16 406.31 16 406.863H18ZM16 396.388C16 396.94 16.4477 397.388 17 397.388C17.5523 397.388 18 396.94 18 396.388H16ZM18 385.913C18 385.36 17.5523 384.913 17 384.913C16.4477 384.913 16 385.36 16 385.913H18ZM16 375.438C16 375.99 16.4477 376.438 17 376.438C17.5523 376.438 18 375.99 18 375.438H16ZM18 364.963C18 364.41 17.5523 363.963 17 363.963C16.4477 363.963 16 364.41 16 364.963H18ZM16 354.488C16 355.04 16.4477 355.488 17 355.488C17.5523 355.488 18 355.04 18 354.488H16ZM18 344.013C18 343.46 17.5523 343.013 17 343.013C16.4477 343.013 16 343.46 16 344.013H18ZM16 333.538C16 334.09 16.4477 334.538 17 334.538C17.5523 334.538 18 334.09 18 333.538H16ZM18 323.062C18 322.51 17.5523 322.062 17 322.062C16.4477 322.062 16 322.51 16 323.062H18ZM16 312.588C16 313.14 16.4477 313.588 17 313.588C17.5523 313.588 18 313.14 18 312.588H16ZM18 302.113C18 301.56 17.5523 301.113 17 301.113C16.4477 301.113 16 301.56 16 302.113H18ZM16 291.637C16 292.19 16.4477 292.637 17 292.637C17.5523 292.637 18 292.19 18 291.637H16ZM18 281.162C18 280.61 17.5523 280.162 17 280.162C16.4477 280.162 16 280.61 16 281.162H18ZM16 270.687C16 271.24 16.4477 271.687 17 271.687C17.5523 271.687 18 271.24 18 270.687H16ZM18 260.212C18 259.66 17.5523 259.212 17 259.212C16.4477 259.212 16 259.66 16 260.212H18ZM16 249.737C16 250.29 16.4477 250.737 17 250.737C17.5523 250.737 18 250.29 18 249.737H16ZM22.4924 245.5C23.0447 245.5 23.4924 245.052 23.4924 244.5C23.4924 243.948 23.0447 243.5 22.4924 243.5V245.5ZM33.4773 243.5C32.925 243.5 32.4773 243.948 32.4773 244.5C32.4773 245.052 32.925 245.5 33.4773 245.5V243.5ZM44.4621 245.5C45.0144 245.5 45.4621 245.052 45.4621 244.5C45.4621 243.948 45.0144 243.5 44.4621 243.5V245.5ZM55.447 243.5C54.8947 243.5 54.447 243.948 54.447 244.5C54.447 245.052 54.8947 245.5 55.447 245.5V243.5ZM66.4318 245.5C66.9841 245.5 67.4318 245.052 67.4318 244.5C67.4318 243.948 66.9841 243.5 66.4318 243.5V245.5ZM77.4167 243.5C76.8644 243.5 76.4167 243.948 76.4167 244.5C76.4167 245.052 76.8644 245.5 77.4167 245.5V243.5ZM88.4015 245.5C88.9538 245.5 89.4015 245.052 89.4015 244.5C89.4015 243.948 88.9538 243.5 88.4015 243.5V245.5ZM99.3864 243.5C98.8341 243.5 98.3864 243.948 98.3864 244.5C98.3864 245.052 98.8341 245.5 99.3864 245.5V243.5ZM110.371 245.5C110.923 245.5 111.371 245.052 111.371 244.5C111.371 243.948 110.923 243.5 110.371 243.5V245.5ZM121.356 243.5C120.804 243.5 120.356 243.948 120.356 244.5C120.356 245.052 120.804 245.5 121.356 245.5V243.5ZM132.341 245.5C132.893 245.5 133.341 245.052 133.341 244.5C133.341 243.948 132.893 243.5 132.341 243.5V245.5ZM143.326 243.5C142.773 243.5 142.326 243.948 142.326 244.5C142.326 245.052 142.773 245.5 143.326 245.5V243.5ZM154.311 245.5C154.863 245.5 155.311 245.052 155.311 244.5C155.311 243.948 154.863 243.5 154.311 243.5V245.5ZM165.295 243.5C164.743 243.5 164.295 243.948 164.295 244.5C164.295 245.052 164.743 245.5 165.295 245.5V243.5ZM176.28 245.5C176.833 245.5 177.28 245.052 177.28 244.5C177.28 243.948 176.833 243.5 176.28 243.5V245.5ZM187.265 243.5C186.713 243.5 186.265 243.948 186.265 244.5C186.265 245.052 186.713 245.5 187.265 245.5V243.5ZM198.25 245.5C198.802 245.5 199.25 245.052 199.25 244.5C199.25 243.948 198.802 243.5 198.25 243.5V245.5ZM209.235 243.5C208.683 243.5 208.235 243.948 208.235 244.5C208.235 245.052 208.683 245.5 209.235 245.5V243.5ZM220.22 245.5C220.772 245.5 221.22 245.052 221.22 244.5C221.22 243.948 220.772 243.5 220.22 243.5V245.5ZM231.205 243.5C230.652 243.5 230.205 243.948 230.205 244.5C230.205 245.052 230.652 245.5 231.205 245.5V243.5ZM242.189 245.5C242.742 245.5 243.189 245.052 243.189 244.5C243.189 243.948 242.742 243.5 242.189 243.5V245.5ZM253.174 243.5C252.622 243.5 252.174 243.948 252.174 244.5C252.174 245.052 252.622 245.5 253.174 245.5V243.5ZM264.159 245.5C264.711 245.5 265.159 245.052 265.159 244.5C265.159 243.948 264.711 243.5 264.159 243.5V245.5ZM275.144 243.5C274.592 243.5 274.144 243.948 274.144 244.5C274.144 245.052 274.592 245.5 275.144 245.5V243.5ZM286.129 245.5C286.681 245.5 287.129 245.052 287.129 244.5C287.129 243.948 286.681 243.5 286.129 243.5V245.5ZM297.114 243.5C296.561 243.5 296.114 243.948 296.114 244.5C296.114 245.052 296.561 245.5 297.114 245.5V243.5ZM308.099 245.5C308.651 245.5 309.099 245.052 309.099 244.5C309.099 243.948 308.651 243.5 308.099 243.5V245.5ZM319.083 243.5C318.531 243.5 318.083 243.948 318.083 244.5C318.083 245.052 318.531 245.5 319.083 245.5V243.5ZM330.068 245.5C330.621 245.5 331.068 245.052 331.068 244.5C331.068 243.948 330.621 243.5 330.068 243.5V245.5ZM341.053 243.5C340.501 243.5 340.053 243.948 340.053 244.5C340.053 245.052 340.501 245.5 341.053 245.5V243.5ZM352.038 245.5C352.59 245.5 353.038 245.052 353.038 244.5C353.038 243.948 352.59 243.5 352.038 243.5V245.5ZM363.023 243.5C362.471 243.5 362.023 243.948 362.023 244.5C362.023 245.052 362.471 245.5 363.023 245.5V243.5ZM374.008 245.5C374.56 245.5 375.008 245.052 375.008 244.5C375.008 243.948 374.56 243.5 374.008 243.5V245.5ZM384.993 243.5C384.44 243.5 383.993 243.948 383.993 244.5C383.993 245.052 384.44 245.5 384.993 245.5V243.5ZM395.977 245.5C396.53 245.5 396.977 245.052 396.977 244.5C396.977 243.948 396.53 243.5 395.977 243.5V245.5ZM406.962 243.5C406.41 243.5 405.962 243.948 405.962 244.5C405.962 245.052 406.41 245.5 406.962 245.5V243.5ZM417.947 245.5C418.499 245.5 418.947 245.052 418.947 244.5C418.947 243.948 418.499 243.5 417.947 243.5V245.5ZM428.932 243.5C428.38 243.5 427.932 243.948 427.932 244.5C427.932 245.052 428.38 245.5 428.932 245.5V243.5ZM439.917 245.5C440.469 245.5 440.917 245.052 440.917 244.5C440.917 243.948 440.469 243.5 439.917 243.5V245.5ZM450.902 243.5C450.349 243.5 449.902 243.948 449.902 244.5C449.902 245.052 450.349 245.5 450.902 245.5V243.5ZM461.887 245.5C462.439 245.5 462.887 245.052 462.887 244.5C462.887 243.948 462.439 243.5 461.887 243.5V245.5ZM472.871 243.5C472.319 243.5 471.871 243.948 471.871 244.5C471.871 245.052 472.319 245.5 472.871 245.5V243.5ZM483.856 245.5C484.409 245.5 484.856 245.052 484.856 244.5C484.856 243.948 484.409 243.5 483.856 243.5V245.5ZM494.841 243.5C494.289 243.5 493.841 243.948 493.841 244.5C493.841 245.052 494.289 245.5 494.841 245.5V243.5ZM505.826 245.5C506.378 245.5 506.826 245.052 506.826 244.5C506.826 243.948 506.378 243.5 505.826 243.5V245.5ZM516.811 243.5C516.259 243.5 515.811 243.948 515.811 244.5C515.811 245.052 516.259 245.5 516.811 245.5V243.5ZM527.796 245.5C528.348 245.5 528.796 245.052 528.796 244.5C528.796 243.948 528.348 243.5 527.796 243.5V245.5ZM538.781 243.5C538.228 243.5 537.781 243.948 537.781 244.5C537.781 245.052 538.228 245.5 538.781 245.5V243.5ZM549.766 245.5C550.318 245.5 550.766 245.052 550.766 244.5C550.766 243.948 550.318 243.5 549.766 243.5V245.5ZM560.75 243.5C560.198 243.5 559.75 243.948 559.75 244.5C559.75 245.052 560.198 245.5 560.75 245.5V243.5ZM571.735 245.5C572.288 245.5 572.735 245.052 572.735 244.5C572.735 243.948 572.288 243.5 571.735 243.5V245.5ZM582.72 243.5C582.168 243.5 581.72 243.948 581.72 244.5C581.72 245.052 582.168 245.5 582.72 245.5V243.5ZM593.705 245.5C594.257 245.5 594.705 245.052 594.705 244.5C594.705 243.948 594.257 243.5 593.705 243.5V245.5ZM604.69 243.5C604.138 243.5 603.69 243.948 603.69 244.5C603.69 245.052 604.138 245.5 604.69 245.5V243.5ZM615.675 245.5C616.227 245.5 616.675 245.052 616.675 244.5C616.675 243.948 616.227 243.5 615.675 243.5V245.5ZM626.66 243.5C626.107 243.5 625.66 243.948 625.66 244.5C625.66 245.052 626.107 245.5 626.66 245.5V243.5ZM637.644 245.5C638.197 245.5 638.644 245.052 638.644 244.5C638.644 243.948 638.197 243.5 637.644 243.5V245.5ZM648.629 243.5C648.077 243.5 647.629 243.948 647.629 244.5C647.629 245.052 648.077 245.5 648.629 245.5V243.5ZM659.614 245.5C660.166 245.5 660.614 245.052 660.614 244.5C660.614 243.948 660.166 243.5 659.614 243.5V245.5ZM670.599 243.5C670.047 243.5 669.599 243.948 669.599 244.5C669.599 245.052 670.047 245.5 670.599 245.5V243.5ZM681.584 245.5C682.136 245.5 682.584 245.052 682.584 244.5C682.584 243.948 682.136 243.5 681.584 243.5V245.5ZM692.569 243.5C692.016 243.5 691.569 243.948 691.569 244.5C691.569 245.052 692.016 245.5 692.569 245.5V243.5ZM703.554 245.5C704.106 245.5 704.554 245.052 704.554 244.5C704.554 243.948 704.106 243.5 703.554 243.5V245.5ZM714.538 243.5C713.986 243.5 713.538 243.948 713.538 244.5C713.538 245.052 713.986 245.5 714.538 245.5V243.5ZM725.523 245.5C726.076 245.5 726.523 245.052 726.523 244.5C726.523 243.948 726.076 243.5 725.523 243.5V245.5ZM736.508 243.5C735.956 243.5 735.508 243.948 735.508 244.5C735.508 245.052 735.956 245.5 736.508 245.5V243.5ZM743 238.8C743 238.248 742.552 237.8 742 237.8C741.448 237.8 741 238.248 741 238.8H743ZM741 227.4C741 227.952 741.448 228.4 742 228.4C742.552 228.4 743 227.952 743 227.4H741ZM743 216C743 215.448 742.552 215 742 215C741.448 215 741 215.448 741 216H743ZM741 204.6C741 205.152 741.448 205.6 742 205.6C742.552 205.6 743 205.152 743 204.6H741ZM743 193.2C743 192.648 742.552 192.2 742 192.2C741.448 192.2 741 192.648 741 193.2H743ZM741 181.8C741 182.352 741.448 182.8 742 182.8C742.552 182.8 743 182.352 743 181.8H741ZM743 170.4C743 169.848 742.552 169.4 742 169.4C741.448 169.4 741 169.848 741 170.4H743ZM741 159C741 159.552 741.448 160 742 160C742.552 160 743 159.552 743 159H741ZM743 147.6C743 147.048 742.552 146.6 742 146.6C741.448 146.6 741 147.048 741 147.6H743ZM741 136.2C741 136.752 741.448 137.2 742 137.2C742.552 137.2 743 136.752 743 136.2H741ZM743 124.8C743 124.248 742.552 123.8 742 123.8C741.448 123.8 741 124.248 741 124.8H743ZM741 113.4C741 113.952 741.448 114.4 742 114.4C742.552 114.4 743 113.952 743 113.4H741ZM743 102C743 101.448 742.552 101 742 101C741.448 101 741 101.448 741 102H743ZM741 90.6C741 91.1523 741.448 91.6 742 91.6C742.552 91.6 743 91.1523 743 90.6H741ZM743 79.2C743 78.6477 742.552 78.2 742 78.2C741.448 78.2 741 78.6477 741 79.2H743ZM741 67.8C741 68.3523 741.448 68.8 742 68.8C742.552 68.8 743 68.3523 743 67.8H741ZM743 56.4C743 55.8477 742.552 55.4 742 55.4C741.448 55.4 741 55.8477 741 56.4H743ZM741 45C741 45.5523 741.448 46 742 46C742.552 46 743 45.5523 743 45H741ZM743 33.6C743 33.0478 742.552 32.6 742 32.6C741.448 32.6 741 33.0478 741 33.6H743ZM741 22.2C741 22.7523 741.448 23.2 742 23.2C742.552 23.2 743 22.7523 743 22.2H741ZM18 454V448.763H16V454H18ZM18 438.288V427.812H16V438.288H18ZM18 417.337V406.863H16V417.337H18ZM18 396.388V385.913H16V396.388H18ZM18 375.438V364.963H16V375.438H18ZM18 354.488V344.013H16V354.488H18ZM18 333.538V323.062H16V333.538H18ZM18 312.588V302.113H16V312.588H18ZM18 291.637V281.162H16V291.637H18ZM18 270.687V260.212H16V270.687H18ZM18 249.737V244.5H16V249.737H18ZM17 245.5H22.4924V243.5H17V245.5ZM33.4773 245.5H44.4621V243.5H33.4773V245.5ZM55.447 245.5H66.4318V243.5H55.447V245.5ZM77.4167 245.5H88.4015V243.5H77.4167V245.5ZM99.3864 245.5H110.371V243.5H99.3864V245.5ZM121.356 245.5H132.341V243.5H121.356V245.5ZM143.326 245.5H154.311V243.5H143.326V245.5ZM165.295 245.5H176.28V243.5H165.295V245.5ZM187.265 245.5H198.25V243.5H187.265V245.5ZM209.235 245.5H220.22V243.5H209.235V245.5ZM231.205 245.5H242.189V243.5H231.205V245.5ZM253.174 245.5H264.159V243.5H253.174V245.5ZM275.144 245.5H286.129V243.5H275.144V245.5ZM297.114 245.5H308.099V243.5H297.114V245.5ZM319.083 245.5H330.068V243.5H319.083V245.5ZM341.053 245.5H352.038V243.5H341.053V245.5ZM363.023 245.5H374.008V243.5H363.023V245.5ZM384.993 245.5H395.977V243.5H384.993V245.5ZM406.962 245.5H417.947V243.5H406.962V245.5ZM428.932 245.5H439.917V243.5H428.932V245.5ZM450.902 245.5H461.887V243.5H450.902V245.5ZM472.871 245.5H483.856V243.5H472.871V245.5ZM494.841 245.5H505.826V243.5H494.841V245.5ZM516.811 245.5H527.796V243.5H516.811V245.5ZM538.781 245.5H549.766V243.5H538.781V245.5ZM560.75 245.5H571.735V243.5H560.75V245.5ZM582.72 245.5H593.705V243.5H582.72V245.5ZM604.69 245.5H615.675V243.5H604.69V245.5ZM626.66 245.5H637.644V243.5H626.66V245.5ZM648.629 245.5H659.614V243.5H648.629V245.5ZM670.599 245.5H681.584V243.5H670.599V245.5ZM692.569 245.5H703.554V243.5H692.569V245.5ZM714.538 245.5H725.523V243.5H714.538V245.5ZM736.508 245.5H742V243.5H736.508V245.5ZM743 244.5V238.8H741V244.5H743ZM743 227.4V216H741V227.4H743ZM743 204.6V193.2H741V204.6H743ZM743 181.8V170.4H741V181.8H743ZM743 159V147.6H741V159H743ZM743 136.2V124.8H741V136.2H743ZM743 113.4V102H741V113.4H743ZM743 90.6V79.2H741V90.6H743ZM743 67.8V56.4H741V67.8H743ZM743 45V33.6H741V45H743ZM743 22.2V16.5H741V22.2H743Z" fill="#BEBEBE"/>
<circle cx="742" cy="17.5" r="16.5" fill="white" stroke="#FF8470" stroke-width="1.5"/>
<circle cx="742" cy="17.4999" r="9.16667" fill="#FF8470" stroke="white" stroke-width="2"/>
<circle cx="17.5" cy="466.5" r="16.5" fill="white" stroke="#FF8470" stroke-width="1.5"/>
<circle cx="17.5002" cy="466.5" r="9.16667" fill="#FF8470" stroke="white" stroke-width="2"/>
</svg>
