<svg width="759" height="557" viewBox="0 0 759 557" fill="none" xmlns="http://www.w3.org/2000/svg">
<path d="M742 302.765H743V301.765H742V302.765ZM17 302.765H16V303.765H17V302.765ZM16 11.707C16 12.2593 16.4477 12.707 17 12.707C17.5523 12.707 18 12.2593 18 11.707H16ZM18 23.121C18 22.5688 17.5523 22.121 17 22.121C16.4477 22.121 16 22.5688 16 23.121H18ZM16 34.5351C16 35.0874 16.4477 35.5351 17 35.5351C17.5523 35.5351 18 35.0874 18 34.5351H16ZM18 45.9491C18 45.3968 17.5523 44.9491 17 44.9491C16.4477 44.9491 16 45.3968 16 45.9491H18ZM16 57.3631C16 57.9154 16.4477 58.3631 17 58.3631C17.5523 58.3631 18 57.9154 18 57.3631H16ZM18 68.7772C18 68.2249 17.5523 67.7772 17 67.7772C16.4477 67.7772 16 68.2249 16 68.7772H18ZM16 80.1912C16 80.7435 16.4477 81.1912 17 81.1912C17.5523 81.1912 18 80.7435 18 80.1912H16ZM18 91.6052C18 91.053 17.5523 90.6052 17 90.6052C16.4477 90.6052 16 91.053 16 91.6052H18ZM16 103.019C16 103.572 16.4477 104.019 17 104.019C17.5523 104.019 18 103.572 18 103.019H16ZM18 114.433C18 113.881 17.5523 113.433 17 113.433C16.4477 113.433 16 113.881 16 114.433H18ZM16 125.847C16 126.4 16.4477 126.847 17 126.847C17.5523 126.847 18 126.4 18 125.847H16ZM18 137.261C18 136.709 17.5523 136.261 17 136.261C16.4477 136.261 16 136.709 16 137.261H18ZM16 148.675C16 149.228 16.4477 149.675 17 149.675C17.5523 149.675 18 149.228 18 148.675H16ZM18 160.089C18 159.537 17.5523 159.089 17 159.089C16.4477 159.089 16 159.537 16 160.089H18ZM16 171.503C16 172.056 16.4477 172.503 17 172.503C17.5523 172.503 18 172.056 18 171.503H16ZM18 182.917C18 182.365 17.5523 181.917 17 181.917C16.4477 181.917 16 182.365 16 182.917H18ZM16 194.332C16 194.884 16.4477 195.332 17 195.332C17.5523 195.332 18 194.884 18 194.332H16ZM18 205.746C18 205.193 17.5523 204.746 17 204.746C16.4477 204.746 16 205.193 16 205.746H18ZM16 217.16C16 217.712 16.4477 218.16 17 218.16C17.5523 218.16 18 217.712 18 217.16H16ZM18 228.574C18 228.021 17.5523 227.574 17 227.574C16.4477 227.574 16 228.021 16 228.574H18ZM16 239.988C16 240.54 16.4477 240.988 17 240.988C17.5523 240.988 18 240.54 18 239.988H16ZM18 251.402C18 250.849 17.5523 250.402 17 250.402C16.4477 250.402 16 250.849 16 251.402H18ZM16 262.816C16 263.368 16.4477 263.816 17 263.816C17.5523 263.816 18 263.368 18 262.816H16ZM18 274.23C18 273.677 17.5523 273.23 17 273.23C16.4477 273.23 16 273.677 16 274.23H18ZM16 285.644C16 286.196 16.4477 286.644 17 286.644C17.5523 286.644 18 286.196 18 285.644H16ZM18 297.058C18 296.506 17.5523 296.058 17 296.058C16.4477 296.058 16 296.506 16 297.058H18ZM22.4924 303.765C23.0447 303.765 23.4924 303.317 23.4924 302.765C23.4924 302.213 23.0447 301.765 22.4924 301.765V303.765ZM33.4773 301.765C32.925 301.765 32.4773 302.213 32.4773 302.765C32.4773 303.317 32.925 303.765 33.4773 303.765V301.765ZM44.4621 303.765C45.0144 303.765 45.4621 303.317 45.4621 302.765C45.4621 302.213 45.0144 301.765 44.4621 301.765V303.765ZM55.447 301.765C54.8947 301.765 54.447 302.213 54.447 302.765C54.447 303.317 54.8947 303.765 55.447 303.765V301.765ZM66.4318 303.765C66.9841 303.765 67.4318 303.317 67.4318 302.765C67.4318 302.213 66.9841 301.765 66.4318 301.765V303.765ZM77.4167 301.765C76.8644 301.765 76.4167 302.213 76.4167 302.765C76.4167 303.317 76.8644 303.765 77.4167 303.765V301.765ZM88.4015 303.765C88.9538 303.765 89.4015 303.317 89.4015 302.765C89.4015 302.213 88.9538 301.765 88.4015 301.765V303.765ZM99.3864 301.765C98.8341 301.765 98.3864 302.213 98.3864 302.765C98.3864 303.317 98.8341 303.765 99.3864 303.765V301.765ZM110.371 303.765C110.923 303.765 111.371 303.317 111.371 302.765C111.371 302.213 110.923 301.765 110.371 301.765V303.765ZM121.356 301.765C120.804 301.765 120.356 302.213 120.356 302.765C120.356 303.317 120.804 303.765 121.356 303.765V301.765ZM132.341 303.765C132.893 303.765 133.341 303.317 133.341 302.765C133.341 302.213 132.893 301.765 132.341 301.765V303.765ZM143.326 301.765C142.773 301.765 142.326 302.213 142.326 302.765C142.326 303.317 142.773 303.765 143.326 303.765V301.765ZM154.311 303.765C154.863 303.765 155.311 303.317 155.311 302.765C155.311 302.213 154.863 301.765 154.311 301.765V303.765ZM165.295 301.765C164.743 301.765 164.295 302.213 164.295 302.765C164.295 303.317 164.743 303.765 165.295 303.765V301.765ZM176.28 303.765C176.833 303.765 177.28 303.317 177.28 302.765C177.28 302.213 176.833 301.765 176.28 301.765V303.765ZM187.265 301.765C186.713 301.765 186.265 302.213 186.265 302.765C186.265 303.317 186.713 303.765 187.265 303.765V301.765ZM198.25 303.765C198.802 303.765 199.25 303.317 199.25 302.765C199.25 302.213 198.802 301.765 198.25 301.765V303.765ZM209.235 301.765C208.683 301.765 208.235 302.213 208.235 302.765C208.235 303.317 208.683 303.765 209.235 303.765V301.765ZM220.22 303.765C220.772 303.765 221.22 303.317 221.22 302.765C221.22 302.213 220.772 301.765 220.22 301.765V303.765ZM231.205 301.765C230.652 301.765 230.205 302.213 230.205 302.765C230.205 303.317 230.652 303.765 231.205 303.765V301.765ZM242.189 303.765C242.742 303.765 243.189 303.317 243.189 302.765C243.189 302.213 242.742 301.765 242.189 301.765V303.765ZM253.174 301.765C252.622 301.765 252.174 302.213 252.174 302.765C252.174 303.317 252.622 303.765 253.174 303.765V301.765ZM264.159 303.765C264.711 303.765 265.159 303.317 265.159 302.765C265.159 302.213 264.711 301.765 264.159 301.765V303.765ZM275.144 301.765C274.592 301.765 274.144 302.213 274.144 302.765C274.144 303.317 274.592 303.765 275.144 303.765V301.765ZM286.129 303.765C286.681 303.765 287.129 303.317 287.129 302.765C287.129 302.213 286.681 301.765 286.129 301.765V303.765ZM297.114 301.765C296.561 301.765 296.114 302.213 296.114 302.765C296.114 303.317 296.561 303.765 297.114 303.765V301.765ZM308.099 303.765C308.651 303.765 309.099 303.317 309.099 302.765C309.099 302.213 308.651 301.765 308.099 301.765V303.765ZM319.083 301.765C318.531 301.765 318.083 302.213 318.083 302.765C318.083 303.317 318.531 303.765 319.083 303.765V301.765ZM330.068 303.765C330.621 303.765 331.068 303.317 331.068 302.765C331.068 302.213 330.621 301.765 330.068 301.765V303.765ZM341.053 301.765C340.501 301.765 340.053 302.213 340.053 302.765C340.053 303.317 340.501 303.765 341.053 303.765V301.765ZM352.038 303.765C352.59 303.765 353.038 303.317 353.038 302.765C353.038 302.213 352.59 301.765 352.038 301.765V303.765ZM363.023 301.765C362.471 301.765 362.023 302.213 362.023 302.765C362.023 303.317 362.471 303.765 363.023 303.765V301.765ZM374.008 303.765C374.56 303.765 375.008 303.317 375.008 302.765C375.008 302.213 374.56 301.765 374.008 301.765V303.765ZM384.993 301.765C384.44 301.765 383.993 302.213 383.993 302.765C383.993 303.317 384.44 303.765 384.993 303.765V301.765ZM395.977 303.765C396.53 303.765 396.977 303.317 396.977 302.765C396.977 302.213 396.53 301.765 395.977 301.765V303.765ZM406.962 301.765C406.41 301.765 405.962 302.213 405.962 302.765C405.962 303.317 406.41 303.765 406.962 303.765V301.765ZM417.947 303.765C418.499 303.765 418.947 303.317 418.947 302.765C418.947 302.213 418.499 301.765 417.947 301.765V303.765ZM428.932 301.765C428.38 301.765 427.932 302.213 427.932 302.765C427.932 303.317 428.38 303.765 428.932 303.765V301.765ZM439.917 303.765C440.469 303.765 440.917 303.317 440.917 302.765C440.917 302.213 440.469 301.765 439.917 301.765V303.765ZM450.902 301.765C450.349 301.765 449.902 302.213 449.902 302.765C449.902 303.317 450.349 303.765 450.902 303.765V301.765ZM461.887 303.765C462.439 303.765 462.887 303.317 462.887 302.765C462.887 302.213 462.439 301.765 461.887 301.765V303.765ZM472.871 301.765C472.319 301.765 471.871 302.213 471.871 302.765C471.871 303.317 472.319 303.765 472.871 303.765V301.765ZM483.856 303.765C484.409 303.765 484.856 303.317 484.856 302.765C484.856 302.213 484.409 301.765 483.856 301.765V303.765ZM494.841 301.765C494.289 301.765 493.841 302.213 493.841 302.765C493.841 303.317 494.289 303.765 494.841 303.765V301.765ZM505.826 303.765C506.378 303.765 506.826 303.317 506.826 302.765C506.826 302.213 506.378 301.765 505.826 301.765V303.765ZM516.811 301.765C516.259 301.765 515.811 302.213 515.811 302.765C515.811 303.317 516.259 303.765 516.811 303.765V301.765ZM527.796 303.765C528.348 303.765 528.796 303.317 528.796 302.765C528.796 302.213 528.348 301.765 527.796 301.765V303.765ZM538.781 301.765C538.228 301.765 537.781 302.213 537.781 302.765C537.781 303.317 538.228 303.765 538.781 303.765V301.765ZM549.766 303.765C550.318 303.765 550.766 303.317 550.766 302.765C550.766 302.213 550.318 301.765 549.766 301.765V303.765ZM560.75 301.765C560.198 301.765 559.75 302.213 559.75 302.765C559.75 303.317 560.198 303.765 560.75 303.765V301.765ZM571.735 303.765C572.288 303.765 572.735 303.317 572.735 302.765C572.735 302.213 572.288 301.765 571.735 301.765V303.765ZM582.72 301.765C582.168 301.765 581.72 302.213 581.72 302.765C581.72 303.317 582.168 303.765 582.72 303.765V301.765ZM593.705 303.765C594.257 303.765 594.705 303.317 594.705 302.765C594.705 302.213 594.257 301.765 593.705 301.765V303.765ZM604.69 301.765C604.138 301.765 603.69 302.213 603.69 302.765C603.69 303.317 604.138 303.765 604.69 303.765V301.765ZM615.675 303.765C616.227 303.765 616.675 303.317 616.675 302.765C616.675 302.213 616.227 301.765 615.675 301.765V303.765ZM626.66 301.765C626.107 301.765 625.66 302.213 625.66 302.765C625.66 303.317 626.107 303.765 626.66 303.765V301.765ZM637.644 303.765C638.197 303.765 638.644 303.317 638.644 302.765C638.644 302.213 638.197 301.765 637.644 301.765V303.765ZM648.629 301.765C648.077 301.765 647.629 302.213 647.629 302.765C647.629 303.317 648.077 303.765 648.629 303.765V301.765ZM659.614 303.765C660.166 303.765 660.614 303.317 660.614 302.765C660.614 302.213 660.166 301.765 659.614 301.765V303.765ZM670.599 301.765C670.047 301.765 669.599 302.213 669.599 302.765C669.599 303.317 670.047 303.765 670.599 303.765V301.765ZM681.584 303.765C682.136 303.765 682.584 303.317 682.584 302.765C682.584 302.213 682.136 301.765 681.584 301.765V303.765ZM692.569 301.765C692.016 301.765 691.569 302.213 691.569 302.765C691.569 303.317 692.016 303.765 692.569 303.765V301.765ZM703.554 303.765C704.106 303.765 704.554 303.317 704.554 302.765C704.554 302.213 704.106 301.765 703.554 301.765V303.765ZM714.538 301.765C713.986 301.765 713.538 302.213 713.538 302.765C713.538 303.317 713.986 303.765 714.538 303.765V301.765ZM725.523 303.765C726.076 303.765 726.523 303.317 726.523 302.765C726.523 302.213 726.076 301.765 725.523 301.765V303.765ZM736.508 301.765C735.956 301.765 735.508 302.213 735.508 302.765C735.508 303.317 735.956 303.765 736.508 303.765V301.765ZM741 308.221C741 308.773 741.448 309.221 742 309.221C742.552 309.221 743 308.773 743 308.221H741ZM743 319.132C743 318.58 742.552 318.132 742 318.132C741.448 318.132 741 318.58 741 319.132H743ZM741 330.044C741 330.597 741.448 331.044 742 331.044C742.552 331.044 743 330.597 743 330.044H741ZM743 340.956C743 340.404 742.552 339.956 742 339.956C741.448 339.956 741 340.404 741 340.956H743ZM741 351.868C741 352.42 741.448 352.868 742 352.868C742.552 352.868 743 352.42 743 351.868H741ZM743 362.78C743 362.227 742.552 361.78 742 361.78C741.448 361.78 741 362.227 741 362.78H743ZM741 373.691C741 374.244 741.448 374.691 742 374.691C742.552 374.691 743 374.244 743 373.691H741ZM743 384.603C743 384.051 742.552 383.603 742 383.603C741.448 383.603 741 384.051 741 384.603H743ZM741 395.515C741 396.067 741.448 396.515 742 396.515C742.552 396.515 743 396.067 743 395.515H741ZM743 406.427C743 405.874 742.552 405.427 742 405.427C741.448 405.427 741 405.874 741 406.427H743ZM741 417.338C741 417.891 741.448 418.338 742 418.338C742.552 418.338 743 417.891 743 417.338H741ZM743 428.25C743 427.698 742.552 427.25 742 427.25C741.448 427.25 741 427.698 741 428.25H743ZM741 439.162C741 439.714 741.448 440.162 742 440.162C742.552 440.162 743 439.714 743 439.162H741ZM743 450.074C743 449.521 742.552 449.074 742 449.074C741.448 449.074 741 449.521 741 450.074H743ZM741 460.985C741 461.538 741.448 461.985 742 461.985C742.552 461.985 743 461.538 743 460.985H741ZM743 471.897C743 471.345 742.552 470.897 742 470.897C741.448 470.897 741 471.345 741 471.897H743ZM741 482.809C741 483.361 741.448 483.809 742 483.809C742.552 483.809 743 483.361 743 482.809H741ZM743 493.721C743 493.168 742.552 492.721 742 492.721C741.448 492.721 741 493.168 741 493.721H743ZM741 504.632C741 505.185 741.448 505.632 742 505.632C742.552 505.632 743 505.185 743 504.632H741ZM743 515.544C743 514.992 742.552 514.544 742 514.544C741.448 514.544 741 514.992 741 515.544H743ZM16 6V11.707H18V6H16ZM16 23.121V34.5351H18V23.121H16ZM16 45.9491V57.3631H18V45.9491H16ZM16 68.7772V80.1912H18V68.7772H16ZM16 91.6052V103.019H18V91.6052H16ZM16 114.433V125.847H18V114.433H16ZM16 137.261V148.675H18V137.261H16ZM16 160.089V171.503H18V160.089H16ZM16 182.917V194.332H18V182.917H16ZM16 205.746V217.16H18V205.746H16ZM16 228.574V239.988H18V228.574H16ZM16 251.402V262.816H18V251.402H16ZM16 274.23V285.644H18V274.23H16ZM16 297.058V302.765H18V297.058H16ZM17 303.765H22.4924V301.765H17V303.765ZM33.4773 303.765H44.4621V301.765H33.4773V303.765ZM55.447 303.765H66.4318V301.765H55.447V303.765ZM77.4167 303.765H88.4015V301.765H77.4167V303.765ZM99.3864 303.765H110.371V301.765H99.3864V303.765ZM121.356 303.765H132.341V301.765H121.356V303.765ZM143.326 303.765H154.311V301.765H143.326V303.765ZM165.295 303.765H176.28V301.765H165.295V303.765ZM187.265 303.765H198.25V301.765H187.265V303.765ZM209.235 303.765H220.22V301.765H209.235V303.765ZM231.205 303.765H242.189V301.765H231.205V303.765ZM253.174 303.765H264.159V301.765H253.174V303.765ZM275.144 303.765H286.129V301.765H275.144V303.765ZM297.114 303.765H308.099V301.765H297.114V303.765ZM319.083 303.765H330.068V301.765H319.083V303.765ZM341.053 303.765H352.038V301.765H341.053V303.765ZM363.023 303.765H374.008V301.765H363.023V303.765ZM384.993 303.765H395.977V301.765H384.993V303.765ZM406.962 303.765H417.947V301.765H406.962V303.765ZM428.932 303.765H439.917V301.765H428.932V303.765ZM450.902 303.765H461.887V301.765H450.902V303.765ZM472.871 303.765H483.856V301.765H472.871V303.765ZM494.841 303.765H505.826V301.765H494.841V303.765ZM516.811 303.765H527.796V301.765H516.811V303.765ZM538.781 303.765H549.766V301.765H538.781V303.765ZM560.75 303.765H571.735V301.765H560.75V303.765ZM582.72 303.765H593.705V301.765H582.72V303.765ZM604.69 303.765H615.675V301.765H604.69V303.765ZM626.66 303.765H637.644V301.765H626.66V303.765ZM648.629 303.765H659.614V301.765H648.629V303.765ZM670.599 303.765H681.584V301.765H670.599V303.765ZM692.569 303.765H703.554V301.765H692.569V303.765ZM714.538 303.765H725.523V301.765H714.538V303.765ZM736.508 303.765H742V301.765H736.508V303.765ZM741 302.765V308.221H743V302.765H741ZM741 319.132V330.044H743V319.132H741ZM741 340.956V351.868H743V340.956H741ZM741 362.78V373.691H743V362.78H741ZM741 384.603V395.515H743V384.603H741ZM741 406.427V417.338H743V406.427H741ZM741 428.25V439.162H743V428.25H741ZM741 450.074V460.985H743V450.074H741ZM741 471.897V482.809H743V471.897H741ZM741 493.721V504.632H743V493.721H741ZM741 515.544V521H743V515.544H741Z" fill="#BEBEBE"/>
<circle cx="17.5" cy="17.5" r="16.5" fill="white" stroke="#FF8470" stroke-width="1.5"/>
<circle cx="17.5002" cy="17.4999" r="9.16667" fill="#FF8470" stroke="white" stroke-width="2"/>
<circle cx="741.5" cy="539.5" r="16.5" fill="white" stroke="#FF8470" stroke-width="1.5"/>
<circle cx="741.5" cy="539.5" r="9.16667" fill="#FF8470" stroke="white" stroke-width="2"/>
</svg>
