<svg width="421" height="124" viewBox="0 0 421 124" fill="none" xmlns="http://www.w3.org/2000/svg">
<path d="M96 107L421 107" stroke="#B7CDFF" stroke-width="26"/>
<path d="M1.26 31.4C1.26 28.928 1.812 26.72 2.916 24.776C4.044 22.808 5.568 21.284 7.488 20.204C9.432 19.1 11.604 18.548 14.004 18.548C16.812 18.548 19.272 19.268 21.384 20.708C23.496 22.148 24.972 24.14 25.812 26.684H20.016C19.44 25.484 18.624 24.584 17.568 23.984C16.536 23.384 15.336 23.084 13.968 23.084C12.504 23.084 11.196 23.432 10.044 24.128C8.916 24.8 8.028 25.76 7.38 27.008C6.756 28.256 6.444 29.72 6.444 31.4C6.444 33.056 6.756 34.52 7.38 35.792C8.028 37.04 8.916 38.012 10.044 38.708C11.196 39.38 12.504 39.716 13.968 39.716C15.336 39.716 16.536 39.416 17.568 38.816C18.624 38.192 19.44 37.28 20.016 36.08H25.812C24.972 38.648 23.496 40.652 21.384 42.092C19.296 43.508 16.836 44.216 14.004 44.216C11.604 44.216 9.432 43.676 7.488 42.596C5.568 41.492 4.044 39.968 2.916 38.024C1.812 36.08 1.26 33.872 1.26 31.4ZM43.0768 44L37.5328 34.208H35.1568V44H30.1168V18.872H39.5488C41.4928 18.872 43.1488 19.22 44.5168 19.916C45.8848 20.588 46.9048 21.512 47.5768 22.688C48.2728 23.84 48.6208 25.136 48.6208 26.576C48.6208 28.232 48.1408 29.732 47.1808 31.076C46.2208 32.396 44.7928 33.308 42.8968 33.812L48.9088 44H43.0768ZM35.1568 30.428H39.3688C40.7368 30.428 41.7568 30.104 42.4288 29.456C43.1008 28.784 43.4368 27.86 43.4368 26.684C43.4368 25.532 43.1008 24.644 42.4288 24.02C41.7568 23.372 40.7368 23.048 39.3688 23.048H35.1568V30.428ZM80.5753 18.872V44H75.5353V27.656L68.8033 44H64.9873L58.2193 27.656V44H53.1793V18.872H58.9033L66.8953 37.556L74.8873 18.872H80.5753ZM102.812 44.252C101.06 44.252 99.4763 43.952 98.0603 43.352C96.6683 42.752 95.5643 41.888 94.7483 40.76C93.9323 39.632 93.5123 38.3 93.4883 36.764H98.8883C98.9603 37.796 99.3203 38.612 99.9683 39.212C100.64 39.812 101.552 40.112 102.704 40.112C103.88 40.112 104.804 39.836 105.476 39.284C106.148 38.708 106.484 37.964 106.484 37.052C106.484 36.308 106.256 35.696 105.8 35.216C105.344 34.736 104.768 34.364 104.072 34.1C103.4 33.812 102.464 33.5 101.264 33.164C99.6323 32.684 98.3003 32.216 97.2683 31.76C96.2603 31.28 95.3843 30.572 94.6403 29.636C93.9203 28.676 93.5603 27.404 93.5603 25.82C93.5603 24.332 93.9323 23.036 94.6763 21.932C95.4203 20.828 96.4643 19.988 97.8083 19.412C99.1523 18.812 100.688 18.512 102.416 18.512C105.008 18.512 107.108 19.148 108.716 20.42C110.348 21.668 111.248 23.42 111.416 25.676H105.872C105.824 24.812 105.452 24.104 104.756 23.552C104.084 22.976 103.184 22.688 102.056 22.688C101.072 22.688 100.28 22.94 99.6803 23.444C99.1043 23.948 98.8163 24.68 98.8163 25.64C98.8163 26.312 99.0323 26.876 99.4643 27.332C99.9203 27.764 100.472 28.124 101.12 28.412C101.792 28.676 102.728 28.988 103.928 29.348C105.56 29.828 106.892 30.308 107.924 30.788C108.956 31.268 109.844 31.988 110.588 32.948C111.332 33.908 111.704 35.168 111.704 36.728C111.704 38.072 111.356 39.32 110.66 40.472C109.964 41.624 108.944 42.548 107.6 43.244C106.256 43.916 104.66 44.252 102.812 44.252ZM124.93 44.324C123.01 44.324 121.282 43.904 119.746 43.064C118.21 42.2 116.998 40.988 116.11 39.428C115.246 37.868 114.814 36.068 114.814 34.028C114.814 31.988 115.258 30.188 116.146 28.628C117.058 27.068 118.294 25.868 119.854 25.028C121.414 24.164 123.154 23.732 125.074 23.732C126.994 23.732 128.734 24.164 130.294 25.028C131.854 25.868 133.078 27.068 133.966 28.628C134.878 30.188 135.334 31.988 135.334 34.028C135.334 36.068 134.866 37.868 133.93 39.428C133.018 40.988 131.77 42.2 130.186 43.064C128.626 43.904 126.874 44.324 124.93 44.324ZM124.93 39.932C125.842 39.932 126.694 39.716 127.486 39.284C128.302 38.828 128.95 38.156 129.43 37.268C129.91 36.38 130.15 35.3 130.15 34.028C130.15 32.132 129.646 30.68 128.638 29.672C127.654 28.64 126.442 28.124 125.002 28.124C123.562 28.124 122.35 28.64 121.366 29.672C120.406 30.68 119.926 32.132 119.926 34.028C119.926 35.924 120.394 37.388 121.33 38.42C122.29 39.428 123.49 39.932 124.93 39.932ZM144.071 17.36V44H139.031V17.36H144.071ZM167.878 24.056V44H162.802V41.48C162.154 42.344 161.302 43.028 160.246 43.532C159.214 44.012 158.086 44.252 156.862 44.252C155.302 44.252 153.922 43.928 152.722 43.28C151.522 42.608 150.574 41.636 149.878 40.364C149.206 39.068 148.87 37.532 148.87 35.756V24.056H153.91V35.036C153.91 36.62 154.306 37.844 155.098 38.708C155.89 39.548 156.97 39.968 158.338 39.968C159.73 39.968 160.822 39.548 161.614 38.708C162.406 37.844 162.802 36.62 162.802 35.036V24.056H167.878ZM178.719 28.196V37.844C178.719 38.516 178.875 39.008 179.187 39.32C179.523 39.608 180.075 39.752 180.843 39.752H183.183V44H180.015C175.767 44 173.643 41.936 173.643 37.808V28.196H171.267V24.056H173.643V19.124H178.719V24.056H183.183V28.196H178.719ZM189.364 21.68C188.476 21.68 187.732 21.404 187.132 20.852C186.556 20.276 186.268 19.568 186.268 18.728C186.268 17.888 186.556 17.192 187.132 16.64C187.732 16.064 188.476 15.776 189.364 15.776C190.252 15.776 190.984 16.064 191.56 16.64C192.16 17.192 192.46 17.888 192.46 18.728C192.46 19.568 192.16 20.276 191.56 20.852C190.984 21.404 190.252 21.68 189.364 21.68ZM191.848 24.056V44H186.808V24.056H191.848ZM205.684 44.324C203.764 44.324 202.036 43.904 200.5 43.064C198.964 42.2 197.752 40.988 196.864 39.428C196 37.868 195.568 36.068 195.568 34.028C195.568 31.988 196.012 30.188 196.9 28.628C197.812 27.068 199.048 25.868 200.608 25.028C202.168 24.164 203.908 23.732 205.828 23.732C207.748 23.732 209.488 24.164 211.048 25.028C212.608 25.868 213.832 27.068 214.72 28.628C215.632 30.188 216.088 31.988 216.088 34.028C216.088 36.068 215.62 37.868 214.684 39.428C213.772 40.988 212.524 42.2 210.94 43.064C209.38 43.904 207.628 44.324 205.684 44.324ZM205.684 39.932C206.596 39.932 207.448 39.716 208.24 39.284C209.056 38.828 209.704 38.156 210.184 37.268C210.664 36.38 210.904 35.3 210.904 34.028C210.904 32.132 210.4 30.68 209.392 29.672C208.408 28.64 207.196 28.124 205.756 28.124C204.316 28.124 203.104 28.64 202.12 29.672C201.16 30.68 200.68 32.132 200.68 34.028C200.68 35.924 201.148 37.388 202.084 38.42C203.044 39.428 204.244 39.932 205.684 39.932ZM230.837 23.768C233.213 23.768 235.133 24.524 236.597 26.036C238.061 27.524 238.793 29.612 238.793 32.3V44H233.753V32.984C233.753 31.4 233.357 30.188 232.565 29.348C231.773 28.484 230.693 28.052 229.325 28.052C227.933 28.052 226.829 28.484 226.013 29.348C225.221 30.188 224.825 31.4 224.825 32.984V44H219.785V24.056H224.825V26.54C225.497 25.676 226.349 25.004 227.381 24.524C228.437 24.02 229.589 23.768 230.837 23.768ZM265.664 9.908L255.944 50.516H251.012L260.732 9.908H265.664ZM29.88 80.872V106H24.84V89.656L18.108 106H14.292L7.524 89.656V106H2.484V80.872H8.208L16.2 99.556L24.192 80.872H29.88ZM33.5669 95.956C33.5669 93.94 33.9629 92.152 34.7549 90.592C35.5709 89.032 36.6629 87.832 38.0309 86.992C39.4229 86.152 40.9709 85.732 42.6749 85.732C44.1629 85.732 45.4589 86.032 46.5629 86.632C47.6909 87.232 48.5909 87.988 49.2629 88.9V86.056H54.3389V106H49.2629V103.084C48.6149 104.02 47.7149 104.8 46.5629 105.424C45.4349 106.024 44.1269 106.324 42.6389 106.324C40.9589 106.324 39.4229 105.892 38.0309 105.028C36.6629 104.164 35.5709 102.952 34.7549 101.392C33.9629 99.808 33.5669 97.996 33.5669 95.956ZM49.2629 96.028C49.2629 94.804 49.0229 93.76 48.5429 92.896C48.0629 92.008 47.4149 91.336 46.5989 90.88C45.7829 90.4 44.9069 90.16 43.9709 90.16C43.0349 90.16 42.1709 90.388 41.3789 90.844C40.5869 91.3 39.9389 91.972 39.4349 92.86C38.9549 93.724 38.7149 94.756 38.7149 95.956C38.7149 97.156 38.9549 98.212 39.4349 99.124C39.9389 100.012 40.5869 100.696 41.3789 101.176C42.1949 101.656 43.0589 101.896 43.9709 101.896C44.9069 101.896 45.7829 101.668 46.5989 101.212C47.4149 100.732 48.0629 100.06 48.5429 99.196C49.0229 98.308 49.2629 97.252 49.2629 96.028ZM64.3013 89.152C64.9493 88.096 65.7893 87.268 66.8213 86.668C67.8773 86.068 69.0773 85.768 70.4213 85.768V91.06H69.0893C67.5053 91.06 66.3053 91.432 65.4893 92.176C64.6973 92.92 64.3013 94.216 64.3013 96.064V106H59.2613V86.056H64.3013V89.152ZM85.624 106L78.856 97.504V106H73.816V79.36H78.856V94.516L85.552 86.056H92.104L83.32 96.064L92.176 106H85.624ZM113.379 95.596C113.379 96.316 113.331 96.964 113.235 97.54H98.6555C98.7755 98.98 99.2795 100.108 100.167 100.924C101.055 101.74 102.147 102.148 103.443 102.148C105.315 102.148 106.647 101.344 107.439 99.736H112.875C112.299 101.656 111.195 103.24 109.563 104.488C107.931 105.712 105.927 106.324 103.551 106.324C101.631 106.324 99.9035 105.904 98.3675 105.064C96.8555 104.2 95.6675 102.988 94.8035 101.428C93.9635 99.868 93.5435 98.068 93.5435 96.028C93.5435 93.964 93.9635 92.152 94.8035 90.592C95.6435 89.032 96.8195 87.832 98.3315 86.992C99.8435 86.152 101.583 85.732 103.551 85.732C105.447 85.732 107.139 86.14 108.627 86.956C110.139 87.772 111.303 88.936 112.119 90.448C112.959 91.936 113.379 93.652 113.379 95.596ZM108.159 94.156C108.135 92.86 107.667 91.828 106.755 91.06C105.843 90.268 104.727 89.872 103.407 89.872C102.159 89.872 101.103 90.256 100.239 91.024C99.3995 91.768 98.8835 92.812 98.6915 94.156H108.159ZM122.926 90.196V99.844C122.926 100.516 123.082 101.008 123.394 101.32C123.73 101.608 124.282 101.752 125.05 101.752H127.39V106H124.222C119.974 106 117.85 103.936 117.85 99.808V90.196H115.474V86.056H117.85V81.124H122.926V86.056H127.39V90.196H122.926ZM133.571 83.68C132.683 83.68 131.939 83.404 131.339 82.852C130.763 82.276 130.475 81.568 130.475 80.728C130.475 79.888 130.763 79.192 131.339 78.64C131.939 78.064 132.683 77.776 133.571 77.776C134.459 77.776 135.191 78.064 135.767 78.64C136.367 79.192 136.667 79.888 136.667 80.728C136.667 81.568 136.367 82.276 135.767 82.852C135.191 83.404 134.459 83.68 133.571 83.68ZM136.055 86.056V106H131.015V86.056H136.055ZM152.087 85.768C154.463 85.768 156.383 86.524 157.847 88.036C159.311 89.524 160.043 91.612 160.043 94.3V106H155.003V94.984C155.003 93.4 154.607 92.188 153.815 91.348C153.023 90.484 151.943 90.052 150.575 90.052C149.183 90.052 148.079 90.484 147.263 91.348C146.471 92.188 146.075 93.4 146.075 94.984V106H141.035V86.056H146.075V88.54C146.747 87.676 147.599 87.004 148.631 86.524C149.687 86.02 150.839 85.768 152.087 85.768ZM172.648 85.732C174.136 85.732 175.444 86.032 176.572 86.632C177.7 87.208 178.588 87.964 179.236 88.9V86.056H184.312V106.144C184.312 107.992 183.94 109.636 183.196 111.076C182.452 112.54 181.336 113.692 179.848 114.532C178.36 115.396 176.56 115.828 174.448 115.828C171.616 115.828 169.288 115.168 167.464 113.848C165.664 112.528 164.644 110.728 164.404 108.448H169.408C169.672 109.36 170.236 110.08 171.1 110.608C171.988 111.16 173.056 111.436 174.304 111.436C175.768 111.436 176.956 110.992 177.868 110.104C178.78 109.24 179.236 107.92 179.236 106.144V103.048C178.588 103.984 177.688 104.764 176.536 105.388C175.408 106.012 174.112 106.324 172.648 106.324C170.968 106.324 169.432 105.892 168.04 105.028C166.648 104.164 165.544 102.952 164.728 101.392C163.936 99.808 163.54 97.996 163.54 95.956C163.54 93.94 163.936 92.152 164.728 90.592C165.544 89.032 166.636 87.832 168.004 86.992C169.396 86.152 170.944 85.732 172.648 85.732ZM179.236 96.028C179.236 94.804 178.996 93.76 178.516 92.896C178.036 92.008 177.388 91.336 176.572 90.88C175.756 90.4 174.88 90.16 173.944 90.16C173.008 90.16 172.144 90.388 171.352 90.844C170.56 91.3 169.912 91.972 169.408 92.86C168.928 93.724 168.688 94.756 168.688 95.956C168.688 97.156 168.928 98.212 169.408 99.124C169.912 100.012 170.56 100.696 171.352 101.176C172.168 101.656 173.032 101.896 173.944 101.896C174.88 101.896 175.756 101.668 176.572 101.212C177.388 100.732 178.036 100.06 178.516 99.196C178.996 98.308 179.236 97.252 179.236 96.028ZM213.22 101.212H203.212L201.556 106H196.264L205.3 80.836H211.168L220.204 106H214.876L213.22 101.212ZM211.852 97.18L208.216 86.668L204.58 97.18H211.852ZM242.41 86.056V106H237.334V103.48C236.686 104.344 235.834 105.028 234.778 105.532C233.746 106.012 232.618 106.252 231.394 106.252C229.834 106.252 228.454 105.928 227.254 105.28C226.054 104.608 225.106 103.636 224.41 102.364C223.738 101.068 223.402 99.532 223.402 97.756V86.056H228.442V97.036C228.442 98.62 228.838 99.844 229.63 100.708C230.422 101.548 231.502 101.968 232.87 101.968C234.262 101.968 235.354 101.548 236.146 100.708C236.938 99.844 237.334 98.62 237.334 97.036V86.056H242.41ZM253.25 90.196V99.844C253.25 100.516 253.406 101.008 253.718 101.32C254.054 101.608 254.606 101.752 255.374 101.752H257.714V106H254.546C250.298 106 248.174 103.936 248.174 99.808V90.196H245.798V86.056H248.174V81.124H253.25V86.056H257.714V90.196H253.25ZM270.195 106.324C268.275 106.324 266.547 105.904 265.011 105.064C263.475 104.2 262.263 102.988 261.375 101.428C260.511 99.868 260.079 98.068 260.079 96.028C260.079 93.988 260.523 92.188 261.411 90.628C262.323 89.068 263.559 87.868 265.119 87.028C266.679 86.164 268.419 85.732 270.339 85.732C272.259 85.732 273.999 86.164 275.559 87.028C277.119 87.868 278.343 89.068 279.231 90.628C280.143 92.188 280.599 93.988 280.599 96.028C280.599 98.068 280.131 99.868 279.195 101.428C278.283 102.988 277.035 104.2 275.451 105.064C273.891 105.904 272.139 106.324 270.195 106.324ZM270.195 101.932C271.107 101.932 271.959 101.716 272.751 101.284C273.567 100.828 274.215 100.156 274.695 99.268C275.175 98.38 275.415 97.3 275.415 96.028C275.415 94.132 274.911 92.68 273.903 91.672C272.919 90.64 271.707 90.124 270.267 90.124C268.827 90.124 267.615 90.64 266.631 91.672C265.671 92.68 265.191 94.132 265.191 96.028C265.191 97.924 265.659 99.388 266.595 100.42C267.555 101.428 268.755 101.932 270.195 101.932ZM309.065 85.768C311.513 85.768 313.481 86.524 314.969 88.036C316.481 89.524 317.237 91.612 317.237 94.3V106H312.197V94.984C312.197 93.424 311.801 92.236 311.009 91.42C310.217 90.58 309.137 90.16 307.769 90.16C306.401 90.16 305.309 90.58 304.493 91.42C303.701 92.236 303.305 93.424 303.305 94.984V106H298.265V94.984C298.265 93.424 297.869 92.236 297.077 91.42C296.285 90.58 295.205 90.16 293.837 90.16C292.445 90.16 291.341 90.58 290.525 91.42C289.733 92.236 289.337 93.424 289.337 94.984V106H284.297V86.056H289.337V88.468C289.985 87.628 290.813 86.968 291.821 86.488C292.853 86.008 293.981 85.768 295.205 85.768C296.765 85.768 298.157 86.104 299.381 86.776C300.605 87.424 301.553 88.36 302.225 89.584C302.873 88.432 303.809 87.508 305.033 86.812C306.281 86.116 307.625 85.768 309.065 85.768ZM320.723 95.956C320.723 93.94 321.119 92.152 321.911 90.592C322.727 89.032 323.819 87.832 325.187 86.992C326.579 86.152 328.127 85.732 329.831 85.732C331.319 85.732 332.615 86.032 333.719 86.632C334.847 87.232 335.747 87.988 336.419 88.9V86.056H341.495V106H336.419V103.084C335.771 104.02 334.871 104.8 333.719 105.424C332.591 106.024 331.283 106.324 329.795 106.324C328.115 106.324 326.579 105.892 325.187 105.028C323.819 104.164 322.727 102.952 321.911 101.392C321.119 99.808 320.723 97.996 320.723 95.956ZM336.419 96.028C336.419 94.804 336.179 93.76 335.699 92.896C335.219 92.008 334.571 91.336 333.755 90.88C332.939 90.4 332.063 90.16 331.127 90.16C330.191 90.16 329.327 90.388 328.535 90.844C327.743 91.3 327.095 91.972 326.591 92.86C326.111 93.724 325.871 94.756 325.871 95.956C325.871 97.156 326.111 98.212 326.591 99.124C327.095 100.012 327.743 100.696 328.535 101.176C329.351 101.656 330.215 101.896 331.127 101.896C332.063 101.896 332.939 101.668 333.755 101.212C334.571 100.732 335.219 100.06 335.699 99.196C336.179 98.308 336.419 97.252 336.419 96.028ZM352.286 90.196V99.844C352.286 100.516 352.442 101.008 352.754 101.32C353.09 101.608 353.642 101.752 354.41 101.752H356.75V106H353.582C349.334 106 347.21 103.936 347.21 99.808V90.196H344.834V86.056H347.21V81.124H352.286V86.056H356.75V90.196H352.286ZM362.931 83.68C362.043 83.68 361.299 83.404 360.699 82.852C360.123 82.276 359.835 81.568 359.835 80.728C359.835 79.888 360.123 79.192 360.699 78.64C361.299 78.064 362.043 77.776 362.931 77.776C363.819 77.776 364.551 78.064 365.127 78.64C365.727 79.192 366.027 79.888 366.027 80.728C366.027 81.568 365.727 82.276 365.127 82.852C364.551 83.404 363.819 83.68 362.931 83.68ZM365.415 86.056V106H360.375V86.056H365.415ZM379.25 106.324C377.33 106.324 375.602 105.904 374.066 105.064C372.53 104.2 371.318 102.988 370.43 101.428C369.566 99.868 369.134 98.068 369.134 96.028C369.134 93.988 369.578 92.188 370.466 90.628C371.378 89.068 372.614 87.868 374.174 87.028C375.734 86.164 377.474 85.732 379.394 85.732C381.314 85.732 383.054 86.164 384.614 87.028C386.174 87.868 387.398 89.068 388.286 90.628C389.198 92.188 389.654 93.988 389.654 96.028C389.654 98.068 389.186 99.868 388.25 101.428C387.338 102.988 386.09 104.2 384.506 105.064C382.946 105.904 381.194 106.324 379.25 106.324ZM379.25 101.932C380.162 101.932 381.014 101.716 381.806 101.284C382.622 100.828 383.27 100.156 383.75 99.268C384.23 98.38 384.47 97.3 384.47 96.028C384.47 94.132 383.966 92.68 382.958 91.672C381.974 90.64 380.762 90.124 379.322 90.124C377.882 90.124 376.67 90.64 375.686 91.672C374.726 92.68 374.246 94.132 374.246 96.028C374.246 97.924 374.714 99.388 375.65 100.42C376.61 101.428 377.81 101.932 379.25 101.932ZM404.403 85.768C406.779 85.768 408.699 86.524 410.163 88.036C411.627 89.524 412.359 91.612 412.359 94.3V106H407.319V94.984C407.319 93.4 406.923 92.188 406.131 91.348C405.339 90.484 404.259 90.052 402.891 90.052C401.499 90.052 400.395 90.484 399.579 91.348C398.787 92.188 398.391 93.4 398.391 94.984V106H393.351V86.056H398.391V88.54C399.063 87.676 399.915 87.004 400.947 86.524C402.003 86.02 403.155 85.768 404.403 85.768Z" fill="black"/>
</svg>
