<svg width="473" height="62" viewBox="0 0 473 62" fill="none" xmlns="http://www.w3.org/2000/svg">
<path d="M173 44L473 44" stroke="#B7CDFF" stroke-width="26"/>
<path d="M29.88 18.872V44H24.84V27.656L18.108 44H14.292L7.524 27.656V44H2.484V18.872H8.208L16.2 37.556L24.192 18.872H29.88ZM43.7189 44.324C41.7989 44.324 40.0709 43.904 38.5349 43.064C36.9989 42.2 35.7869 40.988 34.8989 39.428C34.0349 37.868 33.6029 36.068 33.6029 34.028C33.6029 31.988 34.0469 30.188 34.9349 28.628C35.8469 27.068 37.0829 25.868 38.6429 25.028C40.2029 24.164 41.9429 23.732 43.8629 23.732C45.7829 23.732 47.5229 24.164 49.0829 25.028C50.6429 25.868 51.8669 27.068 52.7549 28.628C53.6669 30.188 54.1229 31.988 54.1229 34.028C54.1229 36.068 53.6549 37.868 52.7189 39.428C51.8069 40.988 50.5589 42.2 48.9749 43.064C47.4149 43.904 45.6629 44.324 43.7189 44.324ZM43.7189 39.932C44.6309 39.932 45.4829 39.716 46.2749 39.284C47.0909 38.828 47.7389 38.156 48.2189 37.268C48.6989 36.38 48.9389 35.3 48.9389 34.028C48.9389 32.132 48.4349 30.68 47.4269 29.672C46.4429 28.64 45.2309 28.124 43.7909 28.124C42.3509 28.124 41.1389 28.64 40.1549 29.672C39.1949 30.68 38.7149 32.132 38.7149 34.028C38.7149 35.924 39.1829 37.388 40.1189 38.42C41.0789 39.428 42.2789 39.932 43.7189 39.932ZM62.8599 26.972C63.5079 26.012 64.3959 25.232 65.5239 24.632C66.6759 24.032 67.9839 23.732 69.4479 23.732C71.1519 23.732 72.6879 24.152 74.0559 24.992C75.4479 25.832 76.5399 27.032 77.3319 28.592C78.1479 30.128 78.5559 31.916 78.5559 33.956C78.5559 35.996 78.1479 37.808 77.3319 39.392C76.5399 40.952 75.4479 42.164 74.0559 43.028C72.6879 43.892 71.1519 44.324 69.4479 44.324C67.9599 44.324 66.6519 44.036 65.5239 43.46C64.4199 42.86 63.5319 42.092 62.8599 41.156V44H57.8199V17.36H62.8599V26.972ZM73.4079 33.956C73.4079 32.756 73.1559 31.724 72.6519 30.86C72.1719 29.972 71.5239 29.3 70.7079 28.844C69.9159 28.388 69.0519 28.16 68.1159 28.16C67.2039 28.16 66.3399 28.4 65.5239 28.88C64.7319 29.336 64.0839 30.008 63.5799 30.896C63.0999 31.784 62.8599 32.828 62.8599 34.028C62.8599 35.228 63.0999 36.272 63.5799 37.16C64.0839 38.048 64.7319 38.732 65.5239 39.212C66.3399 39.668 67.2039 39.896 68.1159 39.896C69.0519 39.896 69.9159 39.656 70.7079 39.176C71.5239 38.696 72.1719 38.012 72.6519 37.124C73.1559 36.236 73.4079 35.18 73.4079 33.956ZM84.7744 21.68C83.8864 21.68 83.1424 21.404 82.5424 20.852C81.9664 20.276 81.6784 19.568 81.6784 18.728C81.6784 17.888 81.9664 17.192 82.5424 16.64C83.1424 16.064 83.8864 15.776 84.7744 15.776C85.6624 15.776 86.3944 16.064 86.9704 16.64C87.5704 17.192 87.8704 17.888 87.8704 18.728C87.8704 19.568 87.5704 20.276 86.9704 20.852C86.3944 21.404 85.6624 21.68 84.7744 21.68ZM87.2584 24.056V44H82.2184V24.056H87.2584ZM97.2779 17.36V44H92.2379V17.36H97.2779ZM120.797 33.596C120.797 34.316 120.749 34.964 120.653 35.54H106.073C106.193 36.98 106.697 38.108 107.585 38.924C108.473 39.74 109.565 40.148 110.861 40.148C112.733 40.148 114.065 39.344 114.857 37.736H120.293C119.717 39.656 118.613 41.24 116.981 42.488C115.349 43.712 113.345 44.324 110.969 44.324C109.049 44.324 107.321 43.904 105.785 43.064C104.273 42.2 103.085 40.988 102.221 39.428C101.381 37.868 100.961 36.068 100.961 34.028C100.961 31.964 101.381 30.152 102.221 28.592C103.061 27.032 104.237 25.832 105.749 24.992C107.261 24.152 109.001 23.732 110.969 23.732C112.865 23.732 114.557 24.14 116.045 24.956C117.557 25.772 118.721 26.936 119.537 28.448C120.377 29.936 120.797 31.652 120.797 33.596ZM115.577 32.156C115.553 30.86 115.085 29.828 114.173 29.06C113.261 28.268 112.145 27.872 110.825 27.872C109.577 27.872 108.521 28.256 107.657 29.024C106.817 29.768 106.301 30.812 106.109 32.156H115.577ZM148.462 39.212H138.454L136.798 44H131.506L140.542 18.836H146.41L155.446 44H150.118L148.462 39.212ZM147.094 35.18L143.458 24.668L139.822 35.18H147.094ZM163.864 26.936C164.512 26.024 165.4 25.268 166.528 24.668C167.68 24.044 168.988 23.732 170.452 23.732C172.156 23.732 173.692 24.152 175.06 24.992C176.452 25.832 177.544 27.032 178.336 28.592C179.152 30.128 179.56 31.916 179.56 33.956C179.56 35.996 179.152 37.808 178.336 39.392C177.544 40.952 176.452 42.164 175.06 43.028C173.692 43.892 172.156 44.324 170.452 44.324C168.988 44.324 167.692 44.024 166.564 43.424C165.46 42.824 164.56 42.068 163.864 41.156V53.504H158.824V24.056H163.864V26.936ZM174.412 33.956C174.412 32.756 174.16 31.724 173.656 30.86C173.176 29.972 172.528 29.3 171.712 28.844C170.92 28.388 170.056 28.16 169.12 28.16C168.208 28.16 167.344 28.4 166.528 28.88C165.736 29.336 165.088 30.008 164.584 30.896C164.104 31.784 163.864 32.828 163.864 34.028C163.864 35.228 164.104 36.272 164.584 37.16C165.088 38.048 165.736 38.732 166.528 39.212C167.344 39.668 168.208 39.896 169.12 39.896C170.056 39.896 170.92 39.656 171.712 39.176C172.528 38.696 173.176 38.012 173.656 37.124C174.16 36.236 174.412 35.18 174.412 33.956ZM188.262 26.936C188.91 26.024 189.798 25.268 190.926 24.668C192.078 24.044 193.386 23.732 194.85 23.732C196.554 23.732 198.09 24.152 199.458 24.992C200.85 25.832 201.942 27.032 202.734 28.592C203.55 30.128 203.958 31.916 203.958 33.956C203.958 35.996 203.55 37.808 202.734 39.392C201.942 40.952 200.85 42.164 199.458 43.028C198.09 43.892 196.554 44.324 194.85 44.324C193.386 44.324 192.09 44.024 190.962 43.424C189.858 42.824 188.958 42.068 188.262 41.156V53.504H183.222V24.056H188.262V26.936ZM198.81 33.956C198.81 32.756 198.558 31.724 198.054 30.86C197.574 29.972 196.926 29.3 196.11 28.844C195.318 28.388 194.454 28.16 193.518 28.16C192.606 28.16 191.742 28.4 190.926 28.88C190.134 29.336 189.486 30.008 188.982 30.896C188.502 31.784 188.262 32.828 188.262 34.028C188.262 35.228 188.502 36.272 188.982 37.16C189.486 38.048 190.134 38.732 190.926 39.212C191.742 39.668 192.606 39.896 193.518 39.896C194.454 39.896 195.318 39.656 196.11 39.176C196.926 38.696 197.574 38.012 198.054 37.124C198.558 36.236 198.81 35.18 198.81 33.956ZM224.983 18.872C227.623 18.872 229.939 19.388 231.931 20.42C233.947 21.452 235.495 22.928 236.575 24.848C237.679 26.744 238.231 28.952 238.231 31.472C238.231 33.992 237.679 36.2 236.575 38.096C235.495 39.968 233.947 41.42 231.931 42.452C229.939 43.484 227.623 44 224.983 44H216.199V18.872H224.983ZM224.803 39.716C227.443 39.716 229.483 38.996 230.923 37.556C232.363 36.116 233.083 34.088 233.083 31.472C233.083 28.856 232.363 26.816 230.923 25.352C229.483 23.864 227.443 23.12 224.803 23.12H221.239V39.716H224.803ZM260.544 33.596C260.544 34.316 260.496 34.964 260.4 35.54H245.82C245.94 36.98 246.444 38.108 247.332 38.924C248.22 39.74 249.312 40.148 250.608 40.148C252.48 40.148 253.812 39.344 254.604 37.736H260.04C259.464 39.656 258.36 41.24 256.728 42.488C255.096 43.712 253.092 44.324 250.716 44.324C248.796 44.324 247.068 43.904 245.532 43.064C244.02 42.2 242.832 40.988 241.968 39.428C241.128 37.868 240.708 36.068 240.708 34.028C240.708 31.964 241.128 30.152 241.968 28.592C242.808 27.032 243.984 25.832 245.496 24.992C247.008 24.152 248.748 23.732 250.716 23.732C252.612 23.732 254.304 24.14 255.792 24.956C257.304 25.772 258.468 26.936 259.284 28.448C260.124 29.936 260.544 31.652 260.544 33.596ZM255.324 32.156C255.3 30.86 254.832 29.828 253.92 29.06C253.008 28.268 251.892 27.872 250.572 27.872C249.324 27.872 248.268 28.256 247.404 29.024C246.564 29.768 246.048 30.812 245.856 32.156H255.324ZM272.538 39.356L277.578 24.056H282.942L275.562 44H269.442L262.098 24.056H267.498L272.538 39.356ZM304.313 33.596C304.313 34.316 304.265 34.964 304.169 35.54H289.589C289.709 36.98 290.213 38.108 291.101 38.924C291.989 39.74 293.081 40.148 294.377 40.148C296.249 40.148 297.581 39.344 298.373 37.736H303.809C303.233 39.656 302.129 41.24 300.497 42.488C298.865 43.712 296.861 44.324 294.485 44.324C292.565 44.324 290.837 43.904 289.301 43.064C287.789 42.2 286.601 40.988 285.737 39.428C284.897 37.868 284.477 36.068 284.477 34.028C284.477 31.964 284.897 30.152 285.737 28.592C286.577 27.032 287.753 25.832 289.265 24.992C290.777 24.152 292.517 23.732 294.485 23.732C296.381 23.732 298.073 24.14 299.561 24.956C301.073 25.772 302.237 26.936 303.053 28.448C303.893 29.936 304.313 31.652 304.313 33.596ZM299.093 32.156C299.069 30.86 298.601 29.828 297.689 29.06C296.777 28.268 295.661 27.872 294.341 27.872C293.093 27.872 292.037 28.256 291.173 29.024C290.333 29.768 289.817 30.812 289.625 32.156H299.093ZM313.032 17.36V44H307.992V17.36H313.032ZM326.867 44.324C324.947 44.324 323.219 43.904 321.683 43.064C320.147 42.2 318.935 40.988 318.047 39.428C317.183 37.868 316.751 36.068 316.751 34.028C316.751 31.988 317.195 30.188 318.083 28.628C318.995 27.068 320.231 25.868 321.791 25.028C323.351 24.164 325.091 23.732 327.011 23.732C328.931 23.732 330.671 24.164 332.231 25.028C333.791 25.868 335.015 27.068 335.903 28.628C336.815 30.188 337.271 31.988 337.271 34.028C337.271 36.068 336.803 37.868 335.867 39.428C334.955 40.988 333.707 42.2 332.123 43.064C330.563 43.904 328.811 44.324 326.867 44.324ZM326.867 39.932C327.779 39.932 328.631 39.716 329.423 39.284C330.239 38.828 330.887 38.156 331.367 37.268C331.847 36.38 332.087 35.3 332.087 34.028C332.087 32.132 331.583 30.68 330.575 29.672C329.591 28.64 328.379 28.124 326.939 28.124C325.499 28.124 324.287 28.64 323.303 29.672C322.343 30.68 321.863 32.132 321.863 34.028C321.863 35.924 322.331 37.388 323.267 38.42C324.227 39.428 325.427 39.932 326.867 39.932ZM346.008 26.936C346.656 26.024 347.544 25.268 348.672 24.668C349.824 24.044 351.132 23.732 352.596 23.732C354.3 23.732 355.836 24.152 357.204 24.992C358.596 25.832 359.688 27.032 360.48 28.592C361.296 30.128 361.704 31.916 361.704 33.956C361.704 35.996 361.296 37.808 360.48 39.392C359.688 40.952 358.596 42.164 357.204 43.028C355.836 43.892 354.3 44.324 352.596 44.324C351.132 44.324 349.836 44.024 348.708 43.424C347.604 42.824 346.704 42.068 346.008 41.156V53.504H340.968V24.056H346.008V26.936ZM356.556 33.956C356.556 32.756 356.304 31.724 355.8 30.86C355.32 29.972 354.672 29.3 353.856 28.844C353.064 28.388 352.2 28.16 351.264 28.16C350.352 28.16 349.488 28.4 348.672 28.88C347.88 29.336 347.232 30.008 346.728 30.896C346.248 31.784 346.008 32.828 346.008 34.028C346.008 35.228 346.248 36.272 346.728 37.16C347.232 38.048 347.88 38.732 348.672 39.212C349.488 39.668 350.352 39.896 351.264 39.896C352.2 39.896 353.064 39.656 353.856 39.176C354.672 38.696 355.32 38.012 355.8 37.124C356.304 36.236 356.556 35.18 356.556 33.956ZM390.135 23.768C392.583 23.768 394.551 24.524 396.039 26.036C397.551 27.524 398.307 29.612 398.307 32.3V44H393.267V32.984C393.267 31.424 392.871 30.236 392.079 29.42C391.287 28.58 390.207 28.16 388.839 28.16C387.471 28.16 386.379 28.58 385.563 29.42C384.771 30.236 384.375 31.424 384.375 32.984V44H379.335V32.984C379.335 31.424 378.939 30.236 378.147 29.42C377.355 28.58 376.275 28.16 374.907 28.16C373.515 28.16 372.411 28.58 371.595 29.42C370.803 30.236 370.407 31.424 370.407 32.984V44H365.367V24.056H370.407V26.468C371.055 25.628 371.883 24.968 372.891 24.488C373.923 24.008 375.051 23.768 376.275 23.768C377.835 23.768 379.227 24.104 380.451 24.776C381.675 25.424 382.623 26.36 383.295 27.584C383.943 26.432 384.879 25.508 386.103 24.812C387.351 24.116 388.695 23.768 390.135 23.768ZM421.629 33.596C421.629 34.316 421.581 34.964 421.485 35.54H406.905C407.025 36.98 407.529 38.108 408.417 38.924C409.305 39.74 410.397 40.148 411.693 40.148C413.565 40.148 414.897 39.344 415.689 37.736H421.125C420.549 39.656 419.445 41.24 417.813 42.488C416.181 43.712 414.177 44.324 411.801 44.324C409.881 44.324 408.153 43.904 406.617 43.064C405.105 42.2 403.917 40.988 403.053 39.428C402.213 37.868 401.793 36.068 401.793 34.028C401.793 31.964 402.213 30.152 403.053 28.592C403.893 27.032 405.069 25.832 406.581 24.992C408.093 24.152 409.833 23.732 411.801 23.732C413.697 23.732 415.389 24.14 416.877 24.956C418.389 25.772 419.553 26.936 420.369 28.448C421.209 29.936 421.629 31.652 421.629 33.596ZM416.409 32.156C416.385 30.86 415.917 29.828 415.005 29.06C414.093 28.268 412.977 27.872 411.657 27.872C410.409 27.872 409.353 28.256 408.489 29.024C407.649 29.768 407.133 30.812 406.941 32.156H416.409ZM436.36 23.768C438.736 23.768 440.656 24.524 442.12 26.036C443.584 27.524 444.316 29.612 444.316 32.3V44H439.276V32.984C439.276 31.4 438.88 30.188 438.088 29.348C437.296 28.484 436.216 28.052 434.848 28.052C433.456 28.052 432.352 28.484 431.536 29.348C430.744 30.188 430.348 31.4 430.348 32.984V44H425.308V24.056H430.348V26.54C431.02 25.676 431.872 25.004 432.904 24.524C433.96 24.02 435.112 23.768 436.36 23.768ZM454.977 28.196V37.844C454.977 38.516 455.133 39.008 455.445 39.32C455.781 39.608 456.333 39.752 457.101 39.752H459.441V44H456.273C452.025 44 449.901 41.936 449.901 37.808V28.196H447.525V24.056H449.901V19.124H454.977V24.056H459.441V28.196H454.977Z" fill="black"/>
</svg>
