<svg width="491" height="62" viewBox="0 0 491 62" fill="none" xmlns="http://www.w3.org/2000/svg">
<path d="M172 41L491 41" stroke="#B7CDFF" stroke-width="26"/>
<path d="M19.98 26.432C19.404 25.376 18.612 24.572 17.604 24.02C16.596 23.468 15.42 23.192 14.076 23.192C12.588 23.192 11.268 23.528 10.116 24.2C8.964 24.872 8.064 25.832 7.416 27.08C6.768 28.328 6.444 29.768 6.444 31.4C6.444 33.08 6.768 34.544 7.416 35.792C8.088 37.04 9.012 38 10.188 38.672C11.364 39.344 12.732 39.68 14.292 39.68C16.212 39.68 17.784 39.176 19.008 38.168C20.232 37.136 21.036 35.708 21.42 33.884H12.78V30.032H26.388V34.424C26.052 36.176 25.332 37.796 24.228 39.284C23.124 40.772 21.696 41.972 19.944 42.884C18.216 43.772 16.272 44.216 14.112 44.216C11.688 44.216 9.492 43.676 7.524 42.596C5.58 41.492 4.044 39.968 2.916 38.024C1.812 36.08 1.26 33.872 1.26 31.4C1.26 28.928 1.812 26.72 2.916 24.776C4.044 22.808 5.58 21.284 7.524 20.204C9.492 19.1 11.676 18.548 14.076 18.548C16.908 18.548 19.368 19.244 21.456 20.636C23.544 22.004 24.984 23.936 25.776 26.432H19.98ZM35.1568 27.152C35.8048 26.096 36.6448 25.268 37.6768 24.668C38.7328 24.068 39.9328 23.768 41.2768 23.768V29.06H39.9448C38.3608 29.06 37.1608 29.432 36.3448 30.176C35.5528 30.92 35.1568 32.216 35.1568 34.064V44H30.1168V24.056H35.1568V27.152ZM43.3755 33.956C43.3755 31.94 43.7715 30.152 44.5635 28.592C45.3795 27.032 46.4715 25.832 47.8395 24.992C49.2315 24.152 50.7795 23.732 52.4835 23.732C53.9715 23.732 55.2675 24.032 56.3715 24.632C57.4995 25.232 58.3995 25.988 59.0715 26.9V24.056H64.1475V44H59.0715V41.084C58.4235 42.02 57.5235 42.8 56.3715 43.424C55.2435 44.024 53.9355 44.324 52.4475 44.324C50.7675 44.324 49.2315 43.892 47.8395 43.028C46.4715 42.164 45.3795 40.952 44.5635 39.392C43.7715 37.808 43.3755 35.996 43.3755 33.956ZM59.0715 34.028C59.0715 32.804 58.8315 31.76 58.3515 30.896C57.8715 30.008 57.2235 29.336 56.4075 28.88C55.5915 28.4 54.7155 28.16 53.7795 28.16C52.8435 28.16 51.9795 28.388 51.1875 28.844C50.3955 29.3 49.7475 29.972 49.2435 30.86C48.7635 31.724 48.5235 32.756 48.5235 33.956C48.5235 35.156 48.7635 36.212 49.2435 37.124C49.7475 38.012 50.3955 38.696 51.1875 39.176C52.0035 39.656 52.8675 39.896 53.7795 39.896C54.7155 39.896 55.5915 39.668 56.4075 39.212C57.2235 38.732 57.8715 38.06 58.3515 37.196C58.8315 36.308 59.0715 35.252 59.0715 34.028ZM74.1099 26.936C74.7579 26.024 75.6459 25.268 76.7739 24.668C77.9259 24.044 79.2339 23.732 80.6979 23.732C82.4019 23.732 83.9379 24.152 85.3059 24.992C86.6979 25.832 87.7899 27.032 88.5819 28.592C89.3979 30.128 89.8059 31.916 89.8059 33.956C89.8059 35.996 89.3979 37.808 88.5819 39.392C87.7899 40.952 86.6979 42.164 85.3059 43.028C83.9379 43.892 82.4019 44.324 80.6979 44.324C79.2339 44.324 77.9379 44.024 76.8099 43.424C75.7059 42.824 74.8059 42.068 74.1099 41.156V53.504H69.0699V24.056H74.1099V26.936ZM84.6579 33.956C84.6579 32.756 84.4059 31.724 83.9019 30.86C83.4219 29.972 82.7739 29.3 81.9579 28.844C81.1659 28.388 80.3019 28.16 79.3659 28.16C78.4539 28.16 77.5899 28.4 76.7739 28.88C75.9819 29.336 75.3339 30.008 74.8299 30.896C74.3499 31.784 74.1099 32.828 74.1099 34.028C74.1099 35.228 74.3499 36.272 74.8299 37.16C75.3339 38.048 75.9819 38.732 76.7739 39.212C77.5899 39.668 78.4539 39.896 79.3659 39.896C80.3019 39.896 81.1659 39.656 81.9579 39.176C82.7739 38.696 83.4219 38.012 83.9019 37.124C84.4059 36.236 84.6579 35.18 84.6579 33.956ZM104.7 23.768C106.212 23.768 107.556 24.104 108.732 24.776C109.908 25.424 110.82 26.396 111.468 27.692C112.14 28.964 112.476 30.5 112.476 32.3V44H107.436V32.984C107.436 31.4 107.04 30.188 106.248 29.348C105.456 28.484 104.376 28.052 103.008 28.052C101.616 28.052 100.512 28.484 99.6964 29.348C98.9044 30.188 98.5084 31.4 98.5084 32.984V44H93.4684V17.36H98.5084V26.54C99.1564 25.676 100.02 25.004 101.1 24.524C102.18 24.02 103.38 23.768 104.7 23.768ZM119.825 21.68C118.937 21.68 118.193 21.404 117.593 20.852C117.017 20.276 116.729 19.568 116.729 18.728C116.729 17.888 117.017 17.192 117.593 16.64C118.193 16.064 118.937 15.776 119.825 15.776C120.713 15.776 121.445 16.064 122.021 16.64C122.621 17.192 122.921 17.888 122.921 18.728C122.921 19.568 122.621 20.276 122.021 20.852C121.445 21.404 120.713 21.68 119.825 21.68ZM122.309 24.056V44H117.269V24.056H122.309ZM125.993 34.028C125.993 31.964 126.413 30.164 127.253 28.628C128.093 27.068 129.257 25.868 130.745 25.028C132.233 24.164 133.937 23.732 135.857 23.732C138.329 23.732 140.369 24.356 141.977 25.604C143.609 26.828 144.701 28.556 145.253 30.788H139.817C139.529 29.924 139.037 29.252 138.341 28.772C137.669 28.268 136.829 28.016 135.821 28.016C134.381 28.016 133.241 28.544 132.401 29.6C131.561 30.632 131.141 32.108 131.141 34.028C131.141 35.924 131.561 37.4 132.401 38.456C133.241 39.488 134.381 40.004 135.821 40.004C137.861 40.004 139.193 39.092 139.817 37.268H145.253C144.701 39.428 143.609 41.144 141.977 42.416C140.345 43.688 138.305 44.324 135.857 44.324C133.937 44.324 132.233 43.904 130.745 43.064C129.257 42.2 128.093 41 127.253 39.464C126.413 37.904 125.993 36.092 125.993 34.028ZM176.855 44L174.119 41.3C171.791 43.388 168.947 44.432 165.587 44.432C163.739 44.432 162.107 44.12 160.691 43.496C159.299 42.848 158.219 41.948 157.451 40.796C156.683 39.62 156.299 38.264 156.299 36.728C156.299 35.072 156.767 33.584 157.703 32.264C158.639 30.944 160.019 29.876 161.843 29.06C161.195 28.268 160.727 27.512 160.439 26.792C160.151 26.048 160.007 25.256 160.007 24.416C160.007 23.264 160.307 22.232 160.907 21.32C161.507 20.384 162.359 19.652 163.463 19.124C164.591 18.596 165.899 18.332 167.387 18.332C168.899 18.332 170.195 18.62 171.275 19.196C172.355 19.772 173.159 20.54 173.687 21.5C174.215 22.46 174.443 23.528 174.371 24.704H169.475C169.499 23.912 169.307 23.312 168.899 22.904C168.491 22.472 167.939 22.256 167.243 22.256C166.571 22.256 166.007 22.46 165.551 22.868C165.119 23.252 164.903 23.756 164.903 24.38C164.903 24.98 165.083 25.58 165.443 26.18C165.803 26.756 166.391 27.476 167.207 28.34L173.543 34.604C173.591 34.556 173.627 34.508 173.651 34.46C173.675 34.412 173.699 34.364 173.723 34.316L175.775 30.896H181.031L178.511 35.324C178.031 36.26 177.515 37.148 176.963 37.988L183.047 44H176.855ZM165.731 40.256C167.699 40.256 169.439 39.56 170.951 38.168L164.759 32.048C162.431 33.08 161.267 34.544 161.267 36.44C161.267 37.52 161.675 38.432 162.491 39.176C163.307 39.896 164.387 40.256 165.731 40.256ZM199.089 18.872V34.424C199.089 36.128 199.533 37.436 200.421 38.348C201.309 39.236 202.557 39.68 204.165 39.68C205.797 39.68 207.057 39.236 207.945 38.348C208.833 37.436 209.277 36.128 209.277 34.424V18.872H214.353V34.388C214.353 36.524 213.885 38.336 212.949 39.824C212.037 41.288 210.801 42.392 209.241 43.136C207.705 43.88 205.989 44.252 204.093 44.252C202.221 44.252 200.517 43.88 198.981 43.136C197.469 42.392 196.269 41.288 195.381 39.824C194.493 38.336 194.049 36.524 194.049 34.388V18.872H199.089ZM224.262 18.872V44H219.222V18.872H224.262ZM242.742 9.908L233.022 50.516H228.09L237.81 9.908H242.742ZM251.718 18.872V34.424C251.718 36.128 252.162 37.436 253.05 38.348C253.938 39.236 255.186 39.68 256.794 39.68C258.426 39.68 259.686 39.236 260.574 38.348C261.462 37.436 261.906 36.128 261.906 34.424V18.872H266.982V34.388C266.982 36.524 266.514 38.336 265.578 39.824C264.666 41.288 263.43 42.392 261.87 43.136C260.334 43.88 258.618 44.252 256.722 44.252C254.85 44.252 253.146 43.88 251.61 43.136C250.098 42.392 248.898 41.288 248.01 39.824C247.122 38.336 246.678 36.524 246.678 34.388V18.872H251.718ZM286.899 44L281.463 35.54L276.531 44H270.843L278.763 31.328L270.735 18.872H276.531L281.967 27.296L286.863 18.872H292.551L284.667 31.508L292.695 44H286.899ZM313.893 18.872C316.533 18.872 318.849 19.388 320.841 20.42C322.857 21.452 324.405 22.928 325.485 24.848C326.589 26.744 327.141 28.952 327.141 31.472C327.141 33.992 326.589 36.2 325.485 38.096C324.405 39.968 322.857 41.42 320.841 42.452C318.849 43.484 316.533 44 313.893 44H305.109V18.872H313.893ZM313.713 39.716C316.353 39.716 318.393 38.996 319.833 37.556C321.273 36.116 321.993 34.088 321.993 31.472C321.993 28.856 321.273 26.816 319.833 25.352C318.393 23.864 316.353 23.12 313.713 23.12H310.149V39.716H313.713ZM349.454 33.596C349.454 34.316 349.406 34.964 349.31 35.54H334.73C334.85 36.98 335.354 38.108 336.242 38.924C337.13 39.74 338.222 40.148 339.518 40.148C341.39 40.148 342.722 39.344 343.514 37.736H348.95C348.374 39.656 347.27 41.24 345.638 42.488C344.006 43.712 342.002 44.324 339.626 44.324C337.706 44.324 335.978 43.904 334.442 43.064C332.93 42.2 331.742 40.988 330.878 39.428C330.038 37.868 329.618 36.068 329.618 34.028C329.618 31.964 330.038 30.152 330.878 28.592C331.718 27.032 332.894 25.832 334.406 24.992C335.918 24.152 337.658 23.732 339.626 23.732C341.522 23.732 343.214 24.14 344.702 24.956C346.214 25.772 347.378 26.936 348.194 28.448C349.034 29.936 349.454 31.652 349.454 33.596ZM344.234 32.156C344.21 30.86 343.742 29.828 342.83 29.06C341.918 28.268 340.802 27.872 339.482 27.872C338.234 27.872 337.178 28.256 336.314 29.024C335.474 29.768 334.958 30.812 334.766 32.156H344.234ZM360.764 44.324C359.132 44.324 357.668 44.036 356.372 43.46C355.076 42.86 354.044 42.056 353.276 41.048C352.532 40.04 352.124 38.924 352.052 37.7H357.128C357.224 38.468 357.596 39.104 358.244 39.608C358.916 40.112 359.744 40.364 360.728 40.364C361.688 40.364 362.432 40.172 362.96 39.788C363.512 39.404 363.788 38.912 363.788 38.312C363.788 37.664 363.452 37.184 362.78 36.872C362.132 36.536 361.088 36.176 359.648 35.792C358.16 35.432 356.936 35.06 355.976 34.676C355.04 34.292 354.224 33.704 353.528 32.912C352.856 32.12 352.52 31.052 352.52 29.708C352.52 28.604 352.832 27.596 353.456 26.684C354.104 25.772 355.016 25.052 356.192 24.524C357.392 23.996 358.796 23.732 360.404 23.732C362.78 23.732 364.676 24.332 366.092 25.532C367.508 26.708 368.288 28.304 368.432 30.32H363.608C363.536 29.528 363.2 28.904 362.6 28.448C362.024 27.968 361.244 27.728 360.26 27.728C359.348 27.728 358.64 27.896 358.136 28.232C357.656 28.568 357.416 29.036 357.416 29.636C357.416 30.308 357.752 30.824 358.424 31.184C359.096 31.52 360.14 31.868 361.556 32.228C362.996 32.588 364.184 32.96 365.12 33.344C366.056 33.728 366.86 34.328 367.532 35.144C368.228 35.936 368.588 36.992 368.612 38.312C368.612 39.464 368.288 40.496 367.64 41.408C367.016 42.32 366.104 43.04 364.904 43.568C363.728 44.072 362.348 44.324 360.764 44.324ZM375.306 21.68C374.418 21.68 373.674 21.404 373.074 20.852C372.498 20.276 372.21 19.568 372.21 18.728C372.21 17.888 372.498 17.192 373.074 16.64C373.674 16.064 374.418 15.776 375.306 15.776C376.194 15.776 376.926 16.064 377.502 16.64C378.102 17.192 378.402 17.888 378.402 18.728C378.402 19.568 378.102 20.276 377.502 20.852C376.926 21.404 376.194 21.68 375.306 21.68ZM377.79 24.056V44H372.75V24.056H377.79ZM390.581 23.732C392.069 23.732 393.377 24.032 394.505 24.632C395.633 25.208 396.521 25.964 397.169 26.9V24.056H402.245V44.144C402.245 45.992 401.873 47.636 401.129 49.076C400.385 50.54 399.269 51.692 397.781 52.532C396.293 53.396 394.493 53.828 392.381 53.828C389.549 53.828 387.221 53.168 385.397 51.848C383.597 50.528 382.577 48.728 382.337 46.448H387.341C387.605 47.36 388.169 48.08 389.033 48.608C389.921 49.16 390.989 49.436 392.237 49.436C393.701 49.436 394.889 48.992 395.801 48.104C396.713 47.24 397.169 45.92 397.169 44.144V41.048C396.521 41.984 395.621 42.764 394.469 43.388C393.341 44.012 392.045 44.324 390.581 44.324C388.901 44.324 387.365 43.892 385.973 43.028C384.581 42.164 383.477 40.952 382.661 39.392C381.869 37.808 381.473 35.996 381.473 33.956C381.473 31.94 381.869 30.152 382.661 28.592C383.477 27.032 384.569 25.832 385.937 24.992C387.329 24.152 388.877 23.732 390.581 23.732ZM397.169 34.028C397.169 32.804 396.929 31.76 396.449 30.896C395.969 30.008 395.321 29.336 394.505 28.88C393.689 28.4 392.813 28.16 391.877 28.16C390.941 28.16 390.077 28.388 389.285 28.844C388.493 29.3 387.845 29.972 387.341 30.86C386.861 31.724 386.621 32.756 386.621 33.956C386.621 35.156 386.861 36.212 387.341 37.124C387.845 38.012 388.493 38.696 389.285 39.176C390.101 39.656 390.965 39.896 391.877 39.896C392.813 39.896 393.689 39.668 394.505 39.212C395.321 38.732 395.969 38.06 396.449 37.196C396.929 36.308 397.169 35.252 397.169 34.028ZM418.22 23.768C420.596 23.768 422.516 24.524 423.98 26.036C425.444 27.524 426.176 29.612 426.176 32.3V44H421.136V32.984C421.136 31.4 420.74 30.188 419.948 29.348C419.156 28.484 418.076 28.052 416.708 28.052C415.316 28.052 414.212 28.484 413.396 29.348C412.604 30.188 412.208 31.4 412.208 32.984V44H407.168V24.056H412.208V26.54C412.88 25.676 413.732 25.004 414.764 24.524C415.82 24.02 416.972 23.768 418.22 23.768ZM433.524 21.68C432.636 21.68 431.892 21.404 431.292 20.852C430.716 20.276 430.428 19.568 430.428 18.728C430.428 17.888 430.716 17.192 431.292 16.64C431.892 16.064 432.636 15.776 433.524 15.776C434.412 15.776 435.144 16.064 435.72 16.64C436.32 17.192 436.62 17.888 436.62 18.728C436.62 19.568 436.32 20.276 435.72 20.852C435.144 21.404 434.412 21.68 433.524 21.68ZM436.008 24.056V44H430.968V24.056H436.008ZM452.04 23.768C454.416 23.768 456.336 24.524 457.8 26.036C459.264 27.524 459.996 29.612 459.996 32.3V44H454.956V32.984C454.956 31.4 454.56 30.188 453.768 29.348C452.976 28.484 451.896 28.052 450.528 28.052C449.136 28.052 448.032 28.484 447.216 29.348C446.424 30.188 446.028 31.4 446.028 32.984V44H440.988V24.056H446.028V26.54C446.7 25.676 447.552 25.004 448.584 24.524C449.64 24.02 450.792 23.768 452.04 23.768ZM472.601 23.732C474.089 23.732 475.397 24.032 476.525 24.632C477.653 25.208 478.541 25.964 479.189 26.9V24.056H484.265V44.144C484.265 45.992 483.893 47.636 483.149 49.076C482.405 50.54 481.289 51.692 479.801 52.532C478.313 53.396 476.513 53.828 474.401 53.828C471.569 53.828 469.241 53.168 467.417 51.848C465.617 50.528 464.597 48.728 464.357 46.448H469.361C469.625 47.36 470.189 48.08 471.053 48.608C471.941 49.16 473.009 49.436 474.257 49.436C475.721 49.436 476.909 48.992 477.821 48.104C478.733 47.24 479.189 45.92 479.189 44.144V41.048C478.541 41.984 477.641 42.764 476.489 43.388C475.361 44.012 474.065 44.324 472.601 44.324C470.921 44.324 469.385 43.892 467.993 43.028C466.601 42.164 465.497 40.952 464.681 39.392C463.889 37.808 463.493 35.996 463.493 33.956C463.493 31.94 463.889 30.152 464.681 28.592C465.497 27.032 466.589 25.832 467.957 24.992C469.349 24.152 470.897 23.732 472.601 23.732ZM479.189 34.028C479.189 32.804 478.949 31.76 478.469 30.896C477.989 30.008 477.341 29.336 476.525 28.88C475.709 28.4 474.833 28.16 473.897 28.16C472.961 28.16 472.097 28.388 471.305 28.844C470.513 29.3 469.865 29.972 469.361 30.86C468.881 31.724 468.641 32.756 468.641 33.956C468.641 35.156 468.881 36.212 469.361 37.124C469.865 38.012 470.513 38.696 471.305 39.176C472.121 39.656 472.985 39.896 473.897 39.896C474.833 39.896 475.709 39.668 476.525 39.212C477.341 38.732 477.989 38.06 478.469 37.196C478.949 36.308 479.189 35.252 479.189 34.028Z" fill="black"/>
</svg>
