<svg width="1920" height="155" viewBox="0 0 1920 155" fill="none" xmlns="http://www.w3.org/2000/svg">
<g opacity="0.66">
<path d="M-249 77.1801L-224.45 70.9898L-199.9 64.8972L-175.35 58.9983L-150.8 53.3861L-126.25 48.1492L-101.7 43.3701L-77.15 39.1242L-52.6 35.4784L-28.05 32.4904L-3.5 30.2071L21.05 28.6646L45.6 27.8872H70.15L94.7 28.6646L119.25 30.2071L143.8 32.4904L168.35 35.4784L192.9 39.1242L217.45 43.3701L242 48.1492L266.55 53.3861L291.1 58.9983L315.65 64.8972L340.2 70.9898L364.75 77.1801L389.3 83.3703L413.85 89.463L438.4 95.3619L462.95 100.974L487.5 106.211L512.05 110.99L536.6 115.236L561.15 118.882L585.7 121.87L610.25 124.153L634.8 125.696L659.35 126.473H683.9L708.45 125.696L733 124.153L757.55 121.87L782.1 118.882L806.65 115.236L831.2 110.99L855.75 106.211L880.3 100.974L904.85 95.3619L929.4 89.463L953.95 83.3703L978.5 77.1801L1003.05 70.9898L1027.6 64.8972L1052.15 58.9983L1076.7 53.3861L1101.25 48.1492L1125.8 43.3701L1150.35 39.1242L1174.9 35.4784L1199.45 32.4904L1224 30.2071L1248.55 28.6646L1273.1 27.8872L1297.65 27.8872L1322.2 28.6646L1346.75 30.2071L1371.3 32.4904L1395.85 35.4784L1420.4 39.1242L1444.95 43.3701L1469.5 48.1492L1494.05 53.3861L1518.6 58.9983L1543.15 64.8972L1567.7 70.9898L1592.25 77.1801L1616.8 83.3703L1641.35 89.463L1665.9 95.3619L1690.45 100.974L1715 106.211L1739.55 110.99L1764.1 115.236L1788.65 118.882L1813.2 121.87L1837.75 124.153L1862.3 125.696L1886.85 126.473H1911.4L1935.95 125.696L1960.5 124.153L1985.05 121.87L2009.6 118.882L2034.15 115.236L2058.7 110.99L2083.25 106.211L2107.8 100.974L2132.35 95.3619L2156.9 89.463L2181.45 83.3703L2206 77.1801" stroke="#A1A1CD"/>
<path d="M2032 95.1044L2011.44 88.9142L1990.88 82.8215L1970.32 76.9226L1949.76 71.3104L1929.2 66.0735L1908.64 61.2944L1888.08 57.0485L1867.52 53.4028L1846.96 50.4147L1826.4 48.1314L1805.84 46.5889L1785.28 45.8115H1764.72L1744.16 46.5889L1723.6 48.1314L1703.04 50.4147L1682.48 53.4028L1661.92 57.0485L1641.36 61.2944L1620.8 66.0735L1600.24 71.3104L1579.68 76.9226L1559.12 82.8215L1538.56 88.9142L1518 95.1044L1497.44 101.295L1476.88 107.387L1456.32 113.286L1435.76 118.898L1415.2 124.135L1394.64 128.914L1374.08 133.16L1353.52 136.806L1332.96 139.794L1312.4 142.077L1291.84 143.62L1271.28 144.397H1250.72L1230.16 143.62L1209.6 142.077L1189.04 139.794L1168.48 136.806L1147.92 133.16L1127.36 128.914L1106.8 124.135L1086.24 118.898L1065.68 113.286L1045.12 107.387L1024.56 101.295L1004 95.1044L983.44 88.9142L962.88 82.8215L942.32 76.9226L921.76 71.3104L901.2 66.0735L880.64 61.2944L860.08 57.0485L839.52 53.4028L818.96 50.4147L798.4 48.1314L777.84 46.5889L757.28 45.8115L736.72 45.8115L716.16 46.5889L695.6 48.1314L675.04 50.4147L654.48 53.4028L633.92 57.0485L613.36 61.2944L592.8 66.0735L572.24 71.3104L551.68 76.9226L531.12 82.8215L510.56 88.9142L490 95.1044L469.44 101.295L448.88 107.387L428.32 113.286L407.76 118.898L387.2 124.135L366.64 128.914L346.08 133.16L325.52 136.806L304.96 139.794L284.4 142.077L263.84 143.62L243.28 144.397H222.72L202.16 143.62L181.6 142.077L161.04 139.794L140.48 136.806L119.92 133.16L99.3601 128.914L78.8001 124.135L58.2401 118.898L37.6799 113.286L17.1199 107.387L-3.44004 101.295L-24 95.1044" stroke="#A1A1CD"/>
<path d="M-285 77.5L-262.24 67.893L-239.48 58.4376L-216.72 49.2828L-193.96 40.573L-171.2 32.4455L-148.44 25.0286L-125.68 18.4392L-102.92 12.7812L-80.16 8.14387L-57.4 4.60033L-34.64 2.20645L-11.88 1H10.88L33.64 2.20645L56.4 4.60033L79.16 8.14387L101.92 12.7812L124.68 18.4392L147.44 25.0286L170.2 32.4455L192.96 40.573L215.72 49.2828L238.48 58.4376L261.24 67.893L284 77.5L306.76 87.1069L329.52 96.5624L352.28 105.717L375.04 114.427L397.8 122.554L420.56 129.971L443.32 136.561L466.08 142.219L488.84 146.856L511.6 150.4L534.36 152.794L557.12 154H579.88L602.64 152.794L625.4 150.4L648.16 146.856L670.92 142.219L693.68 136.561L716.44 129.971L739.2 122.554L761.96 114.427L784.72 105.717L807.48 96.5624L830.24 87.1069L853 77.5L875.76 67.893L898.52 58.4376L921.28 49.2828L944.04 40.573L966.8 32.4455L989.56 25.0286L1012.32 18.4392L1035.08 12.7812L1057.84 8.14387L1080.6 4.60033L1103.36 2.20645L1126.12 1L1148.88 1L1171.64 2.20645L1194.4 4.60033L1217.16 8.14387L1239.92 12.7812L1262.68 18.4392L1285.44 25.0286L1308.2 32.4455L1330.96 40.573L1353.72 49.2828L1376.48 58.4376L1399.24 67.893L1422 77.5L1444.76 87.1069L1467.52 96.5624L1490.28 105.717L1513.04 114.427L1535.8 122.554L1558.56 129.971L1581.32 136.561L1604.08 142.219L1626.84 146.856L1649.6 150.4L1672.36 152.794L1695.12 154H1717.88L1740.64 152.794L1763.4 150.4L1786.16 146.856L1808.92 142.219L1831.68 136.561L1854.44 129.971L1877.2 122.554L1899.96 114.427L1922.72 105.717L1945.48 96.5624L1968.24 87.1069L1991 77.5" stroke="#A1A1CD"/>
</g>
</svg>
