<svg width="620" height="469" viewBox="0 0 620 469" fill="none" xmlns="http://www.w3.org/2000/svg">
<path d="M140.734 147.36C140.734 141.358 145.593 136.499 151.595 136.499H439.113C445.058 136.499 449.917 141.358 449.917 147.36V365.542H140.734V147.36Z" fill="#4989FF"/>
<path d="M151.706 147.761H438.424V323.873H151.706V147.761Z" fill="url(#paint0_linear_1460_28347)"/>
<path fill-rule="evenodd" clip-rule="evenodd" d="M121.579 148.561H48.6423L48.7567 147.932C49.8999 141.873 55.2158 137.529 61.332 137.529C62.2466 137.529 63.123 137.624 63.9614 137.814C67.7912 130.612 75.1649 126.096 83.3389 126.096C90.3125 126.096 96.886 129.469 101.002 135.128C102.545 134.671 104.088 134.385 105.689 134.385C113.634 134.385 120.265 140.101 121.465 147.932L121.579 148.561ZM49.957 147.475H120.265C118.95 140.615 112.777 135.528 105.689 135.528C104.088 135.528 102.488 135.757 101.002 136.271L100.601 136.385L100.373 136.042C96.4859 130.498 90.141 127.24 83.396 127.24C75.4507 127.24 68.3056 131.584 64.7617 138.672L64.5902 139.072L64.19 138.958C63.2755 138.729 62.3419 138.615 61.3892 138.615C55.9589 138.615 51.2717 142.33 49.957 147.475Z" fill="#6AAFE8"/>
<path fill-rule="evenodd" clip-rule="evenodd" d="M389.437 58.7621L389.208 58.6478C363.314 45.4437 366.801 19.8357 366.801 19.607L366.916 19.0926H367.373C383.835 19.0926 388.98 13.8338 389.037 13.7766L389.437 13.3193L389.837 13.7766C389.894 13.8338 395.039 19.0926 411.501 19.0926H412.015L412.073 19.607C412.073 19.8357 415.559 45.4437 389.666 58.6478L389.437 58.7621ZM367.887 20.1786C367.544 23.6654 366.458 45.6151 389.437 57.5617C412.473 45.6151 411.387 23.6654 411.044 20.1786C396.753 20.1215 390.923 16.1202 389.437 14.8627C387.951 16.1202 382.178 20.1215 367.887 20.1786Z" fill="#6AAFE8"/>
<path d="M531.079 398.925C527.192 381.091 535.595 376.689 543.712 372.345C550.399 368.858 556.687 365.543 556.344 355.025C555.887 341.135 565.376 336.105 573.721 331.589C579.952 328.274 585.839 325.13 586.697 318.843C588.811 303.581 602.873 284.66 602.987 284.489L603.845 285.118C603.73 285.289 589.84 304.038 587.783 318.957C586.811 325.873 580.695 329.132 574.235 332.561C565.776 337.077 557.03 341.764 557.43 355.025C557.773 366.172 550.914 369.83 544.226 373.317C536.109 377.604 528.393 381.662 532.108 398.696L531.079 398.925Z" fill="url(#paint1_linear_1460_28347)"/>
<path fill-rule="evenodd" clip-rule="evenodd" d="M535.365 394.351C535.175 394.351 534.984 394.351 534.794 394.351C531.25 394.123 527.82 391.436 523.933 385.949L523.705 385.606L523.933 385.263C523.99 385.206 530.221 377.603 527.934 363.313C527.42 359.998 526.734 357.483 526.162 355.425C525.305 352.452 524.733 350.452 525.648 348.909C526.848 346.908 530.049 345.822 538.966 343.707C548.512 341.42 551.713 330.674 554.514 321.243C557.144 312.326 559.659 303.866 567.09 304.152C573.892 304.38 584.238 293.748 593.383 284.317C601.843 275.571 609.846 267.34 614.99 267.512C616.21 267.55 617.22 268.064 618.02 269.055C622.593 274.485 618.363 282.716 614.247 290.662C610.703 297.464 607.388 303.866 609.56 308.096C612.247 313.412 612.589 318.27 610.646 322.043C608.302 326.502 602.872 329.417 594.47 330.617C586.81 331.703 585.953 340.106 585.095 348.966C584.066 359.312 582.923 371.03 570.062 372.116C560.459 372.973 554.057 379.661 548.341 385.606C543.825 390.293 539.881 394.351 535.365 394.351ZM525.076 385.663C528.563 390.522 531.821 393.037 534.851 393.265C539.138 393.608 543.025 389.55 547.541 384.805C553.371 378.746 560.002 371.887 569.948 371.03C581.894 370.001 582.98 359.255 584.009 348.851C584.924 339.534 585.781 330.789 594.298 329.531C602.358 328.388 607.502 325.701 609.674 321.529C611.446 318.042 611.103 313.583 608.588 308.61C606.188 303.866 609.617 297.235 613.275 290.147C617.219 282.545 621.278 274.6 617.219 269.741C616.591 268.998 615.848 268.655 614.933 268.598C610.303 268.426 602.472 276.486 594.184 285.06C584.524 295.006 574.578 305.238 567.318 305.238C567.242 305.238 567.147 305.238 567.032 305.238C560.459 305.009 558.172 312.669 555.543 321.529C552.685 331.303 549.37 342.335 539.252 344.793C531.135 346.679 527.592 347.765 526.62 349.423C525.934 350.623 526.391 352.281 527.191 355.139C527.763 357.197 528.506 359.769 529.02 363.142C531.135 376.403 526.277 384.005 525.076 385.663Z" fill="url(#paint2_linear_1460_28347)"/>
<path fill-rule="evenodd" clip-rule="evenodd" d="M535.769 390.637C535.617 390.637 535.483 390.637 535.369 390.637C529.596 390.122 525.137 377.432 520.85 365.2C518.792 359.427 516.906 353.939 515.02 350.395C513.591 347.709 511.704 344.851 509.932 342.107C505.188 334.791 500.272 327.188 501.873 320.558C502.73 317.014 505.188 314.098 509.532 311.64C519.021 306.153 517.535 303.124 514.334 296.321C511.99 291.406 508.789 284.603 508.675 273.914C508.618 269.342 508.503 265.397 508.446 261.911C508.103 250.65 507.989 244.991 510.39 242.933C511.361 242.133 512.79 241.904 514.734 242.247C518.164 242.933 519.65 245.677 521.193 248.592C523.194 252.308 525.423 256.48 532.225 257.909C538.627 259.281 544.8 261.11 546.458 265.34C547.659 268.313 546.515 272.257 543.028 277.344C542.171 278.544 541.885 279.63 542.114 280.545C542.686 282.603 545.887 284.089 549.545 285.804C554.804 288.262 561.32 291.291 563.149 297.579C564.635 302.666 562.92 309.011 557.89 316.956C546.001 335.762 546.458 348.566 546.915 359.827C547.201 368.172 547.487 376.061 542.457 384.863C540.228 388.75 538.056 390.637 535.769 390.637ZM513.076 243.162C512.219 243.162 511.59 243.391 511.076 243.791C509.075 245.506 509.247 251.279 509.532 261.853C509.589 265.34 509.704 269.342 509.761 273.914C509.875 284.375 513.019 291.005 515.363 295.864C518.507 302.552 520.393 306.61 510.104 312.555C506.046 314.899 503.702 317.585 502.902 320.786C501.416 326.96 506.217 334.333 510.847 341.478C512.676 344.279 514.505 347.137 515.992 349.881C517.878 353.482 519.821 359.027 521.879 364.857C525.88 376.232 530.396 389.093 535.483 389.551C537.427 389.722 539.427 387.95 541.542 384.349C546.401 375.775 546.115 368.401 545.829 359.884C545.372 348.452 544.915 335.477 556.976 316.385C561.834 308.725 563.549 302.666 562.12 297.865C560.405 292.034 554.403 289.233 549.088 286.776C545.143 284.946 541.771 283.346 541.085 280.831C540.742 279.573 541.085 278.201 542.114 276.715C545.429 271.914 546.515 268.37 545.486 265.74C543.943 261.968 537.827 260.196 531.997 258.995C524.737 257.452 522.222 252.822 520.221 249.107C518.735 246.306 517.42 243.905 514.562 243.333C513.991 243.219 513.495 243.162 513.076 243.162Z" fill="url(#paint3_linear_1460_28347)"/>
<path d="M535.881 397.381L534.795 397.096C540.625 378.69 530.108 337.363 526.964 327.359C525.42 322.387 526.849 314.956 528.221 307.753C529.993 298.493 531.88 288.89 527.135 285.289C518.333 278.487 518.79 262.882 518.847 262.196L519.933 262.253C519.933 262.425 519.476 277.973 527.821 284.432C533.08 288.433 531.137 298.379 529.307 307.982C527.936 315.013 526.564 322.329 527.993 327.017C531.88 339.42 541.654 379.033 535.881 397.381Z" fill="url(#paint4_linear_1460_28347)"/>
<path d="M512.389 302.151C508.559 321.128 520.22 323.701 531.881 332.103C543.484 340.506 531.881 348.794 531.309 361.827C530.68 374.86 535.596 384.291 530.395 391.55C525.193 398.81 520.849 379.375 514.447 371.258C508.045 363.142 505.473 350.395 497.927 341.078C490.382 331.818 469.233 328.902 478.493 314.155C487.753 299.35 481.694 290.09 480.836 281.345C479.922 272.656 489.41 271.742 491.811 277.858C499.356 297.007 514.104 293.806 512.389 302.151Z" fill="url(#paint5_linear_1460_28347)"/>
<path d="M538.854 393.209C538.797 392.866 532.338 354.625 517.876 344.165C503.186 333.476 500.499 323.587 495.355 300.322L496.441 300.094C501.528 323.072 504.158 332.847 518.562 343.25C533.31 353.996 539.655 391.437 539.94 393.037L538.854 393.209Z" fill="white"/>
<path d="M525.823 391.836C528.681 384.787 527.499 376.232 522.279 366.171C514.505 351.081 508.16 353.424 527.023 341.821C545.829 330.217 527.137 293.691 543.142 289.004C559.147 284.374 573.095 225.27 585.27 232.758C597.445 240.303 581.211 269.284 589.9 278.029C598.588 286.718 599.731 297.807 581.783 306.724C563.777 315.698 594.53 349.938 570.179 360.398C545.829 370.801 552.803 411.728 525.823 391.836Z" fill="#2B7CA5"/>
<path d="M533.251 403.098C533.251 402.983 530.622 389.379 538.91 371.831C547.313 353.939 551.371 334.39 549.656 319.529C548.799 311.526 553.943 308.382 558.916 305.296C563.832 302.323 568.919 299.237 568.634 291.291C568.348 284.146 571.377 267.341 571.549 266.598L572.635 266.827C572.578 266.998 569.491 284.203 569.72 291.234C570.006 299.808 564.69 303.066 559.488 306.267C554.572 309.24 549.942 312.098 550.742 319.414C552.457 334.505 548.399 354.225 539.882 372.288C531.765 389.493 534.28 402.755 534.337 402.869L533.251 403.098Z" fill="white"/>
<path d="M552.972 328.159C558.402 323.071 565.662 322.328 564.118 329.874C562.632 337.419 557.488 339.591 560.06 344.335C562.632 349.022 566.919 353.767 559.603 359.597C552.286 365.428 548.228 366.056 546.056 377.031C543.884 388.006 544.341 395.551 534.852 396.009C525.363 396.466 529.022 382.633 532.051 376.402C535.062 371.639 535.557 366.152 533.537 359.94C530.565 350.566 524.735 345.479 537.024 342.335C549.257 339.134 549.257 331.588 552.972 328.159Z" fill="white"/>
<path d="M535.539 403.04C535.482 401.668 534.853 370.058 540.798 364.685C546.8 359.255 548 349.652 548.115 344.393C548.343 337.591 557.146 333.532 557.546 333.361L558.004 334.333C557.889 334.39 549.429 338.277 549.201 344.45C549.029 351.081 547.543 360.112 541.484 365.542C535.94 370.515 536.625 402.64 536.625 402.983L535.539 403.04Z" fill="url(#paint6_linear_1460_28347)"/>
<path d="M557.77 390.122L547.939 427.333H525.989L516.214 390.122H557.77Z" fill="url(#paint7_linear_1460_28347)"/>
<path d="M557.77 390.122C543.366 392.827 536.163 405.231 536.163 427.333H525.989L516.214 390.122H557.77Z" fill="url(#paint8_linear_1460_28347)"/>
<path d="M171.02 296.035H142.154V292.777H171.02V296.035Z" fill="#1487E3"/>
<path d="M136.098 202.52H90.0269V143.53H91.1129V201.434H136.098V202.52Z" fill="#78C2FF"/>
<path d="M331.302 163.651H330.216V102.889H388.863V51.7305H390.006V103.975H331.302V163.651Z" fill="#78C2FF"/>
<path d="M520.844 231.387H459.796V230.3H519.758V194.861H520.844V231.387Z" fill="#78C2FF"/>
<path d="M64.4203 280.659C63.5438 292.891 64.3059 299.751 66.7067 301.237C68.936 302.609 77.853 307.239 77.6244 308.096C77.4338 308.668 75.7381 311.24 72.5371 315.813C61.1049 308.268 55.1983 303.314 54.8173 300.951C54.2457 297.464 55.6747 274.086 58.0183 273C59.7902 272.199 60.7048 272.885 62.9341 274.543C65.03 276.067 65.5254 278.106 64.4203 280.659Z" fill="#FF7E55"/>
<path d="M62.4214 414.187C62.0401 416.665 61.8303 418.076 61.7922 418.419C61.7541 418.801 59.7712 418.705 55.8436 418.133L55.386 413.672C59.5805 413.672 61.9257 413.843 62.4214 414.187Z" fill="#424773"/>
<path d="M61.843 417.959C63.1005 419.445 64.32 420.512 65.5013 421.16C67.3304 422.131 70.1885 422.531 71.2174 423.56C72.0176 424.303 74.0182 427.39 66.5302 427.333C59.0421 427.276 55.441 427.79 54.6408 426.59C54.1073 425.79 54.4883 422.836 55.784 417.73C56.9653 418.149 58.985 418.225 61.843 417.959Z" fill="#292C47"/>
<path d="M91.8599 414.187C91.4785 416.665 91.2688 418.076 91.2307 418.419C91.1926 418.801 89.2097 418.705 85.282 418.133L84.8245 413.672C89.019 413.672 91.3641 413.843 91.8599 414.187Z" fill="#424773"/>
<path d="M91.2868 417.959C92.5444 419.445 93.7638 420.512 94.9451 421.16C96.7743 422.131 103.405 422.932 104.491 423.961C105.234 424.704 106.492 427.619 95.974 427.333C88.486 427.161 84.8849 427.79 84.0846 426.59C83.5511 425.79 83.9322 422.836 85.2278 417.73C86.371 418.187 88.3907 418.263 91.2868 417.959Z" fill="#292C47"/>
<path d="M78.0211 340.392C77.7353 343.479 70.9332 371.716 69.3327 375.66C68.2276 378.251 66.5318 392.065 64.2454 417.102L54.6424 417.216C54.4518 404.793 54.3947 396.943 54.4709 393.666C54.6424 388.693 57.1575 369.487 58.072 360.227C58.9294 351.938 59.7868 343.479 59.3867 335.533C59.12 330.236 60.8348 324.654 64.5312 318.785C73.6769 331.094 78.1735 338.296 78.0211 340.392Z" fill="#292C47"/>
<path d="M93.6265 319.985C95.0746 334.39 95.9701 343.211 96.3131 346.451C96.8847 351.309 96.4845 372.344 96.7703 375.374C97.0562 378.403 94.9412 410.528 94.4268 416.644L83.9092 416.587C83.4138 399.248 83.1661 386.368 83.1661 377.946C83.1661 365.371 79.9079 350.68 76.1925 342.335C72.477 333.99 64.0173 333.818 61.7308 318.328C80.9368 316.155 91.5687 316.708 93.6265 319.985Z" fill="#292C47"/>
<path d="M70.365 244.762C74.7473 241.828 78.4818 241.943 81.5685 245.105C86.1985 249.793 88.485 260.882 85.1125 263.054C81.7972 265.283 76.1954 265.855 73.5089 262.882C70.8223 259.853 67.9643 255.28 67.2783 251.965C66.5924 248.592 68.7074 246.191 70.365 244.762Z" fill="#EEA886"/>
<path d="M82.8832 263.853C82.8451 266.902 82.9975 268.769 83.3405 269.455C83.6834 270.103 80.4824 270.427 73.7375 270.427C73.1659 266.883 72.3656 263.587 71.3367 260.538C70.3078 257.528 74.1567 258.633 82.8832 263.853Z" fill="#EEA886"/>
<path d="M66.4172 250.878C65.6169 248.325 67.3508 245.886 71.6188 243.562C79.7928 238.36 85.4517 246.877 84.0799 248.649C83.1653 249.792 83.3368 251.374 84.5943 253.394L83.3368 253.622L82.365 252.708C82.4794 253.165 82.1745 253.622 81.4505 254.079C80.3644 254.765 77.8493 259.281 75.2199 260.367C73.4289 261.091 72.2095 261.129 71.5617 260.481C69.6182 258.881 67.5604 254.708 66.4172 250.878Z" fill="#754836"/>
<path d="M72.5371 268.885V266.655C73.6234 266.255 82.1997 267.055 83.0573 267.284C83.6291 267.398 83.915 268.084 83.915 269.342C77.7019 269.838 73.9093 269.685 72.5371 268.885Z" fill="#E2D2CA"/>
<path d="M82.1983 255.455C81.3404 255.855 79.1096 253.567 79.2812 251.394C79.4528 249.277 81.5692 250.764 81.8551 251.336C82.6559 252.938 82.9991 254.997 82.1983 255.455Z" fill="#EEA886"/>
<path d="M68.4171 245.905C62.1675 247.581 63.1011 252.326 71.218 260.138L68.4171 245.905Z" fill="#754836"/>
<path d="M152.675 296.95C152.561 297.35 145.244 300.208 142.844 300.036C141.891 299.96 139.738 299.693 136.385 299.236L133.584 296.664L136.613 295.349C137.928 294.892 139.586 295.006 140.614 294.949C141.7 294.835 144.444 293.577 144.844 294.149C145.187 294.549 143.815 295.406 143.015 295.864L152.618 295.978C152.809 296.092 152.828 296.416 152.675 296.95Z" fill="#EEA886"/>
<path d="M109.176 288.489C112.797 292.529 115.178 294.529 116.321 294.491C120.38 294.263 136.785 295.063 137.242 295.234C137.757 295.406 138.671 300.036 138.5 300.265C138.271 300.722 125.582 301.636 120.952 302.094C118.837 302.322 111.634 303.351 108.719 301.694C104.604 299.35 96.1438 291.976 94.6576 290.033C94.0098 298.15 93.7621 303.084 93.9145 304.837C94.086 306.552 97.9729 339.763 97.8586 340.677C97.7442 341.592 78.3668 342.792 70.5929 341.935C65.4103 341.363 61.3138 340.62 58.3034 339.705C61.1233 323.472 62.4761 314.383 62.3618 312.44C62.0569 308.248 61.2567 301.408 59.961 291.919L56.5314 284.717C57.6174 282.316 57.6174 273.17 58.0176 272.999C60.7613 271.779 65.6009 270.408 72.5364 268.883L83.9114 269.341C88.2175 270.369 92.3902 271.227 96.4296 271.913C98.6779 272.942 102.927 278.467 109.176 288.489Z" fill="#FF7E55"/>
<path d="M26.5217 226.013H56.5883V247.734V252.364L52.0154 247.734H26.5217V226.013Z" fill="#FFCB55"/>
<path fill-rule="evenodd" clip-rule="evenodd" d="M510.388 156.678H481.179V127.469H510.388V156.678ZM482.15 155.706H509.416V128.497H482.15V155.706Z" fill="#6AAFE8"/>
<path fill-rule="evenodd" clip-rule="evenodd" d="M583.035 138.215H516.214V131.07H583.035V138.215ZM517.186 137.243H582.064V132.042H517.186V137.243Z" fill="#6AAFE8"/>
<path fill-rule="evenodd" clip-rule="evenodd" d="M583.039 171.368H481.179V164.223H583.039V171.368ZM482.15 170.396H582.067V165.195H482.15V170.396Z" fill="#6AAFE8"/>
<path fill-rule="evenodd" clip-rule="evenodd" d="M546.056 185.086H481.179V177.941H546.056V185.086ZM482.15 184.115H545.084V178.913H482.15V184.115Z" fill="#6AAFE8"/>
<path fill-rule="evenodd" clip-rule="evenodd" d="M561.486 151.818H516.214V144.673H561.486V151.818ZM517.186 150.847H560.514V145.645H517.186V150.847Z" fill="#6AAFE8"/>
<path fill-rule="evenodd" clip-rule="evenodd" d="M594.645 200.576H469.634V111.977H594.645V200.576ZM470.606 199.605H593.673V112.892H470.606V199.605Z" fill="#6AAFE8"/>
<path d="M425.507 72.2531H416.187V71.1668H424.42V62.9336H425.507V72.2531Z" fill="#6AAFE8"/>
<path d="M362.627 72.2531H353.25V62.9336H354.336V71.1668H362.627V72.2531Z" fill="#6AAFE8"/>
<path d="M354.336 9.37673H353.25V0H362.627V1.08633H354.336V9.37673Z" fill="#6AAFE8"/>
<path d="M425.507 9.37673H424.42V1.08633H416.187V0H425.507V9.37673Z" fill="#6AAFE8"/>
<path d="M425.504 48.9295H424.418V23.3215H425.504V48.9295Z" fill="#6AAFE8"/>
<path d="M354.336 48.9295H353.25V23.3215H354.336V48.9295Z" fill="#6AAFE8"/>
<path fill-rule="evenodd" clip-rule="evenodd" d="M90.5423 144.104C88.3696 144.104 86.54 142.331 86.54 140.101C86.54 137.872 88.3696 136.099 90.5423 136.099C92.7721 136.099 94.5446 137.872 94.5446 140.101C94.5446 142.331 92.7721 144.104 90.5423 144.104ZM90.5423 137.185C88.9414 137.185 87.6264 138.5 87.6264 140.101C87.6264 141.702 88.9414 143.017 90.5423 143.017C92.1432 143.017 93.4582 141.702 93.4582 140.101C93.4582 138.5 92.1432 137.185 90.5423 137.185Z" fill="#78C2FF"/>
<path fill-rule="evenodd" clip-rule="evenodd" d="M389.438 52.2474C387.208 52.2474 385.435 50.475 385.435 48.2452C385.435 46.0725 387.208 44.2429 389.438 44.2429C391.667 44.2429 393.44 46.0725 393.44 48.2452C393.44 50.475 391.667 52.2474 389.438 52.2474ZM389.438 45.3293C387.837 45.3293 386.522 46.6443 386.522 48.2452C386.522 49.9033 387.837 51.1611 389.438 51.1611C391.038 51.1611 392.353 49.9033 392.353 48.2452C392.353 46.6443 391.038 45.3293 389.438 45.3293Z" fill="#78C2FF"/>
<path fill-rule="evenodd" clip-rule="evenodd" d="M520.336 195.606C518.106 195.606 516.333 193.777 516.333 191.604C516.333 189.374 518.106 187.602 520.336 187.602C522.508 187.602 524.338 189.374 524.338 191.604C524.338 193.777 522.508 195.606 520.336 195.606ZM520.336 188.688C518.735 188.688 517.42 190.003 517.42 191.604C517.42 193.205 518.735 194.52 520.336 194.52C521.937 194.52 523.252 193.205 523.252 191.604C523.252 190.003 521.937 188.688 520.336 188.688Z" fill="#78C2FF"/>
<path fill-rule="evenodd" clip-rule="evenodd" d="M117.119 32.9245H89.6249V5.43018H117.119V32.9245ZM90.7109 31.8384H116.033V6.51623H90.7109V31.8384Z" fill="#A1D4FF"/>
<path d="M103.919 25.722H102.833V12.918H103.919V25.722Z" fill="#A1D4FF"/>
<path d="M109.749 19.8915H96.9453V18.8054H109.749V19.8915Z" fill="#A1D4FF"/>
<path fill-rule="evenodd" clip-rule="evenodd" d="M535.995 66.0779H496.668V38.012H535.995V66.0779ZM497.754 64.9918H534.851V39.1552H497.754V64.9918Z" fill="#A1D4FF"/>
<path d="M516.328 54.9886L496.893 38.9836L497.579 38.1262L516.328 53.6168L535.077 38.1262L535.763 38.9836L516.328 54.9886Z" fill="#A1D4FF"/>
<path d="M535.022 65.9061L520.903 51.0444L521.703 50.3013L535.822 65.1631L535.022 65.9061Z" fill="#A1D4FF"/>
<path d="M497.64 65.9061L496.84 65.1631L510.958 50.3013L511.701 51.0444L497.64 65.9061Z" fill="#A1D4FF"/>
<path fill-rule="evenodd" clip-rule="evenodd" d="M185.716 94.2579L185.315 93.1718C184.934 93.1337 184.572 93.0575 184.229 92.9432L183.372 93.6863L180.971 91.9714L181.428 90.9426C181.2 90.6377 181.009 90.3328 180.857 90.028L179.714 89.9708L179.199 87.0556L180.285 86.6555C180.323 86.2744 180.4 85.9124 180.514 85.5695L179.714 84.712L181.486 82.3113L182.515 82.7686C182.819 82.5399 183.124 82.3494 183.429 82.197L183.486 81.0538L186.401 80.5393L186.802 81.6254C187.183 81.6635 187.545 81.7397 187.888 81.854L188.745 81.0538L191.146 82.8257L190.689 83.8546C190.917 84.1595 191.108 84.4643 191.26 84.7692L192.403 84.8264L192.918 87.7416L191.832 88.1417C191.794 88.5228 191.717 88.8848 191.603 89.2277L192.346 90.0852L190.631 92.4859L189.602 92.0286C189.298 92.2573 188.993 92.4478 188.688 92.6002L188.631 93.7434L185.716 94.2579ZM184.058 92.0286L184.287 92.0858C184.706 92.2763 185.163 92.3906 185.658 92.4287H185.887L186.23 93.3433L187.83 93.0575L187.888 92.0858L188.116 91.9714C188.535 91.7809 188.936 91.5332 189.317 91.2284L189.488 91.114L190.403 91.5142L191.317 90.1423L190.631 89.4564L190.746 89.2277C190.898 88.7705 191.012 88.3132 191.089 87.8559V87.5701L192.003 87.2271L191.717 85.6266H190.746L190.631 85.398C190.441 84.9407 190.193 84.5406 189.888 84.1976L189.717 83.9689L190.117 83.1115L188.802 82.1398L188.116 82.8257L187.83 82.7114C187.411 82.559 186.973 82.4637 186.516 82.4256H186.23L185.887 81.511L184.287 81.7397L184.229 82.7114L184.001 82.8257C183.582 83.0163 183.2 83.264 182.858 83.5688L182.629 83.7403L181.771 83.3402L180.8 84.6549L181.486 85.398L181.371 85.6266C181.219 86.0458 181.124 86.5031 181.086 86.9985L181.028 87.2271L180.114 87.5701L180.4 89.1706L181.371 89.2277L181.486 89.4564C181.676 89.8756 181.924 90.2757 182.229 90.6568L182.4 90.8282L182 91.7428L183.315 92.6574L184.058 92.0286ZM186.116 90.7139C185.43 90.7139 184.801 90.4853 184.229 90.0852C182.8 89.0563 182.457 87.0556 183.486 85.5695C184.515 84.1404 186.516 83.7975 187.945 84.8264C188.688 85.3408 189.145 86.0839 189.26 86.9413C189.431 87.7987 189.202 88.599 188.745 89.3421C188.231 90.028 187.488 90.4853 186.63 90.6568C186.44 90.6949 186.268 90.7139 186.116 90.7139ZM186.116 85.055C185.373 85.055 184.629 85.398 184.115 86.0839C183.772 86.5983 183.601 87.2271 183.715 87.8559C183.829 88.4846 184.172 89.0563 184.687 89.3992C185.201 89.7993 185.887 89.9708 186.516 89.8565C187.145 89.7422 187.716 89.3992 188.059 88.8276C188.459 88.3132 188.574 87.6844 188.459 87.0556C188.345 86.4269 188.002 85.8553 187.488 85.5123C187.087 85.1693 186.573 85.055 186.116 85.055Z" fill="#A1D4FF"/>
<path fill-rule="evenodd" clip-rule="evenodd" d="M163.021 97.688L162.107 95.2873C161.116 95.1729 160.163 94.9443 159.249 94.6013L157.362 96.3733L152.332 92.7722L153.361 90.4286C152.751 89.6665 152.237 88.8472 151.818 87.9707L149.246 87.8564L148.217 81.7402L150.617 80.8256C150.694 79.8348 150.903 78.8821 151.246 77.9676L149.531 76.1384L153.075 71.0511L155.419 72.08C156.181 71.4703 157.019 70.9558 157.934 70.5367L157.991 67.9644L164.107 66.9355L165.022 69.3363C166.013 69.4506 166.965 69.6793 167.88 70.0222L169.766 68.2502L174.796 71.8514L173.768 74.195C174.377 74.9571 174.892 75.7764 175.311 76.6529L177.883 76.7672L178.912 82.8834L176.511 83.798C176.397 84.7506 176.187 85.7033 175.882 86.656L177.597 88.4851L173.996 93.5724L171.71 92.5435C170.909 93.1533 170.071 93.6677 169.195 94.0869L169.138 96.6591L163.021 97.688ZM158.963 93.3438L159.306 93.4581C160.335 93.8773 161.402 94.125 162.507 94.2012L162.85 94.2584L163.707 96.4305L168.051 95.6874L168.109 93.3438L168.452 93.2295C169.48 92.7722 170.414 92.1815 171.252 91.4575L171.538 91.2289L173.653 92.2006L176.225 88.5995L174.625 86.8846L174.739 86.5988C175.12 85.5318 175.368 84.4458 175.482 83.3407V82.9977L177.712 82.1403L176.969 77.7961L174.625 77.7389L174.453 77.4531C173.996 76.4242 173.425 75.4715 172.739 74.5951L172.51 74.3664L173.425 72.1943L169.823 69.6793L168.166 71.2798L167.823 71.1083C166.794 70.7272 165.727 70.4986 164.622 70.4223L164.279 70.3652L163.421 68.1931L159.077 68.9362L158.963 71.2798L158.677 71.3941C157.648 71.8514 156.715 72.442 155.876 73.1661L155.59 73.3947L153.475 72.423L150.903 76.0241L152.504 77.7389L152.389 78.0247C152.008 79.0917 151.761 80.1778 151.646 81.2829L151.589 81.6259L149.417 82.4261L150.16 86.8275L152.504 86.8846L152.618 87.1704C153.075 88.1993 153.666 89.152 154.39 90.0285L154.619 90.2571L153.647 92.3721L157.248 94.9443L158.963 93.3438ZM163.536 89.3425C162.164 89.3425 160.735 88.9424 159.477 88.0279C156.334 85.7986 155.59 81.3972 157.82 78.1962C160.106 75.0524 164.507 74.3093 167.651 76.5385C170.852 78.825 171.595 83.2264 169.309 86.3702C167.937 88.3137 165.765 89.3425 163.536 89.3425ZM163.593 76.3671C161.707 76.3671 159.877 77.2245 158.734 78.825C157.763 80.1397 157.42 81.7402 157.705 83.2835C157.934 84.884 158.791 86.2559 160.106 87.1704C162.793 89.0567 166.508 88.428 168.452 85.7414C169.366 84.4839 169.709 82.8834 169.423 81.34C169.195 79.7395 168.337 78.3677 167.023 77.4531C165.994 76.71 164.793 76.3671 163.593 76.3671Z" fill="#A1D4FF"/>
<path fill-rule="evenodd" clip-rule="evenodd" d="M20.3492 103.404C9.14571 103.404 0 94.2578 0 83.0543H1.08605C1.08605 93.6862 9.71732 102.317 20.3492 102.317C30.9239 102.317 39.6124 93.6862 39.6124 83.0543C39.6124 72.4224 30.9239 63.7911 20.3492 63.7911V62.7051C31.5527 62.7051 40.6984 71.8508 40.6984 83.0543C40.6984 94.2578 31.5527 103.404 20.3492 103.404ZM20.3492 100.545C10.6891 100.545 2.80088 92.7145 2.80088 83.0543C2.80088 73.3941 10.6891 65.5631 20.3492 65.5631C30.0094 65.5631 37.8404 73.3941 37.8404 83.0543H36.7543C36.7543 74.0229 29.3806 66.6492 20.3492 66.6492C11.2607 66.6492 3.88693 74.0229 3.88693 83.0543C3.88693 92.0857 11.2607 99.4594 20.3492 99.4594V100.545Z" fill="#78C2FF"/>
<path d="M17.8295 89.7993L10.5129 82.4827L11.256 81.6825L17.8295 88.2559L29.376 76.7095L30.1762 77.4526L17.8295 89.7993Z" fill="#78C2FF"/>
<path d="M483.694 458.886H296.378H107.062L140.844 332.447H295.406H449.912L483.694 458.886Z" fill="#104DBE"/>
<path d="M152.557 354.625H171.534C172.335 354.625 172.906 355.254 172.792 355.94L170.963 364.171C170.848 364.685 170.334 365.028 169.705 365.028H150.385C149.585 365.028 148.956 364.399 149.127 363.714L151.299 355.482C151.471 354.968 151.928 354.625 152.557 354.625Z" fill="white"/>
<path d="M180.23 354.625H194.577L192.691 365.028H178.058L180.23 354.625Z" fill="white"/>
<path d="M201.773 354.625H216.12L214.634 365.028L200.001 365.085L201.773 354.625Z" fill="white"/>
<path d="M223.326 354.625H237.673L236.587 365.028H221.954L223.326 354.625Z" fill="white"/>
<path d="M244.816 354.625H259.221L258.535 365.028H243.902L244.816 354.625Z" fill="white"/>
<path d="M266.367 354.625H280.715L280.429 365.028L265.853 365.085L266.367 354.625Z" fill="white"/>
<path d="M441.396 365.028H419.447L417.16 354.625H438.653L441.396 365.028Z" fill="white"/>
<path d="M412.13 365.028H397.496L395.61 354.625H409.957L412.13 365.028Z" fill="white"/>
<path d="M390.18 365.085L375.604 365.028L374.061 354.625H388.408L390.18 365.085Z" fill="white"/>
<path d="M368.286 365.028H353.653L352.567 354.625H366.914L368.286 365.028Z" fill="white"/>
<path d="M346.339 365.028H331.705L331.02 354.625H345.367L346.339 365.028Z" fill="white"/>
<path d="M324.387 365.085L309.754 365.028L309.468 354.625H323.816L324.387 365.085Z" fill="white"/>
<path d="M287.918 354.625H302.266L302.494 365.028H287.918V354.625Z" fill="white"/>
<path d="M146.213 372.802H176.222L174.507 383.549H143.983L146.213 372.802Z" fill="white"/>
<path d="M446.133 383.549H408.407L406.292 372.802H443.333L446.133 383.549Z" fill="white"/>
<path d="M400.808 383.549H385.718L384.003 372.802H398.865L400.808 383.549Z" fill="white"/>
<path d="M378.175 383.549H363.027L361.77 372.802H376.632L378.175 383.549Z" fill="white"/>
<path d="M355.482 383.549H340.392L339.534 372.802H354.396L355.482 383.549Z" fill="white"/>
<path d="M332.843 383.549H317.696L317.295 372.802H332.1L332.843 383.549Z" fill="white"/>
<path d="M141.752 391.95H172.39L170.161 402.639H138.951L141.752 391.95Z" fill="white"/>
<path d="M180.112 391.95H195.431L193.602 402.639H177.997L180.112 391.95Z" fill="white"/>
<path d="M203.092 391.95H218.411H318.042L318.5 402.639H201.435L203.092 391.95Z" fill="white"/>
<path d="M325.757 391.95H341.076L341.934 402.639H326.329L325.757 391.95Z" fill="white"/>
<path d="M348.735 391.95H364.054L365.312 402.639H349.707L348.735 391.95Z" fill="white"/>
<path d="M371.717 391.95H387.094L388.751 402.639H373.146L371.717 391.95Z" fill="white"/>
<path d="M394.753 391.95H410.072L412.187 402.639H396.582L394.753 391.95Z" fill="white"/>
<path d="M417.73 391.95H448.426L451.226 402.639H419.959L417.73 391.95Z" fill="white"/>
<path d="M310.21 383.549H295.176V372.802H309.924L310.21 383.549Z" fill="white"/>
<path d="M287.516 383.548H272.426L272.826 372.802H287.688L287.516 383.548Z" fill="white"/>
<path d="M264.881 383.549H249.734L250.591 372.802H265.396L264.881 383.549Z" fill="white"/>
<path d="M242.19 383.549H227.099L228.357 372.802H243.162L242.19 383.549Z" fill="white"/>
<path d="M219.496 383.549H204.405L206.12 372.802H220.925L219.496 383.549Z" fill="white"/>
<path d="M196.864 383.549H181.716L183.831 372.802H198.693L196.864 383.549Z" fill="white"/>
<path d="M153.244 348.111L155.703 338.792H162.678L160.391 348.111H153.244Z" fill="white"/>
<path d="M169.648 338.792H183.538L181.594 348.109H167.419L169.648 338.792Z" fill="white"/>
<path d="M190.513 338.792H204.461L202.917 348.109H188.684L190.513 338.792Z" fill="white"/>
<path d="M211.438 338.792H225.385L224.185 348.109H210.009L211.438 338.792Z" fill="white"/>
<path d="M232.36 338.792H246.308L245.45 348.109H231.274L232.36 338.792Z" fill="white"/>
<path d="M253.278 338.792H267.225L266.711 348.109H252.535L253.278 338.792Z" fill="white"/>
<path d="M274.201 338.792H288.091L287.977 348.109H273.801L274.201 338.792Z" fill="white"/>
<path d="M295.061 338.792H309.008L309.237 348.109H295.061V338.792Z" fill="white"/>
<path d="M315.984 338.792H329.931L330.56 348.109H316.327L315.984 338.792Z" fill="white"/>
<path d="M336.902 338.792H350.849L351.821 348.109H337.645L336.902 338.792Z" fill="white"/>
<path d="M357.825 338.792H371.715L373.087 348.109H358.911L357.825 338.792Z" fill="white"/>
<path d="M378.691 338.792H392.638L394.353 348.109H380.177L378.691 338.792Z" fill="white"/>
<path d="M399.614 338.792H413.561L415.619 348.109H401.443L399.614 338.792Z" fill="white"/>
<path d="M420.532 338.792H434.479L436.88 348.109H422.704L420.532 338.792Z" fill="white"/>
<path d="M473.862 468.718H116.893C111.463 468.718 107.062 464.316 107.062 458.886H483.694C483.694 464.316 479.292 468.718 473.862 468.718Z" fill="#0C3684"/>
<path d="M344.049 447.682C344.506 450.483 342.391 453.055 339.533 453.055H295.405H251.22C248.419 453.055 246.247 450.483 246.704 447.682L251.62 418.015C251.963 415.786 253.906 414.186 256.136 414.186H295.405H334.617C336.904 414.186 338.79 415.786 339.19 418.015L344.049 447.682Z" fill="#4D78EB"/>
<path d="M202.979 165.937H171.026V162.679H202.979V165.937Z" fill="#E0E0E0"/>
<path d="M234.987 190.573H211.951V187.315H234.987V190.573Z" fill="#E0E0E0"/>
<path d="M253.909 190.573H238.59V187.315H253.909V190.573Z" fill="#1487E3"/>
<path d="M186.686 252.536H171.424V249.278H186.686V252.536Z" fill="#1487E3"/>
<path d="M293.862 190.573H256.936V187.315H293.862V190.573Z" fill="#E0E0E0"/>
<path d="M195.146 240.132H171.424V236.874H195.146V240.132Z" fill="#E0E0E0"/>
<path d="M218.982 264.825H204.521V261.567H218.982V264.825Z" fill="#E0E0E0"/>
<path d="M200.119 264.825H171.424V261.567H200.119V264.825Z" fill="#1487E3"/>
<path d="M187.258 277.172H171.424V273.857H187.258V277.172Z" fill="#E0E0E0"/>
<path d="M231.901 165.937H209.208V162.679H231.901V165.937Z" fill="#78C2FF"/>
<path d="M231.901 202.921H209.208V199.605H231.901V202.921Z" fill="#1487E3"/>
<path d="M207.557 215.211H197.894V211.952H207.557V215.211Z" fill="#E0E0E0"/>
<path d="M209.95 227.729H188.172V224.471H209.95V227.729Z" fill="#78C2FF"/>
<path d="M243.274 227.729H213.207V224.471H243.274V227.729Z" fill="#1487E3"/>
<path d="M194.06 215.323H171.424V212.065H194.06V215.323Z" fill="#1487E3"/>
<path d="M184.857 227.729H171.424V224.471H184.857V227.729Z" fill="#1487E3"/>
<path d="M224.816 215.323H212.126V212.065H224.816V215.323Z" fill="#FF8761"/>
<path d="M184.461 289.461H171.771V286.203H184.461V289.461Z" fill="#FF8761"/>
<path d="M194.005 190.573H171.312V187.315H194.005V190.573Z" fill="#78C2FF"/>
<path d="M214.066 252.536H191.373V249.278H214.066V252.536Z" fill="#78C2FF"/>
<path d="M214.353 277.172H191.66V273.857H214.353V277.172Z" fill="#78C2FF"/>
<path d="M254.589 277.172H231.954V273.857H254.589V277.172Z" fill="#78C2FF"/>
<path d="M203.665 202.921H171.312V199.605H203.665V202.921Z" fill="#78C2FF"/>
<path d="M345.479 165.937H322.786V162.679H345.479V165.937Z" fill="#78C2FF"/>
<path d="M264.708 289.461H242.015V286.203H264.708V289.461Z" fill="#78C2FF"/>
<path d="M367.714 165.937H352.509V162.679H367.714V165.937Z" fill="#78C2FF"/>
<path d="M419.103 178.284H403.898V175.026H419.103V178.284Z" fill="#78C2FF"/>
<path d="M266.885 165.937H237.961V162.679H266.885V165.937Z" fill="#1487E3"/>
<path d="M379.435 178.284H350.569V175.026H379.435V178.284Z" fill="#1487E3"/>
<path d="M343.992 190.573H315.126V187.315H343.992V190.573Z" fill="#1487E3"/>
<path d="M306.378 202.921H277.512V199.605H306.378V202.921Z" fill="#1487E3"/>
<path d="M368.168 190.573H347.647V187.315H368.168V190.573Z" fill="#78C2FF"/>
<path d="M317.127 165.937H288.261V162.679H317.127V165.937Z" fill="#FF8761"/>
<path d="M272.198 202.921H255.279V199.605H272.198V202.921Z" fill="#FF8761"/>
<path d="M258.935 252.707H242.015V249.449H258.935V252.707Z" fill="#FF8761"/>
<path d="M282.773 165.938H272.195V162.679H282.773V165.938Z" fill="#E0E0E0"/>
<path d="M248.539 202.921H237.961V199.605H248.539V202.921Z" fill="#E0E0E0"/>
<path d="M396.983 178.285H386.406V175.026H396.983V178.285Z" fill="#E0E0E0"/>
<path d="M187.603 178.284H171.026V175.026H187.603V178.284Z" fill="#1487E3"/>
<path d="M228.242 240.189H215.21V236.931H228.242V240.189Z" fill="#1487E3"/>
<path d="M196.979 178.286H191.66V175.026H196.979V178.286Z" fill="#1487E3"/>
<path d="M345.482 178.284H301.354V175.026H345.482V178.284Z" fill="#E0E0E0"/>
<path d="M303.12 277.172H258.935V273.857H303.12V277.172Z" fill="#E0E0E0"/>
<path d="M206.352 178.286H200.918V175.026H206.352V178.286Z" fill="#FF8761"/>
<path d="M297.234 178.284H282.772V175.026H297.234V178.284Z" fill="#1487E3"/>
<path d="M311.697 190.573H297.235V187.315H311.697V190.573Z" fill="#FF8761"/>
<path d="M237.385 289.461H222.981V286.203H237.385V289.461Z" fill="#FF8761"/>
<path d="M279.002 178.284H248.25V175.026H279.002V178.284Z" fill="#1487E3"/>
<path d="M237.556 252.707H219.608V249.449H237.556V252.707Z" fill="#1487E3"/>
<path d="M227.445 277.173H218.468V273.857H227.445V277.173Z" fill="#1487E3"/>
<path d="M243.849 178.285H233.272V175.026H243.849V178.285Z" fill="#78C2FF"/>
<path d="M208.296 190.574H197.719V187.315H208.296V190.574Z" fill="#FF8761"/>
<path d="M210.409 240.19H199.831V236.931H210.409V240.19Z" fill="#FF8761"/>
<path d="M229.27 178.284H210.864V175.026H229.27V178.284Z" fill="#1487E3"/>
<g opacity="0.8">
<path opacity="0.8" d="M480.664 305.524H347.022C344.507 305.524 342.449 303.466 342.449 300.951V208.294C342.449 205.778 344.507 203.721 347.022 203.721H480.664C483.179 203.721 485.237 205.778 485.237 208.294V300.951C485.237 303.466 483.179 305.524 480.664 305.524Z" fill="white"/>
</g>
<path d="M469.802 263.168H446.823C445.852 263.168 445.051 262.425 445.051 261.453V257.909C445.051 256.937 445.852 256.137 446.823 256.137H469.802C470.774 256.137 471.574 256.937 471.574 257.909V261.453C471.574 262.425 470.774 263.168 469.802 263.168Z" fill="#4AAFFF"/>
<path d="M469.802 276.429H446.823C445.852 276.429 445.051 275.629 445.051 274.657V271.114C445.051 270.142 445.852 269.342 446.823 269.342H469.802C470.774 269.342 471.574 270.142 471.574 271.114V274.657C471.574 275.629 470.774 276.429 469.802 276.429Z" fill="#4AAFFF"/>
<path d="M469.802 289.69H446.823C445.852 289.69 445.051 288.89 445.051 287.918V284.374C445.051 283.403 445.852 282.602 446.823 282.602H469.802C470.774 282.602 471.574 283.403 471.574 284.374V287.918C471.574 288.89 470.774 289.69 469.802 289.69Z" fill="#4AAFFF"/>
<path fill-rule="evenodd" clip-rule="evenodd" d="M408.354 290.719C392.521 296.435 375.373 291.291 365.084 279.173C362.626 276.257 360.511 272.999 358.968 269.341C358.625 268.541 358.301 267.721 357.996 266.883C354.966 258.48 355.023 249.735 357.481 241.847C361.025 230.472 369.714 220.812 381.832 216.524C385.833 215.095 389.892 214.352 393.893 214.181C410.527 213.724 426.303 223.841 432.19 240.36C439.564 260.824 428.875 283.402 408.354 290.719ZM422.93 243.676C418.472 231.272 406.697 223.67 394.236 224.07C391.206 224.184 388.12 224.698 385.147 225.785C376.059 229.043 369.542 236.245 366.913 244.819C365.027 250.707 365.027 257.28 367.256 263.568C367.484 264.177 367.732 264.787 367.999 265.397C369.199 268.141 370.743 270.599 372.572 272.771C380.289 281.859 393.15 285.689 405.039 281.459C420.415 275.972 428.418 259.052 422.93 243.676Z" fill="#4AAFFF"/>
<path d="M366.916 244.819L357.485 241.846C361.029 230.471 369.717 220.811 381.835 216.524C385.837 215.095 389.895 214.352 393.896 214.181L394.239 224.069C391.21 224.184 388.123 224.698 385.151 225.784C376.062 229.042 369.546 236.245 366.916 244.819Z" fill="#1A598C"/>
<path d="M367.999 265.398L358.968 269.342C358.625 268.541 358.301 267.722 357.996 266.884C354.966 258.481 355.023 249.736 357.481 241.847L366.913 244.82C365.027 250.707 365.027 257.281 367.256 263.568C367.484 264.178 367.732 264.788 367.999 265.398Z" fill="#2273B5"/>
<path d="M365.084 279.173C362.627 276.258 360.512 273 358.968 269.341L368 265.397C369.2 268.141 370.743 270.599 372.573 272.771L365.084 279.173Z" fill="#3788CC"/>
<path d="M408.244 277.001C406.987 274.752 407.368 270.656 409.388 264.711C412.303 256.023 422.42 256.823 425.678 262.368C428.879 267.912 427.793 271.342 423.049 277.63C418.305 283.917 410.245 279.859 408.244 277.001Z" fill="#EEA886"/>
<path d="M438.431 430.592L437.974 434.939C434.275 435.549 432.407 435.663 432.368 435.282C432.33 434.901 432.14 433.49 431.796 431.049C432.254 430.706 434.466 430.554 438.431 430.592Z" fill="#EEA886"/>
<path d="M437.963 434.593C439.22 439.661 439.582 442.576 439.049 443.339C438.306 444.539 434.933 444.082 427.903 444.139C420.872 444.196 422.815 441.052 423.501 440.366C424.53 439.337 427.159 438.994 428.874 438.023C429.979 437.375 431.123 436.308 432.304 434.822C434.933 434.974 436.82 434.898 437.963 434.593Z" fill="#414773"/>
<path d="M400.185 430.592L399.727 434.939C396.066 435.549 394.217 435.663 394.179 435.282C394.141 434.901 393.95 433.49 393.607 431.049C394.065 430.706 396.257 430.554 400.185 430.592Z" fill="#EEA886"/>
<path d="M399.781 434.593C401 439.661 401.362 442.576 400.867 443.339C400.124 444.539 396.751 443.91 389.72 444.139C379.832 444.368 381.032 441.509 381.775 440.766C382.747 439.737 388.977 438.994 390.692 438.023C391.797 437.375 392.94 436.308 394.122 434.822C396.446 434.898 398.333 434.822 399.781 434.593Z" fill="#414773"/>
<path d="M429.961 339.477C431.828 345.346 432.647 350.814 432.419 355.882C432.019 363.427 433.848 371.716 434.591 379.661C435.448 388.464 438.878 409.327 438.992 414.072C439.068 417.197 438.897 423.789 438.478 433.849L431.619 434.021C427.77 409.67 425.35 396.257 424.359 393.78C422.873 390.064 415.499 363.485 415.213 360.512C415.061 358.531 419.977 351.519 429.961 339.477Z" fill="#2D314F"/>
<path d="M429.96 339.476C427.903 354.224 420.186 354.395 416.871 362.398C413.498 370.343 408.296 384.462 408.296 396.523C408.296 404.563 405.686 417.062 400.465 434.02H392.806C394.121 429.733 395.55 394.693 395.778 391.778C396.064 388.863 396.407 371.086 396.864 366.456C397.207 363.369 398.77 354.071 401.551 338.562C403.419 335.437 412.888 335.742 429.96 339.476Z" fill="#2D314F"/>
<path d="M423.045 277.629C422.016 279.649 421.673 281.897 422.016 284.374C414.128 285.098 410.469 284.851 411.041 283.631C411.612 282.45 411.612 281.021 411.041 279.344C420.072 276.181 424.073 275.61 423.045 277.629Z" fill="#EEA886"/>
<path d="M430.475 341.421C427.655 344.317 417.88 344.089 401.151 340.735L401.551 338.563L430.017 339.649L430.475 341.421Z" fill="#2B3B57"/>
<path d="M418.243 283.631C419.806 284.241 421.311 284.584 422.759 284.66C424.931 284.717 429.847 285.346 431.733 285.346C433.62 285.289 440.593 275.457 439.907 273.228C439.412 271.742 437.373 265.759 433.791 255.279C435.506 253.298 436.973 253.05 438.192 254.536C439.964 256.765 448.939 274.6 448.653 277.286C448.5 279.077 444.27 285.917 435.963 297.807H403.896C400.619 295.711 396.827 293.939 392.521 292.491C386.005 290.376 379.374 285.289 378.631 284.66C377.888 284.031 376.63 278.887 376.173 276.6C375.716 274.485 374.916 267.226 374.287 264.196C373.944 262.596 377.888 261.396 378.116 263.739C378.345 266.026 382.575 276.829 382.804 277.4C383.089 278.029 390.463 283.059 392.178 283.231C393.893 283.402 402.353 285.174 403.61 284.946C404.449 284.755 406.316 284.527 409.212 284.26L418.243 283.631Z" fill="#EEA886"/>
<path d="M388.691 292.605C388.234 290.395 389.301 287.099 391.892 282.717C398.332 283.631 402.029 284.031 402.981 283.917C403.744 283.841 406.468 283.536 411.155 283.002C415.119 284.184 417.481 284.26 418.243 283.231C418.243 283.288 428.475 285.117 430.133 284.889C431.238 284.698 433.505 282.602 436.935 278.601C439.069 278.677 441.641 281.097 444.652 285.86C444.251 287.461 435.563 299.636 434.877 301.18C434.134 302.666 432.019 313.984 431.562 318.614C431.257 321.7 430.743 328.712 430.018 339.649C426.189 342.621 401.209 339.649 401.381 338.391C401.552 337.134 402.924 319.585 402.181 317.185C401.495 314.784 400.066 307.696 399.723 303.237C399.457 300.227 398.028 297.864 395.436 296.149L388.691 292.605Z" fill="#FFC655"/>
<path d="M374.347 264.711C374.061 263.225 371.318 259.395 370.575 257.966C369.889 256.537 369.489 252.478 369.603 251.049C369.641 250.135 370.003 249.868 370.689 250.249C370.498 249.716 370.498 249.163 370.689 248.591C370.841 247.982 371.241 248.077 371.889 248.877C371.851 248.191 372.023 247.696 372.404 247.391C372.747 247.124 373.185 247.715 373.718 249.163C373.68 248.325 373.89 247.848 374.347 247.734C375.033 247.505 375.433 250.363 375.49 251.45C375.548 252.536 376.348 256.937 376.862 257.051C377.377 257.223 378.234 256.937 379.549 255.737C380.864 254.479 382.35 255.051 382.35 255.451C382.35 255.908 380.806 256.765 380.692 257.051C380.578 257.337 379.092 259.109 378.52 259.795C377.796 260.595 377.739 262.367 378.348 265.111C375.91 265.835 374.576 265.702 374.347 264.711Z" fill="#EEA886"/>
<path d="M434.648 257.851C432.667 254.498 431.352 252.669 430.704 252.364C429.675 251.907 428.246 251.678 426.989 250.763C425.731 249.906 424.073 249.163 424.188 248.82C424.245 248.534 425.731 248.649 427.332 249.334C428.875 250.02 429.561 249.677 429.732 249.334C429.904 248.991 428.875 246.476 428.418 245.848C427.96 245.276 424.531 241.846 425.102 241.332C425.674 240.817 427.903 242.704 428.246 243.104C427.065 240.627 426.703 239.331 427.16 239.217C427.617 239.103 428.265 239.484 429.104 240.36C429.027 238.264 430.113 238.912 432.362 242.304C431.904 241.199 432.019 240.837 432.705 241.218C433.734 241.732 434.762 244.933 435.105 246.534C435.448 248.191 436.935 253.279 438.192 254.536C439.03 255.374 437.849 256.479 434.648 257.851Z" fill="#EEA886"/>
<path d="M423.048 277.629C422.019 277.706 420.38 277.363 418.132 276.6C414.817 275.457 414.531 269.627 413.845 270.313C412.359 271.742 410.987 270.77 410.415 269.913C411.482 268.465 411.768 267.398 411.273 266.712C410.777 266.026 410.11 265.435 409.272 264.94C410.872 257.394 415.236 255.337 422.362 258.766C430.707 262.806 430.936 269.093 423.048 277.629Z" fill="#353A3D"/>
<path d="M411.042 283.631L411.385 282.03C415.959 281.916 419.484 282.049 421.962 282.431L422.362 284.374C419.16 285.823 415.387 285.575 411.042 283.631Z" fill="#D4D8E8"/>
<path d="M412.699 268.884C413.329 267.854 415.617 267.168 415.903 270.085C416.131 272.316 411.784 274.832 411.727 272.716C411.727 270.6 412.299 269.57 412.699 268.884Z" fill="#EEA886"/>
<path d="M378.467 265.34C377.399 265.493 376.141 265.893 374.692 266.541C374.501 266.198 374.444 265.798 374.52 265.34C375.321 264.616 376.541 264.234 378.181 264.196C378.371 264.387 378.467 264.768 378.467 265.34Z" fill="#E55353"/>
<path d="M376.628 264.254C377.2 264.483 377.429 265.055 377.2 265.626C376.971 266.141 376.342 266.427 375.827 266.198C375.255 265.97 375.026 265.341 375.255 264.769C375.484 264.254 376.113 264.025 376.628 264.254Z" fill="#353A3D"/>
<path d="M314.784 177.256C317.108 181.257 318.766 183.581 319.757 184.229C321.815 185.544 320.557 186.859 319.585 186.859C318.614 186.859 313.698 187.202 312.669 186.001C311.583 184.801 311.011 181.085 310.039 180.171C309.011 179.199 307.982 175.369 310.497 174.455C311.983 173.921 313.412 174.855 314.784 177.256Z" fill="#6069A8"/>
<path d="M313.241 174.626C315.948 179.314 317.529 182.002 317.987 182.688C318.673 183.717 316.672 183.717 315.414 183.202C314.156 182.745 311.069 177.714 310.611 176.799C310.268 176.075 310.23 175.293 310.497 174.455L313.241 174.626Z" fill="#202338"/>
<path d="M310.44 180.456L310.612 185.602L310.097 185.545L309.183 178.398L310.44 180.456Z" fill="#6069A8"/>
<path d="M279.855 177.255C282.217 181.256 283.894 183.58 284.885 184.228C286.885 185.543 285.628 186.858 284.656 186.858C283.684 186.858 278.826 187.201 277.74 186C276.654 184.8 276.139 181.084 275.11 180.17C274.138 179.198 273.052 175.254 275.625 174.454C277.111 173.958 278.521 174.892 279.855 177.255Z" fill="#6069A8"/>
<path d="M278.543 174.683C281.097 179.334 282.602 182.002 283.06 182.688C283.746 183.717 281.744 183.717 280.487 183.202C279.286 182.745 276.141 177.714 275.684 176.799C275.341 176.075 275.322 175.293 275.627 174.455L278.543 174.683Z" fill="#202338"/>
<path d="M275.518 180.456L275.689 185.602L275.175 185.545L274.26 178.398L275.518 180.456Z" fill="#6069A8"/>
<path d="M284.716 118.037C296.682 122.914 304.132 126.535 307.066 128.897C307.637 129.354 307.98 129.755 307.98 130.098C308.038 130.555 308.152 131.984 308.323 134.099C309.124 143.988 311.41 168.681 313.239 174.626C313.392 175.464 312.477 175.407 310.495 174.454C304.36 161.422 300.873 150.79 300.035 142.559C299.768 139.929 298.454 138.233 296.091 137.471L264.252 122.952C268.863 119.447 275.685 117.808 284.716 118.037Z" fill="#202338"/>
<path d="M262.307 115.808C268.671 117.485 273.872 118.78 277.912 119.695C282.427 120.724 290.487 125.239 295.174 128.212C296.775 129.183 297.918 130.041 298.49 130.441C299.004 130.898 299.061 131.927 298.89 133.299C298.432 137.415 295.689 144.217 294.717 145.474C291.745 149.399 286.353 159.136 278.541 174.683C276.75 174.836 275.778 174.76 275.625 174.455C278.14 165.271 279.931 158.069 280.998 152.848C281.989 147.97 283.799 142.635 286.429 136.843H271.51C263.317 137.491 258.896 134.938 258.249 129.183C257.601 123.467 258.953 119.009 262.307 115.808Z" fill="#202338"/>
<path d="M268.369 62.8769C266.883 60.0569 266.502 57.1417 267.226 54.1313C268.312 49.6156 272.485 45.1571 278.658 47.2148C284.774 49.2726 289.69 54.017 286.032 59.5044C282.374 64.9918 289.347 67.5069 287.575 70.1363C285.803 72.7657 286.489 75.4522 287.232 76.081C287.975 76.7098 290.433 78.8819 290.147 81.4541C289.957 83.1689 285.994 80.6729 278.258 73.9661C274.028 65.4682 270.732 61.7718 268.369 62.8769Z" fill="#464240"/>
<path d="M287.06 116.951C286.451 119.962 278.2 119.581 262.31 115.808C267.645 114.055 275.895 114.436 287.06 116.951Z" fill="#EB4747"/>
<path d="M267.169 106.033C267.741 102.26 266.598 98.316 265.512 94.7721C263.339 87.5698 264.54 84.9404 257.223 83.74C261.853 75.1659 264.768 75.0516 274.2 74.3085C277.115 74.0227 278.83 74.2514 281.517 75.1659C289.691 78.0811 290.605 81.7966 293.235 89.2846C291.52 88.9988 291.234 88.9988 289.519 88.713C289.862 94.5434 286.661 98.5447 286.375 104.375C286.089 109.062 285.689 115.35 287.061 119.923C278.373 119.656 269.665 119.408 260.939 119.18C261.32 118.456 261.701 117.751 262.082 117.065C262.082 113.692 266.598 109.691 267.169 106.033Z" fill="#325BB3"/>
<path d="M277.17 76.9975C274.578 76.502 273.568 75.53 274.14 74.0816C274.254 73.2811 274.331 72.3663 274.369 71.3372C274.407 70.956 274.426 70.5558 274.426 70.1365C274.426 69.4504 274.369 68.8215 274.311 68.1925C274.083 66.4773 276.427 66.1342 281.344 67.1634C281.077 70.6701 281.268 72.9571 281.916 74.0244C282.945 75.5681 281.058 77.7408 277.17 76.9975Z" fill="#EEA886"/>
<path d="M281.802 74.3091C283.174 79.5679 282.735 83.2071 280.487 85.2268C278.582 83.8168 275.019 80.1014 269.798 74.0804C275.286 72.9372 279.287 73.0134 281.802 74.3091Z" fill="#EEA886"/>
<path d="M280.262 52.645C285.693 54.8171 282.949 61.8478 282.435 63.1054C281.92 64.3629 274.032 74.9948 269.974 67.5639C267.268 62.6481 267.287 57.5799 270.031 52.3592C271.174 50.1871 274.889 50.4729 280.262 52.645Z" fill="#EEA886"/>
<path d="M271.34 55.1019C269.473 57.5789 268.425 59.7129 268.196 61.5039C267.472 58.0743 268.158 54.7209 270.254 51.4437C273.398 46.5278 281.401 51.215 282.487 53.1585C283.573 55.1591 286.717 56.8739 281.401 65.3337C275.075 60.9514 271.721 57.5408 271.34 55.1019Z" fill="#464240"/>
<path d="M277.861 68.3635C277.403 69.3931 276.24 70.3845 274.372 71.3378C274.41 70.9565 274.429 70.5561 274.429 70.1367C275.649 69.9841 276.793 69.3931 277.861 68.3635Z" fill="#A77860"/>
<path d="M238.302 112.893C237.73 113.312 237.33 113.56 237.101 113.636C236.815 113.807 235.957 116.037 234.414 117.124C232.813 118.267 230.068 114.322 230.297 113.75C230.526 113.121 232.984 111.749 232.355 111.52C231.726 111.292 228.753 110.834 228.696 110.091C228.696 109.348 230.526 110.034 231.155 110.034C231.612 110.034 232.984 110.091 233.899 110.491C234.509 110.758 235.462 110.606 236.758 110.034L238.302 112.893Z" fill="#EEA886"/>
<path d="M234.302 117.18C233.044 118.667 232.186 119.753 231.729 120.439C230.986 121.468 230.643 121.011 230.528 120.782C230.414 120.554 231.31 119.162 233.215 116.609C230.395 119.582 228.87 121.183 228.641 121.411C228.298 121.754 227.784 121.411 227.841 121.068C227.841 120.801 229.251 119.01 232.072 115.694C228.87 119.048 227.174 120.782 226.983 120.897C226.755 121.011 226.297 120.554 226.412 120.325C226.488 120.058 228.051 118.133 231.1 114.55C228.394 116.647 226.888 117.809 226.583 118.038C226.126 118.381 225.897 118.152 226.011 117.638C226.049 117.295 227.574 115.865 230.585 113.35L234.302 117.18Z" fill="#EEA886"/>
<path d="M284.828 136.843H271.51C263.317 137.491 258.896 134.938 258.249 129.183C257.601 123.467 258.953 119.009 262.307 115.808C266.613 116.951 270.652 117.98 274.425 118.895C277.283 118.323 280.713 117.923 284.714 118.037C300.719 123.296 308.474 127.335 307.978 130.155C301.31 126.573 293.593 128.802 284.828 136.843Z" fill="#FF7E55"/>
<path d="M276.2 121.923L301.637 121.523L288.776 128.04L276.2 121.923Z" fill="#5E5853"/>
<path d="M284.089 118.665C280.278 120.151 276.029 120.228 271.342 118.894L270.999 116.264L285.461 117.065L284.089 118.665Z" fill="#325BB3"/>
<path d="M288.776 128.04L276.2 123.181V121.924L289.747 126.84L288.776 128.04Z" fill="#91887F"/>
<path d="M283.973 119.865C285.059 105.232 287.117 82.3678 281.801 74.3081C281.877 74.3462 281.973 74.3843 282.087 74.4224C284.888 75.7943 288.032 77.5663 289.861 78.6523C290.718 79.1668 291.29 79.9099 291.633 80.8244C292.261 82.5964 293.405 85.9117 294.662 89.5129C296.663 95.2289 298.949 101.574 299.692 103.689C302.398 107.995 305.427 114.187 308.781 122.266L304.722 121.237L292.719 105.232C292.09 102.946 290.489 98.7157 289.232 95.4576C289.003 96.2007 288.546 97.0009 287.86 97.9726C285.917 100.545 287.231 115.521 287.86 119.351C287.917 119.808 287.631 120.322 287.231 120.494L285.745 121.123C284.888 121.466 283.916 120.837 283.973 119.865Z" fill="#EDDAD3"/>
<path d="M273.402 73.5088C277.822 80.4824 278.451 88.6183 275.288 97.9164C274.202 101.117 272.83 109.52 271.744 117.751C271.687 118.494 271.287 119.066 270.772 119.466C270.144 119.923 269.286 120.095 268.486 119.752L267.343 119.352L262.484 117.58C262.312 117.523 262.141 117.294 262.084 117.065C261.912 116.665 261.855 116.094 262.027 115.808C263.341 113.464 265.571 108.605 265.971 105.633C266.485 101.746 266.542 98.2594 265.571 95.0012C265.571 94.925 265.552 94.8488 265.513 94.7726C264.142 90.1997 262.713 87.0559 262.598 86.8272C261.398 86.6557 257.397 95.287 255.91 97.3448C254.31 99.5169 237.905 113.75 237.733 113.636C237.333 113.464 234.361 109.92 234.532 110.034C235.047 110.32 245.164 98.7167 248.765 95.4585C250.709 93.6865 253.338 88.2563 255.91 83.5119C258.197 79.3392 262.427 75.2236 264.142 74.995C265.132 74.6139 268.219 74.1185 273.402 73.5088Z" fill="#EDDAD3"/>
<path d="M288.774 128.04L296.319 107.405L320.727 107.805L313.524 126.84L288.774 128.04Z" fill="#6E6760"/>
<path d="M307.35 114.778C308.38 115.293 308.609 116.895 307.865 118.382C307.122 119.869 305.634 120.67 304.662 120.155C303.632 119.64 303.404 118.039 304.147 116.551C304.891 115.064 306.321 114.263 307.35 114.778Z" fill="#807066"/>
<path d="M284.485 68.7635C284.657 72.5932 285.914 74.7654 287.743 77.5091C289.515 80.1956 287.286 85.1114 280.255 82.1391C273.167 79.1667 279.512 73.2792 279.226 71.0499C278.883 68.8206 277.111 66.7629 278.54 64.6479C279.493 63.2761 279.455 61.7708 278.426 60.1322C283.113 58.8747 284.371 64.8766 284.485 68.7635Z" fill="#464240"/>
<path d="M227.386 30.981H257.395V52.7592V57.332L252.822 52.7592H227.386V30.981Z" fill="#78C2FF"/>
<defs>
<linearGradient id="paint0_linear_1460_28347" x1="111255" y1="60818.4" x2="255073" y2="60818.4" gradientUnits="userSpaceOnUse">
<stop stop-color="#314960"/>
<stop offset="1" stop-color="#213D5D"/>
</linearGradient>
<linearGradient id="paint1_linear_1460_28347" x1="78286.4" y1="67080.6" x2="87438.1" y2="67080.6" gradientUnits="userSpaceOnUse">
<stop stop-color="#2B7CA5"/>
<stop offset="1" stop-color="#5BA446"/>
</linearGradient>
<linearGradient id="paint2_linear_1460_28347" x1="100508" y1="70538.1" x2="116310" y2="70538.1" gradientUnits="userSpaceOnUse">
<stop stop-color="#2B7CA5"/>
<stop offset="1" stop-color="#5BA446"/>
</linearGradient>
<linearGradient id="paint3_linear_1460_28347" x1="62708.1" y1="75925" x2="69222.5" y2="75925" gradientUnits="userSpaceOnUse">
<stop stop-color="#2B7CA5"/>
<stop offset="1" stop-color="#5BA446"/>
</linearGradient>
<linearGradient id="paint4_linear_1460_28347" x1="19927.8" y1="73897.5" x2="20428.8" y2="73897.5" gradientUnits="userSpaceOnUse">
<stop stop-color="#2B7CA5"/>
<stop offset="1" stop-color="#5BA446"/>
</linearGradient>
<linearGradient id="paint5_linear_1460_28347" x1="59181.2" y1="67691.5" x2="64485.4" y2="67691.5" gradientUnits="userSpaceOnUse">
<stop stop-color="#2B7CA5"/>
<stop offset="1" stop-color="#5BA446"/>
</linearGradient>
<linearGradient id="paint6_linear_1460_28347" x1="24396" y1="46962.5" x2="25258.1" y2="46962.5" gradientUnits="userSpaceOnUse">
<stop stop-color="#2B7CA5"/>
<stop offset="1" stop-color="#5BA446"/>
</linearGradient>
<linearGradient id="paint7_linear_1460_28347" x1="43119.3" y1="28987.2" x2="46140.4" y2="28987.2" gradientUnits="userSpaceOnUse">
<stop stop-color="#FF8E4C"/>
<stop offset="1" stop-color="#FFC95A"/>
</linearGradient>
<linearGradient id="paint8_linear_1460_28347" x1="43119.3" y1="28987.2" x2="46140.4" y2="28987.2" gradientUnits="userSpaceOnUse">
<stop stop-color="#D27138"/>
<stop offset="1" stop-color="#FFC95A"/>
</linearGradient>
</defs>
</svg>
