<svg width="349" height="62" viewBox="0 0 349 62" fill="none" xmlns="http://www.w3.org/2000/svg">
<path d="M180 43L349 43" stroke="#B7CDFF" stroke-width="26"/>
<path d="M36.072 18.872L29.052 44H23.112L18.396 26.108L13.464 44L7.56 44.036L0.792 18.872H6.192L10.62 38.384L15.732 18.872H21.348L26.172 38.276L30.636 18.872H36.072ZM57.9029 33.596C57.9029 34.316 57.8549 34.964 57.7589 35.54H43.1789C43.2989 36.98 43.8029 38.108 44.6909 38.924C45.5789 39.74 46.6709 40.148 47.9669 40.148C49.8389 40.148 51.1709 39.344 51.9629 37.736H57.3989C56.8229 39.656 55.7189 41.24 54.0869 42.488C52.4549 43.712 50.4509 44.324 48.0749 44.324C46.1549 44.324 44.4269 43.904 42.8909 43.064C41.3789 42.2 40.1909 40.988 39.3269 39.428C38.4869 37.868 38.0669 36.068 38.0669 34.028C38.0669 31.964 38.4869 30.152 39.3269 28.592C40.1669 27.032 41.3429 25.832 42.8549 24.992C44.3669 24.152 46.1069 23.732 48.0749 23.732C49.9709 23.732 51.6629 24.14 53.1509 24.956C54.6629 25.772 55.8269 26.936 56.6429 28.448C57.4829 29.936 57.9029 31.652 57.9029 33.596ZM52.6829 32.156C52.6589 30.86 52.1909 29.828 51.2789 29.06C50.3669 28.268 49.2509 27.872 47.9309 27.872C46.6829 27.872 45.6269 28.256 44.7629 29.024C43.9229 29.768 43.4069 30.812 43.2149 32.156H52.6829ZM66.6217 26.972C67.2697 26.012 68.1577 25.232 69.2857 24.632C70.4377 24.032 71.7457 23.732 73.2097 23.732C74.9137 23.732 76.4497 24.152 77.8177 24.992C79.2097 25.832 80.3017 27.032 81.0937 28.592C81.9097 30.128 82.3177 31.916 82.3177 33.956C82.3177 35.996 81.9097 37.808 81.0937 39.392C80.3017 40.952 79.2097 42.164 77.8177 43.028C76.4497 43.892 74.9137 44.324 73.2097 44.324C71.7217 44.324 70.4137 44.036 69.2857 43.46C68.1817 42.86 67.2937 42.092 66.6217 41.156V44H61.5817V17.36H66.6217V26.972ZM77.1697 33.956C77.1697 32.756 76.9177 31.724 76.4137 30.86C75.9337 29.972 75.2857 29.3 74.4697 28.844C73.6777 28.388 72.8137 28.16 71.8777 28.16C70.9657 28.16 70.1017 28.4 69.2857 28.88C68.4937 29.336 67.8457 30.008 67.3417 30.896C66.8617 31.784 66.6217 32.828 66.6217 34.028C66.6217 35.228 66.8617 36.272 67.3417 37.16C67.8457 38.048 68.4937 38.732 69.2857 39.212C70.1017 39.668 70.9657 39.896 71.8777 39.896C72.8137 39.896 73.6777 39.656 74.4697 39.176C75.2857 38.696 75.9337 38.012 76.4137 37.124C76.9177 36.236 77.1697 35.18 77.1697 33.956ZM103.342 18.872C105.982 18.872 108.298 19.388 110.29 20.42C112.306 21.452 113.854 22.928 114.934 24.848C116.038 26.744 116.59 28.952 116.59 31.472C116.59 33.992 116.038 36.2 114.934 38.096C113.854 39.968 112.306 41.42 110.29 42.452C108.298 43.484 105.982 44 103.342 44H94.5582V18.872H103.342ZM103.162 39.716C105.802 39.716 107.842 38.996 109.282 37.556C110.722 36.116 111.442 34.088 111.442 31.472C111.442 28.856 110.722 26.816 109.282 25.352C107.842 23.864 105.802 23.12 103.162 23.12H99.5982V39.716H103.162ZM138.903 33.596C138.903 34.316 138.855 34.964 138.759 35.54H124.179C124.299 36.98 124.803 38.108 125.691 38.924C126.579 39.74 127.671 40.148 128.967 40.148C130.839 40.148 132.171 39.344 132.963 37.736H138.399C137.823 39.656 136.719 41.24 135.087 42.488C133.455 43.712 131.451 44.324 129.075 44.324C127.155 44.324 125.427 43.904 123.891 43.064C122.379 42.2 121.191 40.988 120.327 39.428C119.487 37.868 119.067 36.068 119.067 34.028C119.067 31.964 119.487 30.152 120.327 28.592C121.167 27.032 122.343 25.832 123.855 24.992C125.367 24.152 127.107 23.732 129.075 23.732C130.971 23.732 132.663 24.14 134.151 24.956C135.663 25.772 136.827 26.936 137.643 28.448C138.483 29.936 138.903 31.652 138.903 33.596ZM133.683 32.156C133.659 30.86 133.191 29.828 132.279 29.06C131.367 28.268 130.251 27.872 128.931 27.872C127.683 27.872 126.627 28.256 125.763 29.024C124.923 29.768 124.407 30.812 124.215 32.156H133.683ZM150.898 39.356L155.938 24.056H161.302L153.922 44H147.802L140.458 24.056H145.858L150.898 39.356ZM182.672 33.596C182.672 34.316 182.624 34.964 182.528 35.54H167.948C168.068 36.98 168.572 38.108 169.46 38.924C170.348 39.74 171.44 40.148 172.736 40.148C174.608 40.148 175.94 39.344 176.732 37.736H182.168C181.592 39.656 180.488 41.24 178.856 42.488C177.224 43.712 175.22 44.324 172.844 44.324C170.924 44.324 169.196 43.904 167.66 43.064C166.148 42.2 164.96 40.988 164.096 39.428C163.256 37.868 162.836 36.068 162.836 34.028C162.836 31.964 163.256 30.152 164.096 28.592C164.936 27.032 166.112 25.832 167.624 24.992C169.136 24.152 170.876 23.732 172.844 23.732C174.74 23.732 176.432 24.14 177.92 24.956C179.432 25.772 180.596 26.936 181.412 28.448C182.252 29.936 182.672 31.652 182.672 33.596ZM177.452 32.156C177.428 30.86 176.96 29.828 176.048 29.06C175.136 28.268 174.02 27.872 172.7 27.872C171.452 27.872 170.396 28.256 169.532 29.024C168.692 29.768 168.176 30.812 167.984 32.156H177.452ZM191.391 17.36V44H186.351V17.36H191.391ZM205.227 44.324C203.307 44.324 201.579 43.904 200.043 43.064C198.507 42.2 197.295 40.988 196.407 39.428C195.543 37.868 195.111 36.068 195.111 34.028C195.111 31.988 195.555 30.188 196.443 28.628C197.355 27.068 198.591 25.868 200.151 25.028C201.711 24.164 203.451 23.732 205.371 23.732C207.291 23.732 209.031 24.164 210.591 25.028C212.151 25.868 213.375 27.068 214.263 28.628C215.175 30.188 215.631 31.988 215.631 34.028C215.631 36.068 215.163 37.868 214.227 39.428C213.315 40.988 212.067 42.2 210.483 43.064C208.923 43.904 207.171 44.324 205.227 44.324ZM205.227 39.932C206.139 39.932 206.991 39.716 207.783 39.284C208.599 38.828 209.247 38.156 209.727 37.268C210.207 36.38 210.447 35.3 210.447 34.028C210.447 32.132 209.943 30.68 208.935 29.672C207.951 28.64 206.739 28.124 205.299 28.124C203.859 28.124 202.647 28.64 201.663 29.672C200.703 30.68 200.223 32.132 200.223 34.028C200.223 35.924 200.691 37.388 201.627 38.42C202.587 39.428 203.787 39.932 205.227 39.932ZM224.368 26.936C225.016 26.024 225.904 25.268 227.032 24.668C228.184 24.044 229.492 23.732 230.956 23.732C232.66 23.732 234.196 24.152 235.564 24.992C236.956 25.832 238.048 27.032 238.84 28.592C239.656 30.128 240.064 31.916 240.064 33.956C240.064 35.996 239.656 37.808 238.84 39.392C238.048 40.952 236.956 42.164 235.564 43.028C234.196 43.892 232.66 44.324 230.956 44.324C229.492 44.324 228.196 44.024 227.068 43.424C225.964 42.824 225.064 42.068 224.368 41.156V53.504H219.328V24.056H224.368V26.936ZM234.916 33.956C234.916 32.756 234.664 31.724 234.16 30.86C233.68 29.972 233.032 29.3 232.216 28.844C231.424 28.388 230.56 28.16 229.624 28.16C228.712 28.16 227.848 28.4 227.032 28.88C226.24 29.336 225.592 30.008 225.088 30.896C224.608 31.784 224.368 32.828 224.368 34.028C224.368 35.228 224.608 36.272 225.088 37.16C225.592 38.048 226.24 38.732 227.032 39.212C227.848 39.668 228.712 39.896 229.624 39.896C230.56 39.896 231.424 39.656 232.216 39.176C233.032 38.696 233.68 38.012 234.16 37.124C234.664 36.236 234.916 35.18 234.916 33.956ZM268.494 23.768C270.942 23.768 272.91 24.524 274.398 26.036C275.91 27.524 276.666 29.612 276.666 32.3V44H271.626V32.984C271.626 31.424 271.23 30.236 270.438 29.42C269.646 28.58 268.566 28.16 267.198 28.16C265.83 28.16 264.738 28.58 263.922 29.42C263.13 30.236 262.734 31.424 262.734 32.984V44H257.694V32.984C257.694 31.424 257.298 30.236 256.506 29.42C255.714 28.58 254.634 28.16 253.266 28.16C251.874 28.16 250.77 28.58 249.954 29.42C249.162 30.236 248.766 31.424 248.766 32.984V44H243.726V24.056H248.766V26.468C249.414 25.628 250.242 24.968 251.25 24.488C252.282 24.008 253.41 23.768 254.634 23.768C256.194 23.768 257.586 24.104 258.81 24.776C260.034 25.424 260.982 26.36 261.654 27.584C262.302 26.432 263.238 25.508 264.462 24.812C265.71 24.116 267.054 23.768 268.494 23.768ZM299.989 33.596C299.989 34.316 299.941 34.964 299.845 35.54H285.265C285.385 36.98 285.889 38.108 286.777 38.924C287.665 39.74 288.757 40.148 290.053 40.148C291.925 40.148 293.257 39.344 294.049 37.736H299.485C298.909 39.656 297.805 41.24 296.173 42.488C294.541 43.712 292.537 44.324 290.161 44.324C288.241 44.324 286.513 43.904 284.977 43.064C283.465 42.2 282.277 40.988 281.413 39.428C280.573 37.868 280.153 36.068 280.153 34.028C280.153 31.964 280.573 30.152 281.413 28.592C282.253 27.032 283.429 25.832 284.941 24.992C286.453 24.152 288.193 23.732 290.161 23.732C292.057 23.732 293.749 24.14 295.237 24.956C296.749 25.772 297.913 26.936 298.729 28.448C299.569 29.936 299.989 31.652 299.989 33.596ZM294.769 32.156C294.745 30.86 294.277 29.828 293.365 29.06C292.453 28.268 291.337 27.872 290.017 27.872C288.769 27.872 287.713 28.256 286.849 29.024C286.009 29.768 285.493 30.812 285.301 32.156H294.769ZM314.72 23.768C317.096 23.768 319.016 24.524 320.48 26.036C321.944 27.524 322.676 29.612 322.676 32.3V44H317.636V32.984C317.636 31.4 317.24 30.188 316.448 29.348C315.656 28.484 314.576 28.052 313.208 28.052C311.816 28.052 310.712 28.484 309.896 29.348C309.104 30.188 308.708 31.4 308.708 32.984V44H303.668V24.056H308.708V26.54C309.38 25.676 310.232 25.004 311.264 24.524C312.32 24.02 313.472 23.768 314.72 23.768ZM333.336 28.196V37.844C333.336 38.516 333.492 39.008 333.804 39.32C334.14 39.608 334.692 39.752 335.46 39.752H337.8V44H334.632C330.384 44 328.26 41.936 328.26 37.808V28.196H325.884V24.056H328.26V19.124H333.336V24.056H337.8V28.196H333.336Z" fill="black"/>
</svg>
