<svg width="1280" height="609" viewBox="0 0 1280 609" fill="none" xmlns="http://www.w3.org/2000/svg">
<rect x="-2" width="1284" height="609" fill="#111133"/>
<circle cx="267.556" cy="597.5" r="2.5" fill="#313168"/>
<circle cx="238.556" cy="596.5" r="2.5" fill="#313168"/>
<circle cx="244.556" cy="576.5" r="2.5" fill="#313168"/>
<circle cx="209.556" cy="593.5" r="2.5" fill="#313168"/>
<circle cx="216.556" cy="575.5" r="2.5" fill="#313168"/>
<circle cx="220.556" cy="556.5" r="2.5" fill="#313168"/>
<circle cx="193.556" cy="555.5" r="2.5" fill="#313168"/>
<circle cx="168.556" cy="536.5" r="2.5" fill="#313168"/>
<circle cx="143.556" cy="519.5" r="2.5" fill="#313168"/>
<circle cx="187.556" cy="572.5" r="2.5" fill="#313168"/>
<circle cx="164.556" cy="551.5" r="2.5" fill="#313168"/>
<circle cx="140.556" cy="533.5" r="2.5" fill="#313168"/>
<circle cx="180.556" cy="588.5" r="2.5" fill="#313168"/>
<circle cx="158.556" cy="566.5" r="2.5" fill="#313168"/>
<circle cx="135.556" cy="545.5" r="2.5" fill="#313168"/>
<circle cx="170.556" cy="603.5" r="2.5" fill="#313168"/>
<circle cx="150.556" cy="580.5" r="2.5" fill="#313168"/>
<circle cx="128.556" cy="558.5" r="2.5" fill="#313168"/>
<circle cx="140.556" cy="593.5" r="2.5" fill="#313168"/>
<circle cx="120.556" cy="570.5" r="2.5" fill="#313168"/>
<circle cx="128.556" cy="605.5" r="2.5" fill="#313168"/>
<circle cx="109.556" cy="580.5" r="2.5" fill="#313168"/>
<circle cx="97.5557" cy="590.5" r="2.5" fill="#313168"/>
<circle cx="6.55566" cy="573.5" r="2.5" fill="#313168"/>
<path d="M2.05556 543.5C2.05556 544.881 0.936273 546 -0.444439 546C-2.44446 546 -1.94444 544.381 -1.94444 543C-1.94444 541.619 -1.82515 541 -0.444439 541C0.936273 541 2.05556 542.119 2.05556 543.5Z" fill="#313168"/>
<path d="M2.11123 517.5C2.11123 518.881 0.991937 520 -0.388775 520C-2.38879 520 -1.88878 518.381 -1.88878 517C-1.88878 515.619 -1.76949 515 -0.388775 515C0.991937 515 2.11123 516.119 2.11123 517.5Z" fill="#313168"/>
<circle cx="18.5557" cy="577.5" r="2.5" fill="#313168"/>
<circle cx="9.55566" cy="547.5" r="2.5" fill="#313168"/>
<circle cx="8.55566" cy="520.5" r="2.5" fill="#313168"/>
<circle cx="17.5557" cy="521.5" r="2.5" fill="#313168"/>
<circle cx="26.5557" cy="521.5" r="2.5" fill="#313168"/>
<circle cx="34.5557" cy="519.5" r="2.5" fill="#313168"/>
<circle cx="42.5557" cy="515.5" r="2.5" fill="#313168"/>
<circle cx="49.5557" cy="510.5" r="2.5" fill="#313168"/>
<circle cx="55.5557" cy="504.5" r="2.5" fill="#313168"/>
<circle cx="59.5557" cy="497.5" r="2.5" fill="#313168"/>
<circle cx="61.5557" cy="491.5" r="2.5" fill="#313168"/>
<circle cx="35.5557" cy="475.5" r="2.5" fill="#313168"/>
<ellipse cx="8.05566" cy="464" rx="3" ry="2" fill="#313168"/>
<circle cx="34.5557" cy="480.5" r="2.5" fill="#313168"/>
<ellipse cx="7.05566" cy="468" rx="3" ry="2" fill="#313168"/>
<circle cx="31.5557" cy="484.5" r="2.5" fill="#313168"/>
<ellipse cx="3.05566" cy="471" rx="3" ry="2" fill="#313168"/>
<ellipse cx="1.05566" cy="471" rx="3" ry="2" fill="#313168"/>
<circle cx="27.5557" cy="488.5" r="2.5" fill="#313168"/>
<circle cx="22.5557" cy="492.5" r="2.5" fill="#313168"/>
<circle cx="16.5557" cy="494.5" r="2.5" fill="#313168"/>
<circle cx="9.55566" cy="495.5" r="2.5" fill="#313168"/>
<circle cx="6.55566" cy="486.5" r="2.5" fill="#313168"/>
<circle cx="3.55566" cy="484.5" r="2.5" fill="#313168"/>
<circle cx="3.55566" cy="494.5" r="2.5" fill="#313168"/>
<circle cx="62.5557" cy="484.5" r="2.5" fill="#313168"/>
<circle cx="35.5557" cy="471.5" r="2.5" fill="#313168"/>
<ellipse cx="8.05566" cy="461" rx="3" ry="2" fill="#313168"/>
<circle cx="61.5557" cy="477.5" r="2.5" fill="#313168"/>
<circle cx="33.5557" cy="467.5" r="2.5" fill="#313168"/>
<ellipse cx="6.05566" cy="458" rx="3" ry="2" fill="#313168"/>
<circle cx="59.5557" cy="472.5" r="2.5" fill="#313168"/>
<circle cx="30.5557" cy="464.5" r="2.5" fill="#313168"/>
<ellipse cx="2.05566" cy="456" rx="3" ry="2" fill="#313168"/>
<circle cx="20.5557" cy="549.5" r="2.5" fill="#313168"/>
<circle cx="30.5557" cy="549.5" r="2.5" fill="#313168"/>
<circle cx="42.5557" cy="548.5" r="2.5" fill="#313168"/>
<circle cx="52.5557" cy="544.5" r="2.5" fill="#313168"/>
<circle cx="61.5557" cy="539.5" r="2.5" fill="#313168"/>
<circle cx="70.5557" cy="533.5" r="2.5" fill="#313168"/>
<circle cx="77.5557" cy="525.5" r="2.5" fill="#313168"/>
<circle cx="83.5557" cy="517.5" r="2.5" fill="#313168"/>
<circle cx="87.5557" cy="507.5" r="2.5" fill="#313168"/>
<circle cx="89.5557" cy="498.5" r="2.5" fill="#313168"/>
<circle cx="90.5557" cy="490.5" r="2.5" fill="#313168"/>
<circle cx="89.5557" cy="481.5" r="2.5" fill="#313168"/>
<circle cx="31.5557" cy="578.5" r="2.5" fill="#313168"/>
<circle cx="44.5557" cy="577.5" r="2.5" fill="#313168"/>
<circle cx="56.5557" cy="574.5" r="2.5" fill="#313168"/>
<circle cx="68.5557" cy="570.5" r="2.5" fill="#313168"/>
<circle cx="80.5557" cy="564.5" r="2.5" fill="#313168"/>
<circle cx="89.5557" cy="557.5" r="2.5" fill="#313168"/>
<circle cx="99.5557" cy="547.5" r="2.5" fill="#313168"/>
<circle cx="106.556" cy="537.5" r="2.5" fill="#313168"/>
<circle cx="112.556" cy="526.5" r="2.5" fill="#313168"/>
<circle cx="115.556" cy="515.5" r="2.5" fill="#313168"/>
<circle cx="116.556" cy="503.5" r="2.5" fill="#313168"/>
<circle cx="117.556" cy="492.5" r="2.5" fill="#313168"/>
<circle cx="85.5557" cy="597.5" r="2.5" fill="#313168"/>
<circle cx="71.5557" cy="603.5" r="2.5" fill="#313168"/>
<path d="M59.0557 606.5C59.0557 607.881 57.9364 608 56.5557 608C55.175 608 54.0557 607.881 54.0557 606.5C54.0557 605.119 55.175 604 56.5557 604C57.9364 604 59.0557 605.119 59.0557 606.5Z" fill="#313168"/>
<path d="M45.0557 606.5C45.0557 607.881 43.9364 608 42.5557 608C41.175 608 40.0557 607.881 40.0557 606.5C40.0557 605.119 41.175 604 42.5557 604C43.9364 604 45.0557 605.119 45.0557 606.5Z" fill="#313168"/>
<path d="M31.0557 606.5C31.0557 607.881 29.9364 608 28.5557 608C27.175 608 26.0557 607.881 26.0557 606.5C26.0557 605.119 27.175 604 28.5557 604C29.9364 604 31.0557 605.119 31.0557 606.5Z" fill="#313168"/>
<path d="M17.0557 604.5C17.0557 605.881 15.9364 607 14.5557 607C13.175 607 12.0557 605.881 12.0557 604.5C12.0557 603.119 13.175 602 14.5557 602C15.9364 602 17.0557 603.119 17.0557 604.5Z" fill="#313168"/>
<path d="M4.05566 599.5C4.05566 600.881 2.93638 602 1.55566 602C0.174952 602 -0.944336 600.881 -0.944336 599.5C-0.944336 598.119 0.174952 597 1.55566 597C2.93638 597 4.05566 598.119 4.05566 599.5Z" fill="#313168"/>
<circle cx="196.556" cy="538.5" r="2.5" fill="#313168"/>
<circle cx="170.556" cy="522.5" r="2.5" fill="#313168"/>
<circle cx="144.556" cy="507.5" r="2.5" fill="#313168"/>
<circle cx="1251.77" cy="460.593" r="1.5" transform="rotate(-0.199067 1251.77 460.593)" fill="#2B3A6A"/>
<circle cx="1257.72" cy="445.572" r="1.5" transform="rotate(-0.199067 1257.72 445.572)" fill="#2B3A6A"/>
<circle cx="1263.67" cy="431.552" r="1.5" transform="rotate(-0.199067 1263.67 431.552)" fill="#2B3A6A"/>
<circle cx="1269.61" cy="415.531" r="1.5" transform="rotate(-0.199067 1269.61 415.531)" fill="#2B3A6A"/>
<circle cx="1273.57" cy="401.517" r="1.5" transform="rotate(-0.199067 1273.57 401.517)" fill="#2B3A6A"/>
<circle cx="1277.52" cy="387.504" r="1.5" transform="rotate(-0.199067 1277.52 387.504)" fill="#2B3A6A"/>
<circle cx="1251.5" cy="384.5" r="1.5" fill="#2B3A6A"/>
<circle cx="1244.5" cy="400.5" r="1.5" fill="#2B3A6A"/>
<circle cx="1239.5" cy="247.5" r="1.5" fill="#2B3A6A"/>
<circle cx="1247.5" cy="228.5" r="1.5" fill="#2B3A6A"/>
<circle cx="1254.5" cy="207.5" r="1.5" fill="#2B3A6A"/>
<circle cx="1262.5" cy="186.5" r="1.5" fill="#2B3A6A"/>
<circle cx="1269.5" cy="166.5" r="1.5" fill="#2B3A6A"/>
<circle cx="1276.5" cy="146.5" r="1.5" fill="#2B3A6A"/>
<circle cx="1242.5" cy="179.5" r="1.5" fill="#2B3A6A"/>
<circle cx="1251.5" cy="158.5" r="1.5" fill="#2B3A6A"/>
<circle cx="1259.5" cy="136.5" r="1.5" fill="#2B3A6A"/>
<circle cx="1239.5" cy="128.5" r="1.5" fill="#2B3A6A"/>
<circle cx="1261.5" cy="351.5" r="1.5" fill="#2B3A6A"/>
<circle cx="1256.5" cy="367.5" r="1.5" fill="#2B3A6A"/>
<circle cx="1266.5" cy="334.5" r="1.5" fill="#2B3A6A"/>
<circle cx="1269.5" cy="317.5" r="1.5" fill="#2B3A6A"/>
<circle cx="1273.5" cy="300.5" r="1.5" fill="#2B3A6A"/>
<circle cx="1277.5" cy="283.5" r="1.5" fill="#2B3A6A"/>
<circle cx="1280.5" cy="264.5" r="1.5" fill="#2B3A6A"/>
<circle cx="1267.5" cy="236.5" r="1.5" fill="#2B3A6A"/>
<circle cx="1273.5" cy="216.5" r="1.5" fill="#2B3A6A"/>
<circle cx="1278.5" cy="196.5" r="1.5" fill="#2B3A6A"/>
<circle cx="1262.5" cy="255.5" r="1.5" fill="#2B3A6A"/>
<circle cx="1256.5" cy="274.5" r="1.5" fill="#2B3A6A"/>
<circle cx="1251.5" cy="293.5" r="1.5" fill="#2B3A6A"/>
<circle cx="1245.5" cy="311.5" r="1.5" fill="#2B3A6A"/>
<circle cx="1239.5" cy="329.5" r="1.5" fill="#2B3A6A"/>
<circle cx="1281.47" cy="372.49" r="1.5" transform="rotate(-0.199067 1281.47 372.49)" fill="#2B3A6A"/>
<circle cx="1238.5" cy="412.5" r="1.5" fill="#2B3A6A"/>
<circle cx="1232.5" cy="428.5" r="1.5" fill="#2B3A6A"/>
<circle cx="1224.5" cy="445.5" r="1.5" fill="#2B3A6A"/>
<circle cx="1219.5" cy="380.5" r="1.5" fill="#2B3A6A"/>
<circle cx="1212.5" cy="397.5" r="1.5" fill="#2B3A6A"/>
<circle cx="1204.5" cy="415.5" r="1.5" fill="#2B3A6A"/>
<circle cx="1196.5" cy="433.5" r="1.5" fill="#2B3A6A"/>
<circle cx="1178.5" cy="399.5" r="1.5" fill="#2B3A6A"/>
<circle cx="1169.5" cy="418.5" r="1.5" fill="#2B3A6A"/>
<circle cx="1195.5" cy="360.5" r="1.5" fill="#2B3A6A"/>
<circle cx="1211.5" cy="322.5" r="1.5" fill="#2B3A6A"/>
<circle cx="1218.5" cy="302.5" r="1.5" fill="#2B3A6A"/>
<circle cx="1225.5" cy="283.5" r="1.5" fill="#2B3A6A"/>
<circle cx="1232.5" cy="264.5" r="1.5" fill="#2B3A6A"/>
<circle cx="1146.5" cy="400.5" r="1.5" fill="#2B3A6A"/>
<circle cx="1164.5" cy="359.5" r="1.5" fill="#2B3A6A"/>
<circle cx="1182.5" cy="319.5" r="1.5" fill="#2B3A6A"/>
<circle cx="1199.5" cy="278.5" r="1.5" fill="#2B3A6A"/>
<circle cx="1191.5" cy="299.5" r="1.5" fill="#2B3A6A"/>
<circle cx="1208.5" cy="258.5" r="1.5" fill="#2B3A6A"/>
<circle cx="1217.5" cy="237.5" r="1.5" fill="#2B3A6A"/>
<circle cx="1225.5" cy="217.5" r="1.5" fill="#2B3A6A"/>
<circle cx="1234.5" cy="195.5" r="1.5" fill="#2B3A6A"/>
<circle cx="1187.5" cy="380.5" r="1.5" fill="#2B3A6A"/>
<circle cx="1155.5" cy="380.5" r="1.5" fill="#2B3A6A"/>
<circle cx="1124.5" cy="377.5" r="1.5" fill="#2B3A6A"/>
<circle cx="1105.5" cy="353.5" r="1.5" fill="#2B3A6A"/>
<circle cx="1088.5" cy="328.5" r="1.5" fill="#2B3A6A"/>
<circle cx="1099.5" cy="306.5" r="1.5" fill="#2B3A6A"/>
<circle cx="1109.5" cy="285.5" r="1.5" fill="#2B3A6A"/>
<circle cx="1120.5" cy="263.5" r="1.5" fill="#2B3A6A"/>
<circle cx="1131.5" cy="242.5" r="1.5" fill="#2B3A6A"/>
<circle cx="1142.5" cy="219.5" r="1.5" fill="#2B3A6A"/>
<circle cx="1152.5" cy="198.5" r="1.5" fill="#2B3A6A"/>
<circle cx="1163.5" cy="176.5" r="1.5" fill="#2B3A6A"/>
<circle cx="1174.5" cy="154.5" r="1.5" fill="#2B3A6A"/>
<circle cx="1184.5" cy="132.5" r="1.5" fill="#2B3A6A"/>
<circle cx="1115.5" cy="332.5" r="1.5" fill="#2B3A6A"/>
<circle cx="1126.5" cy="311.5" r="1.5" fill="#2B3A6A"/>
<circle cx="1136.5" cy="290.5" r="1.5" fill="#2B3A6A"/>
<circle cx="1147.5" cy="268.5" r="1.5" fill="#2B3A6A"/>
<circle cx="1157.5" cy="247.5" r="1.5" fill="#2B3A6A"/>
<circle cx="1167.5" cy="225.5" r="1.5" fill="#2B3A6A"/>
<circle cx="1177.5" cy="203.5" r="1.5" fill="#2B3A6A"/>
<circle cx="1189.5" cy="182.5" r="1.5" fill="#2B3A6A"/>
<circle cx="1195.5" cy="110.5" r="1.5" fill="#2B3A6A"/>
<circle cx="1159.5" cy="126.5" r="1.5" fill="#2B3A6A"/>
<circle cx="1144.5" cy="100.5" r="1.5" fill="#2B3A6A"/>
<circle cx="1103.5" cy="119.5" r="1.5" fill="#2B3A6A"/>
<circle cx="1084.5" cy="95.5" r="1.5" fill="#2B3A6A"/>
<circle cx="1063.5" cy="74.5" r="1.5" fill="#2B3A6A"/>
<circle cx="1072.5" cy="117.5" r="1.5" fill="#2B3A6A"/>
<circle cx="1051.5" cy="96.5" r="1.5" fill="#2B3A6A"/>
<circle cx="1060.5" cy="140.5" r="1.5" fill="#2B3A6A"/>
<circle cx="1039.5" cy="119.5" r="1.5" fill="#2B3A6A"/>
<circle cx="1048.5" cy="163.5" r="1.5" fill="#2B3A6A"/>
<circle cx="1027.5" cy="142.5" r="1.5" fill="#2B3A6A"/>
<circle cx="1037.5" cy="185.5" r="1.5" fill="#2B3A6A"/>
<circle cx="1016.5" cy="164.5" r="1.5" fill="#2B3A6A"/>
<circle cx="1015.5" cy="228.5" r="1.5" fill="#2B3A6A"/>
<circle cx="1148.5" cy="148.5" r="1.5" fill="#2B3A6A"/>
<circle cx="1133.5" cy="122.5" r="1.5" fill="#2B3A6A"/>
<circle cx="1114.5" cy="98.5" r="1.5" fill="#2B3A6A"/>
<circle cx="1137.5" cy="171.5" r="1.5" fill="#2B3A6A"/>
<circle cx="1122.5" cy="144.5" r="1.5" fill="#2B3A6A"/>
<circle cx="1103.5" cy="119.5" r="1.5" fill="#2B3A6A"/>
<circle cx="1126.5" cy="193.5" r="1.5" fill="#2B3A6A"/>
<circle cx="1111.5" cy="166.5" r="1.5" fill="#2B3A6A"/>
<circle cx="1092.5" cy="141.5" r="1.5" fill="#2B3A6A"/>
<circle cx="1115.5" cy="215.5" r="1.5" fill="#2B3A6A"/>
<circle cx="1099.5" cy="189.5" r="1.5" fill="#2B3A6A"/>
<circle cx="1080.5" cy="164.5" r="1.5" fill="#2B3A6A"/>
<circle cx="1104.5" cy="236.5" r="1.5" fill="#2B3A6A"/>
<circle cx="1088.5" cy="210.5" r="1.5" fill="#2B3A6A"/>
<circle cx="1069.5" cy="186.5" r="1.5" fill="#2B3A6A"/>
<circle cx="1093.5" cy="258.5" r="1.5" fill="#2B3A6A"/>
<circle cx="1077.5" cy="232.5" r="1.5" fill="#2B3A6A"/>
<circle cx="1058.5" cy="208.5" r="1.5" fill="#2B3A6A"/>
<circle cx="1082.5" cy="279.5" r="1.5" fill="#2B3A6A"/>
<circle cx="1065.5" cy="254.5" r="1.5" fill="#2B3A6A"/>
<circle cx="1046.5" cy="230.5" r="1.5" fill="#2B3A6A"/>
<circle cx="1071.5" cy="301.5" r="1.5" fill="#2B3A6A"/>
<circle cx="1054.5" cy="276.5" r="1.5" fill="#2B3A6A"/>
<circle cx="1035.5" cy="252.5" r="1.5" fill="#2B3A6A"/>
<circle cx="1198.5" cy="161.5" r="1.5" fill="#2B3A6A"/>
<circle cx="1207.5" cy="138.5" r="1.5" fill="#2B3A6A"/>
<circle cx="1218.5" cy="117.5" r="1.5" fill="#2B3A6A"/>
<circle cx="1143.5" cy="336.5" r="1.5" fill="#2B3A6A"/>
<circle cx="1154.5" cy="315.5" r="1.5" fill="#2B3A6A"/>
<circle cx="1163.5" cy="294.5" r="1.5" fill="#2B3A6A"/>
<circle cx="1173.5" cy="273.5" r="1.5" fill="#2B3A6A"/>
<circle cx="1183.5" cy="252.5" r="1.5" fill="#2B3A6A"/>
<circle cx="1192.5" cy="231.5" r="1.5" fill="#2B3A6A"/>
<circle cx="1201.5" cy="210.5" r="1.5" fill="#2B3A6A"/>
<circle cx="1210.5" cy="189.5" r="1.5" fill="#2B3A6A"/>
<circle cx="1220.5" cy="167.5" r="1.5" fill="#2B3A6A"/>
<circle cx="1230.5" cy="146.5" r="1.5" fill="#2B3A6A"/>
<circle cx="1134.5" cy="357.5" r="1.5" fill="#2B3A6A"/>
<circle cx="1173.5" cy="339.5" r="1.5" fill="#2B3A6A"/>
<circle cx="1203.5" cy="341.5" r="1.5" fill="#2B3A6A"/>
<circle cx="1232.5" cy="343.5" r="1.5" fill="#2B3A6A"/>
<circle cx="1226.5" cy="362.5" r="1.5" fill="#2B3A6A"/>
</svg>
