<svg width="285" height="43" viewBox="0 0 285 43" fill="none" xmlns="http://www.w3.org/2000/svg">
<path d="M10.7905 2.5734C13.8705 2.5734 16.5725 3.1754 18.8965 4.3794C21.2485 5.5834 23.0545 7.3054 24.3145 9.5454C25.6025 11.7574 26.2465 14.3334 26.2465 17.2734C26.2465 20.2134 25.6025 22.7894 24.3145 25.0014C23.0545 27.1854 21.2485 28.8794 18.8965 30.0834C16.5725 31.2874 13.8705 31.8894 10.7905 31.8894H0.542531V2.5734H10.7905ZM10.5805 26.8914C13.6605 26.8914 16.0405 26.0514 17.7205 24.3714C19.4005 22.6914 20.2405 20.3254 20.2405 17.2734C20.2405 14.2214 19.4005 11.8414 17.7205 10.1334C16.0405 8.3974 13.6605 7.5294 10.5805 7.5294H6.42253V26.8914H10.5805ZM52.278 19.7514C52.278 20.5914 52.222 21.3474 52.11 22.0194H35.1C35.24 23.6994 35.828 25.0154 36.864 25.9674C37.9 26.9194 39.174 27.3954 40.686 27.3954C42.87 27.3954 44.424 26.4574 45.348 24.5814H51.69C51.018 26.8214 49.73 28.6694 47.826 30.1254C45.922 31.5534 43.584 32.2674 40.812 32.2674C38.572 32.2674 36.556 31.7774 34.764 30.7974C33 29.7894 31.614 28.3754 30.606 26.5554C29.626 24.7354 29.136 22.6354 29.136 20.2554C29.136 17.8474 29.626 15.7334 30.606 13.9134C31.586 12.0934 32.958 10.6934 34.722 9.7134C36.486 8.7334 38.516 8.2434 40.812 8.2434C43.024 8.2434 44.998 8.7194 46.734 9.6714C48.498 10.6234 49.856 11.9814 50.808 13.7454C51.788 15.4814 52.278 17.4834 52.278 19.7514ZM46.188 18.0714C46.16 16.5594 45.614 15.3554 44.55 14.4594C43.486 13.5354 42.184 13.0734 40.644 13.0734C39.188 13.0734 37.956 13.5214 36.948 14.4174C35.968 15.2854 35.366 16.5034 35.142 18.0714H46.188ZM66.2719 26.4714L72.1519 8.6214H78.4099L69.7999 31.8894H62.6599L54.0919 8.6214H60.3919L66.2719 26.4714ZM103.342 19.7514C103.342 20.5914 103.286 21.3474 103.174 22.0194H86.1645C86.3045 23.6994 86.8925 25.0154 87.9285 25.9674C88.9645 26.9194 90.2385 27.3954 91.7505 27.3954C93.9345 27.3954 95.4885 26.4574 96.4125 24.5814H102.754C102.082 26.8214 100.794 28.6694 98.8905 30.1254C96.9865 31.5534 94.6485 32.2674 91.8765 32.2674C89.6365 32.2674 87.6205 31.7774 85.8285 30.7974C84.0645 29.7894 82.6785 28.3754 81.6705 26.5554C80.6905 24.7354 80.2005 22.6354 80.2005 20.2554C80.2005 17.8474 80.6905 15.7334 81.6705 13.9134C82.6505 12.0934 84.0225 10.6934 85.7865 9.7134C87.5505 8.7334 89.5805 8.2434 91.8765 8.2434C94.0885 8.2434 96.0625 8.7194 97.7985 9.6714C99.5625 10.6234 100.92 11.9814 101.872 13.7454C102.852 15.4814 103.342 17.4834 103.342 19.7514ZM97.2525 18.0714C97.2245 16.5594 96.6785 15.3554 95.6145 14.4594C94.5505 13.5354 93.2485 13.0734 91.7085 13.0734C90.2525 13.0734 89.0205 13.5214 88.0125 14.4174C87.0325 15.2854 86.4305 16.5034 86.2065 18.0714H97.2525ZM113.514 0.809404V31.8894H107.634V0.809404H113.514ZM129.656 32.2674C127.416 32.2674 125.4 31.7774 123.608 30.7974C121.816 29.7894 120.402 28.3754 119.366 26.5554C118.358 24.7354 117.854 22.6354 117.854 20.2554C117.854 17.8754 118.372 15.7754 119.408 13.9554C120.472 12.1354 121.914 10.7354 123.734 9.7554C125.554 8.7474 127.584 8.2434 129.824 8.2434C132.064 8.2434 134.094 8.7474 135.914 9.7554C137.734 10.7354 139.162 12.1354 140.198 13.9554C141.262 15.7754 141.794 17.8754 141.794 20.2554C141.794 22.6354 141.248 24.7354 140.156 26.5554C139.092 28.3754 137.636 29.7894 135.788 30.7974C133.968 31.7774 131.924 32.2674 129.656 32.2674ZM129.656 27.1434C130.72 27.1434 131.714 26.8914 132.638 26.3874C133.59 25.8554 134.346 25.0714 134.906 24.0354C135.466 22.9994 135.746 21.7394 135.746 20.2554C135.746 18.0434 135.158 16.3494 133.982 15.1734C132.834 13.9694 131.42 13.3674 129.74 13.3674C128.06 13.3674 126.646 13.9694 125.498 15.1734C124.378 16.3494 123.818 18.0434 123.818 20.2554C123.818 22.4674 124.364 24.1754 125.456 25.3794C126.576 26.5554 127.976 27.1434 129.656 27.1434ZM151.987 11.9814C152.743 10.9174 153.779 10.0354 155.095 9.3354C156.439 8.6074 157.965 8.2434 159.673 8.2434C161.661 8.2434 163.453 8.7334 165.049 9.7134C166.673 10.6934 167.947 12.0934 168.871 13.9134C169.823 15.7054 170.299 17.7914 170.299 20.1714C170.299 22.5514 169.823 24.6654 168.871 26.5134C167.947 28.3334 166.673 29.7474 165.049 30.7554C163.453 31.7634 161.661 32.2674 159.673 32.2674C157.965 32.2674 156.453 31.9174 155.137 31.2174C153.849 30.5174 152.799 29.6354 151.987 28.5714V42.9774H146.107V8.6214H151.987V11.9814ZM164.293 20.1714C164.293 18.7714 163.999 17.5674 163.411 16.5594C162.851 15.5234 162.095 14.7394 161.143 14.2074C160.219 13.6754 159.211 13.4094 158.119 13.4094C157.055 13.4094 156.047 13.6894 155.095 14.2494C154.171 14.7814 153.415 15.5654 152.827 16.6014C152.267 17.6374 151.987 18.8554 151.987 20.2554C151.987 21.6554 152.267 22.8734 152.827 23.9094C153.415 24.9454 154.171 25.7434 155.095 26.3034C156.047 26.8354 157.055 27.1014 158.119 27.1014C159.211 27.1014 160.219 26.8214 161.143 26.2614C162.095 25.7014 162.851 24.9034 163.411 23.8674C163.999 22.8314 164.293 21.5994 164.293 20.1714ZM203.468 8.2854C206.324 8.2854 208.62 9.1674 210.356 10.9314C212.12 12.6674 213.002 15.1034 213.002 18.2394V31.8894H207.122V19.0374C207.122 17.2174 206.66 15.8314 205.736 14.8794C204.812 13.8994 203.552 13.4094 201.956 13.4094C200.36 13.4094 199.086 13.8994 198.134 14.8794C197.21 15.8314 196.748 17.2174 196.748 19.0374V31.8894H190.868V19.0374C190.868 17.2174 190.406 15.8314 189.482 14.8794C188.558 13.8994 187.298 13.4094 185.702 13.4094C184.078 13.4094 182.79 13.8994 181.838 14.8794C180.914 15.8314 180.452 17.2174 180.452 19.0374V31.8894H174.572V8.6214H180.452V11.4354C181.208 10.4554 182.174 9.6854 183.35 9.1254C184.554 8.5654 185.87 8.2854 187.298 8.2854C189.118 8.2854 190.742 8.6774 192.17 9.4614C193.598 10.2174 194.704 11.3094 195.488 12.7374C196.244 11.3934 197.336 10.3154 198.764 9.5034C200.22 8.6914 201.788 8.2854 203.468 8.2854ZM240.212 19.7514C240.212 20.5914 240.156 21.3474 240.044 22.0194H223.034C223.174 23.6994 223.762 25.0154 224.798 25.9674C225.834 26.9194 227.108 27.3954 228.62 27.3954C230.804 27.3954 232.358 26.4574 233.282 24.5814H239.624C238.952 26.8214 237.664 28.6694 235.76 30.1254C233.856 31.5534 231.518 32.2674 228.746 32.2674C226.506 32.2674 224.49 31.7774 222.698 30.7974C220.934 29.7894 219.548 28.3754 218.54 26.5554C217.56 24.7354 217.07 22.6354 217.07 20.2554C217.07 17.8474 217.56 15.7334 218.54 13.9134C219.52 12.0934 220.892 10.6934 222.656 9.7134C224.42 8.7334 226.45 8.2434 228.746 8.2434C230.958 8.2434 232.932 8.7194 234.668 9.6714C236.432 10.6234 237.79 11.9814 238.742 13.7454C239.722 15.4814 240.212 17.4834 240.212 19.7514ZM234.122 18.0714C234.094 16.5594 233.548 15.3554 232.484 14.4594C231.42 13.5354 230.118 13.0734 228.578 13.0734C227.122 13.0734 225.89 13.5214 224.882 14.4174C223.902 15.2854 223.3 16.5034 223.076 18.0714H234.122ZM257.397 8.2854C260.169 8.2854 262.409 9.1674 264.117 10.9314C265.825 12.6674 266.679 15.1034 266.679 18.2394V31.8894H260.799V19.0374C260.799 17.1894 260.337 15.7754 259.413 14.7954C258.489 13.7874 257.229 13.2834 255.633 13.2834C254.009 13.2834 252.721 13.7874 251.769 14.7954C250.845 15.7754 250.383 17.1894 250.383 19.0374V31.8894H244.503V8.6214H250.383V11.5194C251.167 10.5114 252.161 9.7274 253.365 9.1674C254.597 8.5794 255.941 8.2854 257.397 8.2854ZM279.117 13.4514V24.7074C279.117 25.4914 279.299 26.0654 279.663 26.4294C280.055 26.7654 280.699 26.9334 281.595 26.9334H284.325V31.8894H280.629C275.673 31.8894 273.195 29.4814 273.195 24.6654V13.4514H270.423V8.6214H273.195V2.8674H279.117V8.6214H284.325V13.4514H279.117Z" fill="#253647"/>
</svg>
