<svg width="152" height="116" viewBox="0 0 152 116" fill="none" xmlns="http://www.w3.org/2000/svg">
<path d="M152 102.25H0V102.326H152V102.25Z" fill="#EBEBEB"/>
<path d="M136.77 107.141H119.98V107.217H136.77V107.141Z" fill="#EBEBEB"/>
<path d="M100.472 105.548H97.8303V105.624H100.472V105.548Z" fill="#EBEBEB"/>
<path d="M119.065 104.32H113.231V104.396H119.065V104.32Z" fill="#EBEBEB"/>
<path d="M29.0775 104.831H15.9478V104.907H29.0775V104.831Z" fill="#EBEBEB"/>
<path d="M79.3593 106.794H65.4604V106.87H79.3593V106.794Z" fill="#EBEBEB"/>
<path d="M71.1784 105.509H42.6997V105.585H71.1784V105.509Z" fill="#EBEBEB"/>
<path d="M73.7869 86.9553C73.7869 87.1835 73.7419 87.4095 73.6545 87.6203C73.567 87.8311 73.4389 88.0226 73.2774 88.1838C73.1159 88.3451 72.9242 88.4729 72.7132 88.5599C72.5023 88.647 72.2762 88.6916 72.048 88.6912H13.3486C12.8888 88.6904 12.4481 88.5071 12.1232 88.1817C11.7983 87.8562 11.6158 87.4152 11.6158 86.9553V4.44061C11.6198 3.9834 11.8041 3.54624 12.1285 3.22407C12.453 2.9019 12.8914 2.72075 13.3486 2.71997H72.048C72.5084 2.71997 72.9499 2.90285 73.2754 3.22839C73.601 3.55392 73.7838 3.99544 73.7838 4.45581L73.7869 86.9553ZM73.7078 4.45581C73.7094 4.23667 73.6677 4.01938 73.5851 3.81642C73.5024 3.61346 73.3804 3.42885 73.2262 3.27319C73.0719 3.11752 72.8884 2.99388 72.6862 2.90938C72.4841 2.82487 72.2671 2.78117 72.048 2.78077H13.3486C12.909 2.78158 12.4875 2.95681 12.1769 3.268C11.8663 3.57919 11.6918 4.00092 11.6918 4.44061V86.9553C11.6918 87.395 11.8663 87.8167 12.1769 88.1279C12.4875 88.4391 12.909 88.6144 13.3486 88.6152H72.048C72.488 88.6144 72.9097 88.4392 73.2208 88.1281C73.5319 87.817 73.707 87.3953 73.7078 86.9553" fill="#EBEBEB"/>
<path d="M137.806 88.6912H79.1038C78.6436 88.6904 78.2026 88.5072 77.8772 88.1819C77.5519 87.8565 77.3687 87.4155 77.3679 86.9553V4.44061C77.3727 3.98313 77.5576 3.54596 77.8826 3.22388C78.2075 2.9018 78.6462 2.72075 79.1038 2.71997H137.806C138.263 2.72155 138.701 2.90305 139.024 3.22514C139.348 3.54722 139.532 3.98393 139.536 4.44061V86.9553C139.536 87.4147 139.354 87.8553 139.03 88.1806C138.705 88.506 138.265 88.6896 137.806 88.6912ZM79.1038 2.78077C78.6638 2.78157 78.2421 2.95671 77.931 3.26781C77.6199 3.57892 77.4447 4.00064 77.4439 4.44061V86.9553C77.4447 87.3953 77.6199 87.817 77.931 88.1281C78.2421 88.4392 78.6638 88.6144 79.1038 88.6152H137.806C138.246 88.6144 138.668 88.4392 138.979 88.1281C139.29 87.817 139.465 87.3953 139.466 86.9553V4.44061C139.465 4.00064 139.29 3.57892 138.979 3.26781C138.668 2.95671 138.246 2.78157 137.806 2.78077H79.1038Z" fill="#EBEBEB"/>
<path d="M21.4805 102.25H39.7661L39.7661 63.833H21.4805L21.4805 102.25Z" fill="#E6E6E6"/>
<path d="M23.3228 102.25H21.4836V97.0178H25.2502L23.3228 102.25Z" fill="#F0F0F0"/>
<path d="M69.8318 102.25H88.1174V63.833H69.8318V102.25Z" fill="#E6E6E6"/>
<path d="M21.4806 99.0393H71.4338V63.8331L21.4806 63.8331L21.4806 99.0393Z" fill="#F0F0F0"/>
<path d="M22.9065 75.0476H70.0083V65.3926H22.9065V75.0476Z" fill="#E6E6E6"/>
<path d="M43.1255 68.384H49.7953C51.2282 68.3856 52.6465 68.0953 53.9636 67.5309C55.2807 66.9664 56.469 66.1396 57.4561 65.1008H35.4678C36.4541 66.1398 37.6418 66.9668 38.9585 67.5313C40.2751 68.0957 41.693 68.3859 43.1255 68.384Z" fill="#F0F0F0"/>
<path d="M69.5979 102.25H71.4371V97.0178H67.6675L69.5979 102.25Z" fill="#F0F0F0"/>
<path d="M22.9065 86.2622H70.0083V76.6072H22.9065V86.2622Z" fill="#E6E6E6"/>
<path d="M43.1255 79.6108H49.7953C51.2291 79.6106 52.6478 79.3184 53.965 78.7518C55.2821 78.1852 56.4699 77.3562 57.4561 76.3154H35.4678C36.4531 77.3564 37.6404 78.1856 38.9571 78.7522C40.2738 79.3188 41.6921 79.6109 43.1255 79.6108Z" fill="#F0F0F0"/>
<path d="M22.9065 97.4768H70.0083V87.8218H22.9065V97.4768Z" fill="#E6E6E6"/>
<path d="M43.1255 90.8252H49.7953C51.2287 90.8258 52.6471 90.5345 53.9642 89.969C55.2813 89.4035 56.4694 88.5756 57.4561 87.5359H35.4678C36.4537 88.5758 37.6412 89.4038 38.9578 89.9694C40.2745 90.5349 41.6926 90.8261 43.1255 90.8252Z" fill="#F0F0F0"/>
<path d="M26.7946 51.2109H25.4904C25.3913 51.2109 25.311 51.2912 25.311 51.3903V63.6537C25.311 63.7527 25.3913 63.833 25.4904 63.833H26.7946C26.8936 63.833 26.9739 63.7527 26.9739 63.6537V51.3903C26.9739 51.2912 26.8936 51.2109 26.7946 51.2109Z" fill="#EBEBEB"/>
<path d="M26.9739 52.5122H25.311V57.1057H26.9739V52.5122Z" fill="#FAFAFA"/>
<path d="M26.9739 58.5222H25.311V61.3555H26.9739V58.5222Z" fill="#FAFAFA"/>
<path d="M33.8808 51.2109H27.1532C27.0542 51.2109 26.9739 51.2912 26.9739 51.3903V63.6537C26.9739 63.7527 27.0542 63.833 27.1532 63.833H33.8808C33.9798 63.833 34.0601 63.7527 34.0601 63.6537V51.3903C34.0601 51.2912 33.9798 51.2109 33.8808 51.2109Z" fill="#E0E0E0"/>
<path d="M29.4485 49.9099H28.0075C27.8984 49.9099 27.8099 49.9984 27.8099 50.1075V63.6355C27.8099 63.7446 27.8984 63.8331 28.0075 63.8331H29.4485C29.5576 63.8331 29.6461 63.7446 29.6461 63.6355V50.1075C29.6461 49.9984 29.5576 49.9099 29.4485 49.9099Z" fill="#EBEBEB"/>
<path d="M29.643 51.731H27.8069V52.9743H29.643V51.731Z" fill="#FAFAFA"/>
<path d="M29.643 55.3364H27.8069V56.5798H29.643V55.3364Z" fill="#FAFAFA"/>
<path d="M29.643 58.9448H27.8069V60.1882H29.643V58.9448Z" fill="#FAFAFA"/>
<path d="M37.2764 49.9099H29.8558C29.7467 49.9099 29.6582 49.9984 29.6582 50.1075V63.6355C29.6582 63.7446 29.7467 63.8331 29.8558 63.8331H37.2764C37.3856 63.8331 37.474 63.7446 37.474 63.6355V50.1075C37.474 49.9984 37.3856 49.9099 37.2764 49.9099Z" fill="#E0E0E0"/>
<path d="M31.9625 51.2109H30.6584C30.5593 51.2109 30.479 51.2912 30.479 51.3903V63.6537C30.479 63.7527 30.5593 63.833 30.6584 63.833H31.9625C32.0616 63.833 32.1419 63.7527 32.1419 63.6537V51.3903C32.1419 51.2912 32.0616 51.2109 31.9625 51.2109Z" fill="#EBEBEB"/>
<path d="M32.1419 53.6917H30.479V56.0476H32.1419V53.6917Z" fill="#FAFAFA"/>
<path d="M32.1419 56.7742H30.479V58.2273H32.1419V56.7742Z" fill="#FAFAFA"/>
<path d="M39.0519 51.2109H32.3244C32.2253 51.2109 32.145 51.2912 32.145 51.3903V63.6537C32.145 63.7527 32.2253 63.833 32.3244 63.833H39.0519C39.151 63.833 39.2313 63.7527 39.2313 63.6537V51.3903C39.2313 51.2912 39.151 51.2109 39.0519 51.2109Z" fill="#E0E0E0"/>
<path d="M34.4098 52.9741H32.9688C32.8597 52.9741 32.7712 53.0626 32.7712 53.1717V63.6384C32.7712 63.7476 32.8597 63.836 32.9688 63.836H34.4098C34.5189 63.836 34.6074 63.7476 34.6074 63.6384V53.1717C34.6074 53.0626 34.5189 52.9741 34.4098 52.9741Z" fill="#EBEBEB"/>
<path d="M34.6042 55.4153H32.7681V57.4247H34.6042V55.4153Z" fill="#FAFAFA"/>
<path d="M34.6042 62.0061H32.7681V62.4834H34.6042V62.0061Z" fill="#FAFAFA"/>
<path d="M34.6042 57.8716H32.7681V59.881H34.6042V57.8716Z" fill="#FAFAFA"/>
<path d="M42.2379 52.9741H34.8172C34.7081 52.9741 34.6196 53.0626 34.6196 53.1717V63.6384C34.6196 63.7476 34.7081 63.836 34.8172 63.836H42.2379C42.347 63.836 42.4355 63.7476 42.4355 63.6384V53.1717C42.4355 53.0626 42.347 52.9741 42.2379 52.9741Z" fill="#E0E0E0"/>
<path d="M36.8447 50.8555H35.5467C35.4459 50.8555 35.3643 50.9371 35.3643 51.0379V63.6539C35.3643 63.7546 35.4459 63.8363 35.5467 63.8363H36.8447C36.9455 63.8363 37.0271 63.7546 37.0271 63.6539V51.0379C37.0271 50.9371 36.9455 50.8555 36.8447 50.8555Z" fill="#EBEBEB"/>
<path d="M37.0271 52.1929H35.3643V56.917H37.0271V52.1929Z" fill="#FAFAFA"/>
<path d="M37.0271 58.3701H35.3643V61.2824H37.0271V58.3701Z" fill="#FAFAFA"/>
<path d="M43.9312 50.8555H37.2097C37.109 50.8555 37.0273 50.9371 37.0273 51.0379V63.6539C37.0273 63.7546 37.109 63.8363 37.2097 63.8363H43.9312C44.0319 63.8363 44.1136 63.7546 44.1136 63.6539V51.0379C44.1136 50.9371 44.0319 50.8555 43.9312 50.8555Z" fill="#E0E0E0"/>
<path d="M39.5139 52.2263H38.0425C37.9418 52.2263 37.8601 52.308 37.8601 52.4087V63.6506C37.8601 63.7514 37.9418 63.833 38.0425 63.833H39.5139C39.6146 63.833 39.6963 63.7514 39.6963 63.6506V52.4087C39.6963 52.308 39.6146 52.2263 39.5139 52.2263Z" fill="#EBEBEB"/>
<path d="M39.6963 53.7434H37.8601V54.78H39.6963V53.7434Z" fill="#FAFAFA"/>
<path d="M39.6963 56.75H37.8601V57.7866H39.6963V56.75Z" fill="#FAFAFA"/>
<path d="M39.6963 59.7566H37.8601V60.7932H39.6963V59.7566Z" fill="#FAFAFA"/>
<path d="M47.3449 52.2263H39.8938C39.7931 52.2263 39.7114 52.308 39.7114 52.4087V63.6506C39.7114 63.7514 39.7931 63.833 39.8938 63.833H47.3449C47.4456 63.833 47.5273 63.7514 47.5273 63.6506V52.4087C47.5273 52.308 47.4456 52.2263 47.3449 52.2263Z" fill="#E0E0E0"/>
<path d="M42.0157 51.2109H40.7116C40.6125 51.2109 40.5322 51.2912 40.5322 51.3903V63.6537C40.5322 63.7527 40.6125 63.833 40.7116 63.833H42.0157C42.1148 63.833 42.1951 63.7527 42.1951 63.6537V51.3903C42.1951 51.2912 42.1148 51.2109 42.0157 51.2109Z" fill="#EBEBEB"/>
<path d="M42.1951 53.6917H40.5322V56.0476H42.1951V53.6917Z" fill="#FAFAFA"/>
<path d="M42.1951 56.7742H40.5322V58.2273H42.1951V56.7742Z" fill="#FAFAFA"/>
<path d="M49.1022 51.2109H42.3747C42.2756 51.2109 42.1953 51.2912 42.1953 51.3903V63.6537C42.1953 63.7527 42.2756 63.833 42.3747 63.833H49.1022C49.2013 63.833 49.2816 63.7527 49.2816 63.6537V51.3903C49.2816 51.2912 49.2013 51.2109 49.1022 51.2109Z" fill="#E0E0E0"/>
<path d="M44.463 52.9741H43.0221C42.9129 52.9741 42.8245 53.0626 42.8245 53.1717V63.6384C42.8245 63.7476 42.9129 63.836 43.0221 63.836H44.463C44.5722 63.836 44.6606 63.7476 44.6606 63.6384V53.1717C44.6606 53.0626 44.5722 52.9741 44.463 52.9741Z" fill="#EBEBEB"/>
<path d="M44.6574 55.4153H42.8213V57.4247H44.6574V55.4153Z" fill="#FAFAFA"/>
<path d="M44.6574 62.0061H42.8213V62.4834H44.6574V62.0061Z" fill="#FAFAFA"/>
<path d="M44.6574 57.8716H42.8213V59.881H44.6574V57.8716Z" fill="#FAFAFA"/>
<path d="M52.2911 52.9741H44.8705C44.7613 52.9741 44.6729 53.0626 44.6729 53.1717V63.6384C44.6729 63.7476 44.7613 63.836 44.8705 63.836H52.2911C52.4002 63.836 52.4887 63.7476 52.4887 63.6384V53.1717C52.4887 53.0626 52.4002 52.9741 52.2911 52.9741Z" fill="#E0E0E0"/>
<path d="M21.1128 36.5703L87.625 36.5703V16.5458L21.1128 16.5458V36.5703Z" fill="#E6E6E6"/>
<path d="M19.7023 36.5703L86.9653 36.5703V16.5458L19.7023 16.5458V36.5703Z" fill="#F0F0F0"/>
<path d="M21.1128 39.1938L87.625 39.1938V36.5734L21.1128 36.5734V39.1938Z" fill="#E6E6E6"/>
<path d="M17.3522 39.1938L84.6152 39.1938V36.5734L17.3522 36.5734V39.1938Z" fill="#F0F0F0"/>
<path d="M84.9893 34.5975V18.522L21.6752 18.522V34.5975H84.9893Z" fill="#FAFAFA"/>
<path d="M68.2358 34.5975L56.6443 18.522H44.7822L56.3737 34.5975H68.2358Z" fill="white"/>
<path d="M84.0742 33.0562C84.1121 33.0562 84.1484 33.0412 84.1752 33.0144C84.202 32.9876 84.217 32.9512 84.217 32.9133V19.8079C84.2121 19.774 84.195 19.743 84.1691 19.7205C84.1431 19.6981 84.11 19.6858 84.0757 19.6858C84.0414 19.6858 84.0082 19.6981 83.9823 19.7205C83.9563 19.743 83.9393 19.774 83.9343 19.8079V32.9133C83.9343 32.9507 83.9489 32.9866 83.9751 33.0133C84.0012 33.04 84.0368 33.0554 84.0742 33.0562Z" fill="#F0F0F0"/>
<path d="M51.9141 34.5975L40.3196 18.522H36.2156L47.8071 34.5975H51.9141Z" fill="white"/>
<path d="M21.9275 34.5975V18.522H21.6752V34.5975H21.9275Z" fill="#E6E6E6"/>
<path opacity="0.4" d="M19.2341 20.5131H85.7463L85.9287 19.291H19.4165L19.2341 20.5131Z" fill="#E6E6E6"/>
<path opacity="0.4" d="M19.2341 22.5316H85.7463L85.9287 21.3096H19.4165L19.2341 22.5316Z" fill="#E6E6E6"/>
<path opacity="0.4" d="M19.2341 24.5534H85.7463L85.9287 23.3313H19.4165L19.2341 24.5534Z" fill="#E6E6E6"/>
<path opacity="0.4" d="M19.2341 26.5719H85.7463L85.9287 25.3499H19.4165L19.2341 26.5719Z" fill="#E6E6E6"/>
<path opacity="0.4" d="M19.2341 28.5935H85.7463L85.9287 27.3684H19.4165L19.2341 28.5935Z" fill="#E6E6E6"/>
<path opacity="0.4" d="M19.2341 30.612H85.7463L85.9287 29.3899H19.4165L19.2341 30.612Z" fill="#E6E6E6"/>
<path d="M98.4048 62.0183H124.065V16.546H98.4048V62.0183Z" fill="#E6E6E6"/>
<path d="M101.57 17.7923C101.608 17.7926 101.646 17.782 101.679 17.7619C101.74 17.7254 107.777 14.1352 109.68 14.1352C111.583 14.1352 117.338 17.7224 117.396 17.7588C117.42 17.7754 117.447 17.7869 117.476 17.7925C117.504 17.7981 117.534 17.7978 117.562 17.7915C117.591 17.7852 117.618 17.7731 117.641 17.756C117.665 17.7389 117.685 17.7171 117.7 17.692C117.716 17.6677 117.726 17.6405 117.731 17.612C117.737 17.5835 117.736 17.5543 117.73 17.526C117.724 17.4977 117.712 17.471 117.695 17.4473C117.679 17.4236 117.657 17.4034 117.633 17.388C117.39 17.239 111.711 13.7004 109.689 13.7004C107.668 13.7004 101.722 17.236 101.481 17.388C101.441 17.4119 101.411 17.4483 101.393 17.4915C101.376 17.5347 101.373 17.5823 101.386 17.6272C101.398 17.672 101.425 17.7115 101.462 17.7397C101.499 17.7679 101.544 17.7831 101.591 17.7832L101.57 17.7923Z" fill="#F0F0F0"/>
<path d="M95.6232 62.0183H122.129V16.546H95.6232V62.0183Z" fill="#F0F0F0"/>
<path d="M119.913 59.7989V18.7681H97.8485V59.7989H119.913Z" fill="white"/>
<path d="M126.804 83.0884H110.814V102.25H126.804V83.0884Z" fill="#E0E0E0"/>
<path d="M126.801 83.0885H110.811L114.021 77.3733H130.012L126.801 83.0885Z" fill="#E0E0E0"/>
<path d="M95.225 77.3733H79.2346L82.4449 83.0885H98.4352L95.225 77.3733Z" fill="#F5F5F5"/>
<path d="M82.4418 102.25H110.811V83.0884H82.4418V102.25Z" fill="#F5F5F5"/>
<path d="M101.886 97.1333H110.811V88.2079H101.886V97.1333Z" fill="#F0F0F0"/>
<path d="M86.2692 93.3423H91.4038V88.2077H86.2692V93.3423Z" fill="#F0F0F0"/>
<path d="M86.2692 99.699H91.4038V94.5644H86.2692V99.699Z" fill="#F0F0F0"/>
<path d="M115.42 88.2048H110.814V97.1303H115.42V88.2048Z" fill="#E6E6E6"/>
<path d="M75.9999 115.978C108.553 115.978 134.942 114.438 134.942 112.537C134.942 110.636 108.553 109.096 75.9999 109.096C43.4469 109.096 17.0574 110.636 17.0574 112.537C17.0574 114.438 43.4469 115.978 75.9999 115.978Z" fill="#F5F5F5"/>
<path d="M51.9567 30.5564C54.0365 29.1334 54.569 26.2938 53.1459 24.2139C51.7229 22.1341 48.8832 21.6016 46.8033 23.0246C44.7234 24.4477 44.191 27.2873 45.614 29.3672C47.0371 31.447 49.8768 31.9795 51.9567 30.5564Z" fill="#FFA41C"/>
<path d="M48.944 26.3956L46.3904 25.3073C46.445 25.273 46.5083 25.2551 46.5728 25.2556H52.2181C52.2825 25.2554 52.3457 25.2733 52.4005 25.3073L49.8469 26.3956C49.7039 26.4557 49.5505 26.4867 49.3954 26.4867C49.2404 26.4867 49.0869 26.4557 48.944 26.3956Z" fill="white"/>
<path d="M52.5707 25.7145V28.1921C52.5707 28.2897 52.532 28.3833 52.463 28.4522C52.394 28.5212 52.3005 28.56 52.2029 28.56H46.5576C46.4601 28.56 46.3665 28.5212 46.2975 28.4522C46.2285 28.3833 46.1898 28.2897 46.1898 28.1921V25.7145C46.188 25.6994 46.188 25.6841 46.1898 25.6689L48.8011 26.7785C48.9831 26.855 49.1783 26.8953 49.3757 26.8971C49.5751 26.8956 49.7723 26.8553 49.9563 26.7785L52.5647 25.6689C52.5684 25.6839 52.5705 25.6992 52.5707 25.7145Z" fill="white"/>
<path d="M75.762 7.13268C76.4778 4.71636 75.0992 2.17731 72.6828 1.46155C70.2665 0.745791 67.7275 2.12437 67.0118 4.54069C66.296 6.95701 67.6746 9.49607 70.0909 10.2118C72.5073 10.9276 75.0463 9.54901 75.762 7.13268Z" fill="#3C50E0"/>
<path d="M73.5681 3.75977H69.2179C69.0007 3.76372 68.7936 3.8524 68.6408 4.00687C68.4881 4.16134 68.4017 4.36939 68.4001 4.58665V6.82713C68.4009 7.04699 68.4886 7.25762 68.6441 7.41308C68.7996 7.56855 69.0102 7.65624 69.2301 7.65704H72.4129L72.3886 8.44136L73.1942 7.65704H73.5681C73.7878 7.65545 73.9979 7.5675 74.1532 7.41221C74.3085 7.25691 74.3965 7.04674 74.3981 6.82713V4.58665C74.3965 4.36731 74.3084 4.15746 74.153 4.00265C73.9977 3.84784 73.7875 3.76056 73.5681 3.75977ZM69.1328 4.71433C69.1328 4.65277 69.157 4.59368 69.2003 4.54987C69.2435 4.50606 69.3023 4.48105 69.3638 4.48025H70.3609C70.4225 4.48105 70.4813 4.50606 70.5245 4.54987C70.5677 4.59368 70.592 4.65277 70.592 4.71433C70.5912 4.77507 70.5665 4.83306 70.5233 4.87573C70.48 4.91841 70.4217 4.94233 70.3609 4.94233H69.3638C69.3327 4.94397 69.3016 4.93931 69.2724 4.92862C69.2431 4.91794 69.2163 4.90145 69.1936 4.88016C69.1709 4.85886 69.1527 4.8332 69.1402 4.8047C69.1276 4.7762 69.121 4.74546 69.1206 4.71433H69.1328ZM73.3219 6.8788H71.5952C71.5347 6.8788 71.4767 6.85478 71.434 6.81202C71.3912 6.76927 71.3672 6.71127 71.3672 6.6508C71.3672 6.59034 71.3912 6.53234 71.434 6.48959C71.4767 6.44683 71.5347 6.42281 71.5952 6.42281H73.3219C73.3824 6.42281 73.4404 6.44683 73.4831 6.48959C73.5259 6.53234 73.5499 6.59034 73.5499 6.6508C73.5499 6.71127 73.5259 6.76927 73.4831 6.81202C73.4404 6.85478 73.3824 6.8788 73.3219 6.8788ZM73.3219 5.91209H69.5827C69.522 5.91129 69.464 5.88659 69.4213 5.84335C69.3786 5.80011 69.3547 5.7418 69.3547 5.68104C69.3547 5.62058 69.3787 5.56258 69.4215 5.51983C69.4642 5.47707 69.5222 5.45305 69.5827 5.45305H73.3097C73.3702 5.45305 73.4282 5.47707 73.471 5.51983C73.5137 5.56258 73.5377 5.62058 73.5377 5.68104C73.5377 5.7418 73.5138 5.80011 73.4712 5.84335C73.4285 5.88659 73.3705 5.91129 73.3097 5.91209H73.3219ZM73.3219 4.94233H71.1149C71.0544 4.94233 70.9964 4.9183 70.9536 4.87555C70.9109 4.83279 70.8869 4.7748 70.8869 4.71433C70.8865 4.68398 70.892 4.65386 70.9033 4.62568C70.9145 4.59749 70.9312 4.5718 70.9524 4.55006C70.9736 4.52832 70.9988 4.51097 71.0267 4.49899C71.0546 4.48701 71.0845 4.48064 71.1149 4.48025H73.3219C73.3829 4.48183 73.4409 4.50719 73.4835 4.55092C73.5261 4.59465 73.5499 4.65328 73.5499 4.71433C73.5495 4.74519 73.543 4.77567 73.5306 4.80396C73.5182 4.83225 73.5003 4.85777 73.478 4.87902C73.4556 4.90028 73.4291 4.91683 73.4003 4.9277C73.3714 4.93857 73.3406 4.94355 73.3097 4.94233H73.3219Z" fill="white"/>
<path d="M61.1214 14.8598C62.3489 12.6589 61.5598 9.87959 59.3589 8.65207C57.158 7.42454 54.3787 8.21362 53.1511 10.4145C51.9236 12.6155 52.7127 15.3948 54.9136 16.6223C57.1145 17.8498 59.8938 17.0607 61.1214 14.8598Z" fill="#E0503C"/>
<path d="M59.1068 10.7061H55.1548C54.9642 10.7061 54.7814 10.7816 54.6464 10.916C54.5114 11.0505 54.4351 11.233 54.4343 11.4235V13.8555C54.4343 13.9507 54.4532 14.0448 54.4897 14.1327C54.5263 14.2205 54.5799 14.3002 54.6475 14.3671C54.715 14.4341 54.7952 14.4871 54.8833 14.5229C54.9714 14.5588 55.0658 14.5768 55.1609 14.576H59.1129C59.3034 14.576 59.4862 14.5005 59.6213 14.3661C59.7563 14.2316 59.8326 14.0491 59.8334 13.8586V11.4266C59.8334 11.3314 59.8145 11.2372 59.778 11.1494C59.7414 11.0616 59.6878 10.9819 59.6202 10.9149C59.5527 10.848 59.4725 10.795 59.3844 10.7592C59.2963 10.7233 59.2019 10.7053 59.1068 10.7061ZM56.5046 13.664V11.6242L58.2617 12.6365L56.5046 13.664Z" fill="white"/>
<path d="M89.473 12.9815C91.7525 11.9069 92.7293 9.18788 91.6547 6.90839C90.5801 4.62889 87.861 3.65211 85.5815 4.7267C83.302 5.80129 82.3252 8.52032 83.3998 10.7998C84.4744 13.0793 87.1935 14.0561 89.473 12.9815Z" fill="#28B2FF"/>
<path d="M89.5463 9.4384C89.7926 9.18871 89.9617 8.8733 90.0333 8.52995C90.1049 8.18661 90.076 7.82991 89.9501 7.50257C89.8242 7.17522 89.6065 6.89113 89.3233 6.68432C89.04 6.47752 88.7031 6.35676 88.353 6.33653C88.0028 6.3163 87.6542 6.39745 87.349 6.57026C87.0438 6.74306 86.7949 7.0002 86.6321 7.31086C86.4693 7.62152 86.3996 7.97253 86.4312 8.32183C86.4628 8.67114 86.5944 9.00392 86.8103 9.28032C86.6857 9.3776 86.5671 9.47792 86.4485 9.58432C86.2753 9.73024 86.1081 9.88832 85.9439 10.0282C85.7797 10.168 85.6156 10.3322 85.4545 10.4902L85.2143 10.7274C85.1726 10.7651 85.1386 10.8105 85.114 10.8611C85.0991 10.8897 85.0888 10.9205 85.0836 10.9523C85.077 10.9885 85.077 11.0256 85.0836 11.0618C85.0879 11.1289 85.1165 11.1921 85.164 11.2397C85.2116 11.2873 85.2749 11.3159 85.342 11.3202C85.3793 11.325 85.4171 11.325 85.4545 11.3202L85.5426 11.2898C85.5938 11.2648 85.6393 11.2296 85.6764 11.1864C85.7554 11.1074 85.8375 11.0283 85.9135 10.9462C86.0716 10.7882 86.2175 10.624 86.3756 10.4598C86.5337 10.2957 86.6796 10.1254 86.8194 9.95216C86.9228 9.8336 87.0201 9.71504 87.1234 9.5904C87.4756 9.8668 87.917 10.004 88.3638 9.97602C88.8106 9.94799 89.2315 9.75664 89.5463 9.4384ZM87.2237 9.1648C87.0207 8.9621 86.8823 8.70373 86.8262 8.42237C86.77 8.14102 86.7986 7.84933 86.9083 7.58421C87.018 7.3191 87.2038 7.09248 87.4423 6.93304C87.6809 6.77359 87.9613 6.68848 88.2482 6.68848C88.5351 6.68848 88.8156 6.77359 89.0541 6.93304C89.2926 7.09248 89.4785 7.3191 89.5882 7.58421C89.6978 7.84933 89.7264 8.14102 89.6703 8.42237C89.6141 8.70373 89.4757 8.9621 89.2727 9.1648C89.0008 9.4362 88.6324 9.58864 88.2482 9.58864C87.8641 9.58864 87.4956 9.4362 87.2237 9.1648Z" fill="white"/>
<path d="M100.923 24.1282C103.003 22.7052 103.536 19.8655 102.112 17.7857C100.689 15.7058 97.8497 15.1734 95.7699 16.5964C93.69 18.0194 93.1575 20.8591 94.5806 22.9389C96.0037 25.0188 98.8433 25.5513 100.923 24.1282Z" fill="#17E3FF"/>
<path d="M101.272 20.3521C101.272 20.3521 101.272 20.3521 101.272 20.3339C101.27 20.1832 101.258 20.0329 101.235 19.8839C101.126 19.2097 100.784 18.5951 100.268 18.1469C99.7531 17.6988 99.097 17.4453 98.4141 17.4307H98.2682C98.1389 17.4327 98.0099 17.4439 97.8821 17.4641C97.1966 17.5759 96.5733 17.9277 96.1233 18.4568C95.6733 18.9858 95.4261 19.6576 95.4258 20.3521C95.4258 20.3521 95.4258 20.3521 95.4258 20.3673C95.4258 20.3825 95.4258 20.3673 95.4258 20.3855C95.4264 20.5361 95.4376 20.6864 95.4592 20.8355C95.5713 21.5191 95.922 22.1409 96.449 22.5906C96.976 23.0403 97.6453 23.2887 98.3381 23.2918C98.4928 23.2916 98.6473 23.2794 98.8002 23.2553C99.4817 23.1428 100.102 22.7932 100.551 22.2681C100.999 21.7431 101.248 21.0763 101.253 20.3855C101.253 20.3855 101.272 20.3703 101.272 20.3521ZM100.503 21.5073H99.9919C100.068 21.2086 100.114 20.9031 100.129 20.5953H100.782C100.753 20.9192 100.658 21.2338 100.503 21.5195V21.5073ZM96.1919 19.1969H96.7026C96.6268 19.4956 96.581 19.8011 96.5658 20.1089H95.9122C95.9453 19.7935 96.0404 19.4877 96.1919 19.2091V19.1969ZM99.6392 19.9447C99.6392 20.0025 99.6392 20.0572 99.6392 20.115H98.5722V19.203H99.4842C99.5598 19.4488 99.6117 19.7012 99.6392 19.9569V19.9447ZM98.5843 18.7287V17.9535C98.6537 17.9796 98.72 18.0133 98.7819 18.0539C99.0133 18.2304 99.1963 18.4625 99.3139 18.7287H98.5843ZM98.1101 17.9566V18.7287H97.3775C97.5144 18.3889 97.7767 18.1146 98.1101 17.9627V17.9566ZM98.1101 19.203V20.115H97.0431C97.0605 19.8061 97.1125 19.5002 97.1981 19.203H98.1101ZM95.9304 20.7503C95.9304 20.6987 95.9304 20.647 95.9122 20.5953H96.5688C96.5688 20.6683 96.5688 20.7382 96.5688 20.8111C96.591 21.048 96.6316 21.2828 96.6904 21.5134H96.1767C96.0523 21.2768 95.969 21.0209 95.9304 20.7564V20.7503ZM97.0552 20.7686C97.0552 20.7108 97.0552 20.6531 97.0552 20.5953H98.1223V21.5073H97.2103C97.1357 21.2685 97.0838 21.0232 97.0552 20.7747V20.7686ZM98.1101 21.9846V22.7841C98.0402 22.7593 97.9738 22.7255 97.9125 22.6838C97.6811 22.5072 97.4981 22.2751 97.3805 22.0089L98.1101 21.9846ZM98.5843 22.7598V21.9937H99.317C99.1837 22.3417 98.9212 22.6248 98.5843 22.7841V22.7598ZM98.5843 21.5103V20.5983H99.6514C99.6342 20.9072 99.5822 21.2131 99.4963 21.5103H98.5843ZM100.126 20.118C100.126 20.0481 100.126 19.9751 100.126 19.9022C100.102 19.6655 100.061 19.4308 100.004 19.1999H100.518C100.645 19.4384 100.733 19.6962 100.776 19.963C100.776 20.0147 100.776 20.0663 100.794 20.118H100.126ZM100.174 18.7257H99.8338C99.7685 18.5596 99.6881 18.3998 99.5936 18.2484C99.6575 18.2857 99.7194 18.3263 99.7791 18.37C99.9239 18.4766 100.056 18.599 100.174 18.7348V18.7257ZM97.0978 18.2515C97.0039 18.4021 96.9235 18.5608 96.8576 18.7257H96.5202C96.6883 18.5426 96.883 18.3858 97.0978 18.2606V18.2515ZM96.5232 21.9846H96.8607C96.9276 22.1515 97.009 22.3122 97.1039 22.4649C96.8868 22.3393 96.6908 22.1803 96.5232 21.9937V21.9846ZM99.5967 22.4801C99.6906 22.3284 99.7709 22.1687 99.8368 22.0028H100.174C100.006 22.1893 99.8115 22.3501 99.5967 22.4801Z" fill="white"/>
<path d="M103.02 40.1302C105.1 38.7071 105.633 35.8675 104.21 33.7876C102.787 31.7078 99.9469 31.1753 97.867 32.5984C95.7871 34.0214 95.2547 36.861 96.6778 38.9409C98.1008 41.0207 100.941 41.5532 103.02 40.1302Z" fill="#3CE07E"/>
<path d="M100.445 33.6248C99.8602 33.6415 99.3013 33.8681 98.8704 34.2632C98.4395 34.6584 98.1653 35.1955 98.0982 35.7762C98.031 36.357 98.1752 36.9425 98.5045 37.4256C98.8338 37.9087 99.3261 38.257 99.8913 38.4067L100.445 39.112L100.998 38.4067C101.563 38.257 102.055 37.9087 102.385 37.4256C102.714 36.9425 102.858 36.357 102.791 35.7762C102.724 35.1955 102.45 34.6584 102.019 34.2632C101.588 33.8681 101.029 33.6415 100.445 33.6248ZM100.445 37.0569C100.245 37.0563 100.05 36.9966 99.8847 36.8853C99.7191 36.7741 99.5902 36.6162 99.5143 36.4318C99.4383 36.2473 99.4188 36.0445 99.4581 35.8489C99.4974 35.6533 99.5937 35.4737 99.735 35.3329C99.8763 35.1921 100.056 35.0962 100.252 35.0575C100.448 35.0188 100.65 35.039 100.835 35.1155C101.019 35.192 101.176 35.3213 101.287 35.4872C101.398 35.6531 101.457 35.8482 101.457 36.0476C101.459 36.1817 101.434 36.3148 101.384 36.4393C101.334 36.5637 101.26 36.6769 101.166 36.7722C101.071 36.8676 100.959 36.9433 100.835 36.9947C100.711 37.0462 100.579 37.0725 100.445 37.0721V37.0569Z" fill="white"/>
<path d="M73.273 109.916H70.9292L70.8289 104.487H73.1727L73.273 109.916Z" fill="#B55B52"/>
<path d="M87.3513 109.916H85.0074L83.9617 104.487H86.3055L87.3513 109.916Z" fill="#B55B52"/>
<path d="M84.8464 109.646H87.4821C87.5282 109.646 87.5729 109.662 87.6085 109.691C87.644 109.721 87.6681 109.762 87.6766 109.807L88.0901 111.89C88.0995 111.941 88.0974 111.994 88.084 112.045C88.0706 112.095 88.0461 112.142 88.0125 112.182C87.9788 112.222 87.9367 112.254 87.8891 112.276C87.8416 112.298 87.7898 112.309 87.7374 112.309C86.8254 112.291 86.3725 112.239 85.2142 112.239C84.4998 112.239 83.0315 112.312 82.0466 112.312C81.0616 112.312 80.9582 111.339 81.3626 111.251C83.1866 110.856 83.8736 110.312 84.4634 109.792C84.5689 109.698 84.7052 109.646 84.8464 109.646Z" fill="#263238"/>
<path d="M70.9506 109.646H73.5133C73.5595 109.646 73.6042 109.662 73.6397 109.691C73.6752 109.721 73.6994 109.762 73.7079 109.807L74.1183 111.89C74.1287 111.941 74.1276 111.993 74.115 112.044C74.1023 112.095 74.0785 112.142 74.0453 112.182C74.012 112.222 73.9702 112.255 73.9229 112.277C73.8756 112.299 73.8239 112.31 73.7717 112.309C72.8597 112.291 71.516 112.239 70.3548 112.239C68.9959 112.239 67.8224 112.312 66.2295 112.312C65.2688 112.312 65.0135 111.339 65.43 111.251C67.2752 110.85 68.774 110.807 70.3821 109.828C70.5513 109.717 70.7479 109.653 70.9506 109.646Z" fill="#263238"/>
<path d="M70.8805 36.3273L68.3786 34.0837C68.3786 34.0837 62.2348 39.726 61.0309 39.7077C59.3893 39.6804 55.9785 39.5101 54.0754 39.0997C53.7349 39.3065 53.0357 40.0938 52.9658 40.4465C55.1455 42.1702 60.8242 43.4044 62.25 42.9241C65.4967 41.8357 70.8805 36.3273 70.8805 36.3273Z" fill="#B55B52"/>
<path d="M72.285 35.0261C72.2668 37.2666 66.3114 41.7384 66.3114 41.7384L62.8489 37.7621C64.1978 36.191 65.7067 34.7646 67.3511 33.5061C69.7892 31.7338 72.3033 32.5667 72.285 35.0261Z" fill="#263238"/>
<path opacity="0.2" d="M66.3115 41.7383C66.3115 41.7383 71.8109 37.61 72.2547 35.2996C71.5525 34.5791 67.792 36.6402 66.3115 41.7383Z" fill="black"/>
<path d="M54.4494 39.2212L52.373 37.3091L50.5095 39.6985C51.4421 40.206 52.4468 40.5679 53.4887 40.7716L54.4494 39.2212Z" fill="#B55B52"/>
<path d="M49.8985 36.1843L49.2571 37.987L50.5096 39.6986L52.3731 37.3091L49.8985 36.1843Z" fill="#B55B52"/>
<path opacity="0.2" d="M70.8289 104.49L70.8805 107.287H73.2274L73.1757 104.49H70.8289Z" fill="black"/>
<path opacity="0.2" d="M86.3085 104.49H83.9617L84.5028 107.287H86.8466L86.3085 104.49Z" fill="black"/>
<path d="M69.2452 32.6611C69.2452 32.6611 66.3024 39.7443 68.6098 52.9288H81.1498C81.2836 51.0044 80.3047 41.6139 82.384 32.5425C81.0016 32.2749 79.6034 32.0972 78.198 32.0105C76.4231 31.9086 74.6437 31.9086 72.8688 32.0105C71.646 32.1341 70.4346 32.3516 69.2452 32.6611Z" fill="#263238"/>
<path opacity="0.2" d="M79.6053 34.7798C79.359 36.2755 79.7421 39.8445 81.0645 43.9728C81.1279 40.4374 81.5033 36.9146 82.1862 33.4453V33.424C81.3624 33.3419 79.8393 33.3814 79.6053 34.7798Z" fill="black"/>
<path d="M77.6234 27.04C77.2464 28.7546 77.0154 30.8826 78.1979 32.0256C78.1979 32.0256 77.4683 33.7676 74.2794 33.7676C71.367 33.7676 72.8688 32.0256 72.8688 32.0256C74.7901 31.5696 74.7506 29.2045 74.4496 27.873L77.6234 27.04Z" fill="#B55B52"/>
<path d="M74.1274 33.6125L73.4373 34.3785C73.4137 34.4049 73.3973 34.437 73.3898 34.4717C73.3824 34.5063 73.3841 34.5423 73.3948 34.5761L73.6167 35.248C73.6282 35.286 73.6515 35.3194 73.6832 35.3435C73.7148 35.3675 73.7533 35.3809 73.793 35.3817L74.5348 35.4182C74.5704 35.4198 74.6059 35.4122 74.6378 35.3963C74.6697 35.3803 74.697 35.3565 74.7172 35.327L75.161 34.6765C75.1879 34.641 75.2024 34.5978 75.2024 34.5533C75.2024 34.5089 75.1879 34.4656 75.161 34.4302L74.4405 33.6125C74.4214 33.5895 74.3975 33.571 74.3704 33.5583C74.3434 33.5456 74.3139 33.5391 74.284 33.5391C74.2541 33.5391 74.2246 33.5456 74.1975 33.5583C74.1705 33.571 74.1465 33.5895 74.1274 33.6125Z" fill="#3C50E0"/>
<path d="M74.2822 33.4453C74.6346 34.038 74.8302 34.7107 74.8507 35.4C74.8507 35.4 78.8756 33.9894 78.7419 31.9283C78.7419 31.9283 78.1825 31.5909 77.8299 31.3203C77.8238 31.3173 77.6627 32.6184 74.2822 33.4453Z" fill="white"/>
<path d="M74.2823 33.4453C73.9031 34.0005 73.6242 34.6178 73.4584 35.2693C73.4584 35.2693 71.68 34.0533 72.2728 32.0044C72.6074 31.8703 72.952 31.7625 73.3034 31.6821C73.3034 31.6821 73.0328 33.0045 74.2823 33.4453Z" fill="white"/>
<path d="M73.9541 35.2754C73.9541 35.2754 72.8141 43.6688 72.7898 45.128C72.805 46.51 73.0221 47.8824 73.4343 49.2016C73.4343 49.2016 74.2156 47.7181 74.3463 45.0672C74.477 42.4164 74.3189 36.762 74.3767 35.2754H73.9541Z" fill="#3C50E0"/>
<path opacity="0.2" d="M74.4466 27.8579C74.6259 28.6391 74.7141 29.7761 74.3645 30.6729C74.6635 30.6286 74.9545 30.5405 75.2279 30.4115C76.3192 29.9038 76.8694 29.1043 77.4501 27.9156C77.5018 27.6116 77.5595 27.3076 77.6234 27.0249L74.4466 27.8579Z" fill="black"/>
<path d="M71.8687 25.5959C71.9194 25.8773 72.0262 26.1457 72.1829 26.3849C72.3396 26.6241 72.5429 26.8293 72.7807 26.9882C73.4252 27.4077 73.9967 26.8788 74.018 26.1431C74.0393 25.4804 73.7353 24.465 72.9905 24.3434C72.8262 24.3218 72.6592 24.3406 72.5039 24.3982C72.3486 24.4557 72.2096 24.5503 72.0991 24.6737C71.9886 24.7971 71.9099 24.9455 71.8697 25.1062C71.8296 25.2669 71.8292 25.435 71.8687 25.5959Z" fill="#B55B52"/>
<path opacity="0.2" d="M71.8687 25.5959C71.9194 25.8773 72.0262 26.1457 72.1829 26.3849C72.3396 26.6241 72.5429 26.8293 72.7807 26.9882C73.4252 27.4077 73.9967 26.8788 74.018 26.1431C74.0393 25.4804 73.7353 24.465 72.9905 24.3434C72.8262 24.3218 72.6592 24.3406 72.5039 24.3982C72.3486 24.4557 72.2096 24.5503 72.0991 24.6737C71.9886 24.7971 71.9099 24.9455 71.8697 25.1062C71.8296 25.2669 71.8292 25.435 71.8687 25.5959Z" fill="black"/>
<path d="M75.0119 21.112C73.7563 21.1698 71.9719 23.9878 73.0784 25.1977C74.185 26.4077 77.383 21.0026 75.0119 21.112Z" fill="#263238"/>
<path d="M79.2739 25.5992C78.2829 27.7272 77.8087 29.0222 76.2795 29.7366C73.9752 30.8067 71.7196 28.8246 72.0448 26.4473C72.3488 24.3193 73.9205 21.1942 76.3738 21.1152C76.9122 21.0941 77.4468 21.2136 77.925 21.4618C78.4032 21.7101 78.8086 22.0785 79.1012 22.531C79.3939 22.9834 79.5637 23.5042 79.5939 24.0422C79.6242 24.5802 79.5139 25.1167 79.2739 25.5992Z" fill="#B55B52"/>
<path d="M80.9307 22.8631C82.1467 23.6474 80.4231 27.1191 78.8605 27.0248C78.1704 26.9823 78.2981 25.2981 78.9882 23.848C77.7296 23.7933 73.5831 22.8752 73.7199 20.9144C73.7624 20.2821 74.4099 19.8991 75.3371 19.4188C75.5889 19.3126 75.7922 19.1165 75.9074 18.8687C76.0226 18.6209 76.0415 18.3391 75.9603 18.0781C76.1666 18.2806 76.3095 18.5388 76.3715 18.8211C76.4336 19.1034 76.4122 19.3977 76.3099 19.668C75.9573 20.6287 77.8816 20.2487 78.9912 20.2213C80.9733 20.1666 82.1103 21.6471 80.9307 22.8631Z" fill="#263238"/>
<path d="M80.6572 22.8629C80.6572 22.8629 81.6331 22.4951 81.9644 23.3493C81.5745 23.0838 81.1259 22.9169 80.6572 22.8629Z" fill="#263238"/>
<path d="M79.3015 28.3653C78.8326 28.7202 78.2433 28.8774 77.6599 28.8031C76.8939 28.6967 76.8361 27.9367 77.3225 27.3713C77.7572 26.8636 78.6844 26.3073 79.3198 26.6994C79.9551 27.0916 79.8791 27.9215 79.3015 28.3653Z" fill="#B55B52"/>
<path d="M68.6096 52.9286C68.6096 52.9286 67.8557 70.4602 67.9348 77.6103C68.0199 85.0492 70.0202 106.746 70.0202 106.746H73.9935C73.9935 106.746 74.7231 85.4839 75.0788 78.1697C75.4679 70.2079 76.8541 52.9194 76.8541 52.9194L68.6096 52.9286Z" fill="#3C50E0"/>
<path d="M74.2854 105.53C74.3036 105.53 74.2519 106.828 74.2519 106.828H69.6737L69.5156 105.369L74.2854 105.53Z" fill="#263238"/>
<path opacity="0.2" d="M73.9814 57.5708C73.8446 66.2683 74.2398 71.5548 75.1974 75.8108C75.4376 71.6612 75.8297 66.174 76.1732 61.617L73.9814 57.5708Z" fill="black"/>
<path d="M73.0571 52.9287C73.0571 52.9287 75.2794 70.8647 76.5774 77.5527C77.9941 84.9034 83.4235 106.737 83.4235 106.737H87.716C87.716 106.737 84.3295 85.5084 83.5999 78.2276C82.8034 70.3236 81.1679 52.9287 81.1679 52.9287H73.0571Z" fill="#3C50E0"/>
<path d="M87.7434 105.627C87.7617 105.627 87.9289 106.828 87.9289 106.828H83.2077L82.8247 105.448L87.7434 105.627Z" fill="#263238"/>
<path opacity="0.2" d="M86.0472 104.207C86.038 104.207 86.0292 104.204 86.0224 104.198C86.0157 104.191 86.0115 104.183 86.0107 104.174C85.9803 103.958 82.9221 85.04 82.2624 78.501C81.548 71.4056 80.0584 55.6706 80.0432 55.5125C80.0424 55.5071 80.0426 55.5016 80.044 55.4962C80.0455 55.4909 80.048 55.486 80.0514 55.4817C80.0548 55.4774 80.0591 55.4739 80.064 55.4713C80.0689 55.4688 80.0742 55.4673 80.0797 55.4669C80.0849 55.4665 80.0901 55.4671 80.0951 55.4687C80.1 55.4703 80.1046 55.4729 80.1086 55.4763C80.1125 55.4797 80.1158 55.4838 80.1181 55.4885C80.1205 55.4931 80.1219 55.4982 80.1223 55.5034C80.1375 55.6615 81.627 71.3935 82.3414 78.4919C83.0011 85.0279 86.0594 103.946 86.0898 104.162C86.0906 104.167 86.0904 104.172 86.0892 104.177C86.088 104.182 86.0858 104.187 86.0827 104.191C86.0795 104.196 86.0756 104.199 86.0711 104.202C86.0666 104.205 86.0615 104.207 86.0563 104.207H86.0472Z" fill="black"/>
<path d="M75.7567 24.9879C75.6867 25.1673 75.5378 25.2737 75.4223 25.2311C75.3068 25.1885 75.2733 25.0122 75.3432 24.8329C75.4131 24.6535 75.5621 24.5471 75.6776 24.5897C75.7932 24.6322 75.8266 24.8116 75.7567 24.9879Z" fill="#263238"/>
<path d="M73.7716 24.2493C73.7017 24.4256 73.5497 24.5351 73.4372 24.4925C73.3247 24.45 73.2852 24.2706 73.3551 24.0943C73.425 23.918 73.574 23.7903 73.6895 23.848C73.805 23.9058 73.8415 24.07 73.7716 24.2493Z" fill="#263238"/>
<path d="M74.3676 24.5715C73.9456 25.0401 73.4619 25.4492 72.9297 25.7875C73.0162 25.9193 73.1309 26.0302 73.2655 26.1122C73.4 26.1942 73.5512 26.2453 73.7079 26.2618L74.3676 24.5715Z" fill="#A02724"/>
<path d="M74.0271 26.9275C74.0203 26.9251 74.0141 26.9214 74.0088 26.9166C74.0035 26.9117 73.9993 26.9058 73.9965 26.8992C73.9936 26.8926 73.9922 26.8855 73.9922 26.8784C73.9922 26.8712 73.9937 26.8641 73.9967 26.8576C74.0027 26.8441 74.0134 26.8332 74.0268 26.8271C74.0403 26.8209 74.0555 26.8199 74.0696 26.8241C74.2889 26.9092 74.525 26.9422 74.7592 26.9206C74.9934 26.899 75.2194 26.8233 75.4194 26.6995C75.4301 26.6894 75.4442 26.6838 75.4589 26.6838C75.4736 26.6838 75.4877 26.6894 75.4984 26.6995C75.5085 26.7102 75.5141 26.7243 75.5141 26.739C75.5141 26.7537 75.5085 26.7678 75.4984 26.7785C75.2834 26.9202 75.0373 27.0078 74.781 27.0337C74.5248 27.0596 74.2661 27.0232 74.0271 26.9275Z" fill="#263238"/>
<path d="M76.608 24.5654C76.5924 24.5586 76.5784 24.5486 76.5668 24.5361C76.5553 24.5235 76.5466 24.5086 76.5412 24.4925C76.5112 24.3557 76.4477 24.2286 76.3564 24.1225C76.2652 24.0164 76.149 23.9346 76.0183 23.8845C75.9902 23.8754 75.9668 23.8556 75.9532 23.8295C75.9395 23.8033 75.9367 23.7728 75.9453 23.7446C75.9551 23.7169 75.9748 23.6937 76.0006 23.6797C76.0264 23.6656 76.0566 23.6617 76.0852 23.6686C76.2498 23.728 76.3972 23.827 76.5144 23.9569C76.6315 24.0868 76.7149 24.2436 76.757 24.4134C76.7645 24.442 76.7603 24.4724 76.7455 24.498C76.7308 24.5236 76.7065 24.5424 76.678 24.5502C76.657 24.563 76.6324 24.5683 76.608 24.5654Z" fill="#263238"/>
<path d="M73.1576 23.2035C73.1399 23.1963 73.1245 23.1845 73.113 23.1693C73.1014 23.1541 73.0942 23.1361 73.092 23.1171C73.0898 23.0982 73.0928 23.079 73.1006 23.0615C73.1084 23.0441 73.1207 23.0291 73.1363 23.0181C73.2696 22.9015 73.4286 22.8181 73.6004 22.7748C73.7721 22.7315 73.9516 22.7294 74.1243 22.7688C74.1384 22.773 74.1516 22.7799 74.1629 22.7893C74.1743 22.7986 74.1837 22.8102 74.1905 22.8232C74.1973 22.8363 74.2014 22.8506 74.2026 22.8653C74.2037 22.8799 74.2019 22.8947 74.1972 22.9087C74.1875 22.9363 74.1677 22.9592 74.1417 22.9727C74.1157 22.9863 74.0856 22.9894 74.0574 22.9816C73.9201 22.9537 73.7781 22.9579 73.6426 22.9937C73.5071 23.0296 73.3817 23.0962 73.2761 23.1883C73.2598 23.2018 73.24 23.2103 73.219 23.213C73.1981 23.2157 73.1768 23.2124 73.1576 23.2035Z" fill="#263238"/>
<path d="M80.335 36.4001L83.5999 35.3391C83.5999 35.3391 86.5974 42.9817 87.71 43.4225C89.23 44.0305 92.2913 45.6356 94.2004 46.0186C94.4193 46.3409 94.7111 47.3319 94.6199 47.6815C91.8839 48.3929 86.3146 46.8942 85.2172 45.9092C82.7092 43.6657 80.335 36.4001 80.335 36.4001Z" fill="#B55B52"/>
<path d="M82.384 32.5423C84.5941 32.8645 86.944 40.5527 86.944 40.5527L82.2198 43.1823C82.2198 43.1823 80.259 39.5343 79.3136 36.7983C78.3256 33.968 80.0128 32.2079 82.384 32.5423Z" fill="#263238"/>
<path d="M84.062 110.056C83.9039 110.069 83.7462 110.027 83.6151 109.938C83.5717 109.901 83.5388 109.854 83.5195 109.801C83.5003 109.747 83.4955 109.69 83.5057 109.634C83.5069 109.601 83.5168 109.569 83.5344 109.541C83.552 109.513 83.5767 109.491 83.606 109.476C83.8644 109.345 84.6122 109.807 84.6974 109.862C84.7063 109.868 84.7134 109.876 84.7177 109.886C84.722 109.895 84.7234 109.906 84.7217 109.917C84.7194 109.927 84.7142 109.937 84.7067 109.945C84.6992 109.953 84.6897 109.959 84.6791 109.962C84.4776 110.017 84.2706 110.048 84.062 110.056ZM83.7246 109.57C83.7015 109.565 83.6776 109.565 83.6546 109.57C83.6394 109.57 83.6212 109.591 83.6181 109.634C83.611 109.671 83.6136 109.709 83.6259 109.745C83.6382 109.781 83.6596 109.813 83.6881 109.838C83.9495 109.956 84.2465 109.971 84.518 109.877C84.2759 109.724 84.0064 109.62 83.7246 109.57Z" fill="#3C50E0"/>
<path d="M84.6639 109.974H84.6396C84.3995 109.84 83.9434 109.327 83.9982 109.062C84.0081 109.022 84.031 108.985 84.0633 108.959C84.0957 108.933 84.1358 108.918 84.1775 108.916C84.22 108.911 84.263 108.915 84.3039 108.928C84.3447 108.94 84.3825 108.961 84.4147 108.989C84.6791 109.211 84.7187 109.901 84.7187 109.916C84.7188 109.927 84.7164 109.937 84.7116 109.946C84.7068 109.955 84.6998 109.963 84.6913 109.968C84.6829 109.973 84.6734 109.975 84.6639 109.974ZM84.2079 109.023H84.1836C84.1107 109.023 84.1046 109.062 84.1015 109.077C84.0681 109.232 84.3569 109.619 84.594 109.804C84.5847 109.538 84.4946 109.282 84.3356 109.068C84.3 109.038 84.2546 109.022 84.2079 109.023Z" fill="#3C50E0"/>
<path d="M69.9656 110.056C69.7663 110.074 69.5669 110.024 69.4001 109.913C69.3629 109.88 69.3345 109.838 69.3175 109.79C69.3005 109.743 69.2955 109.692 69.3029 109.643C69.3047 109.612 69.3143 109.582 69.3308 109.556C69.3473 109.53 69.3701 109.509 69.3971 109.494C69.6859 109.333 70.6131 109.798 70.7225 109.868C70.7326 109.873 70.7406 109.882 70.7455 109.892C70.7504 109.903 70.7519 109.914 70.7499 109.926C70.7486 109.937 70.7434 109.948 70.7351 109.956C70.7268 109.965 70.7159 109.97 70.7043 109.971C70.4612 110.023 70.2139 110.051 69.9656 110.056ZM69.5521 109.57C69.5164 109.568 69.4809 109.575 69.4488 109.591C69.4383 109.597 69.4294 109.605 69.423 109.615C69.4166 109.625 69.4129 109.637 69.4123 109.649C69.4078 109.682 69.4112 109.715 69.4223 109.746C69.4334 109.778 69.4519 109.806 69.4761 109.828C69.616 109.956 70.002 109.98 70.5219 109.892C70.2196 109.73 69.8915 109.621 69.5521 109.57Z" fill="#3C50E0"/>
<path d="M70.6953 109.974H70.6709C70.3912 109.847 69.844 109.342 69.8927 109.062C69.8927 109.001 69.9504 108.922 70.1024 108.907C70.1571 108.901 70.2124 108.907 70.2647 108.924C70.3171 108.941 70.3653 108.968 70.4065 109.005C70.7105 109.248 70.7469 109.88 70.7469 109.917C70.7482 109.926 70.7465 109.936 70.7422 109.945C70.7379 109.953 70.731 109.96 70.7226 109.965C70.7148 109.971 70.7052 109.975 70.6953 109.974ZM70.145 109.023H70.1116C70.0112 109.023 70.0052 109.071 70.0021 109.084C69.9717 109.242 70.3426 109.64 70.6284 109.816C70.6063 109.549 70.4999 109.296 70.3244 109.093C70.2737 109.051 70.2108 109.026 70.145 109.023Z" fill="#3C50E0"/>
<path d="M94.4041 47.7334L96.6354 47.8398L95.4498 45.4078C95.4498 45.4078 93.4951 45.3774 93.1729 46.8822L94.4041 47.7334Z" fill="#B55B52"/>
<path d="M98.4443 46.6632L97.2618 44.5139L95.45 45.4077L96.6355 47.8397L98.4443 46.6632Z" fill="#B55B52"/>
</svg>
