<svg width="171" height="127" viewBox="0 0 171 127" fill="none" xmlns="http://www.w3.org/2000/svg">
<path d="M153.59 117.264H142.284V117.349H153.59V117.264Z" fill="#EBEBEB"/>
<path d="M113.075 118.192H110.109V118.277H113.075V118.192Z" fill="#EBEBEB"/>
<path d="M141.943 114.095H135.391V114.181H141.943V114.095Z" fill="#EBEBEB"/>
<path d="M32.6533 114.669H17.9087V114.754H32.6533V114.669Z" fill="#EBEBEB"/>
<path d="M37.8563 114.669H35.6953V114.754H37.8563V114.669Z" fill="#EBEBEB"/>
<path d="M76.8634 116.11H44.8821V116.195H76.8634V116.11Z" fill="#EBEBEB"/>
<path d="M81.3874 96.5447H15.4652C14.9482 96.5447 14.4524 96.3393 14.0868 95.9738C13.7212 95.6082 13.5159 95.1124 13.5159 94.5954V1.93226C13.5204 1.41823 13.7277 0.926784 14.0928 0.564898C14.4579 0.203011 14.9511 -1.9707e-05 15.4652 1.4347e-09H81.3874C81.6433 1.4347e-09 81.8968 0.0504205 82.1333 0.148383C82.3698 0.246346 82.5847 0.389933 82.7657 0.570945C82.9468 0.751957 83.0903 0.96685 83.1883 1.20335C83.2863 1.43986 83.3367 1.69334 83.3367 1.94933V94.5954C83.3367 94.8514 83.2863 95.1049 83.1883 95.3414C83.0903 95.5779 82.9468 95.7928 82.7657 95.9738C82.5847 96.1548 82.3698 96.2984 82.1333 96.3963C81.8968 96.4943 81.6433 96.5447 81.3874 96.5447ZM15.4652 0.068278C14.9711 0.0691804 14.4975 0.265853 14.1482 0.615222C13.7988 0.964591 13.6021 1.43818 13.6012 1.93226V94.5954C13.6021 95.0895 13.7988 95.5631 14.1482 95.9124C14.4975 96.2618 14.9711 96.4585 15.4652 96.4594H81.3874C81.8814 96.4585 82.355 96.2618 82.7044 95.9124C83.0538 95.5631 83.2504 95.0895 83.2513 94.5954V1.93226C83.2504 1.43818 83.0538 0.964591 82.7044 0.615222C82.355 0.265853 81.8814 0.0691804 81.3874 0.068278H15.4652Z" fill="#EBEBEB"/>
<path d="M155.229 96.5447H89.3068C88.7898 96.5447 88.2939 96.3393 87.9284 95.9738C87.5628 95.6082 87.3574 95.1124 87.3574 94.5954V1.93226C87.3619 1.41823 87.5693 0.926784 87.9344 0.564898C88.2994 0.203011 88.7927 -1.9707e-05 89.3068 1.4347e-09H155.229C155.746 1.43471e-09 156.242 0.205375 156.607 0.570945C156.973 0.936516 157.178 1.43233 157.178 1.94933V94.5954C157.178 95.1124 156.973 95.6082 156.607 95.9738C156.242 96.3393 155.746 96.5447 155.229 96.5447ZM89.3068 0.068278C88.8127 0.0691804 88.3391 0.265853 87.9897 0.615222C87.6403 0.964591 87.4437 1.43818 87.4428 1.93226V94.5954C87.4437 95.0895 87.6403 95.5631 87.9897 95.9124C88.3391 96.2618 88.8127 96.4585 89.3068 96.4594H155.229C155.723 96.4585 156.197 96.2618 156.546 95.9124C156.895 95.5631 157.092 95.0895 157.093 94.5954V1.93226C157.092 1.43818 156.895 0.964591 156.546 0.615222C156.197 0.265853 155.723 0.0691804 155.229 0.068278H89.3068Z" fill="#EBEBEB"/>
<path d="M170.694 111.771H0V111.856H170.694V111.771Z" fill="#EBEBEB"/>
<path d="M44.6129 21.6578L47.1016 20.0601L48.4604 22.6888L51.4168 22.5522L51.2802 25.5086L53.9089 26.8673L52.3112 29.3561L53.9089 31.8482L51.2802 33.2069L51.4168 36.1634L48.4604 36.0268L47.1016 38.6555L44.6129 37.0578L42.1208 38.6555L40.762 36.0268L37.8056 36.1634L37.9422 33.2069L35.3135 31.8482L36.9112 29.3561L35.3135 26.8673L37.9422 25.5086L37.8056 22.5522L40.762 22.6888L42.1208 20.0601L44.6129 21.6578Z" fill="#E6E6E6"/>
<path d="M43.6666 33.1592L40.7067 30.1994C40.5443 30.0368 40.4531 29.8164 40.4531 29.5866C40.4531 29.3568 40.5443 29.1364 40.7067 28.9738C40.8693 28.8114 41.0897 28.7202 41.3195 28.7202C41.5493 28.7202 41.7697 28.8114 41.9323 28.9738L43.6666 30.708L47.2887 27.0859C47.4513 26.9235 47.6717 26.8323 47.9015 26.8323C48.1313 26.8323 48.3517 26.9235 48.5143 27.0859C48.6767 27.2485 48.7679 27.4689 48.7679 27.6987C48.7679 27.9285 48.6767 28.1489 48.5143 28.3115L43.6666 33.1592Z" fill="#FAFAFA"/>
<path d="M137.19 47.7876L139.143 46.5347L140.208 48.5967L142.53 48.4874L142.421 50.8054L144.483 51.8706L143.23 53.8267L144.483 55.7795L142.421 56.8446L142.53 59.1626L140.208 59.0568L139.143 61.1188L137.19 59.8659L135.238 61.1188L134.173 59.0568L131.855 59.1626L131.96 56.8446L129.898 55.7795L131.151 53.8267L129.898 51.8706L131.96 50.8054L131.855 48.4874L134.173 48.5967L135.238 46.5347L137.19 47.7876Z" fill="#E6E6E6"/>
<path d="M136.449 56.8071L134.128 54.4857C134.002 54.3579 133.931 54.1856 133.931 54.006C133.931 53.8265 134.002 53.6542 134.128 53.5264C134.256 53.3992 134.429 53.3278 134.609 53.3278C134.79 53.3278 134.963 53.3992 135.09 53.5264L136.456 54.8919L139.296 52.0516C139.424 51.9244 139.597 51.853 139.778 51.853C139.958 51.853 140.131 51.9244 140.259 52.0516C140.386 52.1795 140.458 52.3526 140.458 52.5329C140.458 52.7133 140.386 52.8864 140.259 53.0143L136.449 56.8071Z" fill="#FAFAFA"/>
<path d="M44.8615 80.5678L48.668 82.5103C48.9816 82.669 49.3382 82.7215 49.6843 82.6599C50.0303 82.5983 50.347 82.426 50.5866 82.1689L53.4986 79.0418C53.6673 78.861 53.792 78.6437 53.8631 78.4069C53.9341 78.17 53.9496 77.92 53.9083 77.6762L52.3959 69.0869C52.276 68.4132 51.8939 67.8146 51.3333 67.4223C50.7726 67.03 50.0793 66.876 49.4054 66.9941L44.585 67.8442C44.2512 67.9031 43.9323 68.0273 43.6465 68.2095C43.3607 68.3916 43.1135 68.6284 42.9192 68.9061C42.7249 69.1838 42.5871 69.497 42.5139 69.8279C42.4406 70.1589 42.4333 70.501 42.4922 70.8348L44.0046 79.4207C44.0501 79.6647 44.151 79.8951 44.2996 80.0939C44.4481 80.2928 44.6404 80.4549 44.8615 80.5678ZM49.1971 79.885C49.3555 79.8563 49.5188 79.8752 49.6664 79.9394C49.8139 80.0037 49.9391 80.1103 50.026 80.2457C50.1129 80.3812 50.1576 80.5394 50.1545 80.7003C50.1513 80.8613 50.1004 81.0176 50.0083 81.1496C49.9162 81.2815 49.7869 81.3832 49.637 81.4416C49.487 81.5 49.323 81.5125 49.1659 81.4776C49.0088 81.4427 48.8656 81.3619 48.7545 81.2455C48.6433 81.1291 48.5692 80.9824 48.5416 80.8238C48.5049 80.6125 48.5531 80.3952 48.6759 80.2193C48.7987 80.0434 48.9861 79.9233 49.1971 79.885Z" fill="#E6E6E6"/>
<path d="M45.0471 77.9058L52.4133 76.6069L52.2728 75.8101L44.9067 77.109L45.0471 77.9058Z" fill="#FAFAFA"/>
<path d="M43.8008 70.8252L51.167 69.5263L51.0265 68.7295L43.6603 70.0284L43.8008 70.8252Z" fill="#FAFAFA"/>
<path d="M57.8717 24.9691L60.4935 27.7822C60.7089 28.0132 60.9937 28.1677 61.3047 28.2225C61.6157 28.2774 61.9362 28.2294 62.2175 28.086L65.6314 26.3381C65.8323 26.2367 66.0066 26.0897 66.1406 25.9089C66.2745 25.7281 66.3644 25.5185 66.403 25.2969L67.7685 17.5747C67.8747 16.969 67.7363 16.346 67.3837 15.8423C67.031 15.3386 66.4929 14.9953 65.8875 14.8879L61.5553 14.1232C60.9487 14.017 60.3248 14.1558 59.8205 14.5091C59.3161 14.8624 58.9725 15.4014 58.8651 16.0077L57.4996 23.7265C57.4604 23.9483 57.4736 24.1762 57.5382 24.3919C57.6028 24.6077 57.717 24.8054 57.8717 24.9691ZM61.7396 25.7407C61.8821 25.7651 62.0142 25.8313 62.119 25.9309C62.2239 26.0305 62.2968 26.1589 62.3287 26.3C62.3605 26.441 62.3497 26.5883 62.2978 26.7233C62.2458 26.8582 62.1549 26.9747 62.0367 27.058C61.9185 27.1412 61.7783 27.1876 61.6337 27.1911C61.4891 27.1946 61.3468 27.1551 61.2247 27.0777C61.1026 27.0002 61.0062 26.8883 60.9478 26.756C60.8893 26.6238 60.8714 26.4771 60.8964 26.3347C60.9297 26.1443 61.0372 25.9748 61.1953 25.8635C61.3533 25.7521 61.5491 25.708 61.7396 25.7407Z" fill="#F0F0F0"/>
<path d="M58.8514 22.782L65.4746 23.95L65.6009 23.2338L58.9777 22.0659L58.8514 22.782Z" fill="#FAFAFA"/>
<path d="M60.1643 16.8257L66.7551 17.969L66.8787 17.2564L60.2879 16.113L60.1643 16.8257Z" fill="#FAFAFA"/>
<path d="M121.323 16.6426C120.838 15.9503 120.098 15.4788 119.266 15.3315C118.434 15.1843 117.578 15.3734 116.885 15.8574L115.519 16.8031L114.57 15.4375C114.084 14.7467 113.345 14.2763 112.513 14.1292C111.681 13.9821 110.825 14.1701 110.132 14.6523C109.441 15.1382 108.971 15.8777 108.824 16.7093C108.677 17.541 108.865 18.397 109.347 19.0904L113.959 25.6758L120.548 21.0636C121.233 20.577 121.699 19.84 121.844 19.0123C121.989 18.1847 121.802 17.3332 121.323 16.6426Z" fill="#EBEBEB"/>
<path d="M130.793 17.2572C130.675 17.0884 130.526 16.9445 130.353 16.8337C130.18 16.7229 129.986 16.6474 129.784 16.6116C129.582 16.5758 129.374 16.5803 129.173 16.6248C128.973 16.6694 128.783 16.7532 128.615 16.8714L127.952 17.3357L127.488 16.6734C127.25 16.3341 126.887 16.1029 126.479 16.0306C126.071 15.9583 125.65 16.0507 125.31 16.2876C124.971 16.527 124.74 16.8907 124.669 17.2995C124.597 17.7083 124.69 18.1288 124.928 18.4691L127.184 21.6918L130.41 19.4353C130.579 19.3176 130.722 19.1679 130.833 18.9947C130.943 18.8214 131.019 18.628 131.054 18.4257C131.09 18.2233 131.085 18.0159 131.04 17.8154C130.995 17.6148 130.911 17.4252 130.793 17.2572Z" fill="#EBEBEB"/>
<path d="M29.8242 48.6001C27.6209 49.2328 25.7589 50.7144 24.6476 52.7194C23.5363 54.7244 23.2666 57.0886 23.8977 59.2924C24.7546 62.2727 29.9812 67.2672 33.5385 70.4046C33.9033 70.727 34.3436 70.9524 34.8185 71.0598C35.2934 71.1673 35.7877 71.1533 36.2559 71.0193C36.724 70.8853 37.1508 70.6354 37.4969 70.2929C37.8429 69.9504 38.0971 69.5262 38.236 69.0595C39.6016 64.5156 41.3734 57.5069 40.5199 54.5266C40.207 53.435 39.6822 52.4157 38.9752 51.527C38.2683 50.6383 37.3932 49.8977 36.4 49.3473C35.4067 48.7969 34.3147 48.4476 33.1864 48.3194C32.0581 48.1912 30.9156 48.2866 29.8242 48.6001ZM33.3064 60.7433C32.5484 60.9611 31.7428 60.9493 30.9916 60.7093C30.2403 60.4693 29.5771 60.0119 29.0858 59.3949C28.5945 58.778 28.2972 58.0292 28.2315 57.2433C28.1657 56.4574 28.3345 55.6696 28.7165 54.9796C29.0985 54.2897 29.6765 53.7285 30.3775 53.367C31.0785 53.0055 31.8709 52.8601 32.6545 52.949C33.4381 53.0379 34.1778 53.3572 34.78 53.8665C35.3821 54.3758 35.8198 55.0522 36.0375 55.8102C36.3294 56.8265 36.2057 57.9172 35.6935 58.8423C35.1813 59.7674 34.3227 60.4512 33.3064 60.7433Z" fill="#E0E0E0"/>
<path d="M31.1757 48.2143C28.9752 48.8491 27.1165 50.3314 26.0079 52.3354C24.8993 54.3395 24.6313 56.7017 25.2629 58.9032C26.1198 61.8835 31.3464 66.8814 34.9037 70.0188C35.2699 70.3403 35.7113 70.5642 36.187 70.6699C36.6627 70.7756 37.1574 70.7597 37.6253 70.6235C38.0932 70.4874 38.5192 70.2355 38.864 69.8911C39.2088 69.5468 39.4612 69.121 39.5978 68.6533C40.9634 64.1094 42.7352 57.1041 41.8817 54.1203C41.5671 53.0292 41.0406 52.0108 40.3321 51.1233C39.6237 50.2358 38.7473 49.4967 37.7529 48.9482C36.7586 48.3996 35.666 48.0525 34.5374 47.9266C33.4088 47.8007 32.2665 47.8984 31.1757 48.2143ZM34.6579 60.3575C33.8993 60.576 33.0929 60.5647 32.3408 60.3248C31.5887 60.085 30.9246 59.6275 30.4325 59.0101C29.9404 58.3928 29.6425 57.6434 29.5764 56.8567C29.5103 56.07 29.679 55.2814 30.0612 54.5906C30.4434 53.8999 31.0218 53.338 31.7234 52.976C32.425 52.614 33.2182 52.4683 34.0026 52.5572C34.787 52.646 35.5275 52.9656 36.1303 53.4754C36.7331 53.9851 37.1711 54.6622 37.389 55.421C37.5341 55.9245 37.5785 56.4516 37.5197 56.9722C37.4609 57.4929 37.3001 57.9968 37.0465 58.4553C36.7929 58.9137 36.4514 59.3177 36.0415 59.6441C35.6317 59.9705 35.1615 60.2129 34.6579 60.3575Z" fill="#F5F5F5"/>
<path d="M130.722 26.6283C129.772 26.3536 128.777 26.2693 127.794 26.38C126.811 26.4908 125.86 26.7945 124.995 27.2738C124.13 27.7531 123.369 28.3985 122.754 29.1729C122.139 29.9474 121.683 30.8356 121.412 31.7867C120.668 34.3847 122.221 40.4853 123.402 44.442C123.522 44.8496 123.744 45.2203 124.046 45.5195C124.347 45.8188 124.72 46.037 125.129 46.1538C125.537 46.2706 125.969 46.2823 126.383 46.1877C126.798 46.0932 127.181 45.8954 127.499 45.6129C130.599 42.8818 135.149 38.5325 135.894 35.938C136.168 34.9871 136.252 33.9914 136.14 33.008C136.029 32.0247 135.724 31.0731 135.243 30.2079C134.762 29.3428 134.115 28.5812 133.34 27.9669C132.564 27.3526 131.674 26.8977 130.722 26.6283ZM127.68 37.2114C127.02 37.022 126.432 36.6415 125.988 36.1178C125.545 35.5941 125.266 34.9507 125.188 34.269C125.11 33.5872 125.236 32.8976 125.55 32.2873C125.863 31.6769 126.351 31.1732 126.951 30.8398C127.55 30.5063 128.235 30.3581 128.919 30.4137C129.603 30.4694 130.255 30.7265 130.793 31.1526C131.331 31.5786 131.731 32.1546 131.942 32.8076C132.153 33.4606 132.165 34.1615 131.978 34.8216C131.853 35.2612 131.643 35.6718 131.359 36.0299C131.076 36.388 130.724 36.6866 130.325 36.9086C129.926 37.1306 129.486 37.2717 129.033 37.3236C128.579 37.3756 128.119 37.3374 127.68 37.2114Z" fill="#E0E0E0"/>
<path d="M131.899 26.9696C130.949 26.6949 129.954 26.6106 128.971 26.7213C127.989 26.8321 127.038 27.1359 126.173 27.6151C125.308 28.0944 124.546 28.7398 123.931 29.5142C123.316 30.2887 122.86 31.1769 122.589 32.128C121.845 34.7226 123.398 40.8266 124.579 44.7833C124.7 45.1909 124.921 45.5616 125.223 45.8609C125.525 46.1601 125.897 46.3783 126.306 46.4951C126.714 46.6119 127.146 46.6236 127.56 46.529C127.975 46.4345 128.359 46.2368 128.676 45.9542C131.773 43.2231 136.323 38.8738 137.067 36.2793C137.342 35.3286 137.426 34.3331 137.314 33.3499C137.203 32.3668 136.898 31.4153 136.418 30.5502C135.938 29.6851 135.291 28.9234 134.516 28.309C133.74 27.6945 132.851 27.2393 131.899 26.9696ZM128.867 37.5527C128.207 37.3639 127.618 36.9838 127.174 36.4603C126.73 35.9368 126.451 35.2935 126.373 34.6116C126.294 33.9297 126.42 33.2398 126.733 32.6292C127.047 32.0185 127.534 31.5145 128.134 31.1807C128.734 30.847 129.419 30.6985 130.103 30.7541C130.787 30.8096 131.44 31.0667 131.978 31.4929C132.516 31.9191 132.915 32.4951 133.126 33.1484C133.337 33.8016 133.349 34.5027 133.162 35.163C132.909 36.0493 132.315 36.7991 131.51 37.2472C130.704 37.6954 129.754 37.8053 128.867 37.5527Z" fill="#F5F5F5"/>
<path d="M85.3471 127C121.904 127 151.539 125.27 151.539 123.136C151.539 121.001 121.904 119.271 85.3471 119.271C48.7904 119.271 19.1553 121.001 19.1553 123.136C19.1553 125.27 48.7904 127 85.3471 127Z" fill="#F5F5F5"/>
<path d="M64.3516 45.3603H68.0045C68.1855 45.357 68.3652 45.3921 68.5317 45.4633C68.6982 45.5345 68.8476 45.6402 68.9702 45.7735C69.0928 45.9067 69.1858 46.0645 69.2429 46.2363C69.3001 46.4081 69.3201 46.5901 69.3017 46.7703L68.619 54.4754C68.5798 54.8589 68.4015 55.2148 68.1179 55.4758C67.8342 55.7369 67.4647 55.885 67.0793 55.8922H63.4298C63.2485 55.8951 63.0685 55.8595 62.9019 55.7877C62.7353 55.7158 62.5859 55.6094 62.4636 55.4754C62.3412 55.3415 62.2487 55.183 62.1923 55.0106C62.1358 54.8382 62.1166 54.6558 62.136 54.4754L62.8153 46.7703C62.856 46.3886 63.0344 46.0348 63.3172 45.7752C63.6 45.5157 63.9678 45.3681 64.3516 45.3603Z" fill="#407BFF"/>
<path opacity="0.2" d="M105.216 43.7149H110.924C111.207 43.7099 111.488 43.7652 111.749 43.8772C112.009 43.9893 112.243 44.1554 112.434 44.3647C112.625 44.5739 112.769 44.8215 112.857 45.0909C112.946 45.3603 112.975 45.6453 112.945 45.9271L112.241 53.9736C112.18 54.5699 111.904 55.1234 111.464 55.5306C111.024 55.9378 110.451 56.1707 109.852 56.1858H104.123C103.84 56.1904 103.559 56.1347 103.299 56.0225C103.039 55.9102 102.806 55.744 102.616 55.5348C102.425 55.3256 102.281 55.0782 102.193 54.809C102.105 54.5399 102.075 54.2551 102.106 53.9736L102.809 45.9271C102.871 45.328 103.149 44.7722 103.593 44.3646C104.036 43.957 104.614 43.7259 105.216 43.7149Z" fill="black"/>
<path opacity="0.2" d="M104.046 57.0835H109.757C110.04 57.079 110.321 57.1346 110.581 57.2469C110.841 57.3591 111.074 57.5254 111.265 57.7346C111.455 57.9438 111.6 58.1912 111.688 58.4603C111.775 58.7295 111.805 59.0142 111.775 59.2957L111.071 67.3422C111.01 67.9416 110.732 68.4979 110.288 68.9056C109.845 69.3133 109.267 69.5441 108.665 69.5544H102.956C102.673 69.5595 102.392 69.5041 102.132 69.3921C101.871 69.2801 101.638 69.1139 101.446 68.9047C101.255 68.6954 101.111 68.4479 101.023 68.1785C100.935 67.9091 100.905 67.624 100.935 67.3422L101.642 59.2957C101.703 58.6969 101.981 58.1411 102.424 57.7335C102.867 57.3258 103.444 57.0946 104.046 57.0835Z" fill="black"/>
<path d="M74.5967 28.6288H106.4C107.426 28.6106 108.443 28.8109 109.384 29.2165C110.326 29.6221 111.17 30.2236 111.861 30.9811C112.552 31.7385 113.074 32.6345 113.391 33.6093C113.709 34.5841 113.815 35.6153 113.703 36.6344L106.916 114.188C106.695 116.355 105.688 118.366 104.084 119.841C102.48 121.315 100.392 122.151 98.214 122.19H66.4102C65.3855 122.208 64.3686 122.008 63.4273 121.602C62.486 121.197 61.6418 120.596 60.951 119.839C60.2601 119.082 59.7384 118.186 59.4206 117.212C59.1028 116.237 58.9962 115.206 59.1079 114.188L65.8879 36.6344C66.1082 34.4654 67.1163 32.4525 68.7214 30.9771C70.3264 29.5017 72.4169 28.6661 74.5967 28.6288Z" fill="#407BFF"/>
<path opacity="0.2" d="M74.5967 28.6288H106.4C107.426 28.6106 108.443 28.8109 109.384 29.2165C110.326 29.6221 111.17 30.2236 111.861 30.9811C112.552 31.7385 113.074 32.6345 113.391 33.6093C113.709 34.5841 113.815 35.6153 113.703 36.6344L106.916 114.188C106.695 116.355 105.688 118.366 104.084 119.841C102.48 121.315 100.392 122.151 98.214 122.19H66.4102C65.3855 122.208 64.3686 122.008 63.4273 121.602C62.486 121.197 61.6418 120.596 60.951 119.839C60.2601 119.082 59.7384 118.186 59.4206 117.212C59.1028 116.237 58.9962 115.206 59.1079 114.188L65.8879 36.6344C66.1082 34.4654 67.1163 32.4525 68.7214 30.9771C70.3264 29.5017 72.4169 28.6661 74.5967 28.6288Z" fill="black"/>
<path d="M73.5693 28.6288H105.376C106.401 28.611 107.418 28.8117 108.36 29.2175C109.301 29.6233 110.145 30.2249 110.836 30.9822C111.527 31.7395 112.048 32.6352 112.366 33.6098C112.684 34.5843 112.79 35.6154 112.679 36.6343L105.892 114.188C105.67 116.355 104.663 118.365 103.059 119.84C101.456 121.314 99.3679 122.15 97.19 122.19H65.3862C64.3613 122.209 63.3442 122.009 62.4026 121.603C61.461 121.198 60.6166 120.597 59.9256 119.84C59.2347 119.083 58.713 118.187 58.3954 117.212C58.0779 116.238 57.9717 115.206 58.0839 114.188L64.8639 36.6343C65.2531 32.2133 69.1517 28.6288 73.5693 28.6288Z" fill="#407BFF"/>
<path d="M111.723 36.6344L104.94 114.184C104.743 116.093 103.855 117.863 102.442 119.161C101.029 120.46 99.1903 121.196 97.2721 121.231H65.4683C64.5658 121.247 63.6701 121.071 62.8409 120.714C62.0116 120.358 61.268 119.828 60.6594 119.162C60.0508 118.495 59.5913 117.706 59.3115 116.848C59.0317 115.99 58.9379 115.082 59.0366 114.184L65.8234 36.6344C66.0191 34.7259 66.9067 32.9551 68.3187 31.6563C69.7307 30.3575 71.5694 29.6206 73.4875 29.5847H105.291C106.194 29.5687 107.09 29.7451 107.919 30.1023C108.748 30.4594 109.492 30.9891 110.1 31.6561C110.709 32.3231 111.168 33.112 111.448 33.9704C111.728 34.8288 111.822 35.737 111.723 36.6344Z" fill="white"/>
<g opacity="0.1">
<path opacity="0.1" d="M65.4669 121.23H77.5248L97.0044 29.5847H81.6419L62.3262 120.456C63.2931 120.969 64.3721 121.235 65.4669 121.23Z" fill="black"/>
<path opacity="0.1" d="M104.378 29.5847H101.456L81.9731 121.23H84.8988L104.378 29.5847Z" fill="black"/>
</g>
<path d="M80.0657 29.3594C80.0359 29.6456 80.0668 29.9349 80.1564 30.2084C80.2459 30.4819 80.392 30.7334 80.5853 30.9466C80.7786 31.1599 81.0146 31.33 81.278 31.4459C81.5414 31.5618 81.8262 31.6209 82.114 31.6194H96.2816C96.8958 31.6061 97.4839 31.3692 97.9359 30.9531C98.3878 30.537 98.6723 29.9703 98.7362 29.3594H80.0657Z" fill="#407BFF"/>
<path d="M104.714 32.0906H107.93C107.992 32.0903 108.054 32.103 108.111 32.1281C108.168 32.1531 108.219 32.1898 108.261 32.2358C108.303 32.2819 108.334 32.3362 108.354 32.3953C108.373 32.4543 108.38 32.5169 108.374 32.5788L108.251 33.9785C108.238 34.1104 108.177 34.233 108.079 34.3229C107.982 34.4128 107.854 34.464 107.722 34.4666H104.506C104.444 34.4675 104.382 34.4551 104.325 34.4302C104.267 34.4054 104.216 34.3687 104.174 34.3225C104.132 34.2764 104.1 34.2218 104.081 34.1625C104.062 34.1032 104.055 34.0405 104.062 33.9785L104.185 32.5788C104.198 32.4468 104.26 32.3243 104.357 32.2343C104.455 32.1444 104.582 32.0932 104.714 32.0906Z" fill="#407BFF"/>
<path d="M70.3769 32.0906H74.6818C74.7521 32.0898 74.8218 32.1038 74.8863 32.1318C74.9508 32.1597 75.0086 32.201 75.056 32.2529C75.1034 32.3048 75.1393 32.3662 75.1613 32.4329C75.1833 32.4997 75.1909 32.5703 75.1837 32.6402L75.071 33.917C75.056 34.0659 74.9869 34.2041 74.8768 34.3054C74.7667 34.4067 74.6232 34.4641 74.4736 34.4667H70.1687C70.0985 34.4676 70.029 34.4536 69.9647 34.4256C69.9003 34.3976 69.8427 34.3562 69.7956 34.3042C69.7484 34.2523 69.7129 34.1909 69.6913 34.1241C69.6697 34.0574 69.6625 33.9868 69.6703 33.917L69.7795 32.6402C69.7945 32.4914 69.8637 32.3532 69.9738 32.2519C70.0839 32.1506 70.2273 32.0932 70.3769 32.0906Z" fill="#407BFF"/>
<path opacity="0.4" d="M70.3769 32.0906H74.6818C74.7521 32.0898 74.8218 32.1038 74.8863 32.1318C74.9508 32.1597 75.0086 32.201 75.056 32.2529C75.1034 32.3048 75.1393 32.3662 75.1613 32.4329C75.1833 32.4997 75.1909 32.5703 75.1837 32.6402L75.071 33.917C75.056 34.0659 74.9869 34.2041 74.8768 34.3054C74.7667 34.4067 74.6232 34.4641 74.4736 34.4667H70.1687C70.0985 34.4676 70.029 34.4536 69.9647 34.4256C69.9003 34.3976 69.8427 34.3562 69.7956 34.3042C69.7484 34.2523 69.7129 34.1909 69.6913 34.1241C69.6697 34.0574 69.6625 33.9868 69.6703 33.917L69.7795 32.6402C69.7945 32.4914 69.8637 32.3532 69.9738 32.2519C70.0839 32.1506 70.2273 32.0932 70.3769 32.0906Z" fill="white"/>
<path d="M103.857 32.4866H104.363C104.386 32.486 104.408 32.4903 104.429 32.4992C104.451 32.5081 104.469 32.5214 104.485 32.5382C104.5 32.555 104.512 32.5749 104.519 32.5967C104.527 32.6184 104.529 32.6414 104.527 32.6641L104.421 33.8727C104.416 33.921 104.393 33.9657 104.357 33.9985C104.321 34.0312 104.275 34.0496 104.226 34.0502H103.721C103.698 34.0508 103.675 34.0465 103.654 34.0376C103.633 34.0287 103.614 34.0154 103.599 33.9986C103.583 33.9818 103.571 33.9619 103.564 33.9402C103.557 33.9184 103.555 33.8954 103.557 33.8727L103.663 32.6641C103.668 32.6158 103.691 32.5711 103.726 32.5383C103.762 32.5056 103.809 32.4872 103.857 32.4866Z" fill="#407BFF"/>
<path d="M107.292 32.4866H107.8C107.823 32.4864 107.845 32.4911 107.866 32.5002C107.887 32.5093 107.905 32.5227 107.92 32.5394C107.935 32.5562 107.947 32.576 107.954 32.5974C107.961 32.6189 107.963 32.6416 107.961 32.6641L107.855 33.8726C107.851 33.9206 107.829 33.9654 107.793 33.9982C107.758 34.031 107.712 34.0495 107.664 34.0501H107.155C107.132 34.0503 107.11 34.0456 107.089 34.0365C107.069 34.0274 107.05 34.014 107.035 33.9973C107.02 33.9805 107.008 33.9608 107.002 33.9393C106.995 33.9178 106.992 33.8951 106.995 33.8726L107.1 32.6641C107.105 32.6161 107.127 32.5713 107.162 32.5386C107.197 32.5058 107.243 32.4872 107.292 32.4866Z" fill="white"/>
<path d="M106.202 32.4866H106.711C106.734 32.4864 106.756 32.4911 106.777 32.5002C106.797 32.5093 106.816 32.5227 106.831 32.5394C106.846 32.5562 106.858 32.576 106.865 32.5974C106.872 32.6189 106.874 32.6416 106.872 32.6641L106.766 33.8726C106.762 33.9206 106.74 33.9654 106.704 33.9982C106.669 34.031 106.623 34.0495 106.575 34.0501H106.066C106.043 34.0503 106.021 34.0456 106 34.0365C105.98 34.0274 105.961 34.014 105.946 33.9973C105.931 33.9805 105.919 33.9608 105.912 33.9393C105.905 33.9178 105.903 33.8951 105.905 33.8726L106.011 32.6641C106.016 32.6161 106.037 32.5713 106.073 32.5386C106.108 32.5058 106.154 32.4872 106.202 32.4866Z" fill="white"/>
<path d="M111.918 53.9189L111.235 61.8494C111.569 61.7852 111.874 61.6151 112.104 61.3642C112.334 61.1133 112.477 60.7951 112.512 60.4565L112.949 55.305C112.983 54.9865 112.896 54.6667 112.705 54.4097C112.514 54.1526 112.233 53.9773 111.918 53.9189Z" fill="#407BFF"/>
<path opacity="0.2" d="M111.918 53.9189L111.235 61.8494C111.569 61.7852 111.874 61.6151 112.104 61.3642C112.334 61.1133 112.477 60.7951 112.512 60.4565L112.949 55.305C112.983 54.9865 112.896 54.6667 112.705 54.4097C112.514 54.1526 112.233 53.9773 111.918 53.9189Z" fill="black"/>
<path d="M112.658 45.3604L111.975 53.2908C112.309 53.2271 112.613 53.0575 112.842 52.8072C113.072 52.5569 113.214 52.2392 113.249 51.9014L113.682 46.7703C113.722 46.4493 113.638 46.1251 113.448 45.8634C113.258 45.6017 112.976 45.4219 112.658 45.3604Z" fill="#407BFF"/>
<path opacity="0.2" d="M112.658 45.3604L111.975 53.2908C112.309 53.2271 112.613 53.0575 112.842 52.8072C113.072 52.5569 113.214 52.2392 113.249 51.9014L113.682 46.7703C113.722 46.4493 113.638 46.1251 113.448 45.8634C113.258 45.6017 112.976 45.4219 112.658 45.3604Z" fill="black"/>
<path d="M138.362 63.4573H131.66C131.117 63.4573 130.596 63.6731 130.212 64.0572C129.828 64.4414 129.612 64.9624 129.612 65.5056V69.4725C129.617 70.0128 129.834 70.5295 130.218 70.9099C130.602 71.2904 131.12 71.5038 131.66 71.5038H133.576V73.0503C133.577 73.1353 133.603 73.218 133.65 73.2883C133.698 73.3586 133.765 73.4134 133.844 73.4457C133.922 73.4781 134.009 73.4867 134.092 73.4704C134.176 73.4541 134.252 73.4137 134.313 73.3541L136.16 71.5038H138.362C138.899 71.4993 139.413 71.2839 139.793 70.9039C140.173 70.524 140.389 70.0099 140.393 69.4725V65.4885C140.389 64.9512 140.173 64.4371 139.793 64.0571C139.413 63.6772 138.899 63.4617 138.362 63.4573Z" fill="#FF9C8C"/>
<path d="M136.741 65.3554H133.521C133.491 65.0857 133.474 64.9525 133.443 64.6726H131.671C131.709 64.8262 131.729 64.9013 131.767 65.055H133.044C133.061 65.1676 133.071 65.2257 133.088 65.3417C133.173 65.905 133.218 66.185 133.303 66.7483C133.323 66.9019 133.337 66.977 133.361 67.1306C133.446 67.6939 133.487 67.9738 133.573 68.5371C133.62 68.841 133.644 68.9912 133.689 69.2916H137.239C137.273 69.138 137.29 69.0629 137.328 68.9092H133.965C133.948 68.7624 133.938 68.6873 133.921 68.5371H137.577L137.919 67.1306C137.956 66.977 137.973 66.9019 138.014 66.7483C138.151 66.185 138.222 65.905 138.356 65.3417L136.741 65.3554ZM133.569 65.7343H134.709C134.709 66.1474 134.727 66.3522 134.74 66.7585H133.689L133.569 65.7343ZM133.859 68.1718C133.808 67.7588 133.784 67.5539 133.737 67.1477H134.761C134.761 67.5573 134.778 67.7622 134.791 68.1718H133.859ZM136.048 68.1718H135.123C135.123 67.7588 135.123 67.5539 135.123 67.1477H136.147C136.102 67.5539 136.085 67.7588 136.048 68.1718ZM136.177 66.7619H135.126C135.126 66.3522 135.126 66.1474 135.126 65.7377H136.266C136.232 66.1474 136.215 66.3522 136.177 66.7619ZM137.311 68.1718H136.389C136.44 67.7588 136.464 67.5539 136.519 67.1477H137.543L137.311 68.1718ZM137.615 66.7619H136.556C136.611 66.3522 136.635 66.1474 136.686 65.7377H137.826C137.744 66.1474 137.7 66.3522 137.615 66.7619Z" fill="white"/>
<path d="M133.906 69.6604C133.817 69.6604 133.729 69.687 133.654 69.7369C133.58 69.7868 133.521 69.8577 133.487 69.9407C133.453 70.0237 133.444 70.115 133.461 70.203C133.479 70.2911 133.522 70.372 133.585 70.4355C133.649 70.499 133.73 70.5423 133.818 70.5598C133.906 70.5773 133.997 70.5683 134.08 70.5339C134.163 70.4996 134.234 70.4414 134.284 70.3667C134.334 70.292 134.36 70.2043 134.36 70.1145C134.36 69.994 134.313 69.8785 134.228 69.7934C134.142 69.7082 134.027 69.6604 133.906 69.6604Z" fill="white"/>
<path d="M137.122 70.5651C137.371 70.5651 137.573 70.3633 137.573 70.1145C137.573 69.8656 137.371 69.6638 137.122 69.6638C136.873 69.6638 136.672 69.8656 136.672 70.1145C136.672 70.3633 136.873 70.5651 137.122 70.5651Z" fill="white"/>
<path d="M93.3734 35.0332H82.7357C81.8584 35.0487 81.0171 35.3852 80.371 35.9791C79.7249 36.5729 79.3189 37.3829 79.2297 38.2559L78.68 44.5545C78.6349 44.9648 78.6776 45.3799 78.8054 45.7723C78.9333 46.1647 79.1432 46.5253 79.4213 46.8303C79.6994 47.1352 80.0393 47.3773 80.4183 47.5406C80.7973 47.7039 81.2068 47.7846 81.6194 47.7772H84.6646L84.4495 50.2284C84.4391 50.3628 84.471 50.4971 84.5408 50.6125C84.6105 50.7278 84.7147 50.8184 84.8386 50.8715C84.9625 50.9246 85.1 50.9376 85.2316 50.9086C85.3633 50.8796 85.4826 50.81 85.5727 50.7098L88.7613 47.7943H92.2571C93.1342 47.7781 93.9751 47.4413 94.6211 46.8476C95.267 46.2539 95.6732 45.4443 95.7631 44.5716L96.3128 38.273C96.3606 37.8614 96.3198 37.4444 96.1931 37.05C96.0665 36.6555 95.857 36.2927 95.5786 35.9858C95.3002 35.679 94.9594 35.4352 94.5791 35.2709C94.1987 35.1066 93.7877 35.0256 93.3734 35.0332Z" fill="#FF9C8C"/>
<path d="M90.1914 38.0444H85.0877L85.0535 36.9861H82.2439C82.2814 37.2285 82.3019 37.348 82.3395 37.5903H84.3673C84.3673 37.7713 84.3844 37.8635 84.3946 38.0444C84.4527 38.9388 84.4834 39.386 84.5414 40.2805C84.5414 40.5195 84.5653 40.6424 84.579 40.8847C84.637 41.7758 84.6678 42.223 84.7224 43.1174C84.7565 43.5954 84.7702 43.8343 84.8009 44.3123H90.4065L90.6011 43.708H85.2652V43.1174H91.0688C91.3692 42.223 91.5194 41.7758 91.8164 40.8847L92.0179 40.2805C92.3183 39.386 92.4685 38.9388 92.7655 38.0444H90.1914ZM85.1047 38.6487H86.9141C86.8765 39.3007 86.8595 39.625 86.8219 40.2805H85.1559L85.1047 38.6487ZM85.2276 42.5132L85.1764 40.8847H86.7878C86.7502 41.5368 86.7297 41.8611 86.6922 42.5132H85.2276ZM88.6996 42.5132H87.235C87.293 41.8611 87.3238 41.5368 87.3818 40.8847H88.9931C88.8771 41.5368 88.819 41.8611 88.6996 42.5132ZM89.1024 40.2839H87.4364C87.4979 39.6284 87.5252 39.3041 87.5832 38.6521H89.396C89.2765 39.3007 89.2185 39.625 89.1024 40.2839ZM90.7069 42.5166H89.2424L89.5838 40.8882H91.1917C91.0039 41.5368 90.9049 41.8611 90.7069 42.5132V42.5166ZM91.3897 40.2839H89.7169C89.8569 39.6284 89.9251 39.3041 90.0583 38.6521H91.8676C91.6765 39.3007 91.5775 39.625 91.3829 40.2839H91.3897Z" fill="white"/>
<path d="M85.1018 44.879C84.9063 44.8821 84.7188 44.9568 84.5747 45.089C84.4307 45.2211 84.34 45.4014 84.32 45.5959C84.3103 45.6872 84.3202 45.7795 84.3488 45.8668C84.3775 45.954 84.4244 46.0342 84.4863 46.1019C84.5483 46.1697 84.6239 46.2236 84.7083 46.2599C84.7926 46.2963 84.8837 46.3143 84.9755 46.3128C85.1709 46.3097 85.3585 46.235 85.5025 46.1028C85.6466 45.9707 85.7372 45.7904 85.7573 45.5959C85.7669 45.5046 85.7571 45.4123 85.7285 45.325C85.6998 45.2378 85.6529 45.1576 85.5909 45.0899C85.529 45.0221 85.4533 44.9682 85.369 44.9319C85.2847 44.8955 85.1936 44.8775 85.1018 44.879Z" fill="white"/>
<path d="M90.1985 44.879C90.0034 44.8822 89.8163 44.9571 89.6728 45.0892C89.5293 45.2214 89.4393 45.4017 89.4201 45.5959C89.4104 45.6872 89.4203 45.7795 89.4489 45.8668C89.4776 45.954 89.5245 46.0342 89.5864 46.1019C89.6484 46.1697 89.724 46.2236 89.8084 46.2599C89.8927 46.2963 89.9838 46.3143 90.0756 46.3128C90.2707 46.3096 90.4578 46.2348 90.6013 46.1026C90.7448 45.9704 90.8347 45.7901 90.854 45.5959C90.8636 45.5046 90.8538 45.4123 90.8251 45.325C90.7965 45.2378 90.7496 45.1576 90.6876 45.0899C90.6257 45.0221 90.55 44.9682 90.4657 44.9319C90.3814 44.8955 90.2903 44.8775 90.1985 44.879Z" fill="white"/>
<path d="M101.017 79.605H88.8538V91.7687H101.017V79.605Z" fill="#407BFF"/>
<path d="M108.483 79.605H101.013V91.7687H108.483V79.605Z" fill="#407BFF"/>
<path d="M98.6925 76.553H86.5288L88.8537 79.605H101.014L98.6925 76.553Z" fill="#407BFF"/>
<path opacity="0.3" d="M108.483 79.605H101.013V91.7687H108.483V79.605Z" fill="white"/>
<path opacity="0.4" d="M98.6925 76.553H86.5288L88.8537 79.605H101.014L98.6925 76.553Z" fill="white"/>
<path d="M103.215 76.553H110.685L108.486 79.605H101.013L103.215 76.553Z" fill="#407BFF"/>
<path opacity="0.6" d="M101.017 79.605H88.8538V91.7687H101.017V79.605Z" fill="white"/>
<path opacity="0.2" d="M103.215 76.553H110.685L108.486 79.605H101.013L103.215 76.553Z" fill="white"/>
<path d="M135.242 91.4683H104.585V122.125H135.242V91.4683Z" fill="#407BFF"/>
<path opacity="0.4" d="M135.242 91.4683H104.585V122.125H135.242V91.4683Z" fill="white"/>
<path d="M104.578 91.4683H85.7468V122.125H104.578V91.4683Z" fill="#407BFF"/>
<path opacity="0.6" d="M104.578 91.4683H85.7468V122.125H104.578V91.4683Z" fill="white"/>
<path opacity="0.5" d="M91.5642 91.4683V99.7026L92.3119 100.095L92.9571 99.5592L93.9778 100.095L94.9474 99.5592L95.6984 100.095L96.5587 99.5592L97.0469 99.9996V91.4683H91.5642Z" fill="white"/>
<path opacity="0.5" d="M97.0469 122.125V113.891L96.2993 113.495L95.654 114.034L94.6333 113.495L93.6637 114.034L92.9127 113.495L92.0524 114.034L91.5642 113.594V122.125H97.0469Z" fill="white"/>
<path d="M117.097 103.97C117.271 104.67 117.356 105.021 117.53 105.721C117.575 105.909 117.599 106.005 117.647 106.196C117.821 106.896 117.906 107.247 118.08 107.947H122.627C122.604 108.131 122.593 108.224 122.573 108.408H118.384C118.428 108.599 118.449 108.695 118.493 108.883H122.901L123.044 107.947C123.15 107.247 123.204 106.896 123.31 106.196C123.341 106.005 123.355 105.909 123.382 105.721C123.488 105.021 123.542 104.67 123.648 103.97C123.672 103.827 123.682 103.755 123.703 103.611H125.29C125.335 103.424 125.359 103.328 125.406 103.14H123.204C123.163 103.482 123.143 103.635 123.105 103.97H117.097ZM122.901 105.721H121.596C121.596 105.209 121.617 104.953 121.634 104.441H123.051C122.976 104.953 122.948 105.209 122.901 105.721ZM121.535 107.473C121.535 106.961 121.559 106.704 121.573 106.196H122.836L122.682 107.473H121.535ZM119.828 106.196H121.088C121.088 106.704 121.088 106.961 121.088 107.473H119.937C119.907 106.961 119.883 106.704 119.828 106.196ZM119.668 104.441H121.084C121.084 104.953 121.084 105.209 121.084 105.721H119.794C119.746 105.209 119.722 104.953 119.678 104.441H119.668ZM118.097 106.196H119.36C119.422 106.704 119.456 106.961 119.521 107.473H118.37L118.097 106.196ZM117.722 104.441H119.145C119.207 104.953 119.241 105.209 119.302 105.721H117.998L117.722 104.441Z" fill="white"/>
<path d="M122.613 110.453C122.924 110.453 123.176 110.201 123.176 109.89C123.176 109.579 122.924 109.326 122.613 109.326C122.302 109.326 122.05 109.579 122.05 109.89C122.05 110.201 122.302 110.453 122.613 110.453Z" fill="white"/>
<path d="M118.616 110.453C118.927 110.453 119.179 110.201 119.179 109.89C119.179 109.579 118.927 109.326 118.616 109.326C118.304 109.326 118.052 109.579 118.052 109.89C118.052 110.201 118.304 110.453 118.616 110.453Z" fill="white"/>
<g opacity="0.5">
<path opacity="0.5" d="M91.0103 103.97C91.1844 104.67 91.2697 105.021 91.4438 105.721C91.4882 105.909 91.5121 106.005 91.5599 106.196C91.734 106.896 91.8193 107.247 91.9935 107.947H96.5408C96.5169 108.131 96.5066 108.224 96.4861 108.408H92.3041C92.3485 108.599 92.369 108.695 92.4134 108.883H96.807L96.9504 107.947C97.0562 107.247 97.1109 106.896 97.2167 106.196C97.244 106.005 97.2611 105.909 97.2884 105.721C97.3942 105.021 97.4488 104.67 97.5547 103.97L97.6093 103.611H99.2002C99.2445 103.424 99.2685 103.328 99.3162 103.14H97.1143C97.0733 103.482 97.0528 103.635 97.0153 103.97H91.0103ZM96.8139 105.721H95.5098L95.5473 104.441H96.9538C96.8958 104.953 96.8651 105.209 96.807 105.721H96.8139ZM95.4483 107.473C95.4654 106.961 95.4722 106.704 95.4859 106.196H96.749L96.5954 107.473H95.4483ZM93.7584 106.196H95.0182C95.0182 106.704 95.0182 106.961 95.0182 107.473H93.8813C93.8267 106.961 93.8028 106.704 93.7584 106.196ZM93.5946 104.441H95.0147C95.0147 104.953 95.0147 105.209 95.0147 105.721H93.7106L93.5946 104.441ZM92.0276 106.196H93.2907L93.4478 107.473H92.3007L92.0276 106.196ZM91.6521 104.441H93.0722C93.1337 104.953 93.1678 105.209 93.2293 105.721H91.9252L91.6521 104.441Z" fill="white"/>
<path opacity="0.5" d="M96.5335 110.453C96.8446 110.453 97.0968 110.201 97.0968 109.889C97.0968 109.578 96.8446 109.326 96.5335 109.326C96.2224 109.326 95.9702 109.578 95.9702 109.889C95.9702 110.201 96.2224 110.453 96.5335 110.453Z" fill="white"/>
<path opacity="0.5" d="M92.5359 110.453C92.847 110.453 93.0992 110.201 93.0992 109.889C93.0992 109.578 92.847 109.326 92.5359 109.326C92.2248 109.326 91.9727 109.578 91.9727 109.889C91.9727 110.201 92.2248 110.453 92.5359 110.453Z" fill="white"/>
</g>
<path d="M124.047 67.0728C124.047 67.0728 125.112 74.7164 126.068 76.0342C127.024 77.352 131.319 80.998 131.319 80.998L134.033 80.602L135.852 82.3089L134.535 83.2204L133.084 82.5718C132.265 82.6626 131.441 82.682 130.619 82.6298C129.233 82.5445 123.819 78.8746 122.822 76.9594C121.825 75.0442 120.698 67.9535 120.698 67.9535L124.047 67.0728Z" fill="#CE7A63"/>
<path d="M124.948 69.2814L124.675 69.3292C124.487 67.5335 123.736 62.0781 121.678 63.4778C119.701 64.8263 120.258 68.6533 120.544 70.0837L120.203 70.1417L120.503 71.084L125.054 70.2134L124.948 69.2814Z" fill="#407BFF"/>
<path opacity="0.2" d="M123.242 65.673L122.74 64.5942L121.166 66.1783L120.261 67.5438C120.287 68.3984 120.385 69.2493 120.555 70.0872L120.214 70.1452L120.514 71.0875L123.081 70.5959C123.367 68.9708 123.421 67.3133 123.242 65.673Z" fill="black"/>
<path d="M123.399 51.9558C123.399 51.9558 128.827 53.1302 125.942 55.7111L123.552 53.6252L123.399 51.9558Z" fill="#263238"/>
<path d="M130.932 109.272L127.478 117.735L125.081 116.803L127.013 108.391L130.932 109.272Z" fill="#CE7A63"/>
<path opacity="0.2" d="M127.185 107.793L125.823 113.723L128.776 114.382L131.104 108.671L127.185 107.793Z" fill="black"/>
<path d="M128.021 117.537C128.461 118.537 128.758 119.36 130.561 120.428C130.953 120.654 130.288 121.691 129.308 121.251C127.69 120.52 128.113 120.507 126.727 119.906C125.563 119.39 124.696 119.08 123.747 118.684C123.722 118.673 123.699 118.66 123.678 118.643C123.598 118.582 123.544 118.492 123.529 118.393C123.515 118.293 123.54 118.191 123.6 118.11L125 116.195C125.03 116.152 125.075 116.121 125.126 116.107C125.177 116.094 125.231 116.098 125.279 116.12L127.546 117.096C127.753 117.181 127.921 117.337 128.021 117.537Z" fill="#263238"/>
<path d="M138.665 89.3824C138.225 94.8446 130.38 112.901 130.38 112.901L125.723 111.603C125.723 111.603 129.281 94.2574 131.602 91.3864C131.602 91.3864 130.844 91.3864 129.625 91.4103C125.382 91.4478 115.546 91.441 112.71 90.6865C110.685 90.1471 106.455 89.0649 107.589 82.2918L112.832 82.1108L118.94 81.8992C118.94 81.8992 139.287 81.9333 138.665 89.3824Z" fill="#263238"/>
<path opacity="0.2" d="M129.625 91.4103C125.382 91.4478 115.546 91.441 112.71 90.6865C110.685 90.1471 106.455 89.0649 107.589 82.2918L112.832 82.1108C116.96 82.599 122.354 83.4149 126.031 84.9956C127.819 85.7637 129.062 87.1497 129.427 88.7816C129.553 89.6523 129.619 90.5306 129.625 91.4103Z" fill="black"/>
<path d="M122.835 108.971L121.108 117.598L118.51 117.479L118.817 108.852L122.835 108.971Z" fill="#CE7A63"/>
<path opacity="0.2" d="M122.835 108.971L118.817 108.852L118.639 114.01L121.804 114.123L122.835 108.971Z" fill="black"/>
<path d="M121.504 117.803C121.927 118.827 122.186 119.687 124.006 120.828C124.395 121.08 123.685 122.121 122.705 121.637C121.08 120.841 121.514 120.845 120.118 120.186C118.94 119.629 118.069 119.285 117.117 118.851L117.045 118.817C117.005 118.785 116.971 118.746 116.946 118.702C116.92 118.657 116.904 118.608 116.898 118.557C116.892 118.506 116.896 118.455 116.91 118.406C116.924 118.356 116.948 118.311 116.98 118.271L118.465 116.355C118.497 116.313 118.543 116.283 118.595 116.27C118.646 116.258 118.701 116.264 118.749 116.287L121.022 117.349C121.234 117.435 121.405 117.597 121.504 117.803Z" fill="#263238"/>
<path d="M104.523 82.2747C104.523 82.2747 103.038 87.6106 105.493 89.7169C108.924 92.6631 121.32 91.7653 121.32 91.7653C119.179 98.6169 118.223 112.228 118.223 112.228H122.87C122.87 112.228 129.199 93.6088 128.263 88.7952C127.328 83.9816 110.723 82.2781 110.723 82.2781L104.523 82.2747Z" fill="#263238"/>
<path d="M125.31 112.143L130.581 113.471L131.657 111.214L125.867 109.572L125.31 112.143Z" fill="#407BFF"/>
<path d="M117.762 112.89L123.139 113.167L123.695 110.801L117.762 110.525V112.89Z" fill="#407BFF"/>
<path d="M120.228 74.8973C121.593 70.8723 123.3 67.8101 123.498 64.3791C118.824 57.6333 109.685 61.6207 109.685 61.6207C104.155 71.9989 104.524 82.2747 104.524 82.2747C117.09 82.2747 117.811 82.0596 117.811 82.0596C117.811 82.0596 117.855 80.2947 120.228 74.8973Z" fill="#407BFF"/>
<path opacity="0.2" d="M116.008 61.4226C116.209 62.6106 116.629 64.7546 117.128 65.0652C117.81 65.4817 118.835 64.8979 118.835 64.8979C118.835 64.8979 119.664 66.0211 120.541 65.2735C121.034 64.8017 121.418 64.2286 121.668 63.5938C121.41 64.0337 121.084 64.43 120.702 64.7682C119.814 65.5124 118.995 64.3927 118.995 64.3927C118.995 64.3927 117.971 64.9731 117.288 64.56C116.837 64.2903 116.312 62.5936 116.008 61.4226Z" fill="black"/>
<path d="M117.135 59.7839L118.381 60.2107L117.404 61.0676L117.135 59.7839Z" fill="#407BFF"/>
<path opacity="0.2" d="M117.135 59.7839L118.381 60.2107L117.404 61.0676L117.135 59.7839Z" fill="black"/>
<path d="M121.094 61.0676L121.436 62.0918C121.436 62.0918 119.654 63.9557 119.142 63.9762C118.63 63.9967 117.127 60.4702 117.127 60.4702C119.111 59.5723 118.927 58.5857 118.927 58.5857L121.094 61.0676Z" fill="#CE7A63"/>
<path opacity="0.2" d="M120.446 63.0443C120.972 62.5629 121.443 62.0747 121.443 62.0747L121.101 61.0506L119.172 58.8213C118.92 59.8079 118.674 61.8357 120.446 63.0443Z" fill="black"/>
<path d="M122.112 62.8155C121.791 63.5665 121.316 64.2422 120.719 64.7989C119.828 65.5432 119.012 64.4268 119.012 64.4268C119.012 64.4268 117.988 65.0038 117.305 64.5907C116.622 64.1776 115.731 60.3882 115.731 60.3882L117.134 59.7839L119.066 63.8806L121.671 61.7264L122.112 62.8155Z" fill="#407BFF"/>
<path d="M118.858 55.124C118.855 54.5179 119.012 53.9217 119.312 53.3952C119.613 52.8688 120.047 52.4307 120.57 52.1249C121.093 51.8191 121.688 51.6564 122.294 51.6531C122.9 51.6498 123.497 51.8061 124.023 52.1062C126.502 53.441 126.57 57.3397 125.833 59.6167C125.654 60.2148 125.316 60.7527 124.853 61.1718C124.391 61.5908 123.822 61.8751 123.21 61.9937C122.597 62.1123 121.963 62.0607 121.378 61.8445C120.793 61.6282 120.278 61.2556 119.889 60.7672C118.674 59.2719 118.831 57.7391 118.865 55.107L118.858 55.124Z" fill="#CE7A63"/>
<path d="M123.474 56.7559C123.617 56.7559 123.706 56.9641 123.668 57.1724C123.631 57.3806 123.504 57.5138 123.364 57.5138C123.224 57.5138 123.136 57.3055 123.17 57.0973C123.204 56.889 123.33 56.7456 123.474 56.7559Z" fill="#263238"/>
<path d="M125.84 57.1996C125.987 57.1996 126.075 57.401 126.041 57.6127C126.007 57.8244 125.874 57.9541 125.731 57.9541C125.587 57.9541 125.505 57.7493 125.536 57.5376C125.567 57.3259 125.696 57.1825 125.84 57.1996Z" fill="#263238"/>
<path d="M122.839 56.2575C122.961 56.163 123.104 56.0992 123.256 56.0713C123.408 56.0434 123.565 56.0522 123.713 56.0971C123.743 56.1069 123.776 56.1046 123.805 56.0906C123.833 56.0766 123.855 56.052 123.866 56.0219C123.876 55.9906 123.873 55.957 123.859 55.9274C123.845 55.8978 123.821 55.8744 123.791 55.8615C123.601 55.8044 123.399 55.7944 123.204 55.8325C123.009 55.8706 122.826 55.9555 122.671 56.08C122.653 56.0919 122.639 56.1088 122.631 56.1286C122.623 56.1484 122.62 56.1703 122.624 56.1915C122.628 56.2126 122.638 56.2321 122.653 56.2475C122.669 56.2629 122.688 56.2735 122.709 56.278C122.73 56.2891 122.754 56.2931 122.777 56.2894C122.801 56.2857 122.822 56.2745 122.839 56.2575Z" fill="#263238"/>
<path d="M126.437 56.9231C126.465 56.9055 126.484 56.8779 126.492 56.846C126.5 56.8142 126.495 56.7806 126.478 56.7524C126.381 56.5777 126.244 56.4282 126.079 56.3161C125.913 56.204 125.724 56.1324 125.526 56.1072C125.499 56.108 125.474 56.1175 125.454 56.1341C125.433 56.1508 125.419 56.1737 125.413 56.1993C125.409 56.2153 125.408 56.2318 125.411 56.2481C125.413 56.2643 125.419 56.2799 125.427 56.2939C125.436 56.3079 125.447 56.3201 125.461 56.3296C125.474 56.3392 125.489 56.346 125.505 56.3496C125.665 56.374 125.818 56.435 125.95 56.528C126.083 56.621 126.192 56.7433 126.27 56.8855C126.279 56.9036 126.293 56.919 126.309 56.9303C126.326 56.9416 126.345 56.9486 126.365 56.9504C126.391 56.9483 126.416 56.9389 126.437 56.9231Z" fill="#263238"/>
<path d="M124.437 59.5279C124.598 59.6011 124.772 59.639 124.949 59.639C125.126 59.639 125.3 59.6011 125.461 59.5279C125.148 58.891 124.918 58.2163 124.778 57.5205L124.437 59.5279Z" fill="#BA4D3C"/>
<path d="M118.694 56.8277C117.67 53.1065 119.325 52.137 121.114 51.4679C122.903 50.7987 123.896 51.4406 124.467 52.0687C124.644 52.2667 124.999 52.8607 123.852 52.9393C123.157 52.9661 122.462 52.9122 121.78 52.7788C121.643 52.755 121.503 52.7691 121.374 52.8197C121.245 52.8703 121.133 52.9553 121.049 53.0656C120.653 53.5845 120.025 54.554 120.025 55.4007C120.049 55.7227 120.002 56.046 119.888 56.348C119.773 56.65 119.594 56.9232 119.363 57.1486L118.694 56.8277Z" fill="#263238"/>
<path d="M117.404 75.5289C117.493 75.5296 117.58 75.5567 117.653 75.6068C117.727 75.6568 117.784 75.7277 117.818 75.8103C117.851 75.8929 117.859 75.9835 117.841 76.0708C117.823 76.1581 117.78 76.2381 117.716 76.3006C117.653 76.3631 117.572 76.4054 117.485 76.4222C117.397 76.4389 117.307 76.4293 117.224 76.3946C117.142 76.3598 117.072 76.3015 117.024 76.2271C116.975 76.1526 116.949 76.0653 116.949 75.9761C116.949 75.9165 116.961 75.8575 116.984 75.8026C117.008 75.7477 117.041 75.6979 117.084 75.6562C117.127 75.6146 117.177 75.5818 117.233 75.56C117.288 75.5381 117.347 75.5276 117.407 75.5289H117.404Z" fill="#407BFF"/>
<path d="M116.414 80.2947C116.473 80.2947 116.531 80.3063 116.586 80.329C116.641 80.3516 116.69 80.3848 116.732 80.4267C116.774 80.4685 116.807 80.5182 116.83 80.5729C116.853 80.6275 116.864 80.6861 116.864 80.7453C116.864 80.8045 116.853 80.8631 116.83 80.9178C116.807 80.9724 116.774 81.0221 116.732 81.064C116.69 81.1058 116.641 81.139 116.586 81.1617C116.531 81.1843 116.473 81.196 116.414 81.196C116.294 81.1951 116.179 81.1468 116.095 81.0618C116.01 80.9767 115.963 80.8617 115.963 80.7419C115.963 80.6829 115.975 80.6245 115.997 80.57C116.02 80.5155 116.053 80.466 116.095 80.4245C116.137 80.3829 116.187 80.35 116.241 80.3277C116.296 80.3055 116.355 80.2942 116.414 80.2947Z" fill="#407BFF"/>
<path d="M118.722 55.9877C119.445 56.1174 119.794 57.1382 119.8 57.8073C119.807 58.4764 119.288 59.067 118.65 58.6403C118.165 58.3057 117.824 57.8012 117.694 57.227C117.554 56.5066 118.001 55.8443 118.722 55.9877Z" fill="#CE7A63"/>
<path d="M122.026 59.4905C122.811 59.7119 123.572 60.008 124.3 60.3747C124.076 60.6151 123.775 60.7707 123.449 60.8155C123.124 60.8603 122.792 60.7914 122.511 60.6205C122.402 60.582 122.303 60.5213 122.218 60.4424C122.134 60.3634 122.067 60.2678 122.021 60.1617C121.976 60.0555 121.953 59.941 121.954 59.8255C121.955 59.71 121.979 59.5959 122.026 59.4905Z" fill="#263238"/>
<path d="M123.074 60.4257C122.76 60.2584 122.402 60.195 122.05 60.2448C122.158 60.4179 122.316 60.5538 122.504 60.634C122.817 60.802 123.176 60.8654 123.528 60.8149C123.423 60.6395 123.263 60.5029 123.074 60.4257Z" fill="#A02724"/>
<path d="M122.108 59.511C122.096 59.5782 122.104 59.6473 122.129 59.7107C122.154 59.7741 122.197 59.829 122.252 59.8694C122.735 60.093 123.236 60.2746 123.751 60.4123C123.83 60.442 123.915 60.4513 123.998 60.4394C124.082 60.4274 124.161 60.3946 124.228 60.344C123.544 60.0117 122.836 59.7332 122.108 59.511Z" fill="white"/>
<path d="M124.722 84.5552L130.901 84.5886L130.907 83.5952L124.728 83.5618L124.722 84.5552Z" fill="#263238"/>
<path d="M125.23 84.5591L117.378 84.5166C117.317 84.5163 117.257 84.504 117.201 84.4803C117.145 84.4567 117.094 84.4222 117.051 84.3789C117.008 84.3355 116.974 84.2842 116.951 84.2277C116.928 84.1712 116.916 84.1108 116.917 84.0498L116.919 83.5241L125.236 83.5691L125.23 84.5625L125.23 84.5591Z" fill="#263238"/>
<path opacity="0.3" d="M125.23 84.5591L117.378 84.5166C117.317 84.5163 117.257 84.504 117.201 84.4803C117.145 84.4567 117.094 84.4222 117.051 84.3789C117.008 84.3355 116.974 84.2842 116.951 84.2277C116.928 84.1712 116.916 84.1108 116.917 84.0498L116.919 83.5241L125.236 83.5691L125.23 84.5625L125.23 84.5591Z" fill="white"/>
<path d="M122.993 84.2273L123.987 84.2327L123.988 83.881L122.995 83.8757L122.993 84.2273Z" fill="#263238"/>
<path d="M121.443 84.2253L122.436 84.2307L122.438 83.8791L121.445 83.8737L121.443 84.2253Z" fill="#263238"/>
<path d="M126.41 83.5789L125.751 83.5755L128.379 74.6243L129.038 74.6277L126.41 83.5789Z" fill="#263238"/>
<path opacity="0.3" d="M126.41 83.5789L125.751 83.5755L128.379 74.6243L129.038 74.6277L126.41 83.5789Z" fill="white"/>
<path d="M126.168 83.5789L137.765 83.6403L140.393 74.6857L128.796 74.6243L126.168 83.5789Z" fill="#263238"/>
<path opacity="0.6" d="M126.168 83.5789L137.765 83.6403L140.393 74.6857L128.796 74.6243L126.168 83.5789Z" fill="white"/>
<path d="M125.601 83.5754L137.672 83.6403C137.874 83.6403 138.037 83.8656 138.037 84.1387C138.037 84.4118 137.87 84.6337 137.665 84.6337L125.594 84.5689C125.392 84.5689 125.229 84.3436 125.229 84.0705C125.229 83.7973 125.396 83.5754 125.601 83.5754Z" fill="#263238"/>
<path opacity="0.5" d="M125.601 83.5754L137.672 83.6403C137.874 83.6403 138.037 83.8656 138.037 84.1387C138.037 84.4118 137.87 84.6337 137.665 84.6337L125.594 84.5689C125.392 84.5689 125.229 84.3436 125.229 84.0705C125.229 83.7973 125.396 83.5754 125.601 83.5754Z" fill="white"/>
<path d="M125.229 84.0705C125.229 84.3436 125.392 84.5655 125.594 84.5689C125.795 84.5723 125.963 84.347 125.966 84.0739C125.969 83.8008 125.802 83.5754 125.601 83.5754C125.399 83.5754 125.232 83.7973 125.229 84.0705Z" fill="#263238"/>
<path opacity="0.3" d="M125.229 84.0705C125.229 84.3436 125.392 84.5655 125.594 84.5689C125.795 84.5723 125.963 84.347 125.966 84.0739C125.969 83.8008 125.802 83.5754 125.601 83.5754C125.399 83.5754 125.232 83.7973 125.229 84.0705Z" fill="white"/>
<path opacity="0.2" d="M113.829 75.2864C113.273 74.5217 112.682 71.6882 112.269 69.3462L112.805 69.2438L112.679 68.2743L112.399 68.3255C112.204 66.4956 111.447 60.9925 109.395 62.1805C108.797 63.3412 108.272 64.5088 107.814 65.6626C107.774 66.8162 107.872 67.9705 108.108 69.1004L107.766 69.1619L108.08 70.1417L108.808 70.0051C109.241 72.2651 109.873 75.1259 110.46 76.2594C111.231 77.7478 114.557 80.2331 116.782 81.4416C119.285 80.9978 119.855 80.6837 119.855 80.6837C119.783 80.5896 119.725 80.4863 119.681 80.3765L119.278 80.4345C119.278 80.4345 114.823 76.6554 113.829 75.2864Z" fill="black"/>
<path d="M113.218 66.0178C113.218 66.0178 113.949 73.9961 114.878 75.4094C115.806 76.8228 120.084 80.817 120.084 80.817L122.917 80.5371L124.72 82.4113L123.31 83.2989L121.835 82.5513C120.982 82.6075 120.125 82.5881 119.275 82.4932C117.844 82.3362 112.406 78.2805 111.464 76.2322C110.521 74.1838 109.699 66.7859 109.699 66.7859L113.218 66.0178Z" fill="#CE7A63"/>
<path d="M113.854 67.7383L113.57 67.7895C113.376 65.9256 112.594 60.2585 110.46 61.7128C108.412 63.1125 108.982 67.0863 109.282 68.5713L108.941 68.6328L109.255 69.6125L113.98 68.7079L113.854 67.7383Z" fill="#407BFF"/>
<path d="M44.7981 95.0972L43.9822 95.0528L44.1734 91.3522C44.2516 90.1255 44.7903 88.9737 45.6816 88.1273C46.5729 87.281 47.7511 86.8025 48.9801 86.7878C49.5761 86.7819 50.1668 86.899 50.7155 87.1317C51.2642 87.3643 51.759 87.7076 52.1691 88.1401C52.5792 88.5726 52.8957 89.085 53.0988 89.6453C53.302 90.2056 53.3875 90.8018 53.3499 91.3966L53.1553 95.0972L52.3394 95.0528L52.534 91.3522C52.5665 90.8676 52.4984 90.3816 52.334 89.9247C52.1696 89.4677 51.9124 89.0498 51.5786 88.6971C51.2448 88.3443 50.8416 88.0645 50.3944 87.8752C49.9472 87.6858 49.4657 87.5911 48.9801 87.5969C47.9596 87.6096 46.9816 88.0075 46.2421 88.7108C45.5026 89.4142 45.0563 90.3711 44.9927 91.3897L44.7981 95.0972Z" fill="#263238"/>
<path d="M62.3012 93.4517H38.1753L37.356 122.077L40.9337 121.258L44.5115 122.077H63.1206L62.3012 93.4517Z" fill="#407BFF"/>
<path opacity="0.6" d="M62.3012 93.4517H38.1753L37.356 122.077L40.9337 121.258L44.5115 122.077H63.1206L62.3012 93.4517Z" fill="white"/>
<path d="M44.5115 122.077L40.9337 121.258L37.356 122.077L38.1753 93.4517H43.6955L44.5115 122.077Z" fill="#407BFF"/>
<path opacity="0.3" d="M44.5115 122.077L40.9337 121.258L37.356 122.077L38.1753 93.4517H43.6955L44.5115 122.077Z" fill="white"/>
<path d="M57.1935 95.0972L57.0125 91.3966C56.9488 90.3774 56.5021 89.42 55.7618 88.7165C55.0216 88.0131 54.0428 87.6155 53.0217 87.6037C52.5364 87.5984 52.0552 87.6935 51.6084 87.8831C51.1617 88.0726 50.7589 88.3525 50.4255 88.7052C50.092 89.0578 49.8352 89.4756 49.6709 89.9323C49.5067 90.389 49.4387 90.8748 49.4713 91.359L49.6658 95.0597L48.8499 95.104L48.6553 91.4034C48.6173 90.8088 48.7023 90.2127 48.905 89.6524C49.1078 89.0921 49.424 88.5797 49.8338 88.1471C50.2436 87.7146 50.7382 87.3712 51.2867 87.1385C51.8352 86.9058 52.4259 86.7887 53.0217 86.7946C54.251 86.8086 55.4296 87.2868 56.321 88.1333C57.2125 88.9798 57.751 90.1321 57.8284 91.359L58.023 95.0597L57.1935 95.0972Z" fill="#263238"/>
<g opacity="0.2">
<path opacity="0.2" d="M57.1937 95.0972L57.0128 91.3966C56.9491 90.3774 56.5023 89.42 55.7621 88.7165C55.0219 88.0131 54.043 87.6155 53.0219 87.6037C52.5366 87.5984 52.0555 87.6935 51.6087 87.8831C51.1619 88.0726 50.7591 88.3525 50.4257 88.7052C50.0923 89.0578 49.8354 89.4756 49.6712 89.9323C49.507 90.389 49.439 90.8748 49.4715 91.359L49.6661 95.0597L48.8502 95.104L48.6556 91.4034C48.6175 90.8088 48.7025 90.2127 48.9053 89.6524C49.1081 89.0921 49.4242 88.5797 49.834 88.1471C50.2438 87.7146 50.7384 87.3712 51.287 87.1385C51.8355 86.9058 52.4261 86.7887 53.0219 86.7946C54.2512 86.8086 55.4298 87.2868 56.3213 88.1333C57.2128 88.9798 57.7512 90.1321 57.8287 91.359L58.0233 95.0597L57.1937 95.0972Z" fill="white"/>
</g>
<path d="M59.0405 103.905H47.8224C47.5698 103.905 47.365 104.11 47.365 104.362V106.175C47.365 106.428 47.5698 106.633 47.8224 106.633H59.0405C59.2931 106.633 59.4979 106.428 59.4979 106.175V104.362C59.4979 104.11 59.2931 103.905 59.0405 103.905Z" fill="white"/>
<path d="M33.7093 103.99L33.1597 103.96L33.2894 101.481C33.3385 100.656 33.6983 99.8809 34.2963 99.3108C34.8942 98.7407 35.686 98.4183 36.5121 98.4086C36.9101 98.4047 37.3047 98.4825 37.6714 98.6374C38.038 98.7923 38.369 99.0209 38.6436 99.309C38.9183 99.5971 39.1308 99.9386 39.268 100.312C39.4052 100.686 39.4642 101.084 39.4412 101.481L39.3115 103.963L38.7653 103.932L38.895 101.454C38.9157 101.129 38.8691 100.803 38.7579 100.497C38.6468 100.191 38.4736 99.9112 38.2492 99.6753C38.0248 99.4393 37.7541 99.2523 37.4539 99.126C37.1538 98.9997 36.8309 98.9367 36.5053 98.9412C35.8215 98.9493 35.1661 99.2155 34.6703 99.6866C34.1746 100.158 33.8752 100.799 33.8322 101.481L33.7093 103.99Z" fill="#263238"/>
<path d="M45.4431 102.888H29.2681L28.7219 122.077L31.1185 121.528L33.5184 122.077H45.9928L45.4431 102.888Z" fill="#407BFF"/>
<path d="M33.5184 122.077L31.1185 121.528L28.7219 122.077L29.2681 102.888H32.9688L33.5184 122.077Z" fill="#407BFF"/>
<path opacity="0.2" d="M33.5184 122.077L31.1185 121.528L28.7219 122.077L29.2681 102.888H32.9688L33.5184 122.077Z" fill="black"/>
<path d="M42.0188 103.99L41.889 101.508C41.8413 100.827 41.54 100.188 41.0446 99.7181C40.5491 99.2479 39.8955 98.9805 39.2125 98.9685C38.8867 98.963 38.5632 99.0252 38.2626 99.1512C37.962 99.2772 37.6909 99.4642 37.4663 99.7003C37.2417 99.9365 37.0685 100.217 36.9577 100.523C36.847 100.83 36.801 101.156 36.8228 101.481L36.9525 103.96L36.4063 103.99L36.2732 101.508C36.2507 101.111 36.3101 100.714 36.4475 100.34C36.5848 99.9667 36.7974 99.6254 37.0719 99.3374C37.3465 99.0494 37.6772 98.8208 38.0436 98.6658C38.4101 98.5107 38.8044 98.4325 39.2023 98.4359C40.0284 98.4457 40.8202 98.768 41.4181 99.3381C42.0161 99.9082 42.3759 100.684 42.425 101.508L42.5547 103.987L42.0188 103.99Z" fill="#263238"/>
<g opacity="0.2">
<path opacity="0.2" d="M42.0188 103.99L41.889 101.508C41.8413 100.827 41.54 100.188 41.0446 99.7181C40.5491 99.2479 39.8955 98.9805 39.2125 98.9685C38.8867 98.963 38.5632 99.0252 38.2626 99.1512C37.962 99.2772 37.6909 99.4642 37.4663 99.7003C37.2417 99.9365 37.0685 100.217 36.9577 100.523C36.847 100.83 36.801 101.156 36.8228 101.481L36.9525 103.96L36.4063 103.99L36.2732 101.508C36.2507 101.111 36.3101 100.714 36.4475 100.34C36.5848 99.9667 36.7974 99.6254 37.0719 99.3374C37.3465 99.0494 37.6772 98.8208 38.0436 98.6658C38.4101 98.5107 38.8044 98.4325 39.2023 98.4359C40.0284 98.4457 40.8202 98.768 41.4181 99.3381C42.0161 99.9082 42.3759 100.684 42.425 101.508L42.5547 103.987L42.0188 103.99Z" fill="white"/>
</g>
<path d="M43.1044 109.896H35.8874C35.6347 109.896 35.4299 110.101 35.4299 110.354V111.265C35.4299 111.518 35.6347 111.723 35.8874 111.723H43.1044C43.357 111.723 43.5618 111.518 43.5618 111.265V110.354C43.5618 110.101 43.357 109.896 43.1044 109.896Z" fill="white"/>
<path d="M58.6102 120.203L56.0122 119.933L56.1419 113.863L58.7399 114.133L58.6102 120.203Z" fill="#B55B52"/>
<path d="M80.5883 111.497L78.2634 112.682L74.7676 107.67L77.0959 106.486L80.5883 111.497Z" fill="#B55B52"/>
<path d="M77.7791 112.358L80.1688 110.651C80.2095 110.621 80.2596 110.607 80.3099 110.612C80.3601 110.616 80.407 110.638 80.4419 110.675L82.0601 112.382C82.0994 112.426 82.1291 112.477 82.1471 112.534C82.1651 112.59 82.171 112.649 82.1646 112.708C82.1582 112.766 82.1395 112.823 82.1097 112.874C82.0799 112.925 82.0398 112.969 81.9918 113.003C81.1486 113.583 80.7116 113.819 79.6601 114.57C79.0149 115.031 78.1171 115.772 77.226 116.407C76.335 117.042 75.6557 116.195 75.9697 115.85C77.3797 114.304 77.2909 113.621 77.5162 112.751C77.5543 112.593 77.6475 112.453 77.7791 112.358Z" fill="#263238"/>
<path d="M55.7896 119.606L58.7085 119.909C58.7587 119.914 58.8055 119.936 58.8402 119.973C58.8748 120.009 58.8948 120.057 58.8963 120.107L58.9884 122.453C58.9888 122.512 58.9766 122.57 58.9528 122.624C58.929 122.679 58.894 122.727 58.8502 122.767C58.8064 122.806 58.7547 122.836 58.6985 122.854C58.6423 122.873 58.5829 122.879 58.5241 122.873C57.5 122.746 57.0255 122.637 55.7418 122.504C54.9498 122.419 52.6693 122.265 51.5837 122.163C50.4981 122.06 50.5596 120.964 51.0136 120.913C53.0927 120.688 54.5948 120.23 55.339 119.729C55.4701 119.636 55.6296 119.592 55.7896 119.606Z" fill="#263238"/>
<g opacity="0.2">
<path opacity="0.2" d="M56.142 113.863L56.0737 116.994L58.6751 117.264L58.74 114.136L56.142 113.863Z" fill="black"/>
<path opacity="0.2" d="M77.0963 106.489L74.7681 107.674L76.5706 110.255L78.8989 109.07L77.0963 106.489Z" fill="black"/>
</g>
<path d="M57.3845 61.426C57.3845 61.426 54.691 81.4758 54.6227 89.4438C54.5408 97.7327 55.5923 116.338 55.5923 116.338L59.1052 116.704C59.1052 116.704 60.5322 98.4052 61.0989 90.2836C61.7202 81.4246 65.1614 61.6752 65.1614 61.6752L57.3845 61.426Z" fill="#263238"/>
<path d="M59.385 116.857L55.261 116.427L55.0972 115.082L59.7298 115.403L59.385 116.857Z" fill="#407BFF"/>
<path opacity="0.6" d="M61.7917 66.5707C59.0196 71.7291 60.8016 81.3528 61.6107 84.9374C62.2491 79.6118 63.2528 73.1083 64.0243 68.3357C63.7239 65.6114 63.0787 64.1981 61.7917 66.5707Z" fill="black"/>
<path d="M60.1841 61.5149C60.1841 61.5149 61.9286 82.5 63.5297 89.2698C65.4312 97.3095 75.7343 110.002 75.7343 110.002L78.9093 108.388C78.9093 108.388 71.9279 94.2814 70.4155 90.0277C67.1826 80.957 70.6135 67.6974 67.9882 61.7607L60.1841 61.5149Z" fill="#263238"/>
<path d="M79.3598 108.367L75.4201 110.371L74.3721 109.347L78.8989 106.78L79.3598 108.367Z" fill="#407BFF"/>
<path d="M76.8608 113.43H76.8301C76.7702 113.422 76.7134 113.399 76.6654 113.362C76.6175 113.326 76.58 113.277 76.557 113.222C76.5381 113.189 76.5281 113.153 76.5281 113.116C76.5281 113.078 76.5381 113.042 76.557 113.01C76.7243 112.72 77.6665 112.668 77.7723 112.668C77.7846 112.668 77.7968 112.672 77.8071 112.678C77.8175 112.685 77.8256 112.695 77.8303 112.706C77.8378 112.715 77.8419 112.727 77.8419 112.738C77.8419 112.75 77.8378 112.762 77.8303 112.771C77.6016 113.027 77.1885 113.44 76.8608 113.43ZM77.6289 112.802C77.2534 112.829 76.7516 112.918 76.6628 113.068C76.6544 113.082 76.65 113.099 76.65 113.116C76.65 113.132 76.6544 113.149 76.6628 113.163C76.678 113.201 76.7028 113.233 76.7345 113.258C76.7663 113.282 76.8039 113.298 76.8437 113.303C77.0213 113.341 77.3114 113.14 77.6289 112.802Z" fill="#407BFF"/>
<path d="M77.6866 112.795C77.3622 112.795 76.7716 112.614 76.6624 112.365C76.6424 112.32 76.6386 112.269 76.6517 112.222C76.6648 112.175 76.6939 112.133 76.7341 112.105C76.7681 112.072 76.8091 112.048 76.8541 112.033C76.899 112.018 76.9467 112.014 76.9935 112.02C77.3725 112.061 77.8095 112.668 77.8299 112.703C77.835 112.712 77.8377 112.723 77.8377 112.733C77.8377 112.744 77.835 112.755 77.8299 112.764C77.8252 112.774 77.8179 112.782 77.8089 112.788C77.7999 112.794 77.7895 112.798 77.7787 112.798C77.748 112.8 77.7171 112.799 77.6866 112.795ZM76.9594 112.143C76.9327 112.14 76.9059 112.144 76.8806 112.153C76.8553 112.162 76.8321 112.176 76.8126 112.194C76.7546 112.249 76.7614 112.286 76.7716 112.313C76.8468 112.481 77.3349 112.655 77.6524 112.672C77.4954 112.477 77.2018 112.167 76.9697 112.143H76.9594Z" fill="#407BFF"/>
<path d="M54.7693 119.957C54.5447 119.955 54.3279 119.875 54.1548 119.732C54.1167 119.691 54.0893 119.641 54.075 119.587C54.0607 119.533 54.06 119.476 54.0729 119.421C54.0788 119.387 54.0932 119.356 54.1147 119.329C54.1361 119.302 54.164 119.281 54.1958 119.268C54.5372 119.128 55.5135 119.763 55.6228 119.838C55.6338 119.844 55.6425 119.854 55.6474 119.866C55.6523 119.877 55.6533 119.89 55.6501 119.903C55.6472 119.915 55.6404 119.927 55.6306 119.935C55.6208 119.944 55.6085 119.949 55.5955 119.95C55.3209 119.979 55.0443 119.981 54.7693 119.957ZM54.3596 119.37C54.3213 119.363 54.2819 119.363 54.2436 119.37C54.2307 119.376 54.2195 119.385 54.2111 119.396C54.2028 119.408 54.1975 119.421 54.1958 119.435C54.1863 119.47 54.186 119.507 54.195 119.542C54.2039 119.578 54.2218 119.61 54.247 119.636C54.3904 119.797 54.8137 119.865 55.4009 119.831C55.0817 119.621 54.7298 119.465 54.3596 119.37Z" fill="#407BFF"/>
<path d="M55.582 119.95C55.582 119.95 55.5649 119.95 55.5581 119.95C55.2645 119.78 54.708 119.155 54.7866 118.865C54.807 118.796 54.8651 118.714 55.0358 118.714C55.0996 118.713 55.1629 118.725 55.2218 118.75C55.2806 118.774 55.3335 118.811 55.3772 118.858C55.6742 119.165 55.6639 119.882 55.6605 119.899C55.6609 119.91 55.6582 119.92 55.6528 119.929C55.6473 119.938 55.6393 119.946 55.6298 119.95C55.6144 119.956 55.5974 119.956 55.582 119.95ZM55.0733 118.831H55.0358C54.9231 118.831 54.9129 118.872 54.9061 118.889C54.8617 119.063 55.2304 119.544 55.5274 119.769C55.5315 119.472 55.4445 119.18 55.2782 118.933C55.2237 118.876 55.1514 118.84 55.0733 118.831Z" fill="#407BFF"/>
<path d="M56.2644 50.7678C55.2976 52.0592 54.2142 53.2591 53.028 54.3524C52.4005 54.9413 51.7141 55.4641 50.9797 55.9126C50.5469 56.1779 50.0809 56.3846 49.5936 56.5271C49.2853 56.6162 48.9656 56.6599 48.6446 56.6568C48.4528 56.6547 48.2618 56.633 48.0745 56.5919C47.9789 56.568 47.8765 56.5373 47.7809 56.5032C47.6686 56.4639 47.5601 56.4148 47.4565 56.3564C47.2152 56.2261 47.0045 56.0457 46.8386 55.8272C46.7115 55.6658 46.6069 55.4878 46.528 55.2981C46.411 55.0232 46.3318 54.7338 46.2924 54.4378C46.2324 53.9795 46.2153 53.5166 46.2412 53.0551C46.2981 52.2391 46.4122 51.428 46.5826 50.6279C46.8953 49.0849 47.322 47.5672 47.8594 46.0874L49.2727 46.4527C49.0713 47.9377 48.8835 49.4535 48.7709 50.9215C48.709 51.6332 48.6908 52.348 48.7163 53.062C48.7229 53.3666 48.7607 53.6697 48.8289 53.9667C48.8455 54.049 48.8743 54.1284 48.9143 54.2022C48.9348 54.2364 48.9143 54.1305 48.7163 54.0042C48.6446 53.9701 48.6685 53.9735 48.6514 53.9701C48.7108 53.9566 48.769 53.9383 48.8255 53.9154C49.0662 53.8172 49.2953 53.6924 49.5083 53.5433C50.0553 53.1527 50.5702 52.7189 51.048 52.2461C51.5566 51.751 52.0448 51.2219 52.5262 50.6654C53.0075 50.109 53.4889 49.5423 53.9293 48.9994L56.2644 50.7678Z" fill="#B55B52"/>
<path d="M55.6946 47.0091C54.6261 46.7155 51.4546 50.7644 51.4546 50.7644L54.4861 54.1476C54.4861 54.1476 58.04 50.9385 57.9 49.5013C57.7669 47.9992 57.2582 47.4529 55.6946 47.0091Z" fill="#407BFF"/>
<path d="M49.3104 46.0875L49.1909 43.9607L47.1426 45.6472C47.1426 45.6472 47.4532 47.2961 48.4877 47.6238L49.126 46.7259C49.2567 46.5395 49.3216 46.3149 49.3104 46.0875Z" fill="#B55B52"/>
<path d="M47.8564 42.2058L46.2178 43.7147L47.1395 45.6402L49.1913 43.9537L47.8564 42.2058Z" fill="#B55B52"/>
<path d="M47.023 46.3196L46.5485 46.1489C46.4203 46.1007 46.3132 46.009 46.2458 45.8898C46.1784 45.7706 46.155 45.6316 46.1798 45.4969L46.9001 41.6665L48.194 42.1376L47.7946 45.8383C47.786 45.9257 47.7575 46.0101 47.7111 46.0847C47.6648 46.1594 47.6019 46.2224 47.5274 46.269C47.4528 46.3155 47.3685 46.3443 47.2811 46.353C47.1936 46.3618 47.1054 46.3504 47.023 46.3196Z" fill="#263238"/>
<path d="M50.4333 41.4548C50.5152 41.2329 50.5938 41.0144 50.6654 40.796C50.374 40.3262 49.9837 39.9254 49.5218 39.6216C49.3511 40.0415 49.1804 40.4819 49.0131 40.9359C48.8458 41.39 48.6956 41.8372 48.5591 42.2708C49.1085 42.3344 49.6651 42.2785 50.1909 42.1069C50.2729 41.8918 50.3548 41.6767 50.4333 41.4548Z" fill="#263238"/>
<path d="M49.5766 41.1441C49.7784 40.6123 49.9237 40.0608 50.0102 39.4986L45.7667 37.9521L44.6128 41.1237L48.8597 42.6736C49.1509 42.1899 49.3912 41.6774 49.5766 41.1441Z" fill="#407BFF"/>
<path opacity="0.6" d="M49.5766 41.1441C49.7784 40.6123 49.9237 40.0608 50.0102 39.4986L45.7667 37.9521L44.6128 41.1237L48.8597 42.6736C49.1509 42.1899 49.3912 41.6774 49.5766 41.1441Z" fill="white"/>
<path d="M46.8696 38.058C46.6784 37.9863 42.0901 33.2785 41.5781 33.0771C41.066 32.8757 39.8267 34.7465 38.9118 37.2591C37.9969 39.7717 37.7101 41.9703 38.2666 42.1751C38.823 42.3799 45.3265 41.6938 45.5211 41.762C45.7157 41.8303 46.2346 41.0793 46.6067 40.0551C46.9788 39.0309 47.112 38.1399 46.8696 38.058Z" fill="#407BFF"/>
<path opacity="0.4" d="M46.8696 38.058C46.6784 37.9863 42.0901 33.2785 41.5781 33.0771C41.066 32.8757 39.8267 34.7465 38.9118 37.2591C37.9969 39.7717 37.7101 41.9703 38.2666 42.1751C38.823 42.3799 45.3265 41.6938 45.5211 41.762C45.7157 41.8303 46.2346 41.0793 46.6067 40.0551C46.9788 39.0309 47.112 38.1399 46.8696 38.058Z" fill="white"/>
<path d="M40.9328 37.9932C40.0179 40.5058 38.823 42.3766 38.2666 42.1752C37.7101 41.9738 37.9969 39.7855 38.9118 37.2592C39.8267 34.7329 41.0216 32.8758 41.5781 33.0772C42.1345 33.2786 41.8478 35.484 40.9328 37.9932Z" fill="#407BFF"/>
<path d="M39.6014 37.5015C39.5399 37.6688 39.4819 37.8429 39.4272 37.9965C39.7423 38.3915 40.1277 38.7249 40.5641 38.9797C40.6938 38.6656 40.8235 38.3345 40.9498 37.9931C41.0762 37.6517 41.1854 37.3103 41.2912 36.9894C40.7933 36.9047 40.2841 36.9128 39.7891 37.0133C39.7038 37.1738 39.6423 37.3376 39.6014 37.5015Z" fill="#263238"/>
<path opacity="0.7" d="M39.6014 37.5015C39.5399 37.6688 39.4819 37.8429 39.4272 37.9965C39.7423 38.3915 40.1277 38.7249 40.5641 38.9797C40.6938 38.6656 40.8235 38.3345 40.9498 37.9931C41.0762 37.6517 41.1854 37.3103 41.2912 36.9894C40.7933 36.9047 40.2841 36.9128 39.7891 37.0133C39.7038 37.1738 39.6423 37.3376 39.6014 37.5015Z" fill="white"/>
<path opacity="0.2" d="M54.8006 49.3888C54.9577 51.659 54.4285 53.0109 54.053 53.663L54.4865 54.1443C54.4865 54.1443 56.4905 52.3349 57.4327 50.826C56.3744 49.2556 54.6231 47.0025 54.8006 49.3888Z" fill="black"/>
<path d="M66.7347 36.4775C68.1582 36.4775 69.3122 35.3235 69.3122 33.9C69.3122 32.4765 68.1582 31.3225 66.7347 31.3225C65.3112 31.3225 64.1572 32.4765 64.1572 33.9C64.1572 35.3235 65.3112 36.4775 66.7347 36.4775Z" fill="#263238"/>
<path d="M66.4585 35.0742C66.4592 35.3951 66.3647 35.709 66.1869 35.9761C66.0091 36.2432 65.7561 36.4516 65.4599 36.5748C65.1636 36.6981 64.8375 36.7307 64.5227 36.6685C64.2079 36.6063 63.9186 36.4521 63.6915 36.2255C63.4644 35.9989 63.3096 35.7099 63.2467 35.3953C63.1839 35.0806 63.2158 34.7544 63.3384 34.4579C63.4611 34.1614 63.6689 33.9079 63.9357 33.7296C64.2024 33.5512 64.5161 33.4561 64.8369 33.4561C65.2664 33.4561 65.6784 33.6264 65.9824 33.9298C66.2864 34.2332 66.4576 34.6448 66.4585 35.0742Z" fill="#407BFF"/>
<path d="M59.6883 33.0636C59.6883 33.0636 56.2744 32.7836 56.2744 38.6555C56.2744 42.6771 58.2272 44.5376 60.6203 43.1857C60.6203 43.1857 65.8982 42.7522 66.5058 37.9215C67.1135 33.0909 63.3787 31.2918 59.6883 33.0636Z" fill="#263238"/>
<path d="M54.9976 47.1661C54.9976 47.1661 53.7857 47.6919 57.3873 62.7983L67.9704 62.0302C67.4788 57.7355 67.2876 55.083 68.6975 46.0942C67.1936 45.8961 65.6773 45.8071 64.1605 45.8279C62.5522 45.8279 60.9459 45.942 59.3537 46.1693C57.302 46.5175 54.9976 47.1661 54.9976 47.1661Z" fill="#407BFF"/>
<path d="M63.2869 40.4512C63.0957 42.0216 63.0001 44.8892 64.1575 45.828C64.1575 45.828 63.8502 47.4257 60.9757 47.6374C57.8179 47.8661 59.3507 46.1763 59.3507 46.1763C61.0576 45.6403 60.9074 44.3635 60.5217 43.1857L63.2869 40.4512Z" fill="#B55B52"/>
<path opacity="0.2" d="M62.1606 41.5674L60.522 43.1856C60.6165 43.4589 60.6873 43.7399 60.7336 44.0254C61.3857 43.882 62.2357 43.0934 62.2562 42.4004C62.2755 42.1192 62.2431 41.8369 62.1606 41.5674Z" fill="black"/>
<path d="M65.0555 37.8429C64.4649 40.3658 64.2669 41.448 62.7546 42.537C60.4809 44.1757 57.5108 42.8955 57.3367 40.2463C57.1797 37.8566 58.1731 34.1354 60.8462 33.5448C61.4342 33.4127 62.0462 33.433 62.6242 33.6038C63.2022 33.7746 63.7269 34.0903 64.1486 34.5209C64.5703 34.9515 64.8749 35.4827 65.0337 36.0641C65.1924 36.6455 65.1999 37.2578 65.0555 37.8429Z" fill="#B55B52"/>
<path d="M60.7028 37.8259C60.6686 38.0342 60.5286 38.1673 60.3955 38.1673C60.2624 38.1673 60.177 37.9556 60.2112 37.7474C60.2453 37.5391 60.3887 37.406 60.5218 37.406C60.655 37.406 60.7403 37.6177 60.7028 37.8259Z" fill="#263238"/>
<path d="M58.3572 37.4265C58.3196 37.6313 58.1831 37.7679 58.0465 37.7679C57.9099 37.7679 57.828 37.5596 57.8656 37.3514C57.9031 37.1432 58.0397 37.01 58.1762 37.01C58.3128 37.01 58.3777 37.2114 58.3572 37.4265Z" fill="#263238"/>
<path d="M58.2348 37.0305L57.7603 36.7983C57.7603 36.7983 57.948 37.2319 58.2348 37.0305Z" fill="#263238"/>
<path d="M59.1837 37.9214C58.9182 38.3643 58.5931 38.7687 58.2175 39.1231C58.3109 39.2161 58.4234 39.2878 58.5471 39.3332C58.6709 39.3786 58.803 39.3966 58.9344 39.3859L59.1837 37.9214Z" fill="#A02724"/>
<path d="M65.3488 40.3009C65.094 40.7333 64.6797 41.0483 64.1949 41.1783C63.5531 41.3422 63.2459 40.7618 63.4371 40.1541C63.6078 39.6147 64.1506 38.8808 64.8026 38.9798C64.9421 39.006 65.0729 39.0666 65.183 39.1561C65.2932 39.2457 65.3793 39.3612 65.4335 39.4924C65.4878 39.6236 65.5084 39.7662 65.4936 39.9074C65.4788 40.0486 65.4291 40.1838 65.3488 40.3009Z" fill="#B55B52"/>
<path d="M61.7273 37.5085C61.701 37.508 61.6755 37.4992 61.6546 37.4832C61.6337 37.4672 61.6185 37.445 61.6112 37.4197C61.4439 36.8735 60.7441 36.6413 60.7372 36.6379C60.7218 36.6328 60.7075 36.6246 60.6952 36.6139C60.6828 36.6033 60.6727 36.5902 60.6655 36.5757C60.6582 36.5611 60.6538 36.5452 60.6527 36.5289C60.6515 36.5127 60.6536 36.4964 60.6587 36.4809C60.6639 36.4654 60.672 36.4511 60.6827 36.4388C60.6934 36.4265 60.7064 36.4164 60.721 36.4091C60.7356 36.4018 60.7514 36.3975 60.7677 36.3963C60.784 36.3952 60.8003 36.3972 60.8158 36.4024C61.0434 36.4791 61.2523 36.6029 61.4288 36.7659C61.6053 36.9288 61.7454 37.1272 61.8399 37.348C61.8447 37.3635 61.8463 37.3797 61.8447 37.3958C61.8432 37.4119 61.8385 37.4276 61.8309 37.4418C61.8232 37.4561 61.8129 37.4687 61.8004 37.479C61.7879 37.4893 61.7735 37.497 61.758 37.5016C61.7483 37.5058 61.7378 37.5081 61.7273 37.5085Z" fill="#263238"/>
<path d="M57.8348 36.2214C57.8085 36.2192 57.7835 36.2089 57.7633 36.1918C57.7432 36.1747 57.7289 36.1518 57.7225 36.1261C57.7161 36.1005 57.7179 36.0735 57.7276 36.049C57.7374 36.0244 57.7545 36.0035 57.7768 35.9893C57.9448 35.8873 58.1348 35.8273 58.3309 35.8142C58.5269 35.8012 58.7233 35.8354 58.9033 35.9141C58.9179 35.9215 58.9309 35.9317 58.9415 35.9441C58.9521 35.9566 58.9602 35.9709 58.9653 35.9865C58.9704 36.002 58.9723 36.0184 58.9711 36.0347C58.9698 36.051 58.9654 36.0669 58.958 36.0814C58.9506 36.096 58.9404 36.109 58.928 36.1196C58.9155 36.1302 58.9012 36.1383 58.8856 36.1434C58.8701 36.1485 58.8537 36.1504 58.8374 36.1492C58.8211 36.1479 58.8052 36.1434 58.7907 36.1361C58.6476 36.0748 58.4919 36.0491 58.3368 36.061C58.1817 36.0729 58.0317 36.122 57.8997 36.2043C57.8797 36.2152 57.8575 36.221 57.8348 36.2214Z" fill="#263238"/>
<path d="M60.5795 37.4299L60.105 37.2012C60.105 37.2012 60.2962 37.6347 60.5795 37.4299Z" fill="#263238"/>
<path d="M59.1387 40.0311C60.007 39.8506 60.8908 39.7546 61.7776 39.7444C61.5762 40.3418 61.1733 40.8402 60.1731 40.8778C60.0488 40.895 59.9223 40.8863 59.8015 40.8523C59.6807 40.8183 59.5682 40.7597 59.4711 40.6802C59.374 40.6007 59.2944 40.5021 59.2372 40.3904C59.18 40.2787 59.1464 40.1564 59.1387 40.0311Z" fill="#263238"/>
<path d="M60.6142 40.3966C60.2297 40.3936 59.8542 40.5132 59.5422 40.738C59.7323 40.8516 59.9531 40.9029 60.1738 40.8848C60.5583 40.8878 60.9338 40.7682 61.2458 40.5434C61.0567 40.4273 60.8351 40.3758 60.6142 40.3966Z" fill="#A02724"/>
<path d="M59.2278 40.0107C59.251 40.0816 59.2932 40.1449 59.3497 40.1936C59.4063 40.2424 59.4751 40.2747 59.5487 40.2872C60.1231 40.2567 60.694 40.179 61.2556 40.0551C61.3469 40.0439 61.4338 40.0099 61.5084 39.9562C61.583 39.9025 61.6428 39.8308 61.6824 39.7478C60.8586 39.7715 60.0379 39.8594 59.2278 40.0107Z" fill="white"/>
<path d="M57.7773 35.9892C58.5544 35.6602 59.2305 35.1313 59.7369 34.4563C59.7369 34.4563 59.7369 36.2725 60.4777 36.1325C61.2185 35.9926 60.1056 34.4529 60.1056 34.4529C60.1056 34.4529 61.8126 35.2108 62.3963 36.6924C62.9801 38.174 63.6458 39.7922 64.9602 39.3894C66.2745 38.9865 65.9843 34.7875 64.0487 33.7394L61.3175 33.2478L60.5119 33.3673C60.0935 33.4268 59.6923 33.5734 59.3341 33.7974C58.794 34.1287 58.3695 34.6187 58.1187 35.2005L57.7773 35.9892Z" fill="#263238"/>
<path d="M64.1507 36.2078C64.0244 35.9415 63.4202 35.9654 62.7852 36.259C62.1502 36.5526 62.14 36.8291 62.2663 37.0954C62.3926 37.3616 62.6077 37.5153 63.2426 37.2217C63.8776 36.9281 64.277 36.474 64.1507 36.2078ZM62.6862 36.8905C62.5974 36.6994 62.6145 36.5048 63.0583 36.2931C63.5021 36.0814 63.9357 36.0678 64.0244 36.259C64.1132 36.4501 63.8298 36.7745 63.386 36.9827C62.9422 37.191 62.7783 37.0919 62.6862 36.9008V36.8905Z" fill="#407BFF"/>
<path opacity="0.2" d="M67.5272 49.5968L66.725 48.9141L66.1309 49.1838C65.9247 51.2851 66.4597 53.3925 67.6433 55.141C67.6945 54.0042 67.8003 52.724 67.9847 51.1945C67.732 50.2728 67.5272 49.5968 67.5272 49.5968Z" fill="black"/>
<path d="M78.3419 57.9166L77.9083 57.9609L77.7035 56.0048C77.6417 55.3541 77.8284 54.7042 78.2261 54.1856C78.6238 53.6669 79.203 53.318 79.8474 53.2088C80.1589 53.1563 80.478 53.1684 80.7846 53.2446C81.0912 53.3207 81.3789 53.4592 81.6297 53.6513C81.8804 53.8435 82.0889 54.0852 82.2422 54.3615C82.3955 54.6378 82.4902 54.9427 82.5205 55.2571L82.7287 57.2133L82.2952 57.2611L82.0903 55.3015C82.0653 55.0453 81.9882 54.7968 81.8637 54.5714C81.7393 54.346 81.5701 54.1483 81.3666 53.9906C81.1626 53.8337 80.9285 53.7207 80.6789 53.6584C80.4292 53.5961 80.1694 53.586 79.9157 53.6287C79.3808 53.7194 78.9001 54.0092 78.5701 54.4399C78.2401 54.8705 78.0854 55.4101 78.1371 55.9502L78.3419 57.9166Z" fill="#263238"/>
<path d="M70.2959 49.1599C70.3573 49.4535 70.4392 49.8154 70.5178 50.1465C70.5963 50.4777 70.6885 50.8293 70.784 51.1707C70.9752 51.8535 71.1766 52.5124 71.419 53.1576C71.8553 54.4141 72.4754 55.5991 73.2591 56.6739L73.3308 56.7661L73.3649 56.8138L73.324 56.7729C73.2693 56.7251 73.2054 56.6891 73.1362 56.6671C73.0338 56.6397 73.0372 56.6671 73.1055 56.6671C73.3475 56.6544 73.586 56.6037 73.8122 56.5168C74.4441 56.2861 75.0561 56.0041 75.642 55.6736C76.8812 54.9908 78.1341 54.2125 79.3461 53.4239L80.2917 54.5368C79.2286 55.6419 78.0728 56.6538 76.8369 57.5615C76.1816 58.0451 75.482 58.4658 74.7476 58.8178C74.295 59.035 73.8112 59.1802 73.3137 59.2479C72.9326 59.2948 72.5459 59.2528 72.1837 59.125C71.9423 59.0354 71.7199 58.9011 71.5283 58.729C71.4805 58.6847 71.4293 58.6369 71.3883 58.5925L71.3337 58.5344L71.2244 58.415C70.6624 57.7935 70.1701 57.1124 69.7565 56.3837C69.353 55.6875 69.0005 54.963 68.7016 54.2159C68.4079 53.4774 68.1527 52.7242 67.9369 51.9593C67.831 51.5838 67.732 51.2048 67.6433 50.8225C67.5545 50.4401 67.4726 50.068 67.4043 49.631L70.2959 49.1599Z" fill="#B55B52"/>
<path d="M68.6943 46.0875C69.7765 46.3333 71.6712 50.2456 71.6712 50.2456L67.4175 53.1304C67.4175 53.1304 65.7106 50.191 66.052 48.7879C66.4002 47.3336 67.4585 45.8144 68.6943 46.0875Z" fill="#407BFF"/>
<path d="M79.1689 53.4068L81.6406 52.0413L81.1217 54.6461C81.1217 54.6461 79.524 55.1547 78.7319 54.3968L79.1689 53.4068Z" fill="#B55B52"/>
<path d="M83.8083 52.3929L83.2553 54.5539L81.1216 54.6495L81.6405 52.0447L83.8083 52.3929Z" fill="#B55B52"/>
<path d="M84.8458 56.8855L84.4361 54.96C84.3185 54.4307 84.0051 53.9655 83.5586 53.6577C83.1122 53.3499 82.5659 53.2225 82.0293 53.3009C81.7743 53.3383 81.5298 53.428 81.311 53.5644C81.0923 53.7007 80.9041 53.8808 80.7583 54.0933C80.6124 54.3058 80.5121 54.5462 80.4635 54.7993C80.4149 55.0525 80.4192 55.3129 80.476 55.5643L80.8857 57.4897L80.4623 57.5819L80.0527 55.6565C79.983 55.3475 79.9779 55.0275 80.0376 54.7165C80.0974 54.4055 80.2206 54.1101 80.3998 53.8489C80.5789 53.5878 80.8101 53.3664 81.0787 53.1986C81.3473 53.0309 81.6477 52.9204 81.961 52.8742C82.6075 52.7792 83.266 52.9323 83.8042 53.3027C84.3425 53.6732 84.7207 54.2335 84.8628 54.8713L85.2725 56.7967L84.8458 56.8855Z" fill="#263238"/>
<g opacity="0.3">
<path opacity="0.3" d="M84.8453 56.8855L84.4356 54.96C84.318 54.4307 84.0046 53.9655 83.5581 53.6577C83.1117 53.3499 82.5654 53.2225 82.0288 53.3009C81.7738 53.3383 81.5293 53.428 81.3105 53.5644C81.0918 53.7007 80.9036 53.8808 80.7578 54.0933C80.6119 54.3058 80.5116 54.5462 80.463 54.7993C80.4144 55.0525 80.4187 55.3129 80.4755 55.5643L80.8852 57.4897L80.4619 57.5819L80.0522 55.6565C79.9825 55.3475 79.9774 55.0275 80.0371 54.7165C80.0969 54.4055 80.2202 54.1101 80.3993 53.8489C80.5784 53.5878 80.8096 53.3664 81.0782 53.1986C81.3469 53.0309 81.6472 52.9204 81.9606 52.8742C82.607 52.7792 83.2655 52.9323 83.8037 53.3027C84.342 53.6732 84.7202 54.2335 84.8624 54.8713L85.272 56.7967L84.8453 56.8855Z" fill="white"/>
</g>
<path d="M87.3918 55.5986L74.7297 57.6026L76.6791 72.692L78.4884 71.9648L80.4343 72.0979L90.1981 70.5515L87.3918 55.5986Z" fill="#407BFF"/>
<path opacity="0.6" d="M87.3918 55.5986L74.7297 57.6026L76.6791 72.692L78.4884 71.9648L80.4343 72.0979L90.1981 70.5515L87.3918 55.5986Z" fill="white"/>
<path d="M80.4343 72.0978L78.4884 71.9647L76.6791 72.6919L74.7297 57.6025L77.6247 57.145L80.4343 72.0978Z" fill="#407BFF"/>
<path opacity="0.3" d="M80.4343 72.0978L78.4884 71.9647L76.6791 72.6919L74.7297 57.6025L77.6247 57.145L80.4343 72.0978Z" fill="white"/>
<path d="M86.1482 62.0982L80.9117 62.9276C80.6305 62.9721 80.4387 63.2362 80.4832 63.5174L80.4907 63.5646C80.5352 63.8458 80.7993 64.0376 81.0805 63.9931L86.317 63.1637C86.5982 63.1192 86.79 62.8551 86.7455 62.574L86.738 62.5267C86.6935 62.2455 86.4294 62.0537 86.1482 62.0982Z" fill="white"/>
</svg>
