<svg width="31" height="31" viewBox="0 0 31 31" fill="none" xmlns="http://www.w3.org/2000/svg">
<rect x="9" y="5.99976" width="14" height="19" fill="white"/>
<path d="M15.0604 0.878906C6.74267 0.878906 0 7.62157 0 15.9393C0 24.257 6.74267 30.9997 15.0604 30.9997C23.3781 30.9997 30.1208 24.257 30.1208 15.9393C30.1208 7.62157 23.3781 0.878906 15.0604 0.878906ZM18.6278 11.2863H16.3641C16.0958 11.2863 15.7977 11.6392 15.7977 12.1083V13.743H18.6294L18.2011 16.0742H15.7977V23.0726H13.1261V16.0742H10.7023V13.743H13.1261V12.3719C13.1261 10.4046 14.4909 8.80601 16.3641 8.80601H18.6278V11.2863Z" fill="#3D3D7F"/>
</svg>
