<svg width="9" height="13" viewBox="0 0 9 13" fill="none" xmlns="http://www.w3.org/2000/svg">
<path d="M4.36467 12.698C4.22982 12.6987 4.09721 12.6635 3.98052 12.5959C3.86382 12.5283 3.76726 12.4307 3.7008 12.3134L3.69653 12.3057L0.549091 6.54242C0.179491 5.87176 -0.00958944 5.11657 0.00037437 4.35083C0.0103382 3.5851 0.219003 2.83508 0.605929 2.17427C0.975566 1.5257 1.50733 0.984308 2.14911 0.603154C2.79088 0.222 3.52066 0.0141595 4.26691 0C4.33199 0 4.39736 0 4.46215 0C5.20831 0.0141006 5.93802 0.221824 6.57979 0.602821C7.22155 0.983819 7.75337 1.52502 8.12313 2.17342C8.51006 2.83423 8.71873 3.58424 8.72869 4.34998C8.73865 5.11572 8.54957 5.87091 8.17997 6.54157L5.03281 12.3057L5.02855 12.3134C4.96213 12.4307 4.86562 12.5282 4.74898 12.5958C4.63233 12.6634 4.49977 12.6987 4.36496 12.698H4.36467ZM4.36467 0.793641H4.28311C3.67335 0.805647 3.07717 0.975883 2.55297 1.28767C2.02877 1.59945 1.59454 2.0421 1.29282 2.57223C0.974731 3.11518 0.803095 3.73146 0.794725 4.36071C0.786356 4.98995 0.94154 5.61058 1.24508 6.16181L4.36467 11.8734L7.48341 6.16181C7.78698 5.61059 7.94218 4.98996 7.93381 4.36071C7.92544 3.73145 7.75379 3.11517 7.43567 2.57223C7.13395 2.04233 6.69983 1.59988 6.1758 1.2882C5.65176 0.976523 5.05579 0.806304 4.44624 0.79421H4.36467V0.793641Z" fill="white"/>
<path d="M0.199463 4.98595L4.38759 12.365L8.17685 5.38482V3.78934L7.77798 2.79217L6.58137 0.997258L4.78646 0.598389H2.79211L0.797767 2.59273L0.199463 4.98595Z" fill="white"/>
<circle cx="4.3879" cy="4.38766" r="1.99435" fill="#111133"/>
</svg>
