<svg width="11" height="11" viewBox="0 0 11 11" fill="none" xmlns="http://www.w3.org/2000/svg">
<path d="M9.55268 6.81795C8.92357 6.81903 8.29834 6.7194 7.7007 6.52283C7.56022 6.47745 7.41032 6.4696 7.26588 6.50007C7.12143 6.53054 6.98746 6.59827 6.87727 6.69653L5.70883 7.57832C4.45179 6.95253 3.43307 5.93374 2.80719 4.67647L3.66275 3.54014C3.7721 3.43103 3.84923 3.29386 3.88565 3.14372C3.92207 2.99358 3.91637 2.8363 3.86917 2.6892C3.6722 2.09046 3.57227 1.46406 3.57317 0.833738C3.57291 0.612865 3.48515 0.401097 3.32911 0.244824C3.17306 0.0885518 2.96146 0.000515308 2.74065 0L0.833491 0C0.612514 0.000257775 0.400662 0.0881806 0.244408 0.244481C0.0881544 0.400781 0.000257699 0.612696 0 0.833738C0.00283492 3.36715 1.01019 5.79599 2.80105 7.58738C4.59191 9.37878 7.02003 10.3864 9.55268 10.3893C9.77366 10.389 9.98551 10.3011 10.1418 10.1448C10.298 9.98848 10.3859 9.77657 10.3862 9.55552V7.65299C10.3863 7.43172 10.2985 7.21948 10.1422 7.06289C9.98594 6.90631 9.77389 6.81821 9.55268 6.81795Z" fill="white"/>
</svg>
