<svg width="12" height="10" viewBox="0 0 12 10" fill="none" xmlns="http://www.w3.org/2000/svg">
<path d="M10.698 9.23442C10.9516 9.23788 11.1971 9.1452 11.3852 8.97499L8.05747 5.64623L7.82697 5.81193C7.57784 5.99558 7.37596 6.13813 7.22135 6.23957C7.02506 6.36348 6.81766 6.46882 6.60183 6.55423C6.3744 6.65478 6.12936 6.70939 5.88078 6.71495H5.86795C5.61937 6.70939 5.37433 6.65478 5.1469 6.55423C4.93104 6.46889 4.72363 6.36354 4.52738 6.23957C4.37229 6.13694 4.17042 5.99439 3.92176 5.81193C3.85229 5.76097 3.77534 5.70502 3.69197 5.64551L0.363525 8.97534C0.551718 9.1456 0.797367 9.2383 1.05109 9.23478L10.698 9.23442Z" fill="white"/>
<path d="M0.663015 3.54904C0.419258 3.38748 0.196861 3.19579 0.00109863 2.97852L0.00109863 8.04299L2.93412 5.10914C2.3475 4.69934 1.59046 4.17931 0.663015 3.54904Z" fill="white"/>
<path d="M11.0921 3.54904C10.1993 4.15341 9.44043 4.6738 8.81555 5.11022L11.7476 8.04299V2.97852C11.5528 3.19434 11.3327 3.3859 11.0921 3.54904Z" fill="white"/>
<path d="M10.6977 0.00150074H1.04966C0.902506 -0.00684398 0.755463 0.0196977 0.620505 0.0789652C0.485546 0.138233 0.366489 0.22855 0.273029 0.342562C0.0860647 0.586462 -0.0101706 0.887875 0.000851791 1.19503C0.0215017 1.52451 0.147951 1.8385 0.36138 2.09028C0.573028 2.38373 0.832137 2.63981 1.12804 2.84795C1.27647 2.95297 1.7244 3.26445 2.47182 3.78239C2.8751 4.06216 3.22601 4.30592 3.5274 4.51619C3.78426 4.69438 4.00585 4.85048 4.18896 4.97949L4.28693 5.05077L4.46755 5.1812C4.61005 5.28384 4.72797 5.367 4.82131 5.43068C4.91465 5.49435 5.02829 5.56563 5.16224 5.64451C5.28129 5.71695 5.40763 5.77668 5.53916 5.8227C5.64454 5.85985 5.7552 5.87983 5.86691 5.88186H5.88009C5.9918 5.87982 6.10246 5.85985 6.20784 5.8227C6.33939 5.77671 6.46572 5.71698 6.58476 5.64451C6.718 5.56586 6.83164 5.49459 6.92569 5.43068C7.01974 5.36676 7.13778 5.28361 7.27981 5.1812L7.46043 5.05112L7.5584 4.97985L8.22174 4.51869L10.6261 2.84795C10.9398 2.63037 11.2109 2.357 11.4259 2.04145C11.6315 1.75204 11.7434 1.40647 11.7465 1.05141C11.7443 0.773838 11.6331 0.508268 11.4368 0.311988C11.2406 0.115708 10.9752 0.00444872 10.6977 0.00221312V0.00150074Z" fill="white"/>
</svg>
