<svg width="49" height="49" viewBox="0 0 49 49" fill="none" xmlns="http://www.w3.org/2000/svg">
<circle cx="24.5" cy="24.5" r="24.5" fill="url(#paint0_linear_446_2893)"/>
<path d="M26.1858 14C26.5092 14 26.7985 14.2013 26.9074 14.5027L27.6839 16.6553C27.9622 16.7246 28.2009 16.7939 28.4033 16.8665C28.6244 16.9457 28.9093 17.0656 29.2613 17.2295L31.0696 16.2725C31.2172 16.1943 31.3862 16.1661 31.5512 16.1921C31.7162 16.2181 31.8683 16.2968 31.9848 16.4166L33.5753 18.0611C33.7865 18.28 33.8459 18.6 33.7271 18.8794L32.8791 20.8671C33.0198 21.1256 33.132 21.3466 33.2178 21.5314C33.3102 21.7327 33.4246 22.0099 33.561 22.3674L35.5377 23.2144C35.8347 23.3409 36.0183 23.6379 35.9985 23.9558L35.8533 26.2382C35.8434 26.3865 35.7902 26.5286 35.7002 26.6469C35.6103 26.7652 35.4876 26.8545 35.3474 26.9037L33.4752 27.5691C33.4213 27.8276 33.3652 28.0487 33.3058 28.2357C33.21 28.5245 33.1006 28.8086 32.9781 29.0871L33.9185 31.166C33.9849 31.3121 34.0028 31.4756 33.9695 31.6325C33.9363 31.7895 33.8536 31.9317 33.7337 32.0383L31.9452 33.6354C31.8274 33.7402 31.6804 33.8064 31.5239 33.8253C31.3674 33.8442 31.2089 33.8148 31.0696 33.741L29.2261 32.7643C28.9377 32.917 28.6401 33.0518 28.3351 33.1679L27.5299 33.4693L26.815 35.4493C26.762 35.5943 26.6664 35.7199 26.5408 35.8096C26.4151 35.8993 26.2653 35.9489 26.111 35.9519L24.0211 35.9992C23.8626 36.0034 23.7068 35.9584 23.575 35.8703C23.4432 35.7823 23.342 35.6555 23.2852 35.5076L22.4426 33.2779C22.1551 33.1797 21.8705 33.0733 21.589 32.959C21.3588 32.8593 21.1321 32.7518 20.9093 32.6367L18.8193 33.5298C18.6816 33.5886 18.5298 33.606 18.3824 33.5801C18.2349 33.5541 18.0982 33.4858 17.9889 33.3835L16.4423 31.9327C16.3272 31.8251 16.2488 31.6841 16.2182 31.5295C16.1876 31.375 16.2063 31.2147 16.2718 31.0714L17.1705 29.1135C17.051 28.8816 16.9402 28.6453 16.8383 28.4051C16.7194 28.1111 16.6094 27.8136 16.5083 27.513L14.5394 26.9136C14.3793 26.8652 14.2397 26.7653 14.1423 26.6295C14.0448 26.4936 13.9949 26.3294 14.0004 26.1623L14.0774 24.0493C14.0829 23.9114 14.126 23.7776 14.2019 23.6625C14.2779 23.5473 14.384 23.4551 14.5086 23.3959L16.5743 22.4037C16.67 22.0528 16.7536 21.78 16.8273 21.5809C16.9311 21.315 17.0463 21.0537 17.1727 20.7978L16.2773 18.9058C16.2094 18.7622 16.1887 18.6006 16.2184 18.4445C16.248 18.2884 16.3264 18.1456 16.4423 18.0369L17.9867 16.5783C18.0949 16.4762 18.2304 16.4076 18.3767 16.3806C18.5231 16.3537 18.6741 16.3696 18.8116 16.4265L20.8994 17.2889C21.1304 17.1349 21.3394 17.0106 21.5285 16.9105C21.754 16.7906 22.0554 16.6652 22.4349 16.5299L23.1609 14.5049C23.2146 14.3567 23.3127 14.2287 23.4418 14.1383C23.571 14.0479 23.7248 13.9996 23.8825 14H26.1858ZM25.6468 15.5146H24.4225L23.7571 17.378C23.7179 17.4866 23.6546 17.585 23.5719 17.6656C23.4892 17.7462 23.3893 17.8069 23.2797 17.8433C22.8001 18.0028 22.4536 18.1403 22.2512 18.247C22.0367 18.3603 21.7628 18.5329 21.4372 18.7639C21.3307 18.8387 21.207 18.8854 21.0776 18.8996C20.9481 18.9139 20.8172 18.8952 20.697 18.8453L18.684 18.0149L17.8998 18.7562L18.717 20.4832C18.816 20.6922 18.8138 20.9342 18.7104 21.1399C18.4904 21.5809 18.342 21.9065 18.2672 22.1067C18.1924 22.3058 18.0923 22.6479 17.9702 23.1209C17.9425 23.2281 17.8918 23.3279 17.8215 23.4134C17.7512 23.4989 17.663 23.568 17.5632 23.6159L15.5942 24.5607L15.5547 25.6387L17.3366 26.1799C17.5731 26.2514 17.7601 26.4329 17.8382 26.6661C18.0142 27.194 18.155 27.5834 18.2562 27.8276C18.3902 28.1375 18.5385 28.4411 18.7005 28.7373C18.8116 28.9441 18.8193 29.1905 18.7214 29.4039L17.8954 31.2056L18.6774 31.9404L20.6376 31.1022C20.7432 31.0571 20.8575 31.0361 20.9722 31.0406C21.0869 31.0452 21.1992 31.0752 21.3009 31.1286C21.7023 31.3398 22.0015 31.4861 22.1907 31.5664C22.3832 31.6467 22.7517 31.7809 23.2863 31.9635C23.3924 31.9997 23.4892 32.0589 23.5698 32.1369C23.6505 32.2148 23.7129 32.3096 23.7527 32.4145L24.5314 34.4725L25.55 34.4505L26.2067 32.6312C26.2442 32.5273 26.3039 32.4329 26.3816 32.3545C26.4593 32.276 26.5531 32.2154 26.6566 32.1769L27.7972 31.7501C28.0854 31.6434 28.4352 31.4751 28.8433 31.2441C28.9562 31.1807 29.0833 31.1466 29.2129 31.1451C29.3424 31.1435 29.4702 31.1746 29.5847 31.2353L31.3193 32.1538L32.295 31.2837L31.4414 29.3995C31.3976 29.3027 31.3748 29.1978 31.3746 29.0916C31.3744 28.9854 31.3968 28.8804 31.4403 28.7835C31.6405 28.3358 31.7758 27.9981 31.844 27.7825C31.9111 27.5713 31.9804 27.2666 32.0475 26.8751C32.0706 26.742 32.1287 26.6176 32.2159 26.5145C32.3031 26.4115 32.4162 26.3336 32.5436 26.2888L34.3563 25.6453L34.4355 24.3913L32.6536 23.628C32.5587 23.5876 32.473 23.5283 32.4017 23.4538C32.3304 23.3793 32.275 23.2911 32.2389 23.1946C32.1118 22.844 31.9731 22.4977 31.8231 22.1562C31.681 21.8589 31.5269 21.5676 31.3611 21.2829C31.3037 21.1823 31.2703 21.0697 31.2636 20.9541C31.2569 20.8384 31.2771 20.7228 31.3226 20.6163L32.1201 18.7463L31.2797 17.8774L29.643 18.7441C29.5361 18.8008 29.4175 18.8316 29.2965 18.8341C29.1756 18.8366 29.0558 18.8107 28.9467 18.7584C28.5993 18.5857 28.244 18.4293 27.8819 18.2899C27.5732 18.1862 27.2584 18.1017 26.9393 18.0369C26.8126 18.01 26.6949 17.9514 26.5972 17.8666C26.4994 17.7817 26.4248 17.6734 26.3805 17.5518L25.6457 15.5135L25.6468 15.5146ZM25.0264 20.2049C27.7048 20.2049 29.8773 22.3531 29.8773 25.0018C29.8773 27.6505 27.7048 29.7977 25.0264 29.7977C22.3469 29.7977 20.1756 27.6505 20.1756 25.0018C20.1756 22.3531 22.3469 20.206 25.0264 20.206V20.2049ZM25.0264 21.7206C23.1928 21.7206 21.7067 23.1891 21.7067 25.0018C21.7067 26.8146 23.1928 28.2841 25.0264 28.2841C26.859 28.2841 28.345 26.8146 28.345 25.0018C28.345 23.1891 26.8601 21.7206 25.0264 21.7206Z" fill="white"/>
<defs>
<linearGradient id="paint0_linear_446_2893" x1="-4.46769e-07" y1="24" x2="49" y2="24" gradientUnits="userSpaceOnUse">
<stop stop-color="#2A188D"/>
<stop offset="1" stop-color="#1445B5"/>
</linearGradient>
</defs>
</svg>
