<svg width="49" height="49" viewBox="0 0 49 49" fill="none" xmlns="http://www.w3.org/2000/svg">
<circle cx="24.5" cy="24.5001" r="24.5" fill="url(#paint0_linear_446_2878)"/>
<path d="M24.5 24.5001V33.1251M24.5 24.5001L22.1042 26.4168M24.5 24.5001L26.8958 26.4168" stroke="white" stroke-linecap="round" stroke-linejoin="round"/>
<path d="M17.8243 21.7372C16.9179 21.9653 16.126 22.5165 15.5973 23.2873C15.0687 24.0581 14.8397 24.9953 14.9534 25.923C15.0671 26.8507 15.5156 27.705 16.2147 28.3253C16.9138 28.9456 17.8154 29.2893 18.75 29.2918H19.7083" stroke="white" stroke-linecap="round" stroke-linejoin="round"/>
<path d="M28.1704 19.8407C27.8429 18.5437 27.0344 17.4197 25.9089 16.6967C24.7834 15.9736 23.425 15.7056 22.1092 15.9469C20.7934 16.1882 19.6186 16.9208 18.8229 17.9962C18.0272 19.0716 17.6702 20.4093 17.8243 21.7382C17.8243 21.7382 17.9709 22.5835 18.2708 23.0626" stroke="white" stroke-linecap="round" stroke-linejoin="round"/>
<path d="M29.2917 29.2918C29.9683 29.2913 30.6371 29.1476 31.2542 28.87C31.8713 28.5924 32.4225 28.1873 32.8717 27.6813C33.321 27.1753 33.6579 26.5799 33.8604 25.9343C34.0629 25.2887 34.1264 24.6075 34.0467 23.9356C33.967 23.2637 33.7459 22.6163 33.3979 22.036C33.05 21.4557 32.5831 20.9557 32.0279 20.5688C31.4728 20.182 30.8421 19.9171 30.1772 19.7916C29.5123 19.6661 28.8284 19.6828 28.1704 19.8407L26.8958 20.1876" stroke="white" stroke-linecap="round" stroke-linejoin="round"/>
<defs>
<linearGradient id="paint0_linear_446_2878" x1="-4.46769e-07" y1="24.0001" x2="49" y2="24.0001" gradientUnits="userSpaceOnUse">
<stop stop-color="#2A188D"/>
<stop offset="1" stop-color="#1445B5"/>
</linearGradient>
</defs>
</svg>
