<svg width="31" height="31" viewBox="0 0 31 31" fill="none" xmlns="http://www.w3.org/2000/svg">
<circle cx="15.0604" cy="15.9393" r="15.0604" fill="#3D3D7F"/>
<path d="M11.5741 9.80366C11.5741 10.5441 11.0791 11.1814 10.1789 11.1814C9.33179 11.1814 8.78516 10.5804 8.78516 9.83992C8.78516 9.07993 9.31506 8.40918 10.1796 8.40918C11.0442 8.40918 11.5574 9.04367 11.5741 9.80366ZM8.78516 20.9595V11.8954H11.5741V20.9595H8.78516Z" fill="white"/>
<path d="M12.9688 14.9938C12.9688 13.9166 12.9333 13.0165 12.8977 12.239H15.4036L15.5277 13.4404H15.5807C15.9335 12.8749 16.7981 12.0459 18.2455 12.0459C20.011 12.0459 21.3357 13.2277 21.3357 15.7706V20.9594H18.5468V16.1757C18.5468 15.0643 18.1235 14.2164 17.1523 14.2164C16.4118 14.2164 16.0409 14.816 15.8463 15.3104C15.7752 15.4875 15.7578 15.7343 15.7578 15.9818V20.9594H12.9688V14.9938Z" fill="white"/>
</svg>
