<svg width="172" height="46" viewBox="0 0 172 46" fill="none" xmlns="http://www.w3.org/2000/svg">
<path d="M3.86194 10.7311L19.7641 2.66309L33.6785 9.79568" stroke="#EF3F23" stroke-width="0.701566"/>
<path d="M1.75781 15.7588V31.4271L16.4907 41.249" stroke="#EF3F23" stroke-width="0.701566"/>
<path d="M22.3358 41.2495L36.3671 31.3106V13.5376" stroke="#EF3F23" stroke-width="0.701566"/>
<rect x="0.471191" y="13.7715" width="2.80697" height="2.80697" fill="#EF3F23"/>
<rect width="2.80697" height="2.80697" transform="matrix(0.904866 -0.425696 0.425588 0.904917 1.6416 10.2886)" fill="#EF3F23"/>
<rect width="2.80697" height="2.80697" transform="matrix(0.501861 -0.864949 0.865014 0.501747 31.8228 10.5996)" fill="#EF3F23"/>
<rect x="35.0815" y="12.1338" width="2.80697" height="2.80697" fill="#EF3F23"/>
<rect width="2.80697" height="2.80697" transform="matrix(0.569634 -0.821898 0.821865 0.569682 14.9707 41.8013)" fill="#EF3F23"/>
<rect width="2.80697" height="2.80697" transform="matrix(0.56966 0.82188 -0.821811 0.56976 22.4219 39.2607)" fill="#EF3F23"/>
<path d="M8.77398 12.9531L5.5 14.3563V29.2061L10.294 32.2462V23.4766" stroke="#2C2C6C" stroke-width="0.467711"/>
<path d="M11.4634 19.7344L18.1283 23.2422V29.2055L14.0358 32.0118V26.75" stroke="#2C2C6C" stroke-width="0.467711"/>
<path d="M18.7134 36.3384L21.1689 37.7415L33.4463 29.5566L33.0955 23.8271L26.5475 28.2704" stroke="#2C2C6C" stroke-width="0.467711"/>
<path d="M21.2856 30.2581V23.0086L26.8982 19.8516L30.8737 21.8393L26.1966 24.5287" stroke="#2C2C6C" stroke-width="0.467711"/>
<path d="M18.3619 15.0573L13.5679 12.4849L14.0356 16.9281L19.4143 19.9682L25.7284 16.2266" stroke="#2C2C6C" stroke-width="0.467711"/>
<path d="M22.1025 13.0696L14.6191 9.21102L19.2962 6.1709L32.5091 13.0696V15.5251" stroke="#2C2C6C" stroke-width="0.467711"/>
<rect x="17.4932" y="33.6489" width="2.80697" height="2.80697" transform="rotate(34.4302 17.4932 33.6489)" fill="#2C2C6C"/>
<rect x="19.8818" y="29.9072" width="2.80697" height="2.80697" fill="#2C2C6C"/>
<rect width="2.80697" height="2.80697" transform="matrix(0.82162 -0.570036 0.570027 0.821626 23.3906 28.7007)" fill="#2C2C6C"/>
<rect x="23.4316" y="24.5405" width="2.80697" height="2.80697" transform="rotate(-29.2906 23.4316 24.5405)" fill="#2C2C6C"/>
<rect x="12.8657" y="24.2949" width="2.80697" height="2.80697" fill="#2C2C6C"/>
<rect x="8.89075" y="21.4883" width="2.80697" height="2.80697" fill="#2C2C6C"/>
<rect width="2.80697" height="2.80697" transform="matrix(0.39242 -0.919786 0.919767 0.392464 8.89075 19.627)" fill="#2C2C6C"/>
<rect width="2.80697" height="2.80697" transform="matrix(0.922469 -0.38607 0.386114 0.922451 7.021 12.0483)" fill="#2C2C6C"/>
<rect width="2.80697" height="2.80697" transform="matrix(0.495745 -0.868468 0.868529 0.495638 17.3112 15.9741)" fill="#2C2C6C"/>
<rect width="2.80697" height="2.80697" transform="matrix(0.825692 -0.564121 0.564066 0.825729 24.5586 15.354)" fill="#2C2C6C"/>
<rect width="2.80697" height="2.80697" transform="matrix(0.427237 -0.90414 0.904099 0.427323 21.0522 14.2036)" fill="#2C2C6C"/>
<rect x="31.1074" y="15.4082" width="2.80697" height="2.80697" fill="#2C2C6C"/>
<path d="M56.2458 38.0163L55.895 6.67969H56.2458L73.2003 38.0163H73.668L73.2003 6.67969" stroke="#2C2C6C" stroke-width="3.27398" stroke-linecap="square"/>
<path d="M83.0234 6.56348V37.6662" stroke="#2C2C6C" stroke-width="3.27398" stroke-linecap="square"/>
<path d="M120.673 6.56348V37.6662" stroke="#2C2C6C" stroke-width="3.27398" stroke-linecap="square"/>
<path d="M152.478 6.56348V37.6662" stroke="#2C2C6C" stroke-width="3.27398" stroke-linecap="square"/>
<path d="M170.25 6.56348V37.6662" stroke="#2C2C6C" stroke-width="3.27398" stroke-linecap="square"/>
<path d="M152.829 18.3735H170.368" stroke="#2C2C6C" stroke-width="3.27398"/>
<path d="M93.1958 36.8481V7.03154C107.11 5.16067 110.735 18.6074 110.735 20.5951C110.735 22.5829 110.384 38.1343 93.1958 36.8481Z" stroke="#2C2C6C" stroke-width="3.27398" stroke-linecap="square"/>
<path d="M130.378 43.2793C130.378 43.2793 131.079 45.7347 134.587 45.6178C135.405 45.345 138.679 45.8517 139.03 40.8238C139.03 35.3282 135.522 22.7 135.522 22.7C135.522 22.7 133.652 14.515 138.095 7.61631C143.357 -1.15327 149.671 1.76994 149.671 1.76994C149.671 1.76994 147.917 0.0160102 142.304 0.951414C137.159 2.58842 134.47 8.43479 133.301 10.6564C132.131 12.878 131.664 17.906 131.898 20.9461C132.833 27.9617 137.276 37.4329 136.692 42.2269C134.47 47.7225 130.378 43.2793 130.378 43.2793Z" fill="#EE3C23"/>
<circle cx="143.825" cy="11.4766" r="0.936037" fill="#EE3C23"/>
</svg>
