<svg width="115" height="30" viewBox="0 0 115 30" fill="none" xmlns="http://www.w3.org/2000/svg">
<path d="M2.25513 6.6884L12.8319 1.32227L22.0865 6.06624" stroke="white" stroke-width="0.466621"/>
<path d="M0.855469 10.0322V20.4534L10.6545 26.9861" stroke="white" stroke-width="0.466621"/>
<path d="M14.543 26.9862L23.8754 20.3757V8.55469" stroke="white" stroke-width="0.466621"/>
<rect y="8.71045" width="1.86648" height="1.86648" fill="white"/>
<rect x="0.77771" y="6.39404" width="1.86648" height="1.86648" transform="rotate(-25.1913 0.77771 6.39404)" fill="white"/>
<rect x="20.8523" y="6.60156" width="1.86648" height="1.86648" transform="rotate(-59.8806 20.8523 6.60156)" fill="white"/>
<rect x="23.0199" y="7.62158" width="1.86648" height="1.86648" fill="white"/>
<rect x="9.64343" y="27.3538" width="1.86648" height="1.86648" transform="rotate(-55.2736 9.64343 27.3538)" fill="white"/>
<rect width="1.86648" height="1.86648" transform="matrix(0.56966 0.82188 -0.821811 0.56976 14.5992 25.6641)" fill="white"/>
<path d="M5.5218 8.16602L3.34424 9.09926V18.9761L6.53281 20.9981V15.1653" stroke="white" stroke-width="0.311081"/>
<path d="M7.31042 12.6763L11.7433 15.0094V18.9757L9.02137 20.8421V17.3425" stroke="white" stroke-width="0.311081"/>
<path d="M12.1321 23.7198L13.7653 24.6531L21.9311 19.2092L21.6978 15.3984L17.3427 18.3537" stroke="white" stroke-width="0.311081"/>
<path d="M13.8431 19.6754V14.8537L17.5761 12.7539L20.2203 14.076L17.1095 15.8647" stroke="white" stroke-width="0.311081"/>
<path d="M11.899 9.56544L8.71045 7.85449L9.02153 10.8098L12.599 12.8318L16.7985 10.3431" stroke="white" stroke-width="0.311081"/>
<path d="M14.3876 8.24371L9.41028 5.6773L12.5211 3.65527L21.3091 8.24371V9.87688" stroke="white" stroke-width="0.311081"/>
<rect x="11.3212" y="21.9312" width="1.86648" height="1.86648" transform="rotate(34.4302 11.3212 21.9312)" fill="white"/>
<rect x="12.9098" y="19.4424" width="1.86648" height="1.86648" fill="white"/>
<rect width="1.86648" height="1.86648" transform="matrix(0.821607 -0.570054 0.570009 0.821639 15.2432 18.6396)" fill="white"/>
<rect x="15.2711" y="15.8733" width="1.86648" height="1.86648" transform="rotate(-29.2906 15.2711 15.8733)" fill="white"/>
<rect x="8.24377" y="15.7095" width="1.86648" height="1.86648" fill="white"/>
<rect x="5.59937" y="13.8428" width="1.86648" height="1.86648" fill="white"/>
<rect x="5.59937" y="12.6047" width="1.86648" height="1.86648" transform="rotate(-66.8935 5.59937 12.6047)" fill="white"/>
<rect x="4.35547" y="7.56445" width="1.86648" height="1.86648" transform="rotate(-22.7116 4.35547 7.56445)" fill="white"/>
<rect width="1.86648" height="1.86648" transform="matrix(0.495745 -0.868468 0.868529 0.495638 11.1991 10.1755)" fill="white"/>
<rect width="1.86648" height="1.86648" transform="matrix(0.825692 -0.564121 0.564066 0.825729 16.0209 9.76294)" fill="white"/>
<rect width="1.86648" height="1.86648" transform="matrix(0.427237 -0.90414 0.904099 0.427323 13.6879 8.9978)" fill="white"/>
<rect x="20.3759" y="9.79883" width="1.86648" height="1.86648" fill="white"/>
<path d="M37.0965 24.8356L36.8632 3.99316H37.0965L48.3731 24.8356H48.6842L48.3731 3.99316" stroke="white" stroke-width="2.17756" stroke-linecap="square"/>
<path d="M54.906 3.91553V24.6024" stroke="white" stroke-width="2.17756" stroke-linecap="square"/>
<path d="M79.9479 3.91553V24.6024" stroke="white" stroke-width="2.17756" stroke-linecap="square"/>
<path d="M101.101 3.91553V24.6024" stroke="white" stroke-width="2.17756" stroke-linecap="square"/>
<path d="M112.922 3.91553V24.6024" stroke="white" stroke-width="2.17756" stroke-linecap="square"/>
<path d="M101.335 11.7705H113" stroke="white" stroke-width="2.17756"/>
<path d="M61.6719 24.0582V4.22681C70.9265 2.98246 73.3374 11.926 73.3374 13.2481C73.3374 14.5702 73.1041 24.9137 61.6719 24.0582Z" stroke="white" stroke-width="2.17756" stroke-linecap="square"/>
<path d="M86.4028 28.3355C86.4028 28.3355 86.8695 29.9686 89.2026 29.8909C89.7469 29.7094 91.9245 30.0464 92.1578 26.7023C92.1578 23.0471 89.8247 14.6479 89.8247 14.6479C89.8247 14.6479 88.5804 9.20402 91.5357 4.61559C95.0353 -1.21717 99.2349 0.727089 99.2349 0.727089C99.2349 0.727089 98.0684 -0.439472 94.3354 0.182677C90.9135 1.27147 89.1248 5.15997 88.3471 6.6376C87.5694 8.11523 87.2583 11.4594 87.4138 13.4814C88.036 18.1476 90.9913 24.447 90.6024 27.6355C89.1248 31.2907 86.4028 28.3355 86.4028 28.3355Z" fill="white"/>
<circle cx="95.3465" cy="7.18222" r="0.622161" fill="white"/>
</svg>
