<svg width="606" height="491" viewBox="0 0 606 491" fill="none" xmlns="http://www.w3.org/2000/svg">
<rect width="608" height="491" fill="url(#paint0_linear_265_15868)"/>
<circle cx="550" cy="297" r="2" fill="#4D34BD"/>
<circle cx="550" cy="309" r="2" fill="#4D34BD"/>
<circle cx="550" cy="321" r="2" fill="#4D34BD"/>
<circle cx="550" cy="333" r="2" fill="#4D34BD"/>
<circle cx="550" cy="345" r="2" fill="#4D34BD"/>
<circle cx="550" cy="357" r="2" fill="#4D34BD"/>
<circle cx="550" cy="369" r="2" fill="#4D34BD"/>
<circle cx="562" cy="297" r="2" fill="#4D34BD"/>
<circle cx="562" cy="309" r="2" fill="#4D34BD"/>
<circle cx="562" cy="321" r="2" fill="#4D34BD"/>
<circle cx="562" cy="333" r="2" fill="#4D34BD"/>
<circle cx="562" cy="345" r="2" fill="#4D34BD"/>
<circle cx="562" cy="357" r="2" fill="#4D34BD"/>
<circle cx="562" cy="369" r="2" fill="#4D34BD"/>
<circle cx="574" cy="297" r="2" fill="#4D34BD"/>
<circle cx="574" cy="309" r="2" fill="#4D34BD"/>
<circle cx="574" cy="321" r="2" fill="#4D34BD"/>
<circle cx="574" cy="333" r="2" fill="#4D34BD"/>
<circle cx="574" cy="345" r="2" fill="#4D34BD"/>
<circle cx="574" cy="357" r="2" fill="#4D34BD"/>
<circle cx="574" cy="369" r="2" fill="#4D34BD"/>
<circle cx="586" cy="297" r="2" fill="#4D34BD"/>
<circle cx="586" cy="309" r="2" fill="#4D34BD"/>
<circle cx="586" cy="321" r="2" fill="#4D34BD"/>
<circle cx="586" cy="333" r="2" fill="#4D34BD"/>
<circle cx="586" cy="345" r="2" fill="#4D34BD"/>
<circle cx="586" cy="357" r="2" fill="#4D34BD"/>
<circle cx="586" cy="369" r="2" fill="#4D34BD"/>
<circle cx="598" cy="297" r="2" fill="#4D34BD"/>
<circle cx="598" cy="309" r="2" fill="#4D34BD"/>
<circle cx="598" cy="321" r="2" fill="#4D34BD"/>
<circle cx="598" cy="333" r="2" fill="#4D34BD"/>
<circle cx="598" cy="345" r="2" fill="#4D34BD"/>
<circle cx="598" cy="357" r="2" fill="#4D34BD"/>
<circle cx="598" cy="369" r="2" fill="#4D34BD"/>
<defs>
<linearGradient id="paint0_linear_265_15868" x1="631.5" y1="-2.41999e-05" x2="2.96071e-05" y2="471" gradientUnits="userSpaceOnUse">
<stop offset="0.0256483" stop-color="#271C8C"/>
<stop offset="0.983584" stop-color="#111133"/>
</linearGradient>
</defs>
</svg>
