<svg width="31" height="31" viewBox="0 0 31 31" fill="none" xmlns="http://www.w3.org/2000/svg">
<circle cx="15.0604" cy="15.9393" r="15.0604" fill="#3D3D7F"/>
<path d="M19.8571 12.5268C20.395 12.2053 20.7974 11.699 20.9893 11.1025C20.4839 11.4023 19.931 11.6136 19.3544 11.727C18.9655 11.3157 18.4521 11.0436 17.8933 10.9528C17.3346 10.862 16.7614 10.9576 16.2623 11.2247C15.7632 11.4917 15.3658 11.9156 15.1313 12.4309C14.8969 12.9461 14.8384 13.5242 14.9649 14.076C13.9413 14.0246 12.9399 13.7585 12.0258 13.295C11.1116 12.8315 10.3052 12.181 9.65872 11.3857C9.32997 11.9527 9.22938 12.6236 9.37736 13.2621C9.52535 13.9007 9.91082 14.4589 10.4555 14.8235C10.0467 14.8104 9.64704 14.6997 9.28974 14.5007V14.5331C9.28985 15.1277 9.49561 15.7039 9.87211 16.1641C10.2486 16.6242 10.7727 16.94 11.3555 17.0578C10.9763 17.161 10.5786 17.1762 10.1927 17.1022C10.3575 17.6136 10.6779 18.0608 11.1091 18.3813C11.5403 18.7018 12.0608 18.8797 12.598 18.8902C11.6859 19.606 10.5596 19.9942 9.40013 19.9923C9.19434 19.9923 8.98915 19.9803 8.78516 19.9569C9.96256 20.7135 11.3329 21.1151 12.7324 21.1137C13.6963 21.1203 14.652 20.9353 15.5438 20.5695C16.4356 20.2036 17.2459 19.6642 17.9275 18.9826C18.609 18.3009 19.1484 17.4907 19.5142 16.5988C19.8799 15.7069 20.0648 14.7513 20.0581 13.7874C20.0581 13.6758 20.0557 13.5648 20.0503 13.4544C20.5546 13.09 20.9898 12.6385 21.3355 12.1212C20.8657 12.3294 20.3674 12.4662 19.8571 12.5268Z" fill="white"/>
</svg>
