<svg width="142" height="107" viewBox="0 0 142 107" fill="none" xmlns="http://www.w3.org/2000/svg">
<path d="M32.127 33.6397C32.127 32.2695 33.2361 31.1604 34.6062 31.1604H100.242C101.599 31.1604 102.708 32.2695 102.708 33.6397V83.4469H32.127V33.6397Z" fill="#4989FF"/>
<path d="M34.6318 33.7312H100.085V73.9345H34.6318V33.7312Z" fill="url(#paint0_linear_265_14968)"/>
<path fill-rule="evenodd" clip-rule="evenodd" d="M27.7547 33.9138H11.1045L11.1306 33.7703C11.3916 32.3871 12.6051 31.3954 14.0013 31.3954C14.2101 31.3954 14.4102 31.4171 14.6016 31.4606C15.4758 29.8165 17.1591 28.7856 19.0251 28.7856C20.6171 28.7856 22.1177 29.5555 23.0572 30.8473C23.4095 30.743 23.7618 30.6777 24.1272 30.6777C25.941 30.6777 27.4546 31.9826 27.7286 33.7703L27.7547 33.9138ZM11.4046 33.6659H27.4546C27.1545 32.1 25.7452 30.9387 24.1272 30.9387C23.7618 30.9387 23.3964 30.9909 23.0572 31.1083L22.9658 31.1344L22.9136 31.0561C22.0263 29.7904 20.5779 29.0466 19.0381 29.0466C17.2244 29.0466 15.5933 30.0383 14.7842 31.6564L14.7451 31.7477L14.6538 31.7216C14.445 31.6694 14.2318 31.6433 14.0144 31.6433C12.7747 31.6433 11.7047 32.4915 11.4046 33.6659Z" fill="#6AAFE8"/>
<path fill-rule="evenodd" clip-rule="evenodd" d="M88.9014 13.4143L88.8492 13.3882C82.9381 10.3739 83.7341 4.52809 83.7341 4.47589L83.7602 4.35845H83.8646C87.6226 4.35845 88.797 3.15797 88.8101 3.14492L88.9014 3.04053L88.9927 3.14492C89.0058 3.15797 90.1802 4.35845 93.9382 4.35845H94.0557L94.0687 4.47589C94.0687 4.52809 94.8647 10.3739 88.9536 13.3882L88.9014 13.4143ZM83.982 4.60638C83.9037 5.40236 83.6558 10.4131 88.9014 13.1403C94.1601 10.4131 93.9121 5.40236 93.8338 4.60638C90.5716 4.59333 89.2407 3.67992 88.9014 3.39284C88.5621 3.67992 87.2442 4.59333 83.982 4.60638Z" fill="#6AAFE8"/>
<path d="M121.236 91.0675C120.349 86.9963 122.267 85.9915 124.12 84.9998C125.647 84.2038 127.082 83.447 127.004 81.046C126.899 77.8752 129.065 76.7269 130.971 75.696C132.393 74.9392 133.737 74.2215 133.933 72.7862C134.415 69.3021 137.625 64.983 137.652 64.9438L137.847 65.0874C137.821 65.1265 134.65 69.4065 134.181 72.8123C133.959 74.3912 132.563 75.1349 131.088 75.9179C129.157 76.9487 127.16 78.0187 127.252 81.046C127.33 83.5905 125.764 84.4257 124.237 85.2216C122.384 86.2003 120.623 87.1268 121.471 91.0153L121.236 91.0675Z" fill="url(#paint1_linear_265_14968)"/>
<path fill-rule="evenodd" clip-rule="evenodd" d="M122.215 90.0235C122.171 90.0235 122.128 90.0235 122.084 90.0235C121.275 89.9713 120.492 89.358 119.605 88.1054L119.553 88.0271L119.605 87.9488C119.618 87.9357 121.04 86.2002 120.518 82.938C120.401 82.1812 120.244 81.6071 120.114 81.1373C119.918 80.4588 119.788 80.0021 119.996 79.6498C120.27 79.193 121.001 78.9451 123.037 78.4623C125.216 77.9404 125.947 75.4872 126.586 73.3341C127.186 71.2985 127.76 69.3673 129.457 69.4326C131.01 69.4847 133.371 67.0577 135.459 64.9046C137.39 62.9082 139.217 61.0291 140.392 61.0683C140.67 61.077 140.901 61.1944 141.083 61.4206C142.127 62.6602 141.161 64.5393 140.222 66.353C139.413 67.9058 138.656 69.3673 139.152 70.3329C139.765 71.5465 139.844 72.6556 139.4 73.5168C138.865 74.5346 137.625 75.2001 135.707 75.4741C133.959 75.7221 133.763 77.6402 133.567 79.6628C133.332 82.0246 133.071 84.6996 130.135 84.9476C127.943 85.1433 126.482 86.67 125.177 88.0271C124.146 89.0971 123.246 90.0235 122.215 90.0235ZM119.866 88.0401C120.662 89.1493 121.406 89.7234 122.097 89.7756C123.076 89.8539 123.963 88.9274 124.994 87.8444C126.325 86.4612 127.839 84.8954 130.109 84.6996C132.836 84.4647 133.084 82.0116 133.319 79.6367C133.528 77.5097 133.724 75.5133 135.668 75.2262C137.508 74.9652 138.682 74.3519 139.178 73.3994C139.583 72.6034 139.504 71.5856 138.93 70.4504C138.382 69.3673 139.165 67.8537 140 66.2356C140.901 64.5001 141.827 62.6863 140.901 61.5772C140.757 61.4076 140.587 61.3293 140.379 61.3162C139.322 61.2771 137.534 63.1169 135.642 65.0743C133.437 67.3448 131.166 69.6805 129.509 69.6805C129.492 69.6805 129.47 69.6805 129.444 69.6805C127.943 69.6283 127.421 71.3768 126.821 73.3994C126.168 75.6307 125.412 78.1491 123.102 78.7102C121.249 79.1408 120.44 79.3888 120.218 79.7672C120.062 80.0412 120.166 80.4196 120.349 81.0721C120.479 81.5418 120.649 82.129 120.766 82.8989C121.249 85.9262 120.14 87.6617 119.866 88.0401Z" fill="url(#paint2_linear_265_14968)"/>
<path fill-rule="evenodd" clip-rule="evenodd" d="M122.306 89.1755C122.272 89.1755 122.241 89.1755 122.215 89.1755C120.897 89.0581 119.879 86.1612 118.901 83.3688C118.431 82.0509 118 80.7982 117.57 79.9892C117.243 79.3759 116.813 78.7234 116.408 78.0971C115.325 76.4268 114.203 74.6913 114.568 73.1777C114.764 72.3687 115.325 71.7032 116.317 71.1421C118.483 69.8894 118.144 69.1978 117.413 67.645C116.878 66.5228 116.147 64.97 116.121 62.5299C116.108 61.486 116.082 60.5856 116.069 59.7896C115.991 57.219 115.965 55.9272 116.513 55.4574C116.735 55.2748 117.061 55.2226 117.504 55.3009C118.287 55.4574 118.627 56.0838 118.979 56.7493C119.436 57.5974 119.945 58.55 121.497 58.8762C122.959 59.1894 124.368 59.607 124.747 60.5726C125.021 61.2511 124.76 62.1515 123.964 63.3128C123.768 63.5868 123.703 63.8348 123.755 64.0435C123.885 64.5133 124.616 64.8526 125.451 65.244C126.652 65.8051 128.139 66.4967 128.557 67.9321C128.896 69.0934 128.505 70.5418 127.356 72.3556C124.642 76.6487 124.747 79.5716 124.851 82.1422C124.916 84.0473 124.981 85.8481 123.833 87.8576C123.324 88.7449 122.828 89.1755 122.306 89.1755ZM117.126 55.5096C116.93 55.5096 116.787 55.5618 116.669 55.6532C116.213 56.0446 116.252 57.3626 116.317 59.7766C116.33 60.5726 116.356 61.486 116.369 62.5299C116.395 64.9178 117.113 66.4315 117.648 67.5406C118.366 69.0673 118.796 69.9938 116.448 71.3509C115.521 71.8859 114.986 72.4992 114.803 73.2299C114.464 74.6392 115.56 76.3224 116.617 77.9535C117.035 78.5929 117.452 79.2454 117.792 79.8717C118.222 80.6938 118.666 81.9595 119.136 83.2905C120.049 85.8872 121.08 88.8232 122.241 88.9276C122.685 88.9667 123.142 88.5622 123.624 87.7401C124.733 85.7828 124.668 84.0995 124.603 82.1552C124.499 79.5455 124.394 76.5834 127.148 72.2251C128.257 70.4766 128.648 69.0934 128.322 67.9973C127.93 66.6663 126.56 66.027 125.347 65.4659C124.446 65.0483 123.677 64.6829 123.52 64.1088C123.442 63.8217 123.52 63.5085 123.755 63.1693C124.512 62.0732 124.76 61.2642 124.525 60.6639C124.172 59.8027 122.776 59.3982 121.445 59.1241C119.788 58.7718 119.214 57.7149 118.757 56.8667C118.418 56.2273 118.118 55.6793 117.465 55.5488C117.335 55.5227 117.222 55.5096 117.126 55.5096Z" fill="url(#paint3_linear_265_14968)"/>
<path d="M122.333 90.7152L122.085 90.6499C123.416 86.4482 121.015 77.0139 120.297 74.7304C119.945 73.5952 120.271 71.8988 120.584 70.2547C120.989 68.1408 121.419 65.9486 120.336 65.1265C118.327 63.5737 118.431 60.0114 118.444 59.8548L118.692 59.8678C118.692 59.907 118.588 63.4563 120.493 64.9308C121.693 65.8442 121.25 68.1147 120.832 70.3069C120.519 71.9119 120.206 73.5821 120.532 74.6521C121.419 77.4837 123.651 86.5265 122.333 90.7152Z" fill="url(#paint4_linear_265_14968)"/>
<path d="M116.97 68.9758C116.096 73.308 118.758 73.8952 121.419 75.8134C124.068 77.7316 121.419 79.6236 121.289 82.5988C121.145 85.5739 122.268 87.7269 121.08 89.3841C119.893 91.0413 118.901 86.6047 117.44 84.7518C115.978 82.8989 115.391 79.989 113.669 77.8621C111.946 75.7482 107.118 75.0827 109.232 71.7161C111.346 68.3364 109.963 66.2225 109.767 64.2261C109.558 62.2427 111.724 62.0339 112.272 63.4301C113.995 67.8014 117.361 67.0707 116.97 68.9758Z" fill="url(#paint5_linear_265_14968)"/>
<path d="M123.011 89.7626C122.998 89.6843 121.524 80.9546 118.222 78.5667C114.869 76.1266 114.255 73.8692 113.081 68.5583L113.329 68.5061C114.49 73.7517 115.091 75.9831 118.379 78.3579C121.745 80.8111 123.194 89.358 123.259 89.7234L123.011 89.7626Z" fill="white"/>
<path d="M120.036 89.4494C120.689 87.84 120.419 85.887 119.227 83.5904C117.452 80.1456 116.004 80.6806 120.31 78.0317C124.603 75.3828 120.336 67.0446 123.99 65.9746C127.644 64.9176 130.827 51.4252 133.607 53.1346C136.386 54.857 132.68 61.4728 134.664 63.4692C136.647 65.4526 136.908 67.9841 132.811 70.0197C128.701 72.0684 135.721 79.8846 130.162 82.2725C124.603 84.6474 126.195 93.9903 120.036 89.4494Z" fill="#2B7CA5"/>
<path d="M121.732 92.02C121.732 91.9939 121.132 88.8883 123.024 84.8824C124.942 80.7981 125.869 76.3354 125.477 72.9427C125.281 71.1159 126.456 70.3982 127.591 69.6936C128.713 69.015 129.874 68.3104 129.809 66.4966C129.744 64.8655 130.436 61.0292 130.475 60.8596L130.723 60.9117C130.71 60.9509 130.005 64.8786 130.057 66.4836C130.122 68.4409 128.909 69.1847 127.721 69.9154C126.599 70.5939 125.542 71.2464 125.725 72.9166C126.116 76.3615 125.19 80.8633 123.246 84.9867C121.393 88.9144 121.967 91.9417 121.98 91.9678L121.732 92.02Z" fill="white"/>
<path d="M126.234 74.913C127.474 73.7516 129.131 73.582 128.779 75.3045C128.439 77.0269 127.265 77.5227 127.852 78.6058C128.439 79.6758 129.418 80.7588 127.748 82.0898C126.078 83.4208 125.151 83.5643 124.655 86.0697C124.159 88.5751 124.264 90.2975 122.098 90.4019C119.932 90.5063 120.767 87.3485 121.458 85.9262C122.145 84.8388 122.259 83.5861 121.798 82.1681C121.119 80.0281 119.788 78.8668 122.593 78.1491C125.386 77.4184 125.386 75.6959 126.234 74.913Z" fill="white"/>
<path d="M122.254 92.0069C122.241 91.6937 122.097 84.4777 123.454 83.2511C124.824 82.0115 125.098 79.8193 125.124 78.6188C125.177 77.066 127.186 76.1395 127.277 76.1004L127.382 76.3222C127.356 76.3353 125.424 77.2226 125.372 78.6319C125.333 80.1455 124.994 82.2072 123.611 83.4469C122.345 84.5821 122.502 91.9155 122.502 91.9938L122.254 92.0069Z" fill="url(#paint6_linear_265_14968)"/>
<path d="M127.329 89.0579L125.085 97.5527H120.074L117.843 89.0579H127.329Z" fill="url(#paint7_linear_265_14968)"/>
<path d="M127.329 89.0579C124.041 89.6756 122.397 92.5071 122.397 97.5527H120.074L117.843 89.0579H127.329Z" fill="url(#paint8_linear_265_14968)"/>
<path d="M39.0418 67.5797H32.4521V66.8359H39.0418V67.5797Z" fill="#1487E3"/>
<path d="M31.0691 46.2317H20.5518V32.7654H20.7997V45.9838H31.0691V46.2317Z" fill="#78C2FF"/>
<path d="M75.6307 37.3587H75.3828V23.4879H88.7709V11.8092H89.0318V23.7358H75.6307V37.3587Z" fill="#78C2FF"/>
<path d="M118.9 52.8216H104.964V52.5736H118.652V44.4834H118.9V52.8216Z" fill="#78C2FF"/>
<path d="M14.7063 64.0695C14.5062 66.8619 14.6802 68.4278 15.2282 68.767C15.7371 69.0802 17.7727 70.1372 17.7205 70.3329C17.677 70.4634 17.2899 71.0506 16.5592 72.0945C13.9494 70.372 12.6011 69.2411 12.5141 68.7018C12.3836 67.9058 12.7098 62.5689 13.2448 62.3209C13.6493 62.1383 13.8581 62.2948 14.367 62.6733C14.8455 63.0212 14.9586 63.4866 14.7063 64.0695Z" fill="#FF7E55"/>
<path d="M14.2495 94.5515C14.1625 95.117 14.1147 95.4388 14.106 95.5171C14.0973 95.6041 13.6449 95.5824 12.7489 95.4519L12.6445 94.4341C13.6014 94.4341 14.1364 94.4732 14.2495 94.5515Z" fill="#424773"/>
<path d="M14.1183 95.4125C14.4054 95.7518 14.6838 95.9954 14.9534 96.1433C15.371 96.3651 16.0234 96.4565 16.2583 96.6913C16.441 96.861 16.8977 97.5656 15.1883 97.5525C13.4789 97.5395 12.6569 97.6569 12.4742 97.3829C12.3524 97.2002 12.4394 96.526 12.7352 95.3604C13.0048 95.456 13.4659 95.4734 14.1183 95.4125Z" fill="#292C47"/>
<path d="M20.9693 94.5515C20.8823 95.117 20.8344 95.4388 20.8257 95.5171C20.817 95.6041 20.3647 95.5824 19.4686 95.4519L19.3643 94.4341C20.3212 94.4341 20.8562 94.4732 20.9693 94.5515Z" fill="#424773"/>
<path d="M20.839 95.4127C21.1261 95.7519 21.4045 95.9955 21.6742 96.1434C22.0917 96.3652 23.6054 96.5479 23.8533 96.7828C24.0229 96.9524 24.31 97.6179 21.909 97.5527C20.1996 97.5135 19.3776 97.6571 19.1949 97.383C19.0731 97.2004 19.1601 96.5262 19.4559 95.3605C19.7168 95.4649 20.1779 95.4823 20.839 95.4127Z" fill="#292C47"/>
<path d="M17.8113 77.7054C17.746 78.4101 16.1932 84.8562 15.8279 85.7565C15.5756 86.3481 15.1885 89.5015 14.6665 95.2169L12.4743 95.243C12.4308 92.4071 12.4178 90.615 12.4352 89.8669C12.4743 88.7317 13.0485 84.3473 13.2573 82.2334C13.453 80.3413 13.6487 78.4101 13.5574 76.5963C13.4965 75.3871 13.888 74.1127 14.7318 72.773C16.8196 75.5828 17.8461 77.227 17.8113 77.7054Z" fill="#292C47"/>
<path d="M21.374 73.047C21.7046 76.3352 21.909 78.3491 21.9873 79.0885C22.1178 80.1977 22.0264 84.9996 22.0917 85.6912C22.1569 86.3828 21.6741 93.7162 21.5567 95.1124L19.1557 95.0994C19.0426 91.1413 18.9861 88.2009 18.9861 86.2784C18.9861 83.4077 18.2423 80.0542 17.3941 78.149C16.5459 76.2439 14.6147 76.2048 14.0928 72.6685C18.4772 72.1727 20.9042 72.2988 21.374 73.047Z" fill="#292C47"/>
<path d="M16.0631 55.8749C17.0635 55.2051 17.916 55.2312 18.6206 55.9532C19.6776 57.0232 20.1995 59.5547 19.4296 60.0505C18.6728 60.5594 17.394 60.6899 16.7807 60.0114C16.1674 59.3198 15.515 58.2759 15.3584 57.519C15.2018 56.7492 15.6846 56.2011 16.0631 55.8749Z" fill="#EEA886"/>
<path d="M18.9211 60.2332C18.9124 60.9291 18.9472 61.3554 19.0254 61.5119C19.1037 61.6598 18.373 61.7338 16.8333 61.7338C16.7028 60.9247 16.5201 60.1723 16.2852 59.4763C16.0503 58.7891 16.9289 59.0414 18.9211 60.2332Z" fill="#EEA886"/>
<path d="M15.1624 57.2711C14.9797 56.6883 15.3755 56.1315 16.3498 55.6009C18.2158 54.4134 19.5077 56.3577 19.1945 56.7622C18.9857 57.0232 19.0248 57.3842 19.3119 57.8453L19.0248 57.8975L18.803 57.6887C18.8291 57.7931 18.7595 57.8974 18.5942 58.0018C18.3463 58.1584 17.7722 59.1893 17.1719 59.4372C16.7631 59.6025 16.4847 59.6112 16.3368 59.4633C15.8931 59.0979 15.4234 58.1454 15.1624 57.2711Z" fill="#754836"/>
<path d="M16.5596 61.3814V60.8725C16.8075 60.7812 18.7648 60.9639 18.9605 61.0161C19.091 61.0422 19.1563 61.1987 19.1563 61.4858C17.7383 61.5989 16.8727 61.5641 16.5596 61.3814Z" fill="#E2D2CA"/>
<path d="M18.7643 58.315C18.5686 58.4064 18.0597 57.8844 18.0988 57.3886C18.138 56.9058 18.6208 57.245 18.686 57.3755C18.8687 57.7409 18.947 58.2106 18.7643 58.315Z" fill="#EEA886"/>
<path d="M15.6184 56.1357C14.1918 56.5185 14.4049 57.6016 16.2578 59.3849L15.6184 56.1357Z" fill="#754836"/>
<path d="M34.8534 67.7884C34.8273 67.8798 33.1571 68.5322 32.609 68.493C32.3915 68.4757 31.9 68.4148 31.1345 68.3104L30.4951 67.7232L31.1867 67.423C31.4868 67.3187 31.8652 67.3448 32.1001 67.3317C32.348 67.3056 32.9744 67.0185 33.0657 67.149C33.144 67.2404 32.8308 67.4361 32.6482 67.5405L34.8404 67.5666C34.8839 67.5927 34.8882 67.6666 34.8534 67.7884Z" fill="#EEA886"/>
<path d="M24.9232 65.8571C25.7496 66.7793 26.2933 67.236 26.5543 67.2273C27.4808 67.1751 31.2258 67.3577 31.3302 67.3969C31.4476 67.436 31.6564 68.493 31.6172 68.5452C31.565 68.6496 28.6682 68.8584 27.6112 68.9627C27.1284 69.0149 25.4843 69.2498 24.8188 68.8714C23.8793 68.3364 21.9481 66.6531 21.6088 66.2095C21.4609 68.0624 21.4044 69.1889 21.4392 69.5891C21.4783 69.9805 22.3656 77.5619 22.3395 77.7707C22.3134 77.9795 17.8899 78.2535 16.1153 78.0577C14.9322 77.9273 13.997 77.7576 13.3098 77.5488C13.9535 73.843 14.2623 71.7682 14.2362 71.3246C14.1667 70.3677 13.984 68.8062 13.6882 66.6401L12.9053 64.9959C13.1532 64.4479 13.1532 62.3601 13.2445 62.3209C13.8709 62.0425 14.9757 61.7294 16.5589 61.3814L19.1556 61.4858C20.1386 61.7207 21.0912 61.9164 22.0133 62.073C22.5266 62.3079 23.4965 63.5693 24.9232 65.8571Z" fill="#FF7E55"/>
<path d="M6.05469 51.5947H12.9183V56.5533V57.6102L11.8744 56.5533H6.05469V51.5947Z" fill="#FFCB55"/>
<path fill-rule="evenodd" clip-rule="evenodd" d="M116.513 35.7667H109.845V29.0988H116.513V35.7667ZM110.067 35.5449H116.291V29.3336H110.067V35.5449Z" fill="#6AAFE8"/>
<path fill-rule="evenodd" clip-rule="evenodd" d="M133.097 31.552H117.843V29.9209H133.097V31.552ZM118.065 31.3302H132.875V30.1427H118.065V31.3302Z" fill="#6AAFE8"/>
<path fill-rule="evenodd" clip-rule="evenodd" d="M133.098 39.1204H109.845V37.4893H133.098V39.1204ZM110.067 38.8985H132.876V37.7111H110.067V38.8985Z" fill="#6AAFE8"/>
<path fill-rule="evenodd" clip-rule="evenodd" d="M124.655 42.2519H109.845V40.6208H124.655V42.2519ZM110.067 42.0301H124.433V40.8427H110.067V42.0301Z" fill="#6AAFE8"/>
<path fill-rule="evenodd" clip-rule="evenodd" d="M128.177 34.6575H117.843V33.0264H128.177V34.6575ZM118.065 34.4356H127.956V33.2482H118.065V34.4356Z" fill="#6AAFE8"/>
<path fill-rule="evenodd" clip-rule="evenodd" d="M135.747 45.7881H107.209V25.5625H135.747V45.7881ZM107.431 45.5663H135.525V25.7713H107.431V45.5663Z" fill="#6AAFE8"/>
<path d="M97.1348 16.4936H95.0078V16.2457H96.8868V14.3667H97.1348V16.4936Z" fill="#6AAFE8"/>
<path d="M82.7806 16.4936H80.6406V14.3667H80.8886V16.2457H82.7806V16.4936Z" fill="#6AAFE8"/>
<path d="M80.8886 2.14H80.6406V0H82.7806V0.247927H80.8886V2.14Z" fill="#6AAFE8"/>
<path d="M97.1348 2.14H96.8868V0.247927H95.0078V0H97.1348V2.14Z" fill="#6AAFE8"/>
<path d="M97.1356 11.1698H96.8877V5.32397H97.1356V11.1698Z" fill="#6AAFE8"/>
<path d="M80.8886 11.1698H80.6406V5.32397H80.8886V11.1698Z" fill="#6AAFE8"/>
<path fill-rule="evenodd" clip-rule="evenodd" d="M20.6693 32.8959C20.1734 32.8959 19.7559 32.4914 19.7559 31.9825C19.7559 31.4736 20.1734 31.0691 20.6693 31.0691C21.1782 31.0691 21.5827 31.4736 21.5827 31.9825C21.5827 32.4914 21.1782 32.8959 20.6693 32.8959ZM20.6693 31.317C20.3039 31.317 20.0038 31.6171 20.0038 31.9825C20.0038 32.3479 20.3039 32.648 20.6693 32.648C21.0346 32.648 21.3348 32.3479 21.3348 31.9825C21.3348 31.6171 21.0346 31.317 20.6693 31.317Z" fill="#78C2FF"/>
<path fill-rule="evenodd" clip-rule="evenodd" d="M88.9017 11.9267C88.3928 11.9267 87.9883 11.5222 87.9883 11.0133C87.9883 10.5174 88.3928 10.0999 88.9017 10.0999C89.4106 10.0999 89.8151 10.5174 89.8151 11.0133C89.8151 11.5222 89.4106 11.9267 88.9017 11.9267ZM88.9017 10.3478C88.5363 10.3478 88.2362 10.6479 88.2362 11.0133C88.2362 11.3917 88.5363 11.6788 88.9017 11.6788C89.2671 11.6788 89.5672 11.3917 89.5672 11.0133C89.5672 10.6479 89.2671 10.3478 88.9017 10.3478Z" fill="#78C2FF"/>
<path fill-rule="evenodd" clip-rule="evenodd" d="M118.784 44.653C118.275 44.653 117.87 44.2354 117.87 43.7396C117.87 43.2307 118.275 42.8262 118.784 42.8262C119.279 42.8262 119.697 43.2307 119.697 43.7396C119.697 44.2354 119.279 44.653 118.784 44.653ZM118.784 43.0741C118.418 43.0741 118.118 43.3742 118.118 43.7396C118.118 44.105 118.418 44.4051 118.784 44.4051C119.149 44.4051 119.449 44.105 119.449 43.7396C119.449 43.3742 119.149 43.0741 118.784 43.0741Z" fill="#78C2FF"/>
<path fill-rule="evenodd" clip-rule="evenodd" d="M26.7364 7.51609H20.46V1.23962H26.7364V7.51609ZM20.7079 7.26816H26.4885V1.48755H20.7079V7.26816Z" fill="#A1D4FF"/>
<path d="M23.7225 5.8719H23.4746V2.94897H23.7225V5.8719Z" fill="#A1D4FF"/>
<path d="M25.0538 4.5409H22.1309V4.29297H25.0538V4.5409Z" fill="#A1D4FF"/>
<path fill-rule="evenodd" clip-rule="evenodd" d="M122.358 15.0844H113.381V8.67749H122.358V15.0844ZM113.629 14.8365H122.097V8.93847H113.629V14.8365Z" fill="#A1D4FF"/>
<path d="M117.869 12.553L113.433 8.89934L113.589 8.70361L117.869 12.2398L122.149 8.70361L122.306 8.89934L117.869 12.553Z" fill="#A1D4FF"/>
<path d="M122.136 15.0452L118.913 11.6525L119.096 11.4829L122.319 14.8756L122.136 15.0452Z" fill="#A1D4FF"/>
<path d="M113.603 15.0452L113.42 14.8756L116.643 11.4829L116.813 11.6525L113.603 15.0452Z" fill="#A1D4FF"/>
<path fill-rule="evenodd" clip-rule="evenodd" d="M42.3958 21.5174L42.3044 21.2695C42.2174 21.2608 42.1348 21.2434 42.0565 21.2173L41.8608 21.387L41.3127 20.9955L41.4171 20.7606C41.3649 20.691 41.3214 20.6214 41.2866 20.5518L41.0256 20.5388L40.9082 19.8733L41.1561 19.782C41.1648 19.695 41.1822 19.6123 41.2083 19.534L41.0256 19.3383L41.4302 18.7903L41.665 18.8946C41.7346 18.8425 41.8042 18.799 41.8738 18.7642L41.8869 18.5032L42.5524 18.3857L42.6437 18.6337C42.7307 18.6424 42.8133 18.6598 42.8916 18.6859L43.0873 18.5032L43.6354 18.9077L43.531 19.1426C43.5832 19.2122 43.6267 19.2818 43.6615 19.3514L43.9225 19.3644L44.0399 20.0299L43.792 20.1212C43.7833 20.2082 43.7659 20.2909 43.7398 20.3692L43.9094 20.5649L43.518 21.1129L43.2831 21.0085C43.2135 21.0607 43.1439 21.1042 43.0743 21.139L43.0613 21.4L42.3958 21.5174ZM42.0173 21.0085L42.0695 21.0216C42.1652 21.0651 42.2696 21.0912 42.3827 21.0999H42.4349L42.5132 21.3087L42.8786 21.2434L42.8916 21.0216L42.9438 20.9955C43.0395 20.952 43.1308 20.8955 43.2178 20.8259L43.257 20.7998L43.4658 20.8911L43.6745 20.5779L43.518 20.4214L43.5441 20.3692C43.5789 20.2648 43.6049 20.1604 43.6223 20.056V19.9907L43.8311 19.9125L43.7659 19.5471H43.5441L43.518 19.4949C43.4745 19.3905 43.4179 19.2992 43.3483 19.2209L43.3092 19.1687L43.4005 18.9729L43.1004 18.7511L42.9438 18.9077L42.8786 18.8816C42.7829 18.8468 42.6828 18.8251 42.5784 18.8164H42.5132L42.4349 18.6076L42.0695 18.6598L42.0565 18.8816L42.0043 18.9077C41.9086 18.9512 41.8216 19.0077 41.7433 19.0773L41.6911 19.1165L41.4954 19.0251L41.2736 19.3253L41.4302 19.4949L41.4041 19.5471C41.3693 19.6428 41.3475 19.7472 41.3388 19.8603L41.3258 19.9125L41.117 19.9907L41.1822 20.3561L41.4041 20.3692L41.4302 20.4214C41.4737 20.517 41.5302 20.6084 41.5998 20.6954L41.6389 20.7345L41.5476 20.9433L41.8477 21.1521L42.0173 21.0085ZM42.4871 20.7084C42.3305 20.7084 42.187 20.6562 42.0565 20.5649C41.7303 20.33 41.652 19.8733 41.8869 19.534C42.1217 19.2078 42.5784 19.1295 42.9047 19.3644C43.0743 19.4818 43.1787 19.6515 43.2048 19.8472C43.2439 20.0429 43.1917 20.2256 43.0873 20.3953C42.9699 20.5518 42.8003 20.6562 42.6045 20.6954C42.561 20.7041 42.5219 20.7084 42.4871 20.7084ZM42.4871 19.4166C42.3175 19.4166 42.1478 19.4949 42.0304 19.6515C41.9521 19.7689 41.913 19.9124 41.9391 20.056C41.9652 20.1995 42.0434 20.33 42.1609 20.4083C42.2783 20.4996 42.4349 20.5388 42.5784 20.5127C42.722 20.4866 42.8525 20.4083 42.9308 20.2778C43.0221 20.1604 43.0482 20.0168 43.0221 19.8733C42.996 19.7298 42.9177 19.5993 42.8003 19.521C42.7089 19.4427 42.5915 19.4166 42.4871 19.4166Z" fill="#A1D4FF"/>
<path fill-rule="evenodd" clip-rule="evenodd" d="M37.2146 22.3005L37.0058 21.7525C36.7796 21.7264 36.5622 21.6742 36.3534 21.5959L35.9228 22.0004L34.7745 21.1783L35.0094 20.6433C34.8702 20.4693 34.7527 20.2823 34.657 20.0822L34.0698 20.0561L33.835 18.6599L34.383 18.4511C34.4004 18.2249 34.4483 18.0075 34.5265 17.7987L34.1351 17.3811L34.9441 16.2198L35.4791 16.4547C35.6531 16.3155 35.8445 16.198 36.0533 16.1023L36.0663 15.5151L37.4625 15.2803L37.6713 15.8283C37.8975 15.8544 38.115 15.9066 38.3237 15.9849L38.7544 15.5804L39.9026 16.4025L39.6678 16.9375C39.807 17.1115 39.9244 17.2985 40.0201 17.4986L40.6073 17.5247L40.8422 18.9209L40.2941 19.1297C40.268 19.3471 40.2202 19.5646 40.1506 19.7821L40.542 20.1997L39.72 21.361L39.198 21.1261C39.0153 21.2653 38.8239 21.3828 38.6239 21.4784L38.6108 22.0656L37.2146 22.3005ZM36.2881 21.3088L36.3664 21.3349C36.6013 21.4306 36.8449 21.4871 37.0972 21.5045L37.1754 21.5176L37.3712 22.0134L38.3629 21.8438L38.3759 21.3088L38.4542 21.2827C38.6891 21.1783 38.9022 21.0435 39.0936 20.8782L39.1589 20.826L39.6417 21.0478L40.2289 20.2258L39.8635 19.8343L39.8896 19.7691C39.9766 19.5255 40.0331 19.2775 40.0592 19.0253V18.947L40.5681 18.7512L40.3985 17.7595L39.8635 17.7465L39.8243 17.6812C39.72 17.4464 39.5895 17.2289 39.4329 17.0288L39.3807 16.9766L39.5895 16.4808L38.7674 15.9066L38.389 16.272L38.3107 16.2328C38.0758 16.1458 37.8322 16.0936 37.58 16.0762L37.5017 16.0632L37.3059 15.5673L36.3142 15.737L36.2881 16.272L36.2229 16.2981C35.988 16.4025 35.7749 16.5373 35.5835 16.7026L35.5183 16.7548L35.0355 16.533L34.4483 17.355L34.8136 17.7465L34.7875 17.8117C34.7005 18.0553 34.644 18.3032 34.6179 18.5555L34.6048 18.6338L34.109 18.8165L34.2786 19.8212L34.8136 19.8343L34.8397 19.8995C34.9441 20.1344 35.0789 20.3519 35.2442 20.552L35.2964 20.6042L35.0746 21.087L35.8967 21.6742L36.2881 21.3088ZM37.332 20.3954C37.0189 20.3954 36.6926 20.3041 36.4056 20.0953C35.6879 19.5864 35.5183 18.5816 36.0272 17.8509C36.5491 17.1332 37.5539 16.9636 38.2715 17.4725C39.0023 17.9944 39.1719 18.9992 38.65 19.7169C38.3368 20.1605 37.8409 20.3954 37.332 20.3954ZM37.3451 17.4333C36.9145 17.4333 36.4969 17.6291 36.2359 17.9944C36.0141 18.2945 35.9358 18.6599 36.0011 19.0122C36.0533 19.3776 36.249 19.6908 36.5491 19.8995C37.1624 20.3302 38.0106 20.1866 38.4542 19.5733C38.663 19.2862 38.7413 18.9209 38.6761 18.5686C38.6239 18.2032 38.4281 17.89 38.128 17.6812C37.8931 17.5116 37.6191 17.4333 37.3451 17.4333Z" fill="#A1D4FF"/>
<path fill-rule="evenodd" clip-rule="evenodd" d="M4.64536 23.6052C2.0878 23.6052 0 21.5174 0 18.9598H0.247927C0.247927 21.3869 2.21829 23.3573 4.64536 23.3573C7.05939 23.3573 9.0428 21.3869 9.0428 18.9598C9.0428 16.5327 7.05939 14.5624 4.64536 14.5624V14.3145C7.20293 14.3145 9.29073 16.4023 9.29073 18.9598C9.29073 21.5174 7.20293 23.6052 4.64536 23.6052ZM4.64536 22.9527C2.44012 22.9527 0.63939 21.1651 0.63939 18.9598C0.63939 16.7546 2.44012 14.9669 4.64536 14.9669C6.85061 14.9669 8.63829 16.7546 8.63829 18.9598H8.39036C8.39036 16.8981 6.70707 15.2148 4.64536 15.2148C2.57061 15.2148 0.887316 16.8981 0.887316 18.9598C0.887316 21.0215 2.57061 22.7048 4.64536 22.7048V22.9527Z" fill="#78C2FF"/>
<path d="M4.07063 20.4996L2.40039 18.8294L2.57003 18.6467L4.07063 20.1473L6.70649 17.5115L6.88917 17.6811L4.07063 20.4996Z" fill="#78C2FF"/>
<path d="M110.419 104.756H67.658H24.4404L32.1523 75.8917H67.4362H102.707L110.419 104.756Z" fill="#104DBE"/>
<path d="M34.8265 80.9546H39.1587C39.3414 80.9546 39.4719 81.0981 39.4458 81.2547L39.0282 83.1337C39.0021 83.2512 38.8847 83.3295 38.7411 83.3295H34.3307C34.148 83.3295 34.0044 83.1859 34.0436 83.0293L34.5394 81.1503C34.5786 81.0329 34.683 80.9546 34.8265 80.9546Z" fill="white"/>
<path d="M41.1433 80.9546H44.4186L43.9879 83.3295H40.6475L41.1433 80.9546Z" fill="white"/>
<path d="M46.0617 80.9546H49.337L48.9977 83.3295L45.6572 83.3425L46.0617 80.9546Z" fill="white"/>
<path d="M50.9811 80.9546H54.2564L54.0085 83.3295H50.668L50.9811 80.9546Z" fill="white"/>
<path d="M55.8875 80.9546H59.1758L59.0192 83.3295H55.6787L55.8875 80.9546Z" fill="white"/>
<path d="M60.8069 80.9546H64.0821L64.0169 83.3295L60.6895 83.3425L60.8069 80.9546Z" fill="white"/>
<path d="M100.763 83.3295H95.7524L95.2305 80.9546H100.137L100.763 83.3295Z" fill="white"/>
<path d="M94.0816 83.3295H90.7412L90.3105 80.9546H93.5858L94.0816 83.3295Z" fill="white"/>
<path d="M89.0714 83.3425L85.7439 83.3295L85.3916 80.9546H88.6668L89.0714 83.3425Z" fill="white"/>
<path d="M84.0738 83.3295H80.7333L80.4854 80.9546H83.7606L84.0738 83.3295Z" fill="white"/>
<path d="M79.0625 83.3295H75.722L75.5654 80.9546H78.8407L79.0625 83.3295Z" fill="white"/>
<path d="M74.0522 83.3425L70.7117 83.3295L70.6465 80.9546H73.9217L74.0522 83.3425Z" fill="white"/>
<path d="M65.7266 80.9546H69.0018L69.054 83.3295H65.7266V80.9546Z" fill="white"/>
<path d="M33.378 85.1042H40.2287L39.8372 87.5574H32.8691L33.378 85.1042Z" fill="white"/>
<path d="M101.845 87.5574H93.2328L92.75 85.1042H101.206L101.845 87.5574Z" fill="white"/>
<path d="M91.4975 87.5574H88.0526L87.6611 85.1042H91.0538L91.4975 87.5574Z" fill="white"/>
<path d="M86.3309 87.5574H82.873L82.5859 85.1042H85.9786L86.3309 87.5574Z" fill="white"/>
<path d="M81.1504 87.5574H77.7055L77.5098 85.1042H80.9024L81.1504 87.5574Z" fill="white"/>
<path d="M75.9829 87.5574H72.5249L72.4336 85.1042H75.8132L75.9829 87.5574Z" fill="white"/>
<path d="M32.3601 89.4754H39.3542L38.8453 91.9155H31.7207L32.3601 89.4754Z" fill="white"/>
<path d="M41.1166 89.4754H44.6137L44.1961 91.9155H40.6338L41.1166 89.4754Z" fill="white"/>
<path d="M46.3628 89.4754H49.8599H72.6039L72.7083 91.9155H45.9844L46.3628 89.4754Z" fill="white"/>
<path d="M74.3652 89.4754H77.8623L78.058 91.9155H74.4957L74.3652 89.4754Z" fill="white"/>
<path d="M79.6104 89.4754H83.1074L83.3945 91.9155H79.8322L79.6104 89.4754Z" fill="white"/>
<path d="M84.8564 89.4754H88.3666L88.745 91.9155H85.1827L84.8564 89.4754Z" fill="white"/>
<path d="M90.1152 89.4754H93.6123L94.0951 91.9155H90.5328L90.1152 89.4754Z" fill="white"/>
<path d="M95.3604 89.4754H102.368L103.007 91.9155H95.8692L95.3604 89.4754Z" fill="white"/>
<path d="M70.8156 87.5574H67.3838V85.1042H70.7504L70.8156 87.5574Z" fill="white"/>
<path d="M65.6353 87.5574H62.1904L62.2818 85.1042H65.6745L65.6353 87.5574Z" fill="white"/>
<path d="M60.4677 87.5574H57.0098L57.2055 85.1042H60.5851L60.4677 87.5574Z" fill="white"/>
<path d="M55.2876 87.5574H51.8428L52.1298 85.1042H55.5095L55.2876 87.5574Z" fill="white"/>
<path d="M50.107 87.5574H46.6621L47.0536 85.1042H50.4332L50.107 87.5574Z" fill="white"/>
<path d="M44.9403 87.5574H41.4824L41.9652 85.1042H45.3579L44.9403 87.5574Z" fill="white"/>
<path d="M34.9834 79.467L35.5445 77.3401H37.1364L36.6145 79.467H34.9834Z" fill="white"/>
<path d="M38.7286 77.3401H41.8995L41.4558 79.467H38.2197L38.7286 77.3401Z" fill="white"/>
<path d="M43.4918 77.3401H46.6757L46.3234 79.467H43.0742L43.4918 77.3401Z" fill="white"/>
<path d="M48.2676 77.3401H51.4515L51.1775 79.467H47.9414L48.2676 77.3401Z" fill="white"/>
<path d="M53.0438 77.3401H56.2277L56.032 79.467H52.7959L53.0438 77.3401Z" fill="white"/>
<path d="M57.819 77.3401H61.0029L60.8855 79.467H57.6494L57.819 77.3401Z" fill="white"/>
<path d="M62.5952 77.3401H65.7661L65.74 79.467H62.5039L62.5952 77.3401Z" fill="white"/>
<path d="M67.3574 77.3401H70.5413L70.5935 79.467H67.3574V77.3401Z" fill="white"/>
<path d="M72.1338 77.3401H75.3177L75.4612 79.467H72.2121L72.1338 77.3401Z" fill="white"/>
<path d="M76.9092 77.3401H80.0931L80.3149 79.467H77.0788L76.9092 77.3401Z" fill="white"/>
<path d="M81.6855 77.3401H84.8564L85.1696 79.467H81.9335L81.6855 77.3401Z" fill="white"/>
<path d="M86.4482 77.3401H89.6321L90.0236 79.467H86.7875L86.4482 77.3401Z" fill="white"/>
<path d="M91.2246 77.3401H94.4085L94.8783 79.467H91.6422L91.2246 77.3401Z" fill="white"/>
<path d="M96 77.3401H99.1839L99.732 79.467H96.4959L96 77.3401Z" fill="white"/>
<path d="M108.174 107H26.6848C25.4452 107 24.4404 105.995 24.4404 104.756H110.419C110.419 105.995 109.414 107 108.174 107Z" fill="#0C3684"/>
<path d="M78.5407 102.198C78.6451 102.837 78.1623 103.424 77.5098 103.424H67.4362H57.3495C56.7101 103.424 56.2142 102.837 56.3186 102.198L57.4408 95.4255C57.5191 94.9166 57.9628 94.5513 58.4717 94.5513H67.4362H76.3876C76.9096 94.5513 77.3402 94.9166 77.4315 95.4255L78.5407 102.198Z" fill="#4D78EB"/>
<path d="M46.3363 37.8805H39.042V37.1367H46.3363V37.8805Z" fill="#E0E0E0"/>
<path d="M53.6434 43.5045H48.3848V42.7607H53.6434V43.5045Z" fill="#E0E0E0"/>
<path d="M57.9629 43.5045H54.4658V42.7607H57.9629V43.5045Z" fill="#1487E3"/>
<path d="M42.6168 57.6495H39.1328V56.9058H42.6168V57.6495Z" fill="#1487E3"/>
<path d="M67.0838 43.5045H58.6543V42.7607H67.0838V43.5045Z" fill="#E0E0E0"/>
<path d="M44.5481 54.818H39.1328V54.0742H44.5481V54.818Z" fill="#E0E0E0"/>
<path d="M49.9898 60.455H46.6885V59.7112H49.9898V60.455Z" fill="#E0E0E0"/>
<path d="M45.6833 60.455H39.1328V59.7112H45.6833V60.455Z" fill="#1487E3"/>
<path d="M42.7473 63.2735H39.1328V62.5167H42.7473V63.2735Z" fill="#E0E0E0"/>
<path d="M52.9392 37.8805H47.7588V37.1367H52.9392V37.8805Z" fill="#78C2FF"/>
<path d="M52.9392 46.3232H47.7588V45.5664H52.9392V46.3232Z" fill="#1487E3"/>
<path d="M47.381 49.1285H45.1758V48.3848H47.381V49.1285Z" fill="#E0E0E0"/>
<path d="M47.9286 51.9865H42.957V51.2427H47.9286V51.9865Z" fill="#78C2FF"/>
<path d="M55.5355 51.9865H48.6719V51.2427H55.5355V51.9865Z" fill="#1487E3"/>
<path d="M44.3001 49.1547H39.1328V48.4109H44.3001V49.1547Z" fill="#1487E3"/>
<path d="M42.1993 51.9865H39.1328V51.2427H42.1993V51.9865Z" fill="#1487E3"/>
<path d="M51.3216 49.1547H48.4248V48.4109H51.3216V49.1547Z" fill="#FF8761"/>
<path d="M42.1087 66.079H39.2119V65.3352H42.1087V66.079Z" fill="#FF8761"/>
<path d="M44.2878 43.5045H39.1074V42.7607H44.2878V43.5045Z" fill="#78C2FF"/>
<path d="M48.8679 57.6495H43.6875V56.9058H48.8679V57.6495Z" fill="#78C2FF"/>
<path d="M48.9333 63.2735H43.7529V62.5167H48.9333V63.2735Z" fill="#78C2FF"/>
<path d="M58.1185 63.2735H52.9512V62.5167H58.1185V63.2735Z" fill="#78C2FF"/>
<path d="M46.493 46.3232H39.1074V45.5664H46.493V46.3232Z" fill="#78C2FF"/>
<path d="M78.8669 37.8805H73.6865V37.1367H78.8669V37.8805Z" fill="#78C2FF"/>
<path d="M60.4284 66.079H55.248V65.3352H60.4284V66.079Z" fill="#78C2FF"/>
<path d="M83.9427 37.8805H80.4717V37.1367H83.9427V37.8805Z" fill="#78C2FF"/>
<path d="M95.6741 40.6991H92.2031V39.9553H95.6741V40.6991Z" fill="#78C2FF"/>
<path d="M60.9249 37.8805H54.3223V37.1367H60.9249V37.8805Z" fill="#1487E3"/>
<path d="M86.618 40.6991H80.0283V39.9553H86.618V40.6991Z" fill="#1487E3"/>
<path d="M78.5281 43.5045H71.9385V42.7607H78.5281V43.5045Z" fill="#1487E3"/>
<path d="M69.9412 46.3232H63.3516V45.5664H69.9412V46.3232Z" fill="#1487E3"/>
<path d="M84.0468 43.5045H79.3623V42.7607H84.0468V43.5045Z" fill="#78C2FF"/>
<path d="M72.3943 37.8805H65.8047V37.1367H72.3943V37.8805Z" fill="#FF8761"/>
<path d="M62.1378 46.3232H58.2754V45.5664H62.1378V46.3232Z" fill="#FF8761"/>
<path d="M59.1105 57.6886H55.248V56.9448H59.1105V57.6886Z" fill="#FF8761"/>
<path d="M64.5517 37.8805H62.1377V37.1367H64.5517V37.8805Z" fill="#E0E0E0"/>
<path d="M56.7363 46.3232H54.3223V45.5664H56.7363V46.3232Z" fill="#E0E0E0"/>
<path d="M90.624 40.6991H88.21V39.9553H90.624V40.6991Z" fill="#E0E0E0"/>
<path d="M42.8261 40.6991H39.042V39.9553H42.8261V40.6991Z" fill="#1487E3"/>
<path d="M52.104 54.8309H49.1289V54.0872H52.104V54.8309Z" fill="#1487E3"/>
<path d="M44.9665 40.6991H43.7529V39.9553H44.9665V40.6991Z" fill="#1487E3"/>
<path d="M78.8676 40.6991H68.7939V39.9553H78.8676V40.6991Z" fill="#E0E0E0"/>
<path d="M69.1971 63.2735H59.1104V62.5167H69.1971V63.2735Z" fill="#E0E0E0"/>
<path d="M47.1058 40.6991H45.8662V39.9553H47.1058V40.6991Z" fill="#FF8761"/>
<path d="M67.8531 40.6991H64.5518V39.9553H67.8531V40.6991Z" fill="#1487E3"/>
<path d="M71.1549 43.5045H67.8535V42.7607H71.1549V43.5045Z" fill="#FF8761"/>
<path d="M54.1916 66.079H50.9033V65.3352H54.1916V66.079Z" fill="#FF8761"/>
<path d="M63.6911 40.6991H56.6709V39.9553H63.6911V40.6991Z" fill="#1487E3"/>
<path d="M54.2301 57.6886H50.1328V56.9448H54.2301V57.6886Z" fill="#1487E3"/>
<path d="M51.9207 63.2735H49.8721V62.5167H51.9207V63.2735Z" fill="#1487E3"/>
<path d="M55.666 40.6991H53.252V39.9553H55.666V40.6991Z" fill="#78C2FF"/>
<path d="M47.5498 43.5045H45.1357V42.7607H47.5498V43.5045Z" fill="#FF8761"/>
<path d="M48.0322 54.8309H45.6182V54.0872H48.0322V54.8309Z" fill="#FF8761"/>
<path d="M52.3384 40.6991H48.1367V39.9553H52.3384V40.6991Z" fill="#1487E3"/>
<g opacity="0.8">
<path opacity="0.8" d="M109.727 69.7457H79.2187C78.6446 69.7457 78.1748 69.276 78.1748 68.7018V47.5498C78.1748 46.9756 78.6446 46.5059 79.2187 46.5059H109.727C110.301 46.5059 110.771 46.9756 110.771 47.5498V68.7018C110.771 69.276 110.301 69.7457 109.727 69.7457Z" fill="white"/>
</g>
<path d="M107.248 60.0766H102.002C101.78 60.0766 101.598 59.907 101.598 59.6852V58.8761C101.598 58.6543 101.78 58.4716 102.002 58.4716H107.248C107.47 58.4716 107.652 58.6543 107.652 58.8761V59.6852C107.652 59.907 107.47 60.0766 107.248 60.0766Z" fill="#4AAFFF"/>
<path d="M107.248 63.1039H102.002C101.78 63.1039 101.598 62.9213 101.598 62.6994V61.8904C101.598 61.6686 101.78 61.4859 102.002 61.4859H107.248C107.47 61.4859 107.652 61.6686 107.652 61.8904V62.6994C107.652 62.9213 107.47 63.1039 107.248 63.1039Z" fill="#4AAFFF"/>
<path d="M107.248 66.1312H102.002C101.78 66.1312 101.598 65.9485 101.598 65.7267V64.9177C101.598 64.6959 101.78 64.5132 102.002 64.5132H107.248C107.47 64.5132 107.652 64.6959 107.652 64.9177V65.7267C107.652 65.9485 107.47 66.1312 107.248 66.1312Z" fill="#4AAFFF"/>
<path fill-rule="evenodd" clip-rule="evenodd" d="M93.2206 66.3661C89.6061 67.671 85.6914 66.4966 83.3427 63.7302C82.7816 63.0648 82.2987 62.321 81.9464 61.4858C81.8681 61.3032 81.7942 61.1161 81.7246 60.9248C81.033 59.0066 81.0461 57.0101 81.6072 55.2094C82.4162 52.6127 84.3996 50.4074 87.1659 49.4288C88.0794 49.1026 89.0058 48.9329 89.9192 48.8938C93.7164 48.7894 97.3179 51.099 98.6619 54.8701C100.345 59.5416 97.9051 64.6958 93.2206 66.3661ZM96.548 55.6269C95.5302 52.7954 92.8422 51.0599 89.9975 51.1512C89.3059 51.1773 88.6013 51.2947 87.9228 51.5427C85.848 52.2865 84.3605 53.9306 83.7602 55.8879C83.3296 57.2319 83.3296 58.7326 83.8385 60.1679C83.8907 60.3071 83.9472 60.4463 84.0081 60.5855C84.2822 61.2118 84.6345 61.7729 85.052 62.2688C86.8136 64.3435 89.7496 65.2178 92.4637 64.2522C95.9739 62.9995 97.8007 59.1371 96.548 55.6269Z" fill="#4AAFFF"/>
<path d="M83.7605 55.8879L81.6074 55.2094C82.4164 52.6127 84.3999 50.4075 87.1662 49.4288C88.0796 49.1026 89.0061 48.9329 89.9195 48.8938L89.9978 51.1512C89.3062 51.1773 88.6016 51.2948 87.923 51.5427C85.8483 52.2865 84.3607 53.9306 83.7605 55.8879Z" fill="#1A598C"/>
<path d="M84.0081 60.5856L81.9464 61.4859C81.8681 61.3033 81.7942 61.1162 81.7246 60.9248C81.033 59.0067 81.0461 57.0102 81.6072 55.2095L83.7602 55.888C83.3296 57.232 83.3296 58.7326 83.8385 60.168C83.8907 60.3072 83.9472 60.4464 84.0081 60.5856Z" fill="#2273B5"/>
<path d="M83.3425 63.7303C82.7814 63.0648 82.2986 62.321 81.9463 61.4859L84.008 60.5855C84.282 61.2119 84.6343 61.773 85.0519 62.2688L83.3425 63.7303Z" fill="#3788CC"/>
<path d="M93.1945 63.2344C92.9075 62.7212 92.9944 61.786 93.4555 60.4289C94.121 58.4455 96.4306 58.6282 97.1744 59.8939C97.9051 61.1597 97.6572 61.9426 96.5742 63.378C95.4911 64.8133 93.6512 63.8868 93.1945 63.2344Z" fill="#EEA886"/>
<path d="M100.085 98.2965L99.9806 99.2882C99.1367 99.4274 98.7105 99.4535 98.7018 99.3665C98.6931 99.2795 98.6496 98.9577 98.5713 98.4009C98.6757 98.3226 99.1802 98.2878 100.085 98.2965Z" fill="#EEA886"/>
<path d="M99.9797 99.2099C100.267 100.367 100.349 101.032 100.228 101.206C100.058 101.48 99.2881 101.376 97.6831 101.389C96.0781 101.402 96.5218 100.684 96.6783 100.528C96.9132 100.293 97.5135 100.215 97.9049 99.9928C98.1572 99.8449 98.4182 99.6014 98.6879 99.2621C99.2881 99.2969 99.7187 99.2795 99.9797 99.2099Z" fill="#414773"/>
<path d="M91.3541 98.2965L91.2497 99.2882C90.4146 99.4274 89.9927 99.4535 89.984 99.3665C89.9753 99.2795 89.9318 98.9577 89.8535 98.4009C89.9579 98.3226 90.4581 98.2878 91.3541 98.2965Z" fill="#EEA886"/>
<path d="M91.263 99.2099C91.5414 100.367 91.6241 101.032 91.511 101.206C91.3413 101.48 90.5715 101.337 88.9665 101.389C86.709 101.441 86.983 100.789 87.1527 100.619C87.3745 100.384 88.7968 100.215 89.1883 99.9928C89.4406 99.8449 89.7015 99.6014 89.9712 99.2621C90.5019 99.2795 90.9325 99.2621 91.263 99.2099Z" fill="#414773"/>
<path d="M98.1525 77.4967C98.5788 78.8364 98.7658 80.0847 98.7136 81.2417C98.6223 82.9641 99.0398 84.8562 99.2095 86.67C99.4052 88.6795 100.188 93.4423 100.214 94.5254C100.232 95.2387 100.192 96.7436 100.097 99.0402L98.5309 99.0794C97.6523 93.5206 97.0999 90.4585 96.8737 89.893C96.5345 89.0449 94.8512 82.9772 94.7859 82.2987C94.7511 81.8463 95.8733 80.2456 98.1525 77.4967Z" fill="#2D314F"/>
<path d="M98.1526 77.4965C97.6828 80.8631 95.9213 80.9022 95.1644 82.7291C94.3946 84.5429 93.2071 87.7659 93.2071 90.5192C93.2071 92.3547 92.6112 95.2081 91.4194 99.0792H89.6709C89.971 98.1005 90.2972 90.1016 90.3494 89.4362C90.4147 88.7707 90.493 84.7125 90.5974 83.6555C90.6757 82.9509 91.0323 80.8283 91.6674 77.2877C92.0936 76.5744 94.2554 76.644 98.1526 77.4965Z" fill="#2D314F"/>
<path d="M96.5738 63.378C96.3389 63.839 96.2606 64.3523 96.3389 64.9177C94.5382 65.083 93.703 65.0265 93.8335 64.7481C93.964 64.4784 93.964 64.1522 93.8335 63.7694C95.8952 63.0474 96.8087 62.9169 96.5738 63.378Z" fill="#EEA886"/>
<path d="M98.2702 77.9405C97.6265 78.6017 95.3951 78.5495 91.5762 77.7839L91.6675 77.2881L98.1658 77.536L98.2702 77.9405Z" fill="#2B3B57"/>
<path d="M95.4778 64.748C95.8345 64.8872 96.1781 64.9655 96.5087 64.9829C97.0045 64.9959 98.1267 65.1395 98.5573 65.1395C98.9879 65.1264 100.58 62.882 100.423 62.3731C100.31 62.0338 99.8448 60.6681 99.0271 58.2758C99.4185 57.8234 99.7535 57.7669 100.032 58.1062C100.436 58.6151 102.485 62.6863 102.42 63.2996C102.385 63.7084 101.419 65.2699 99.5229 67.9841H92.2026C91.4544 67.5056 90.5889 67.1011 89.6059 66.7706C88.1183 66.2878 86.6046 65.1264 86.435 64.9829C86.2654 64.8393 85.9783 63.6649 85.8739 63.143C85.7695 62.6602 85.5868 61.003 85.4433 60.3114C85.365 59.946 86.2654 59.672 86.3176 60.207C86.3698 60.729 87.3354 63.1952 87.3876 63.3257C87.4528 63.4692 89.1361 64.6175 89.5276 64.6567C89.919 64.6958 91.8502 65.1003 92.1373 65.0481C92.3287 65.0046 92.755 64.9524 93.4161 64.8915L95.4778 64.748Z" fill="#EEA886"/>
<path d="M88.7315 66.7967C88.6271 66.2922 88.8707 65.5397 89.4622 64.5393C90.9324 64.7481 91.7762 64.8394 91.9937 64.8133C92.1677 64.7959 92.7897 64.7263 93.8597 64.6045C94.7644 64.8742 95.3037 64.8916 95.4777 64.6567C95.4777 64.6698 97.8134 65.0874 98.1919 65.0352C98.4441 64.9917 98.9617 64.5132 99.7447 63.5998C100.232 63.6172 100.819 64.1696 101.506 65.257C101.415 65.6223 99.4315 68.4017 99.2749 68.7541C99.1053 69.0933 98.6225 71.677 98.5181 72.7339C98.4485 73.4386 98.3311 75.0392 98.1658 77.5359C97.2915 78.2144 91.5892 77.5359 91.6283 77.2488C91.6675 76.9617 91.9806 72.9558 91.811 72.4077C91.6544 71.8597 91.3282 70.2416 91.2499 69.2238C91.189 68.5366 90.8628 67.9972 90.2713 67.6058L88.7315 66.7967Z" fill="#FFC655"/>
<path d="M85.4566 60.4289C85.3914 60.0896 84.765 59.2153 84.5954 58.8891C84.4388 58.5629 84.3475 57.6364 84.3736 57.3102C84.3823 57.1014 84.4649 57.0405 84.6215 57.1275C84.578 57.0057 84.578 56.8796 84.6215 56.7491C84.6563 56.6099 84.7476 56.6317 84.8955 56.8144C84.8868 56.6578 84.926 56.5447 85.0129 56.4751C85.0912 56.4142 85.1913 56.549 85.3131 56.8796C85.3044 56.6882 85.3522 56.5795 85.4566 56.5534C85.6132 56.5012 85.7045 57.1536 85.7176 57.4016C85.7306 57.6495 85.9133 58.6542 86.0308 58.6803C86.1482 58.7195 86.3439 58.6542 86.644 58.3802C86.9442 58.0931 87.2834 58.2236 87.2834 58.315C87.2834 58.4194 86.9311 58.6151 86.905 58.6803C86.8789 58.7456 86.5397 59.1501 86.4092 59.3067C86.2439 59.4894 86.2308 59.8939 86.37 60.5202C85.8133 60.6855 85.5088 60.655 85.4566 60.4289Z" fill="#EEA886"/>
<path d="M99.2222 58.863C98.7699 58.0975 98.4697 57.6799 98.3218 57.6103C98.087 57.5059 97.7607 57.4537 97.4737 57.2449C97.1866 57.0492 96.8082 56.8796 96.8343 56.8013C96.8473 56.736 97.1866 56.7621 97.552 56.9187C97.9043 57.0753 98.0609 56.997 98.1 56.9187C98.1392 56.8404 97.9043 56.2663 97.7999 56.1227C97.6955 55.9923 96.9126 55.2093 97.0431 55.0919C97.1736 54.9745 97.6825 55.4051 97.7607 55.4964C97.4911 54.931 97.4084 54.6352 97.5128 54.6091C97.6172 54.583 97.7651 54.67 97.9565 54.8701C97.9391 54.3916 98.187 54.5395 98.7003 55.3137C98.5959 55.0614 98.622 54.9788 98.7786 55.0658C99.0134 55.1832 99.2483 55.914 99.3266 56.2793C99.4049 56.6577 99.7442 57.8191 100.031 58.1062C100.223 58.2975 99.9529 58.5498 99.2222 58.863Z" fill="#EEA886"/>
<path d="M96.5744 63.3779C96.3396 63.3953 95.9655 63.317 95.4522 63.143C94.6954 62.882 94.6302 61.551 94.4736 61.7076C94.1343 62.0338 93.8212 61.812 93.6907 61.6163C93.9342 61.2857 93.9995 61.0421 93.8864 60.8855C93.7733 60.729 93.6211 60.5941 93.4297 60.481C93.7951 58.7586 94.7911 58.2888 96.4179 59.0718C98.323 59.9939 98.3752 61.4293 96.5744 63.3779Z" fill="#353A3D"/>
<path d="M93.834 64.748L93.9123 64.3826C94.9562 64.3565 95.7609 64.387 96.3263 64.474L96.4176 64.9176C95.6869 65.2482 94.8257 65.1917 93.834 64.748Z" fill="#D4D8E8"/>
<path d="M94.2121 61.3813C94.3556 61.1464 94.8775 60.9898 94.9428 61.6553C94.995 62.1642 94.0033 62.7384 93.9902 62.2556C93.9902 61.7727 94.1207 61.5379 94.2121 61.3813Z" fill="#EEA886"/>
<path d="M86.3961 60.5724C86.1525 60.6072 85.8655 60.6986 85.5349 60.8465C85.4914 60.7682 85.4783 60.6768 85.4957 60.5724C85.6784 60.4072 85.9568 60.3202 86.3309 60.3115C86.3744 60.355 86.3961 60.442 86.3961 60.5724Z" fill="#E55353"/>
<path d="M85.9777 60.3246C86.1082 60.3767 86.1604 60.5072 86.1082 60.6377C86.056 60.7552 85.9125 60.8204 85.795 60.7682C85.6645 60.716 85.6123 60.5725 85.6645 60.442C85.7167 60.3246 85.8603 60.2724 85.9777 60.3246Z" fill="#353A3D"/>
<path d="M71.8596 40.4644C72.3902 41.3778 72.7687 41.9084 72.9948 42.0563C73.4646 42.3564 73.1775 42.6565 72.9557 42.6565C72.7339 42.6565 71.6117 42.7348 71.3768 42.4608C71.1289 42.1868 70.9984 41.3386 70.7766 41.1298C70.5417 40.908 70.3068 40.0337 70.8809 39.825C71.2202 39.7032 71.5464 39.9163 71.8596 40.4644Z" fill="#6069A8"/>
<path d="M71.5071 39.8641C72.1248 40.9341 72.4858 41.5474 72.5902 41.704C72.7468 41.9389 72.2901 41.9389 72.003 41.8214C71.7159 41.717 71.0113 40.5687 70.9069 40.3599C70.8286 40.1947 70.8199 40.0163 70.8808 39.825L71.5071 39.8641Z" fill="#202338"/>
<path d="M70.8681 41.1949L70.9073 42.3692L70.7898 42.3562L70.5811 40.7251L70.8681 41.1949Z" fill="#6069A8"/>
<path d="M63.8863 40.4642C64.4256 41.3776 64.8084 41.9083 65.0346 42.0562C65.4913 42.3563 65.2042 42.6564 64.9824 42.6564C64.7605 42.6564 63.6514 42.7347 63.4035 42.4607C63.1555 42.1866 63.0381 41.3385 62.8032 41.1297C62.5814 40.9079 62.3335 40.0075 62.9207 39.8248C63.2599 39.7117 63.5818 39.9249 63.8863 40.4642Z" fill="#6069A8"/>
<path d="M63.5867 39.8771C64.1695 40.9384 64.5131 41.5474 64.6175 41.704C64.7741 41.9389 64.3174 41.9389 64.0303 41.8214C63.7563 41.717 63.0386 40.5687 62.9342 40.3599C62.856 40.1947 62.8516 40.0163 62.9212 39.825L63.5867 39.8771Z" fill="#202338"/>
<path d="M62.8955 41.1949L62.9346 42.3692L62.8172 42.3562L62.6084 40.7251L62.8955 41.1949Z" fill="#6069A8"/>
<path d="M64.9957 26.9457C67.7272 28.0592 69.4279 28.8856 70.0977 29.425C70.2282 29.5294 70.3065 29.6207 70.3065 29.699C70.3196 29.8034 70.3457 30.1296 70.3848 30.6124C70.5675 32.8699 71.0895 38.5069 71.507 39.864C71.5418 40.0554 71.333 40.0423 70.8807 39.8249C69.4801 36.8497 68.6841 34.4227 68.4928 32.5436C68.4319 31.9434 68.1317 31.5563 67.5924 31.3823L60.3242 28.0679C61.3768 27.2676 62.934 26.8935 64.9957 26.9457Z" fill="#202338"/>
<path d="M59.8803 26.437C61.3331 26.8198 62.5205 27.1155 63.4427 27.3243C64.4735 27.5592 66.3134 28.5901 67.3834 29.2686C67.7488 29.4904 68.0097 29.6862 68.1402 29.7775C68.2577 29.8819 68.2707 30.1168 68.2316 30.4299C68.1272 31.3695 67.5008 32.9223 67.279 33.2093C66.6005 34.1053 65.3695 36.328 63.5862 39.8773C63.1773 39.9121 62.9555 39.8947 62.9207 39.8251C63.4949 37.7286 63.9037 36.0844 64.1473 34.8926C64.3735 33.7791 64.7867 32.5612 65.3869 31.239H61.9812C60.1109 31.3868 59.1018 30.804 58.9539 29.4904C58.806 28.1855 59.1148 27.1677 59.8803 26.437Z" fill="#202338"/>
<path d="M61.2641 14.3536C60.9248 13.7099 60.8378 13.0444 61.0031 12.3572C61.251 11.3263 62.2036 10.3085 63.6128 10.7783C65.0091 11.248 66.1313 12.3311 65.2961 13.5838C64.461 14.8364 66.053 15.4106 65.6485 16.0108C65.244 16.6111 65.4005 17.2244 65.5702 17.3679C65.7398 17.5114 66.3009 18.0073 66.2357 18.5945C66.1922 18.986 65.2874 18.4162 63.5215 16.8851C62.5559 14.9452 61.8034 14.1014 61.2641 14.3536Z" fill="#464240"/>
<path d="M65.531 26.6979C65.3918 27.3852 63.5084 27.2982 59.8809 26.437C61.0987 26.0368 62.9821 26.1238 65.531 26.6979Z" fill="#EB4747"/>
<path d="M60.9902 24.2055C61.1207 23.3443 60.8597 22.4439 60.6118 21.6349C60.1159 19.9907 60.39 19.3905 58.7197 19.1165C59.7767 17.1591 60.4422 17.133 62.5952 16.9634C63.2607 16.8982 63.6522 16.9504 64.2655 17.1591C66.1314 17.8246 66.3402 18.6728 66.9405 20.3822C66.549 20.3169 66.4837 20.3169 66.0923 20.2517C66.1706 21.5827 65.4398 22.4961 65.3746 23.8271C65.3094 24.8971 65.218 26.3324 65.5312 27.3763C63.5478 27.3154 61.56 27.2589 59.5679 27.2067C59.6549 27.0414 59.7419 26.8805 59.8289 26.7239C59.8289 25.954 60.8597 25.0406 60.9902 24.2055Z" fill="#325BB3"/>
<path d="M63.2729 17.5767C62.6813 17.4636 62.4508 17.2418 62.5813 16.9112C62.6074 16.7285 62.6248 16.5198 62.6335 16.2849C62.6422 16.1979 62.6465 16.1065 62.6465 16.0109C62.6465 15.8543 62.6335 15.7107 62.6204 15.5672C62.5682 15.1757 63.1032 15.0974 64.2254 15.3323C64.1645 16.1326 64.208 16.6546 64.3559 16.8982C64.5908 17.2505 64.1602 17.7463 63.2729 17.5767Z" fill="#EEA886"/>
<path d="M64.3311 16.9635C64.6442 18.164 64.5442 18.9947 64.0309 19.4558C63.596 19.1339 62.7826 18.2858 61.5908 16.9113C62.8435 16.6503 63.7569 16.6677 64.3311 16.9635Z" fill="#EEA886"/>
<path d="M63.9787 12.0179C65.2183 12.5138 64.592 14.1188 64.4745 14.4059C64.3571 14.6929 62.5564 17.12 61.6299 15.4237C61.0123 14.3015 61.0166 13.1445 61.643 11.9527C61.9039 11.4568 62.7521 11.5221 63.9787 12.0179Z" fill="#EEA886"/>
<path d="M61.9425 12.5789C61.5162 13.1444 61.277 13.6315 61.2248 14.0404C61.0595 13.2575 61.2161 12.4919 61.6945 11.7438C62.4122 10.6216 64.2391 11.6916 64.487 12.1353C64.7349 12.592 65.4526 12.9835 64.2391 14.9147C62.795 13.9143 62.0295 13.1357 61.9425 12.5789Z" fill="#464240"/>
<path d="M63.4307 15.6063C63.3264 15.8412 63.061 16.0674 62.6348 16.2849C62.6435 16.1979 62.6478 16.1065 62.6478 16.0108C62.9262 15.976 63.1872 15.8412 63.4307 15.6063Z" fill="#A77860"/>
<path d="M54.4002 25.7713C54.2697 25.867 54.1784 25.9235 54.1262 25.9409C54.0609 25.9801 53.8652 26.489 53.5129 26.7369C53.1475 26.9979 52.5212 26.0975 52.5734 25.967C52.6256 25.8235 53.1867 25.5103 53.0431 25.4581C52.8996 25.4059 52.2211 25.3015 52.208 25.1319C52.208 24.9623 52.6256 25.1189 52.7691 25.1189C52.8735 25.1189 53.1867 25.1319 53.3954 25.2232C53.5346 25.2841 53.7521 25.2493 54.0479 25.1189L54.4002 25.7713Z" fill="#EEA886"/>
<path d="M53.4866 26.75C53.1995 27.0893 53.0038 27.3372 52.8994 27.4938C52.7298 27.7287 52.6515 27.6243 52.6254 27.5721C52.5993 27.5199 52.8037 27.2024 53.2387 26.6195C52.5949 27.2981 52.247 27.6634 52.1948 27.7156C52.1165 27.7939 51.9991 27.7156 52.0121 27.6373C52.0121 27.5764 52.334 27.1676 52.9777 26.4107C52.247 27.1763 51.8599 27.5721 51.8164 27.5982C51.7642 27.6243 51.6598 27.5199 51.6859 27.4677C51.7033 27.4068 52.06 26.9675 52.7559 26.1498C52.1382 26.6282 51.7946 26.8935 51.725 26.9457C51.6206 27.024 51.5684 26.9718 51.5945 26.8544C51.6032 26.7761 51.9512 26.4499 52.6384 25.8757L53.4866 26.75Z" fill="#EEA886"/>
<path d="M65.0216 31.239H61.9812C60.1109 31.3868 59.1018 30.804 58.9539 29.4904C58.806 28.1855 59.1148 27.1677 59.8803 26.437C60.8634 26.698 61.7855 26.9329 62.6467 27.1416C63.2991 27.0112 64.0821 26.9198 64.9955 26.9459C68.6491 28.1464 70.4194 29.0685 70.3063 29.7123C68.784 28.8945 67.0224 29.4034 65.0216 31.239Z" fill="#FF7E55"/>
<path d="M63.0518 27.833L68.8585 27.7417L65.9225 29.2293L63.0518 27.833Z" fill="#5E5853"/>
<path d="M64.8524 27.0893C63.9825 27.4286 63.0125 27.446 61.9425 27.1415L61.8643 26.5413L65.1656 26.7239L64.8524 27.0893Z" fill="#325BB3"/>
<path d="M65.9225 29.2292L63.0518 28.1201V27.833L66.1443 28.9552L65.9225 29.2292Z" fill="#91887F"/>
<path d="M64.8259 27.3633C65.0739 24.0228 65.5436 18.8033 64.3301 16.9634C64.3475 16.9721 64.3692 16.9808 64.3953 16.9895C65.0347 17.3026 65.7524 17.7072 66.17 17.9551C66.3657 18.0725 66.4962 18.2422 66.5745 18.4509C66.718 18.8555 66.979 19.6123 67.2661 20.4344C67.7228 21.7392 68.2447 23.1876 68.4144 23.6705C69.032 24.6535 69.7236 26.0671 70.4891 27.9113L69.5626 27.6764L66.8224 24.0228C66.6789 23.5008 66.3135 22.5352 66.0264 21.7914C65.9742 21.9611 65.8698 22.1437 65.7133 22.3656C65.2696 22.9528 65.5697 26.3715 65.7133 27.2458C65.7263 27.3502 65.6611 27.4676 65.5697 27.5068L65.2304 27.6503C65.0347 27.7286 64.8129 27.5851 64.8259 27.3633Z" fill="#EDDAD3"/>
<path d="M62.4129 16.7808C63.422 18.3727 63.5655 20.23 62.8435 22.3526C62.5956 23.0833 62.2824 25.0015 62.0345 26.8805C62.0214 27.0501 61.9301 27.1806 61.8126 27.272C61.6691 27.3764 61.4734 27.4155 61.2907 27.3372L61.0297 27.2459L59.9206 26.8414C59.8814 26.8283 59.8423 26.7761 59.8292 26.7239C59.7901 26.6326 59.777 26.5021 59.8162 26.4369C60.1163 25.9019 60.6252 24.7927 60.7165 24.1142C60.834 23.2269 60.847 22.4309 60.6252 21.6871C60.6252 21.6697 60.6208 21.6523 60.6121 21.6349C60.299 20.591 59.9728 19.8733 59.9467 19.8211C59.6726 19.782 58.7592 21.7523 58.42 22.2221C58.0546 22.718 54.3096 25.9671 54.2704 25.941C54.1791 25.9019 53.5006 25.0928 53.5397 25.1189C53.6572 25.1842 55.9668 22.5353 56.7889 21.7915C57.2325 21.387 57.8328 20.1473 58.42 19.0643C58.9419 18.1117 59.9075 17.1722 60.299 17.12C60.5252 17.033 61.2298 16.9199 62.4129 16.7808Z" fill="#EDDAD3"/>
<path d="M65.9219 29.2293L67.6443 24.5187L73.2161 24.61L71.572 28.9553L65.9219 29.2293Z" fill="#6E6760"/>
<path d="M70.1624 26.2019C70.3972 26.3193 70.4494 26.6847 70.2798 27.024C70.1102 27.3632 69.7709 27.5459 69.5491 27.4285C69.3142 27.311 69.262 26.9457 69.4316 26.6064C69.6013 26.2671 69.9275 26.0844 70.1624 26.2019Z" fill="#807066"/>
<path d="M64.9435 15.6977C64.9827 16.5719 65.2698 17.0678 65.6873 17.6941C66.0918 18.3074 65.5829 19.4296 63.9779 18.7511C62.3599 18.0725 63.8083 16.7285 63.7431 16.2196C63.6648 15.7107 63.2603 15.241 63.5865 14.7582C63.804 14.445 63.7953 14.1014 63.5604 13.7273C64.6304 13.4402 64.9174 14.8103 64.9435 15.6977Z" fill="#464240"/>
<path d="M51.9082 7.07251H58.7588V12.0441V13.088L57.7149 12.0441H51.9082V7.07251Z" fill="#78C2FF"/>
<defs>
<linearGradient id="paint0_linear_265_14968" x1="25397.5" y1="13883.8" x2="58228.6" y2="13883.8" gradientUnits="userSpaceOnUse">
<stop stop-color="#314960"/>
<stop offset="1" stop-color="#213D5D"/>
</linearGradient>
<linearGradient id="paint1_linear_265_14968" x1="17871.4" y1="15313.3" x2="19960.6" y2="15313.3" gradientUnits="userSpaceOnUse">
<stop stop-color="#2B7CA5"/>
<stop offset="1" stop-color="#5BA446"/>
</linearGradient>
<linearGradient id="paint2_linear_265_14968" x1="22944.1" y1="16102.6" x2="26551.5" y2="16102.6" gradientUnits="userSpaceOnUse">
<stop stop-color="#2B7CA5"/>
<stop offset="1" stop-color="#5BA446"/>
</linearGradient>
<linearGradient id="paint3_linear_265_14968" x1="14315.1" y1="17332.3" x2="15802.3" y2="17332.3" gradientUnits="userSpaceOnUse">
<stop stop-color="#2B7CA5"/>
<stop offset="1" stop-color="#5BA446"/>
</linearGradient>
<linearGradient id="paint4_linear_265_14968" x1="4549.16" y1="16869.5" x2="4663.54" y2="16869.5" gradientUnits="userSpaceOnUse">
<stop stop-color="#2B7CA5"/>
<stop offset="1" stop-color="#5BA446"/>
</linearGradient>
<linearGradient id="paint5_linear_265_14968" x1="13510" y1="15452.8" x2="14720.9" y2="15452.8" gradientUnits="userSpaceOnUse">
<stop stop-color="#2B7CA5"/>
<stop offset="1" stop-color="#5BA446"/>
</linearGradient>
<linearGradient id="paint6_linear_265_14968" x1="5569.18" y1="10720.7" x2="5765.99" y2="10720.7" gradientUnits="userSpaceOnUse">
<stop stop-color="#2B7CA5"/>
<stop offset="1" stop-color="#5BA446"/>
</linearGradient>
<linearGradient id="paint7_linear_265_14968" x1="9843.37" y1="6617.27" x2="10533" y2="6617.27" gradientUnits="userSpaceOnUse">
<stop stop-color="#FF8E4C"/>
<stop offset="1" stop-color="#FFC95A"/>
</linearGradient>
<linearGradient id="paint8_linear_265_14968" x1="9843.37" y1="6617.27" x2="10533" y2="6617.27" gradientUnits="userSpaceOnUse">
<stop stop-color="#D27138"/>
<stop offset="1" stop-color="#FFC95A"/>
</linearGradient>
</defs>
</svg>
