<svg width="209" height="209" viewBox="0 0 209 209" fill="none" xmlns="http://www.w3.org/2000/svg">
<path d="M168.845 126.529C151.484 147.288 102.171 134.648 81.4112 117.287C60.6516 99.9263 57.8962 69.0238 75.2568 48.2643C92.6174 27.5047 123.52 24.7493 144.279 42.1099C165.039 59.4705 186.205 105.769 168.845 126.529Z" fill="url(#paint0_linear_1460_42999)"/>
<path d="M72.5678 182.606C54.5678 200.809 51.5677 174.606 46.5531 161.403C41.5384 148.2 9.19435 146.774 15.5674 132.106C21.9405 117.439 60.7636 107.285 76.5675 124.606C92.3714 141.928 90.5678 164.403 72.5678 182.606Z" fill="url(#paint1_linear_1460_42999)"/>
<defs>
<linearGradient id="paint0_linear_1460_42999" x1="153.485" y1="49.8081" x2="90.6165" y2="124.985" gradientUnits="userSpaceOnUse">
<stop stop-color="#104DBE"/>
<stop offset="1" stop-color="#3C50E0"/>
</linearGradient>
<linearGradient id="paint1_linear_1460_42999" x1="70.8559" y1="124.199" x2="37.0424" y2="164.632" gradientUnits="userSpaceOnUse">
<stop stop-color="#104DBE"/>
<stop offset="1" stop-color="#3C50E0"/>
</linearGradient>
</defs>
</svg>
