<svg width="15" height="17" viewBox="0 0 15 17" fill="none" xmlns="http://www.w3.org/2000/svg">
<path d="M4.08019 9.79245C3.84898 9.79245 3.65503 9.71411 3.49835 9.55743C3.34222 9.4013 3.26415 9.20763 3.26415 8.97642C3.26415 8.7452 3.34222 8.55126 3.49835 8.39458C3.65503 8.23845 3.84898 8.16038 4.08019 8.16038C4.3114 8.16038 4.50534 8.23845 4.66202 8.39458C4.81816 8.55126 4.89623 8.7452 4.89623 8.97642C4.89623 9.20763 4.81816 9.4013 4.66202 9.55743C4.50534 9.71411 4.3114 9.79245 4.08019 9.79245ZM7.34434 9.79245C7.11313 9.79245 6.91946 9.71411 6.76332 9.55743C6.60664 9.4013 6.5283 9.20763 6.5283 8.97642C6.5283 8.7452 6.60664 8.55126 6.76332 8.39458C6.91946 8.23845 7.11313 8.16038 7.34434 8.16038C7.57555 8.16038 7.7695 8.23845 7.92618 8.39458C8.08231 8.55126 8.16038 8.7452 8.16038 8.97642C8.16038 9.20763 8.08231 9.4013 7.92618 9.55743C7.7695 9.71411 7.57555 9.79245 7.34434 9.79245ZM10.6085 9.79245C10.3773 9.79245 10.1836 9.71411 10.0275 9.55743C9.87079 9.4013 9.79245 9.20763 9.79245 8.97642C9.79245 8.7452 9.87079 8.55126 10.0275 8.39458C10.1836 8.23845 10.3773 8.16038 10.6085 8.16038C10.8397 8.16038 11.0334 8.23845 11.1895 8.39458C11.3462 8.55126 11.4245 8.7452 11.4245 8.97642C11.4245 9.20763 11.3462 9.4013 11.1895 9.55743C11.0334 9.71411 10.8397 9.79245 10.6085 9.79245ZM1.63208 16.3208C1.18325 16.3208 0.798901 16.1611 0.479014 15.8417C0.159671 15.5219 0 15.1375 0 14.6887V3.26415C0 2.81533 0.159671 2.43125 0.479014 2.11191C0.798901 1.79202 1.18325 1.63208 1.63208 1.63208H2.44811V0.795637C2.44811 0.564426 2.52618 0.374017 2.68232 0.22441C2.839 0.0748035 3.03294 0 3.26415 0C3.49536 0 3.68931 0.0780676 3.84599 0.234203C4.00212 0.390882 4.08019 0.584827 4.08019 0.816038V1.63208H10.6085V0.795637C10.6085 0.564426 10.6868 0.374017 10.8435 0.22441C10.9996 0.0748035 11.1933 0 11.4245 0C11.6557 0 11.8494 0.0780676 12.0055 0.234203C12.1622 0.390882 12.2406 0.584827 12.2406 0.816038V1.63208H13.0566C13.5054 1.63208 13.8898 1.79202 14.2097 2.11191C14.529 2.43125 14.6887 2.81533 14.6887 3.26415V14.6887C14.6887 15.1375 14.529 15.5219 14.2097 15.8417C13.8898 16.1611 13.5054 16.3208 13.0566 16.3208H1.63208ZM1.63208 14.6887H13.0566V6.5283H1.63208V14.6887ZM1.63208 4.89623H13.0566V3.26415H1.63208V4.89623Z" fill="#2256AF"/>
</svg>
