<svg width="29" height="28" viewBox="0 0 29 28" fill="none" xmlns="http://www.w3.org/2000/svg">
<path d="M28.0655 25.1314L22.6775 19.9015C24.4159 17.7454 25.3592 15.0829 25.3557 12.342C25.3557 9.90099 24.6121 7.51479 23.2191 5.48516C21.826 3.45553 19.846 1.87362 17.5294 0.939485C15.2129 0.00534756 12.6638 -0.239065 10.2045 0.237154C7.74525 0.713373 5.48628 1.88883 3.71326 3.6149C1.94023 5.34096 0.732783 7.54009 0.243607 9.93421C-0.24557 12.3283 0.00549306 14.8099 0.965048 17.0651C1.9246 19.3203 3.54955 21.2479 5.63441 22.604C7.71927 23.9602 10.1704 24.684 12.6778 24.684C15.4933 24.6874 18.2283 23.7691 20.443 22.0768L25.8152 27.3221C25.9626 27.4667 26.1378 27.5815 26.3309 27.6598C26.524 27.7381 26.7312 27.7785 26.9404 27.7785C27.1496 27.7785 27.3567 27.7381 27.5498 27.6598C27.743 27.5815 27.9182 27.4667 28.0655 27.3221C28.2141 27.1787 28.332 27.0081 28.4124 26.8201C28.4929 26.6321 28.5343 26.4304 28.5343 26.2268C28.5343 26.0231 28.4929 25.8215 28.4124 25.6335C28.332 25.4455 28.2141 25.2748 28.0655 25.1314ZM3.16946 12.342C3.16946 10.5112 3.72712 8.7216 4.77191 7.19937C5.8167 5.67715 7.30171 4.49072 9.03914 3.79012C10.7766 3.08951 12.6884 2.9062 14.5328 3.26337C16.3773 3.62053 18.0715 4.50213 19.4013 5.79667C20.731 7.09122 21.6366 8.74057 22.0035 10.5362C22.3704 12.3317 22.1821 14.1929 21.4624 15.8843C20.7428 17.5757 19.524 19.0214 17.9604 20.0385C16.3968 21.0556 14.5584 21.5985 12.6778 21.5985C10.1561 21.5985 7.73756 20.6233 5.9544 18.8873C4.17123 17.1514 3.16946 14.797 3.16946 12.342Z" fill="#646464"/>
</svg>
