<svg width="12" height="13" viewBox="0 0 12 13" fill="none" xmlns="http://www.w3.org/2000/svg">
<path d="M3.26887 7.47126C3.09677 7.47126 2.95242 7.41295 2.8358 7.29633C2.71959 7.18012 2.66148 7.03596 2.66148 6.86387C2.66148 6.69178 2.71959 6.54742 2.8358 6.4308C2.95242 6.31459 3.09677 6.25648 3.26887 6.25648C3.44096 6.25648 3.58532 6.31459 3.70193 6.4308C3.81815 6.54742 3.87625 6.69178 3.87625 6.86387C3.87625 7.03596 3.81815 7.18012 3.70193 7.29633C3.58532 7.41295 3.44096 7.47126 3.26887 7.47126ZM5.69841 7.47126C5.52632 7.47126 5.38217 7.41295 5.26595 7.29633C5.14934 7.18012 5.09103 7.03596 5.09103 6.86387C5.09103 6.69178 5.14934 6.54742 5.26595 6.4308C5.38217 6.31459 5.52632 6.25648 5.69841 6.25648C5.87051 6.25648 6.01486 6.31459 6.13148 6.4308C6.24769 6.54742 6.3058 6.69178 6.3058 6.86387C6.3058 7.03596 6.24769 7.18012 6.13148 7.29633C6.01486 7.41295 5.87051 7.47126 5.69841 7.47126ZM8.12796 7.47126C7.95587 7.47126 7.81171 7.41295 7.6955 7.29633C7.57888 7.18012 7.52057 7.03596 7.52057 6.86387C7.52057 6.69178 7.57888 6.54742 7.6955 6.4308C7.81171 6.31459 7.95587 6.25648 8.12796 6.25648C8.30005 6.25648 8.44421 6.31459 8.56042 6.4308C8.67704 6.54742 8.73535 6.69178 8.73535 6.86387C8.73535 7.03596 8.67704 7.18012 8.56042 7.29633C8.44421 7.41295 8.30005 7.47126 8.12796 7.47126ZM1.44671 12.3304C1.11264 12.3304 0.826565 12.2115 0.58847 11.9738C0.350779 11.7357 0.231934 11.4496 0.231934 11.1156V2.61216C0.231934 2.2781 0.350779 1.99222 0.58847 1.75453C0.826565 1.51644 1.11264 1.39739 1.44671 1.39739H2.05409V0.774819C2.05409 0.602726 2.1122 0.461003 2.22841 0.349649C2.34503 0.238294 2.48939 0.182617 2.66148 0.182617C2.83357 0.182617 2.97793 0.240724 3.09455 0.356937C3.21076 0.473555 3.26887 0.617911 3.26887 0.790004V1.39739H8.12796V0.774819C8.12796 0.602726 8.18627 0.461003 8.30289 0.349649C8.4191 0.238294 8.56325 0.182617 8.73535 0.182617C8.90744 0.182617 9.05159 0.240724 9.16781 0.356937C9.28442 0.473555 9.34273 0.617911 9.34273 0.790004V1.39739H9.95012C10.2842 1.39739 10.5703 1.51644 10.8084 1.75453C11.046 1.99222 11.1649 2.2781 11.1649 2.61216V11.1156C11.1649 11.4496 11.046 11.7357 10.8084 11.9738C10.5703 12.2115 10.2842 12.3304 9.95012 12.3304H1.44671ZM1.44671 11.1156H9.95012V5.04171H1.44671V11.1156ZM1.44671 3.82694H9.95012V2.61216H1.44671V3.82694Z" fill="#2256AF"/>
</svg>
